{
  "header": {
    "PPQ": 960,
    "timeSignature": [
      4,
      4
    ],
    "bpm": 136.00045333484445,
    "name": "Water"
  },
  "tempo": [
    {
      "absoluteTime": 2880,
      "seconds": 1.323525,
      "bpm": 136.00045333484445
    }
  ],
  "timeSignature": [
    {
      "absoluteTime": 0,
      "seconds": 0,
      "numerator": 4,
      "denominator": 2,
      "click": 24,
      "notesQ": 8
    },
    {
      "absoluteTime": 138240,
      "seconds": 63.5292,
      "numerator": 33,
      "denominator": 5,
      "click": 3,
      "notesQ": 8
    },
    {
      "absoluteTime": 142200,
      "seconds": 65.349046875,
      "numerator": 4,
      "denominator": 2,
      "click": 24,
      "notesQ": 8
    },
    {
      "absoluteTime": 357240,
      "seconds": 164.17224687499998,
      "numerator": 33,
      "denominator": 5,
      "click": 3,
      "notesQ": 8
    },
    {
      "absoluteTime": 361200,
      "seconds": 165.99209374999998,
      "numerator": 4,
      "denominator": 2,
      "click": 24,
      "notesQ": 8
    }
  ],
  "startTime": 0,
  "duration": 204.815493750001,
  "tracks": [
    {
      "startTime": 0,
      "duration": 0,
      "length": 0,
      "notes": [],
      "controlChanges": {},
      "id": 0,
      "name": "Water"
    },
    {
      "startTime": 1.323525,
      "duration": 204.815493750001,
      "length": 2232,
      "notes": [
        {
          "name": "G5",
          "midi": 79,
          "time": 1.323525,
          "velocity": 0.4251968503937008,
          "duration": 0.22058749999999994
        },
        {
          "name": "A5",
          "midi": 81,
          "time": 1.5441125,
          "velocity": 0.49606299212598426,
          "duration": 0.22058749999999994
        },
        {
          "name": "A#5",
          "midi": 82,
          "time": 1.7647,
          "velocity": 0.4881889763779528,
          "duration": 0.22058749999999994
        },
        {
          "name": "D5",
          "midi": 74,
          "time": 1.9852874999999999,
          "velocity": 0.4330708661417323,
          "duration": 0.22058749999999994
        },
        {
          "name": "A#4",
          "midi": 70,
          "time": 1.9852874999999999,
          "velocity": 0.4251968503937008,
          "duration": 0.4411750000000001
        },
        {
          "name": "G5",
          "midi": 79,
          "time": 2.205875,
          "velocity": 0.49606299212598426,
          "duration": 0.22058750000000016
        },
        {
          "name": "A#5",
          "midi": 82,
          "time": 2.4264625,
          "velocity": 0.49606299212598426,
          "duration": 0.22058750000000016
        },
        {
          "name": "G4",
          "midi": 67,
          "time": 2.4264625,
          "velocity": 0.4409448818897638,
          "duration": 0.22058750000000016
        },
        {
          "name": "A5",
          "midi": 81,
          "time": 2.64705,
          "velocity": 0.47244094488188976,
          "duration": 0.22058750000000016
        },
        {
          "name": "F#4",
          "midi": 66,
          "time": 2.64705,
          "velocity": 0.47244094488188976,
          "duration": 0.22058750000000016
        },
        {
          "name": "D5",
          "midi": 74,
          "time": 2.8676375000000003,
          "velocity": 0.4251968503937008,
          "duration": 0.22058750000000016
        },
        {
          "name": "A4",
          "midi": 69,
          "time": 2.8676375000000003,
          "velocity": 0.4881889763779528,
          "duration": 0.4411750000000003
        },
        {
          "name": "D6",
          "midi": 86,
          "time": 3.0882250000000004,
          "velocity": 0.5511811023622047,
          "duration": 0.22058750000000016
        },
        {
          "name": "C6",
          "midi": 84,
          "time": 3.3088125000000006,
          "velocity": 0.4645669291338583,
          "duration": 0.22058750000000016
        },
        {
          "name": "F#4",
          "midi": 66,
          "time": 3.3088125000000006,
          "velocity": 0.4566929133858268,
          "duration": 0.22058750000000016
        },
        {
          "name": "A#5",
          "midi": 82,
          "time": 3.5294000000000008,
          "velocity": 0.5354330708661418,
          "duration": 0.22058750000000016
        },
        {
          "name": "F4",
          "midi": 65,
          "time": 3.5294000000000008,
          "velocity": 0.47244094488188976,
          "duration": 0.22058750000000016
        },
        {
          "name": "F5",
          "midi": 77,
          "time": 3.749987500000001,
          "velocity": 0.5275590551181102,
          "duration": 0.22058750000000016
        },
        {
          "name": "A#4",
          "midi": 70,
          "time": 3.749987500000001,
          "velocity": 0.5275590551181102,
          "duration": 0.22058750000000016
        },
        {
          "name": "D6",
          "midi": 86,
          "time": 3.970575000000001,
          "velocity": 0.6062992125984252,
          "duration": 0.22058749999999971
        },
        {
          "name": "D5",
          "midi": 74,
          "time": 3.970575000000001,
          "velocity": 0.5118110236220472,
          "duration": 0.22058749999999971
        },
        {
          "name": "A#5",
          "midi": 82,
          "time": 4.191162500000001,
          "velocity": 0.5196850393700787,
          "duration": 0.12775692708333342
        },
        {
          "name": "A#4",
          "midi": 70,
          "time": 4.191162500000001,
          "velocity": 0.44881889763779526,
          "duration": 0.22058749999999971
        },
        {
          "name": "C6",
          "midi": 84,
          "time": 4.318919427083334,
          "velocity": 0.5433070866141733,
          "duration": 0.0928305729166663
        },
        {
          "name": "D6",
          "midi": 86,
          "time": 4.365334713541667,
          "velocity": 0.5433070866141733,
          "duration": 0.04641528645833315
        },
        {
          "name": "C6",
          "midi": 84,
          "time": 4.4117500000000005,
          "velocity": 0.5433070866141733,
          "duration": 0.44117499999999943
        },
        {
          "name": "E4",
          "midi": 64,
          "time": 4.4117500000000005,
          "velocity": 0.4566929133858268,
          "duration": 0.22058749999999971
        },
        {
          "name": "G4",
          "midi": 67,
          "time": 4.6323375,
          "velocity": 0.5039370078740157,
          "duration": 0.22058749999999971
        },
        {
          "name": "G5",
          "midi": 79,
          "time": 4.852925,
          "velocity": 0.5039370078740157,
          "duration": 0.22058749999999971
        },
        {
          "name": "C5",
          "midi": 72,
          "time": 4.852925,
          "velocity": 0.5118110236220472,
          "duration": 0.22058749999999971
        },
        {
          "name": "A5",
          "midi": 81,
          "time": 5.0735125,
          "velocity": 0.5748031496062992,
          "duration": 0.22058749999999971
        },
        {
          "name": "G4",
          "midi": 67,
          "time": 5.0735125,
          "velocity": 0.4409448818897638,
          "duration": 0.22058749999999971
        },
        {
          "name": "A#5",
          "midi": 82,
          "time": 5.294099999999999,
          "velocity": 0.5826771653543307,
          "duration": 0.22058749999999971
        },
        {
          "name": "D#4",
          "midi": 63,
          "time": 5.294099999999999,
          "velocity": 0.4409448818897638,
          "duration": 0.22058749999999971
        },
        {
          "name": "D#5",
          "midi": 75,
          "time": 5.514687499999999,
          "velocity": 0.5196850393700787,
          "duration": 0.22058749999999971
        },
        {
          "name": "G4",
          "midi": 67,
          "time": 5.514687499999999,
          "velocity": 0.49606299212598426,
          "duration": 0.22058749999999971
        },
        {
          "name": "G5",
          "midi": 79,
          "time": 5.735274999999999,
          "velocity": 0.5748031496062992,
          "duration": 0.22058749999999971
        },
        {
          "name": "A#4",
          "midi": 70,
          "time": 5.735274999999999,
          "velocity": 0.49606299212598426,
          "duration": 0.22058749999999971
        },
        {
          "name": "A#5",
          "midi": 82,
          "time": 5.9558624999999985,
          "velocity": 0.5905511811023622,
          "duration": 0.22058749999999971
        },
        {
          "name": "G4",
          "midi": 67,
          "time": 5.9558624999999985,
          "velocity": 0.4566929133858268,
          "duration": 0.22058749999999971
        },
        {
          "name": "A5",
          "midi": 81,
          "time": 6.176449999999998,
          "velocity": 0.5511811023622047,
          "duration": 0.22058749999999971
        },
        {
          "name": "F4",
          "midi": 65,
          "time": 6.176449999999998,
          "velocity": 0.47244094488188976,
          "duration": 0.22058749999999971
        },
        {
          "name": "C6",
          "midi": 84,
          "time": 6.397037499999998,
          "velocity": 0.5669291338582677,
          "duration": 0.22058749999999971
        },
        {
          "name": "A4",
          "midi": 69,
          "time": 6.397037499999998,
          "velocity": 0.49606299212598426,
          "duration": 0.22058749999999971
        },
        {
          "name": "F6",
          "midi": 89,
          "time": 6.617624999999998,
          "velocity": 0.6062992125984252,
          "duration": 0.22058749999999971
        },
        {
          "name": "C5",
          "midi": 72,
          "time": 6.617624999999998,
          "velocity": 0.5039370078740157,
          "duration": 0.22058749999999971
        },
        {
          "name": "C6",
          "midi": 84,
          "time": 6.838212499999997,
          "velocity": 0.5354330708661418,
          "duration": 0.22058749999999971
        },
        {
          "name": "A4",
          "midi": 69,
          "time": 6.838212499999997,
          "velocity": 0.4330708661417323,
          "duration": 0.22058749999999971
        },
        {
          "name": "D#6",
          "midi": 87,
          "time": 7.058799999999997,
          "velocity": 0.5748031496062992,
          "duration": 0.6617624999999991
        },
        {
          "name": "A#4",
          "midi": 70,
          "time": 7.058799999999997,
          "velocity": 0.48031496062992124,
          "duration": 0.22058749999999971
        },
        {
          "name": "D5",
          "midi": 74,
          "time": 7.279387499999997,
          "velocity": 0.4881889763779528,
          "duration": 0.22058749999999971
        },
        {
          "name": "F5",
          "midi": 77,
          "time": 7.4999749999999965,
          "velocity": 0.5039370078740157,
          "duration": 0.22058749999999971
        },
        {
          "name": "D6",
          "midi": 86,
          "time": 7.720562499999996,
          "velocity": 0.5590551181102362,
          "duration": 0.1102937500000003
        },
        {
          "name": "D5",
          "midi": 74,
          "time": 7.720562499999996,
          "velocity": 0.4566929133858268,
          "duration": 0.22058749999999971
        },
        {
          "name": "C#6",
          "midi": 85,
          "time": 7.8308562499999965,
          "velocity": 0.5354330708661418,
          "duration": 0.11029374999999941
        },
        {
          "name": "D6",
          "midi": 86,
          "time": 7.941149999999996,
          "velocity": 0.5590551181102362,
          "duration": 0.8823500000000015
        },
        {
          "name": "G4",
          "midi": 67,
          "time": 7.941149999999996,
          "velocity": 0.4330708661417323,
          "duration": 0.22058749999999971
        },
        {
          "name": "B4",
          "midi": 71,
          "time": 8.161737499999996,
          "velocity": 0.5118110236220472,
          "duration": 0.2205875000000006
        },
        {
          "name": "C#5",
          "midi": 73,
          "time": 8.382324999999996,
          "velocity": 0.5039370078740157,
          "duration": 0.2205875000000006
        },
        {
          "name": "D5",
          "midi": 74,
          "time": 8.382324999999996,
          "velocity": 0.5039370078740157,
          "duration": 0.2205875000000006
        },
        {
          "name": "B4",
          "midi": 71,
          "time": 8.602912499999997,
          "velocity": 0.44881889763779526,
          "duration": 0.2205875000000006
        },
        {
          "name": "D#5",
          "midi": 75,
          "time": 8.823499999999997,
          "velocity": 0.4566929133858268,
          "duration": 0.2205875000000006
        },
        {
          "name": "C4",
          "midi": 60,
          "time": 8.823499999999997,
          "velocity": 0.4251968503937008,
          "duration": 0.4411750000000012
        },
        {
          "name": "G5",
          "midi": 79,
          "time": 9.044087499999998,
          "velocity": 0.5905511811023622,
          "duration": 0.2205875000000006
        },
        {
          "name": "D6",
          "midi": 86,
          "time": 9.264674999999999,
          "velocity": 0.6141732283464567,
          "duration": 0.2205875000000006
        },
        {
          "name": "G4",
          "midi": 67,
          "time": 9.264674999999999,
          "velocity": 0.5118110236220472,
          "duration": 0.2205875000000006
        },
        {
          "name": "C6",
          "midi": 84,
          "time": 9.4852625,
          "velocity": 0.5511811023622047,
          "duration": 0.2205875000000006
        },
        {
          "name": "D#4",
          "midi": 63,
          "time": 9.4852625,
          "velocity": 0.44881889763779526,
          "duration": 0.2205875000000006
        },
        {
          "name": "A#5",
          "midi": 82,
          "time": 9.70585,
          "velocity": 0.5354330708661418,
          "duration": 0.2205875000000006
        },
        {
          "name": "F4",
          "midi": 65,
          "time": 9.70585,
          "velocity": 0.49606299212598426,
          "duration": 0.2205875000000006
        },
        {
          "name": "A5",
          "midi": 81,
          "time": 9.9264375,
          "velocity": 0.5433070866141733,
          "duration": 0.2205875000000006
        },
        {
          "name": "C5",
          "midi": 72,
          "time": 9.9264375,
          "velocity": 0.5275590551181102,
          "duration": 0.2205875000000006
        },
        {
          "name": "A#5",
          "midi": 82,
          "time": 10.147025000000001,
          "velocity": 0.5748031496062992,
          "duration": 0.2205875000000006
        },
        {
          "name": "F5",
          "midi": 77,
          "time": 10.147025000000001,
          "velocity": 0.5118110236220472,
          "duration": 0.2205875000000006
        },
        {
          "name": "C6",
          "midi": 84,
          "time": 10.367612500000002,
          "velocity": 0.5905511811023622,
          "duration": 0.2205875000000006
        },
        {
          "name": "C5",
          "midi": 72,
          "time": 10.367612500000002,
          "velocity": 0.4566929133858268,
          "duration": 0.2205875000000006
        },
        {
          "name": "D6",
          "midi": 86,
          "time": 10.588200000000002,
          "velocity": 0.5748031496062992,
          "duration": 0.4411750000000012
        },
        {
          "name": "A#4",
          "midi": 70,
          "time": 10.588200000000002,
          "velocity": 0.48031496062992124,
          "duration": 0.2205875000000006
        },
        {
          "name": "D5",
          "midi": 74,
          "time": 10.808787500000003,
          "velocity": 0.5118110236220472,
          "duration": 0.2205875000000006
        },
        {
          "name": "D#6",
          "midi": 87,
          "time": 11.029375000000003,
          "velocity": 0.5590551181102362,
          "duration": 0.2205875000000006
        },
        {
          "name": "A4",
          "midi": 69,
          "time": 11.029375000000003,
          "velocity": 0.4566929133858268,
          "duration": 0.2205875000000006
        },
        {
          "name": "F6",
          "midi": 89,
          "time": 11.249962500000004,
          "velocity": 0.5669291338582677,
          "duration": 0.2205875000000006
        },
        {
          "name": "D5",
          "midi": 74,
          "time": 11.249962500000004,
          "velocity": 0.5118110236220472,
          "duration": 0.2205875000000006
        },
        {
          "name": "A#5",
          "midi": 82,
          "time": 11.470550000000005,
          "velocity": 0.49606299212598426,
          "duration": 0.4411750000000012
        },
        {
          "name": "G4",
          "midi": 67,
          "time": 11.470550000000005,
          "velocity": 0.4409448818897638,
          "duration": 0.2205875000000006
        },
        {
          "name": "D5",
          "midi": 74,
          "time": 11.691137500000005,
          "velocity": 0.5196850393700787,
          "duration": 0.2205875000000006
        },
        {
          "name": "G5",
          "midi": 79,
          "time": 11.911725000000006,
          "velocity": 0.5354330708661418,
          "duration": 0.2205875000000006
        },
        {
          "name": "F4",
          "midi": 65,
          "time": 11.911725000000006,
          "velocity": 0.4566929133858268,
          "duration": 0.2205875000000006
        },
        {
          "name": "A5",
          "midi": 81,
          "time": 12.132312500000006,
          "velocity": 0.5984251968503937,
          "duration": 0.2205875000000006
        },
        {
          "name": "D5",
          "midi": 74,
          "time": 12.132312500000006,
          "velocity": 0.5275590551181102,
          "duration": 0.2205875000000006
        },
        {
          "name": "A#5",
          "midi": 82,
          "time": 12.352900000000007,
          "velocity": 0.5669291338582677,
          "duration": 0.2205875000000006
        },
        {
          "name": "D#4",
          "midi": 63,
          "time": 12.352900000000007,
          "velocity": 0.4251968503937008,
          "duration": 0.2205875000000006
        },
        {
          "name": "D5",
          "midi": 74,
          "time": 12.573487500000008,
          "velocity": 0.5039370078740157,
          "duration": 0.2205875000000006
        },
        {
          "name": "G4",
          "midi": 67,
          "time": 12.573487500000008,
          "velocity": 0.5039370078740157,
          "duration": 0.2205875000000006
        },
        {
          "name": "D#5",
          "midi": 75,
          "time": 12.794075000000008,
          "velocity": 0.5748031496062992,
          "duration": 0.2205875000000006
        },
        {
          "name": "A#4",
          "midi": 70,
          "time": 12.794075000000008,
          "velocity": 0.49606299212598426,
          "duration": 0.2205875000000006
        },
        {
          "name": "D6",
          "midi": 86,
          "time": 13.014662500000009,
          "velocity": 0.6141732283464567,
          "duration": 0.2205875000000006
        },
        {
          "name": "D#4",
          "midi": 63,
          "time": 13.014662500000009,
          "velocity": 0.4566929133858268,
          "duration": 0.2205875000000006
        },
        {
          "name": "C6",
          "midi": 84,
          "time": 13.23525000000001,
          "velocity": 0.5354330708661418,
          "duration": 0.2205875000000006
        },
        {
          "name": "D4",
          "midi": 62,
          "time": 13.23525000000001,
          "velocity": 0.44881889763779526,
          "duration": 0.2205875000000006
        },
        {
          "name": "D5",
          "midi": 74,
          "time": 13.45583750000001,
          "velocity": 0.4881889763779528,
          "duration": 0.2205875000000006
        },
        {
          "name": "F4",
          "midi": 65,
          "time": 13.45583750000001,
          "velocity": 0.5039370078740157,
          "duration": 0.2205875000000006
        },
        {
          "name": "F5",
          "midi": 77,
          "time": 13.67642500000001,
          "velocity": 0.5590551181102362,
          "duration": 0.2205875000000006
        },
        {
          "name": "A4",
          "midi": 69,
          "time": 13.67642500000001,
          "velocity": 0.5118110236220472,
          "duration": 0.2205875000000006
        },
        {
          "name": "C6",
          "midi": 84,
          "time": 13.897012500000011,
          "velocity": 0.6062992125984252,
          "duration": 0.2205875000000006
        },
        {
          "name": "F4",
          "midi": 65,
          "time": 13.897012500000011,
          "velocity": 0.44881889763779526,
          "duration": 0.2205875000000006
        },
        {
          "name": "A#5",
          "midi": 82,
          "time": 14.117600000000012,
          "velocity": 0.5511811023622047,
          "duration": 0.6617625000000018
        },
        {
          "name": "C4",
          "midi": 60,
          "time": 14.117600000000012,
          "velocity": 0.44881889763779526,
          "duration": 0.2205875000000006
        },
        {
          "name": "E4",
          "midi": 64,
          "time": 14.338187500000013,
          "velocity": 0.5196850393700787,
          "duration": 0.2205875000000006
        },
        {
          "name": "G4",
          "midi": 67,
          "time": 14.558775000000013,
          "velocity": 0.49606299212598426,
          "duration": 0.2205875000000006
        },
        {
          "name": "A5",
          "midi": 81,
          "time": 14.779362500000014,
          "velocity": 0.5354330708661418,
          "duration": 0.1102937500000003
        },
        {
          "name": "E4",
          "midi": 64,
          "time": 14.779362500000014,
          "velocity": 0.48031496062992124,
          "duration": 0.2205875000000006
        },
        {
          "name": "A#5",
          "midi": 82,
          "time": 14.889656250000014,
          "velocity": 0.5748031496062992,
          "duration": 0.1102937500000003
        },
        {
          "name": "G5",
          "midi": 79,
          "time": 14.999950000000014,
          "velocity": 0.5275590551181102,
          "duration": 0.4411750000000012
        },
        {
          "name": "C4",
          "midi": 60,
          "time": 14.999950000000014,
          "velocity": 0.4409448818897638,
          "duration": 0.2205875000000006
        },
        {
          "name": "E4",
          "midi": 64,
          "time": 15.220537500000015,
          "velocity": 0.5196850393700787,
          "duration": 0.2205875000000006
        },
        {
          "name": "G5",
          "midi": 79,
          "time": 15.441125000000016,
          "velocity": 0.5669291338582677,
          "duration": 0.2205875000000006
        },
        {
          "name": "G3",
          "midi": 55,
          "time": 15.441125000000016,
          "velocity": 0.5118110236220472,
          "duration": 0.2205875000000006
        },
        {
          "name": "G4",
          "midi": 67,
          "time": 15.441125000000016,
          "velocity": 0.5118110236220472,
          "duration": 0.2205875000000006
        },
        {
          "name": "A5",
          "midi": 81,
          "time": 15.661712500000016,
          "velocity": 0.5669291338582677,
          "duration": 0.2205875000000006
        },
        {
          "name": "E4",
          "midi": 64,
          "time": 15.661712500000016,
          "velocity": 0.44881889763779526,
          "duration": 0.2205875000000006
        },
        {
          "name": "A#5",
          "midi": 82,
          "time": 15.882300000000017,
          "velocity": 0.5748031496062992,
          "duration": 0.22058749999999883
        },
        {
          "name": "C4",
          "midi": 60,
          "time": 15.882300000000017,
          "velocity": 0.4566929133858268,
          "duration": 0.22058749999999883
        },
        {
          "name": "D5",
          "midi": 74,
          "time": 16.102887500000016,
          "velocity": 0.5196850393700787,
          "duration": 0.2205875000000006
        },
        {
          "name": "D#4",
          "midi": 63,
          "time": 16.102887500000016,
          "velocity": 0.5196850393700787,
          "duration": 0.2205875000000006
        },
        {
          "name": "D#5",
          "midi": 75,
          "time": 16.323475000000016,
          "velocity": 0.5826771653543307,
          "duration": 0.2205875000000006
        },
        {
          "name": "G4",
          "midi": 67,
          "time": 16.323475000000016,
          "velocity": 0.5039370078740157,
          "duration": 0.2205875000000006
        },
        {
          "name": "D6",
          "midi": 86,
          "time": 16.544062500000017,
          "velocity": 0.6299212598425197,
          "duration": 0.22058749999999705
        },
        {
          "name": "D#4",
          "midi": 63,
          "time": 16.544062500000017,
          "velocity": 0.44881889763779526,
          "duration": 0.22058749999999705
        },
        {
          "name": "C6",
          "midi": 84,
          "time": 16.764650000000014,
          "velocity": 0.5433070866141733,
          "duration": 0.2205875000000006
        },
        {
          "name": "D4",
          "midi": 62,
          "time": 16.764650000000014,
          "velocity": 0.4409448818897638,
          "duration": 0.2205875000000006
        },
        {
          "name": "D5",
          "midi": 74,
          "time": 16.985237500000014,
          "velocity": 0.4881889763779528,
          "duration": 0.2205875000000006
        },
        {
          "name": "F4",
          "midi": 65,
          "time": 16.985237500000014,
          "velocity": 0.4566929133858268,
          "duration": 0.2205875000000006
        },
        {
          "name": "F5",
          "midi": 77,
          "time": 17.205825000000015,
          "velocity": 0.5826771653543307,
          "duration": 0.2205875000000006
        },
        {
          "name": "A4",
          "midi": 69,
          "time": 17.205825000000015,
          "velocity": 0.4566929133858268,
          "duration": 0.2205875000000006
        },
        {
          "name": "C6",
          "midi": 84,
          "time": 17.426412500000016,
          "velocity": 0.5984251968503937,
          "duration": 0.22058749999999705
        },
        {
          "name": "F4",
          "midi": 65,
          "time": 17.426412500000016,
          "velocity": 0.4094488188976378,
          "duration": 0.22058749999999705
        },
        {
          "name": "A#5",
          "midi": 82,
          "time": 17.647000000000013,
          "velocity": 0.5433070866141733,
          "duration": 0.4499065885416691
        },
        {
          "name": "D#4",
          "midi": 63,
          "time": 17.647000000000013,
          "velocity": 0.4094488188976378,
          "duration": 0.2205875000000006
        },
        {
          "name": "G4",
          "midi": 67,
          "time": 17.867587500000013,
          "velocity": 0.4409448818897638,
          "duration": 0.2205875000000006
        },
        {
          "name": "A#4",
          "midi": 70,
          "time": 18.088175000000014,
          "velocity": 0.4251968503937008,
          "duration": 0.2205875000000006
        },
        {
          "name": "A5",
          "midi": 81,
          "time": 18.198468750000014,
          "velocity": 0.5039370078740157,
          "duration": 0.11213197916666573
        },
        {
          "name": "A#5",
          "midi": 82,
          "time": 18.308762500000014,
          "velocity": 0.5039370078740157,
          "duration": 0.11213197916666573
        },
        {
          "name": "G4",
          "midi": 67,
          "time": 18.308762500000014,
          "velocity": 0.4094488188976378,
          "duration": 0.22058749999999705
        },
        {
          "name": "C6",
          "midi": 84,
          "time": 18.419056250000015,
          "velocity": 0.5826771653543307,
          "duration": 0.11213197916666218
        },
        {
          "name": "D6",
          "midi": 86,
          "time": 18.52935000000001,
          "velocity": 0.6062992125984252,
          "duration": 0.8377729427083302
        },
        {
          "name": "D#4",
          "midi": 63,
          "time": 18.52935000000001,
          "velocity": 0.3858267716535433,
          "duration": 0.22058749999999705
        },
        {
          "name": "G4",
          "midi": 67,
          "time": 18.74993750000001,
          "velocity": 0.4094488188976378,
          "duration": 0.2205875000000006
        },
        {
          "name": "A#4",
          "midi": 70,
          "time": 18.97052500000001,
          "velocity": 0.3779527559055118,
          "duration": 0.2205875000000006
        },
        {
          "name": "G4",
          "midi": 67,
          "time": 19.19111250000001,
          "velocity": 0.3543307086614173,
          "duration": 0.22058749999999705
        },
        {
          "name": "G5",
          "midi": 79,
          "time": 19.411700000000007,
          "velocity": 0.5354330708661418,
          "duration": 0.8823499999999989
        },
        {
          "name": "D#4",
          "midi": 63,
          "time": 19.411700000000007,
          "velocity": 0.3543307086614173,
          "duration": 0.2205875000000006
        },
        {
          "name": "G4",
          "midi": 67,
          "time": 19.632287500000007,
          "velocity": 0.3779527559055118,
          "duration": 0.2205875000000006
        },
        {
          "name": "A#4",
          "midi": 70,
          "time": 19.852875000000008,
          "velocity": 0.3700787401574803,
          "duration": 0.2205875000000006
        },
        {
          "name": "G4",
          "midi": 67,
          "time": 20.07346250000001,
          "velocity": 0.3464566929133858,
          "duration": 0.22058749999999705
        },
        {
          "name": "G5",
          "midi": 79,
          "time": 20.294050000000006,
          "velocity": 0.4881889763779528,
          "duration": 0.8377729427083338
        },
        {
          "name": "A5",
          "midi": 81,
          "time": 20.294050000000006,
          "velocity": 0.4881889763779528,
          "duration": 0.8377729427083338
        },
        {
          "name": "D#4",
          "midi": 63,
          "time": 20.294050000000006,
          "velocity": 0.30708661417322836,
          "duration": 0.2205875000000006
        },
        {
          "name": "G4",
          "midi": 67,
          "time": 20.514637500000006,
          "velocity": 0.3543307086614173,
          "duration": 0.2205875000000006
        },
        {
          "name": "A#4",
          "midi": 70,
          "time": 20.735225000000007,
          "velocity": 0.3464566929133858,
          "duration": 0.2205875000000006
        },
        {
          "name": "G4",
          "midi": 67,
          "time": 20.955812500000008,
          "velocity": 0.31496062992125984,
          "duration": 0.22058749999999705
        },
        {
          "name": "A#4",
          "midi": 70,
          "time": 21.176400000000005,
          "velocity": 0.48031496062992124,
          "duration": 0.4411750000000012
        },
        {
          "name": "G4",
          "midi": 67,
          "time": 21.176400000000005,
          "velocity": 0.4409448818897638,
          "duration": 0.2205875000000006
        },
        {
          "name": "G2",
          "midi": 43,
          "time": 21.176400000000005,
          "velocity": 0.6692913385826772,
          "duration": 0.2205875000000006
        },
        {
          "name": "G3",
          "midi": 55,
          "time": 21.176400000000005,
          "velocity": 0.6692913385826772,
          "duration": 0.2205875000000006
        },
        {
          "name": "D4",
          "midi": 62,
          "time": 21.396987500000005,
          "velocity": 0.48031496062992124,
          "duration": 0.2205875000000006
        },
        {
          "name": "D3",
          "midi": 50,
          "time": 21.396987500000005,
          "velocity": 0.7401574803149606,
          "duration": 0.2205875000000006
        },
        {
          "name": "G4",
          "midi": 67,
          "time": 21.617575000000006,
          "velocity": 0.6220472440944882,
          "duration": 0.44117499999999765
        },
        {
          "name": "G3",
          "midi": 55,
          "time": 21.617575000000006,
          "velocity": 0.7401574803149606,
          "duration": 0.2205875000000006
        },
        {
          "name": "A#4",
          "midi": 70,
          "time": 21.838162500000006,
          "velocity": 0.7874015748031497,
          "duration": 0.22058749999999705
        },
        {
          "name": "D3",
          "midi": 50,
          "time": 21.838162500000006,
          "velocity": 0.6456692913385826,
          "duration": 0.22058749999999705
        },
        {
          "name": "A4",
          "midi": 69,
          "time": 22.058750000000003,
          "velocity": 0.7480314960629921,
          "duration": 0.4411750000000012
        },
        {
          "name": "F#4",
          "midi": 66,
          "time": 22.058750000000003,
          "velocity": 0.5196850393700787,
          "duration": 0.2205875000000006
        },
        {
          "name": "A2",
          "midi": 45,
          "time": 22.058750000000003,
          "velocity": 0.6692913385826772,
          "duration": 0.2205875000000006
        },
        {
          "name": "A3",
          "midi": 57,
          "time": 22.058750000000003,
          "velocity": 0.6692913385826772,
          "duration": 0.2205875000000006
        },
        {
          "name": "G4",
          "midi": 67,
          "time": 22.279337500000004,
          "velocity": 0.5748031496062992,
          "duration": 0.2205875000000006
        },
        {
          "name": "D3",
          "midi": 50,
          "time": 22.279337500000004,
          "velocity": 0.6929133858267716,
          "duration": 0.2205875000000006
        },
        {
          "name": "D5",
          "midi": 74,
          "time": 22.499925000000005,
          "velocity": 0.8188976377952756,
          "duration": 0.2205875000000006
        },
        {
          "name": "A4",
          "midi": 69,
          "time": 22.499925000000005,
          "velocity": 0.5748031496062992,
          "duration": 0.44117499999999765
        },
        {
          "name": "A3",
          "midi": 57,
          "time": 22.499925000000005,
          "velocity": 0.6929133858267716,
          "duration": 0.2205875000000006
        },
        {
          "name": "C5",
          "midi": 72,
          "time": 22.720512500000005,
          "velocity": 0.7559055118110236,
          "duration": 0.22058749999999705
        },
        {
          "name": "D3",
          "midi": 50,
          "time": 22.720512500000005,
          "velocity": 0.6299212598425197,
          "duration": 0.22058749999999705
        },
        {
          "name": "A#4",
          "midi": 70,
          "time": 22.941100000000002,
          "velocity": 0.7480314960629921,
          "duration": 0.4411750000000012
        },
        {
          "name": "A#2",
          "midi": 46,
          "time": 22.941100000000002,
          "velocity": 0.7007874015748031,
          "duration": 0.2205875000000006
        },
        {
          "name": "A#3",
          "midi": 58,
          "time": 22.941100000000002,
          "velocity": 0.7007874015748031,
          "duration": 0.2205875000000006
        },
        {
          "name": "F4",
          "midi": 65,
          "time": 23.161687500000003,
          "velocity": 0.5118110236220472,
          "duration": 0.2205875000000006
        },
        {
          "name": "F3",
          "midi": 53,
          "time": 23.161687500000003,
          "velocity": 0.6377952755905512,
          "duration": 0.2205875000000006
        },
        {
          "name": "D5",
          "midi": 74,
          "time": 23.382275000000003,
          "velocity": 0.7244094488188977,
          "duration": 0.4411750000000012
        },
        {
          "name": "A#3",
          "midi": 58,
          "time": 23.382275000000003,
          "velocity": 0.6850393700787402,
          "duration": 0.2205875000000006
        },
        {
          "name": "A#4",
          "midi": 70,
          "time": 23.602862500000004,
          "velocity": 0.5590551181102362,
          "duration": 0.2205875000000006
        },
        {
          "name": "F3",
          "midi": 53,
          "time": 23.602862500000004,
          "velocity": 0.6377952755905512,
          "duration": 0.2205875000000006
        },
        {
          "name": "G4",
          "midi": 67,
          "time": 23.754516406250005,
          "velocity": 0.5511811023622047,
          "duration": 0.2205875000000006
        },
        {
          "name": "C5",
          "midi": 72,
          "time": 23.823450000000005,
          "velocity": 0.7637795275590551,
          "duration": 0.4411750000000012
        },
        {
          "name": "C3",
          "midi": 48,
          "time": 23.823450000000005,
          "velocity": 0.7007874015748031,
          "duration": 0.2205875000000006
        },
        {
          "name": "C4",
          "midi": 60,
          "time": 23.823450000000005,
          "velocity": 0.7007874015748031,
          "duration": 0.2205875000000006
        },
        {
          "name": "F4",
          "midi": 65,
          "time": 24.044037500000005,
          "velocity": 0.5354330708661418,
          "duration": 0.2205875000000006
        },
        {
          "name": "G3",
          "midi": 55,
          "time": 24.044037500000005,
          "velocity": 0.6535433070866141,
          "duration": 0.2205875000000006
        },
        {
          "name": "G4",
          "midi": 67,
          "time": 24.264625000000006,
          "velocity": 0.5905511811023622,
          "duration": 0.2205875000000006
        },
        {
          "name": "E4",
          "midi": 64,
          "time": 24.264625000000006,
          "velocity": 0.5354330708661418,
          "duration": 0.44117499999999765
        },
        {
          "name": "C4",
          "midi": 60,
          "time": 24.264625000000006,
          "velocity": 0.7165354330708661,
          "duration": 0.2205875000000006
        },
        {
          "name": "A4",
          "midi": 69,
          "time": 24.485212500000006,
          "velocity": 0.7874015748031497,
          "duration": 0.22058749999999705
        },
        {
          "name": "G3",
          "midi": 55,
          "time": 24.485212500000006,
          "velocity": 0.6456692913385826,
          "duration": 0.22058749999999705
        },
        {
          "name": "A#4",
          "midi": 70,
          "time": 24.705800000000004,
          "velocity": 0.7874015748031497,
          "duration": 0.2205875000000006
        },
        {
          "name": "D#3",
          "midi": 51,
          "time": 24.705800000000004,
          "velocity": 0.6535433070866141,
          "duration": 0.2205875000000006
        },
        {
          "name": "D#4",
          "midi": 63,
          "time": 24.926387500000004,
          "velocity": 0.6929133858267716,
          "duration": 0.2205875000000006
        },
        {
          "name": "G3",
          "midi": 55,
          "time": 24.926387500000004,
          "velocity": 0.6771653543307087,
          "duration": 0.2205875000000006
        },
        {
          "name": "G4",
          "midi": 67,
          "time": 25.146975000000005,
          "velocity": 0.8110236220472441,
          "duration": 0.2205875000000006
        },
        {
          "name": "A#3",
          "midi": 58,
          "time": 25.146975000000005,
          "velocity": 0.6771653543307087,
          "duration": 0.2205875000000006
        },
        {
          "name": "A#4",
          "midi": 70,
          "time": 25.367562500000005,
          "velocity": 0.7401574803149606,
          "duration": 0.22058749999999705
        },
        {
          "name": "G3",
          "midi": 55,
          "time": 25.367562500000005,
          "velocity": 0.6535433070866141,
          "duration": 0.22058749999999705
        },
        {
          "name": "F4",
          "midi": 65,
          "time": 25.588150000000002,
          "velocity": 0.5196850393700787,
          "duration": 0.2205875000000006
        },
        {
          "name": "A4",
          "midi": 69,
          "time": 25.588150000000002,
          "velocity": 0.7637795275590551,
          "duration": 0.2205875000000006
        },
        {
          "name": "F3",
          "midi": 53,
          "time": 25.588150000000002,
          "velocity": 0.6535433070866141,
          "duration": 0.2205875000000006
        },
        {
          "name": "C5",
          "midi": 72,
          "time": 25.808737500000003,
          "velocity": 0.7086614173228346,
          "duration": 0.2205875000000006
        },
        {
          "name": "A3",
          "midi": 57,
          "time": 25.808737500000003,
          "velocity": 0.6614173228346457,
          "duration": 0.2205875000000006
        },
        {
          "name": "F5",
          "midi": 77,
          "time": 26.029325000000004,
          "velocity": 0.7559055118110236,
          "duration": 0.2205875000000006
        },
        {
          "name": "C4",
          "midi": 60,
          "time": 26.029325000000004,
          "velocity": 0.6771653543307087,
          "duration": 0.2205875000000006
        },
        {
          "name": "C5",
          "midi": 72,
          "time": 26.249912500000004,
          "velocity": 0.7244094488188977,
          "duration": 0.22058749999999705
        },
        {
          "name": "A3",
          "midi": 57,
          "time": 26.249912500000004,
          "velocity": 0.6614173228346457,
          "duration": 0.22058749999999705
        },
        {
          "name": "A#4",
          "midi": 70,
          "time": 26.4705,
          "velocity": 0.6299212598425197,
          "duration": 0.6617625000000018
        },
        {
          "name": "D#5",
          "midi": 75,
          "time": 26.4705,
          "velocity": 0.6299212598425197,
          "duration": 0.6617625000000018
        },
        {
          "name": "F3",
          "midi": 53,
          "time": 26.4705,
          "velocity": 0.6850393700787402,
          "duration": 0.2205875000000006
        },
        {
          "name": "A#3",
          "midi": 58,
          "time": 26.4705,
          "velocity": 0.6850393700787402,
          "duration": 0.2205875000000006
        },
        {
          "name": "D4",
          "midi": 62,
          "time": 26.691087500000002,
          "velocity": 0.7007874015748031,
          "duration": 0.2205875000000006
        },
        {
          "name": "F4",
          "midi": 65,
          "time": 26.911675000000002,
          "velocity": 0.6692913385826772,
          "duration": 0.2205875000000006
        },
        {
          "name": "D5",
          "midi": 74,
          "time": 27.132262500000003,
          "velocity": 0.7086614173228346,
          "duration": 0.1102937500000003
        },
        {
          "name": "D4",
          "midi": 62,
          "time": 27.132262500000003,
          "velocity": 0.6220472440944882,
          "duration": 0.2205875000000006
        },
        {
          "name": "C#5",
          "midi": 73,
          "time": 27.242556250000003,
          "velocity": 0.6692913385826772,
          "duration": 0.1102937500000003
        },
        {
          "name": "B4",
          "midi": 71,
          "time": 27.352850000000004,
          "velocity": 0.5433070866141733,
          "duration": 0.4411750000000012
        },
        {
          "name": "D5",
          "midi": 74,
          "time": 27.352850000000004,
          "velocity": 0.6692913385826772,
          "duration": 0.4411750000000012
        },
        {
          "name": "G3",
          "midi": 55,
          "time": 27.352850000000004,
          "velocity": 0.6299212598425197,
          "duration": 0.2205875000000006
        },
        {
          "name": "B3",
          "midi": 59,
          "time": 27.573437500000004,
          "velocity": 0.6850393700787402,
          "duration": 0.2205875000000006
        },
        {
          "name": "C#5",
          "midi": 73,
          "time": 27.794025000000005,
          "velocity": 0.7401574803149606,
          "duration": 0.2205875000000006
        },
        {
          "name": "D4",
          "midi": 62,
          "time": 27.794025000000005,
          "velocity": 0.7007874015748031,
          "duration": 0.44117499999999765
        },
        {
          "name": "D5",
          "midi": 74,
          "time": 28.014612500000005,
          "velocity": 0.7716535433070866,
          "duration": 0.22058749999999705
        },
        {
          "name": "G5",
          "midi": 79,
          "time": 28.235200000000003,
          "velocity": 0.6929133858267716,
          "duration": 0.1102937500000003
        },
        {
          "name": "C2",
          "midi": 36,
          "time": 28.235200000000003,
          "velocity": 0.6141732283464567,
          "duration": 0.4411750000000012
        },
        {
          "name": "C3",
          "midi": 48,
          "time": 28.235200000000003,
          "velocity": 0.6141732283464567,
          "duration": 0.4411750000000012
        },
        {
          "name": "A5",
          "midi": 81,
          "time": 28.345493750000003,
          "velocity": 0.6771653543307087,
          "duration": 0.1102937500000003
        },
        {
          "name": "A#5",
          "midi": 82,
          "time": 28.455787500000003,
          "velocity": 0.6850393700787402,
          "duration": 0.1102937500000003
        },
        {
          "name": "C6",
          "midi": 84,
          "time": 28.566081250000003,
          "velocity": 0.6929133858267716,
          "duration": 0.1102937500000003
        },
        {
          "name": "D6",
          "midi": 86,
          "time": 28.676375000000004,
          "velocity": 0.6850393700787402,
          "duration": 0.1102937500000003
        },
        {
          "name": "C4",
          "midi": 60,
          "time": 28.676375000000004,
          "velocity": 0.7322834645669292,
          "duration": 0.4411750000000012
        },
        {
          "name": "D#4",
          "midi": 63,
          "time": 28.676375000000004,
          "velocity": 0.7322834645669292,
          "duration": 0.4411750000000012
        },
        {
          "name": "G4",
          "midi": 67,
          "time": 28.676375000000004,
          "velocity": 0.7322834645669292,
          "duration": 0.4411750000000012
        },
        {
          "name": "D#6",
          "midi": 87,
          "time": 28.786668750000004,
          "velocity": 0.6692913385826772,
          "duration": 0.1102937500000003
        },
        {
          "name": "D6",
          "midi": 86,
          "time": 28.896962500000004,
          "velocity": 0.6377952755905512,
          "duration": 0.1102937500000003
        },
        {
          "name": "C6",
          "midi": 84,
          "time": 29.007256250000005,
          "velocity": 0.6535433070866141,
          "duration": 0.1102937500000003
        },
        {
          "name": "A#5",
          "midi": 82,
          "time": 29.117550000000005,
          "velocity": 0.6456692913385826,
          "duration": 0.1102937500000003
        },
        {
          "name": "F#2",
          "midi": 42,
          "time": 29.117550000000005,
          "velocity": 0.6141732283464567,
          "duration": 0.4411750000000012
        },
        {
          "name": "F#3",
          "midi": 54,
          "time": 29.117550000000005,
          "velocity": 0.6141732283464567,
          "duration": 0.4411750000000012
        },
        {
          "name": "C6",
          "midi": 84,
          "time": 29.227843750000005,
          "velocity": 0.6771653543307087,
          "duration": 0.1102937500000003
        },
        {
          "name": "A5",
          "midi": 81,
          "time": 29.338137500000006,
          "velocity": 0.6299212598425197,
          "duration": 0.1102937500000003
        },
        {
          "name": "C6",
          "midi": 84,
          "time": 29.448431250000006,
          "velocity": 0.6929133858267716,
          "duration": 0.1102937500000003
        },
        {
          "name": "A#5",
          "midi": 82,
          "time": 29.558725000000006,
          "velocity": 0.6456692913385826,
          "duration": 0.1102937500000003
        },
        {
          "name": "A3",
          "midi": 57,
          "time": 29.558725000000006,
          "velocity": 0.7480314960629921,
          "duration": 0.4411750000000012
        },
        {
          "name": "C4",
          "midi": 60,
          "time": 29.558725000000006,
          "velocity": 0.7480314960629921,
          "duration": 0.4411750000000012
        },
        {
          "name": "F#4",
          "midi": 66,
          "time": 29.558725000000006,
          "velocity": 0.7480314960629921,
          "duration": 0.4411750000000012
        },
        {
          "name": "A5",
          "midi": 81,
          "time": 29.669018750000006,
          "velocity": 0.6299212598425197,
          "duration": 0.1102937500000003
        },
        {
          "name": "C6",
          "midi": 84,
          "time": 29.779312500000007,
          "velocity": 0.6692913385826772,
          "duration": 0.1102937500000003
        },
        {
          "name": "A5",
          "midi": 81,
          "time": 29.889606250000007,
          "velocity": 0.6299212598425197,
          "duration": 0.1102937500000003
        },
        {
          "name": "F5",
          "midi": 77,
          "time": 29.999900000000007,
          "velocity": 0.7007874015748031,
          "duration": 0.3308812500000009
        },
        {
          "name": "A#5",
          "midi": 82,
          "time": 29.999900000000007,
          "velocity": 0.7007874015748031,
          "duration": 0.3308812500000009
        },
        {
          "name": "D6",
          "midi": 86,
          "time": 29.999900000000007,
          "velocity": 0.7007874015748031,
          "duration": 0.3308812500000009
        },
        {
          "name": "F2",
          "midi": 41,
          "time": 29.999900000000007,
          "velocity": 0.6299212598425197,
          "duration": 0.4411750000000012
        },
        {
          "name": "F3",
          "midi": 53,
          "time": 29.999900000000007,
          "velocity": 0.6299212598425197,
          "duration": 0.4411750000000012
        },
        {
          "name": "F5",
          "midi": 77,
          "time": 30.33078125000001,
          "velocity": 0.5826771653543307,
          "duration": 0.1102937500000003
        },
        {
          "name": "F5",
          "midi": 77,
          "time": 30.44107500000001,
          "velocity": 0.7401574803149606,
          "duration": 0.2205875000000006
        },
        {
          "name": "D#6",
          "midi": 87,
          "time": 30.44107500000001,
          "velocity": 0.7401574803149606,
          "duration": 0.2205875000000006
        },
        {
          "name": "A#3",
          "midi": 58,
          "time": 30.44107500000001,
          "velocity": 0.7322834645669292,
          "duration": 0.44117499999999765
        },
        {
          "name": "D4",
          "midi": 62,
          "time": 30.44107500000001,
          "velocity": 0.7322834645669292,
          "duration": 0.44117499999999765
        },
        {
          "name": "F4",
          "midi": 65,
          "time": 30.44107500000001,
          "velocity": 0.7322834645669292,
          "duration": 0.44117499999999765
        },
        {
          "name": "F6",
          "midi": 89,
          "time": 30.66166250000001,
          "velocity": 0.6929133858267716,
          "duration": 0.22058749999999705
        },
        {
          "name": "A#5",
          "midi": 82,
          "time": 30.882250000000006,
          "velocity": 0.6141732283464567,
          "duration": 0.1102937500000003
        },
        {
          "name": "E2",
          "midi": 40,
          "time": 30.882250000000006,
          "velocity": 0.6377952755905512,
          "duration": 0.2205875000000006
        },
        {
          "name": "E3",
          "midi": 52,
          "time": 30.882250000000006,
          "velocity": 0.6377952755905512,
          "duration": 0.2205875000000006
        },
        {
          "name": "E5",
          "midi": 76,
          "time": 30.992543750000006,
          "velocity": 0.5984251968503937,
          "duration": 0.1102937500000003
        },
        {
          "name": "G5",
          "midi": 79,
          "time": 31.102837500000007,
          "velocity": 0.6771653543307087,
          "duration": 0.1102937500000003
        },
        {
          "name": "C4",
          "midi": 60,
          "time": 31.102837500000007,
          "velocity": 0.7637795275590551,
          "duration": 0.2205875000000006
        },
        {
          "name": "G4",
          "midi": 67,
          "time": 31.102837500000007,
          "velocity": 0.7637795275590551,
          "duration": 0.2205875000000006
        },
        {
          "name": "C6",
          "midi": 84,
          "time": 31.213131250000007,
          "velocity": 0.6929133858267716,
          "duration": 0.1102937500000003
        },
        {
          "name": "G5",
          "midi": 79,
          "time": 31.323425000000007,
          "velocity": 0.7322834645669292,
          "duration": 0.22058749999999705
        },
        {
          "name": "G6",
          "midi": 91,
          "time": 31.323425000000007,
          "velocity": 0.7322834645669292,
          "duration": 0.22058749999999705
        },
        {
          "name": "C4",
          "midi": 60,
          "time": 31.323425000000007,
          "velocity": 0.6692913385826772,
          "duration": 0.22058749999999705
        },
        {
          "name": "G4",
          "midi": 67,
          "time": 31.323425000000007,
          "velocity": 0.6692913385826772,
          "duration": 0.22058749999999705
        },
        {
          "name": "A5",
          "midi": 81,
          "time": 31.544012500000004,
          "velocity": 0.6220472440944882,
          "duration": 0.22058749999999705
        },
        {
          "name": "D6",
          "midi": 86,
          "time": 31.544012500000004,
          "velocity": 0.6220472440944882,
          "duration": 0.22058749999999705
        },
        {
          "name": "A#4",
          "midi": 70,
          "time": 31.7646,
          "velocity": 0.5354330708661418,
          "duration": 0.2205875000000006
        },
        {
          "name": "A#5",
          "midi": 82,
          "time": 31.7646,
          "velocity": 0.5354330708661418,
          "duration": 0.2205875000000006
        },
        {
          "name": "G3",
          "midi": 55,
          "time": 31.7646,
          "velocity": 0.4881889763779528,
          "duration": 0.2205875000000006
        },
        {
          "name": "A#3",
          "midi": 58,
          "time": 31.7646,
          "velocity": 0.4881889763779528,
          "duration": 0.2205875000000006
        },
        {
          "name": "D4",
          "midi": 62,
          "time": 31.985187500000002,
          "velocity": 0.5039370078740157,
          "duration": 0.2205875000000006
        },
        {
          "name": "D5",
          "midi": 74,
          "time": 31.985187500000002,
          "velocity": 0.5039370078740157,
          "duration": 0.2205875000000006
        },
        {
          "name": "D3",
          "midi": 50,
          "time": 31.985187500000002,
          "velocity": 0.5275590551181102,
          "duration": 0.2205875000000006
        },
        {
          "name": "G3",
          "midi": 55,
          "time": 31.985187500000002,
          "velocity": 0.5275590551181102,
          "duration": 0.2205875000000006
        },
        {
          "name": "D#4",
          "midi": 63,
          "time": 32.205775,
          "velocity": 0.5669291338582677,
          "duration": 0.2205875000000006
        },
        {
          "name": "D#5",
          "midi": 75,
          "time": 32.205775,
          "velocity": 0.5669291338582677,
          "duration": 0.2205875000000006
        },
        {
          "name": "D#3",
          "midi": 51,
          "time": 32.205775,
          "velocity": 0.5669291338582677,
          "duration": 0.2205875000000006
        },
        {
          "name": "G3",
          "midi": 55,
          "time": 32.205775,
          "velocity": 0.5669291338582677,
          "duration": 0.2205875000000006
        },
        {
          "name": "D5",
          "midi": 74,
          "time": 32.4263625,
          "velocity": 0.6377952755905512,
          "duration": 0.2205875000000006
        },
        {
          "name": "D6",
          "midi": 86,
          "time": 32.4263625,
          "velocity": 0.6377952755905512,
          "duration": 0.2205875000000006
        },
        {
          "name": "G3",
          "midi": 55,
          "time": 32.4263625,
          "velocity": 0.5984251968503937,
          "duration": 0.2205875000000006
        },
        {
          "name": "D4",
          "midi": 62,
          "time": 32.4263625,
          "velocity": 0.5984251968503937,
          "duration": 0.2205875000000006
        },
        {
          "name": "C5",
          "midi": 72,
          "time": 32.646950000000004,
          "velocity": 0.5511811023622047,
          "duration": 0.2205875000000006
        },
        {
          "name": "C6",
          "midi": 84,
          "time": 32.646950000000004,
          "velocity": 0.5511811023622047,
          "duration": 0.2205875000000006
        },
        {
          "name": "A3",
          "midi": 57,
          "time": 32.646950000000004,
          "velocity": 0.5433070866141733,
          "duration": 0.2205875000000006
        },
        {
          "name": "C4",
          "midi": 60,
          "time": 32.646950000000004,
          "velocity": 0.5433070866141733,
          "duration": 0.2205875000000006
        },
        {
          "name": "D4",
          "midi": 62,
          "time": 32.867537500000005,
          "velocity": 0.4881889763779528,
          "duration": 0.2205875000000006
        },
        {
          "name": "D5",
          "midi": 74,
          "time": 32.867537500000005,
          "velocity": 0.4881889763779528,
          "duration": 0.2205875000000006
        },
        {
          "name": "D3",
          "midi": 50,
          "time": 32.867537500000005,
          "velocity": 0.5433070866141733,
          "duration": 0.2205875000000006
        },
        {
          "name": "A3",
          "midi": 57,
          "time": 32.867537500000005,
          "velocity": 0.5433070866141733,
          "duration": 0.2205875000000006
        },
        {
          "name": "F4",
          "midi": 65,
          "time": 33.088125000000005,
          "velocity": 0.5905511811023622,
          "duration": 0.2205875000000006
        },
        {
          "name": "F5",
          "midi": 77,
          "time": 33.088125000000005,
          "velocity": 0.5905511811023622,
          "duration": 0.2205875000000006
        },
        {
          "name": "F3",
          "midi": 53,
          "time": 33.088125000000005,
          "velocity": 0.5669291338582677,
          "duration": 0.2205875000000006
        },
        {
          "name": "A3",
          "midi": 57,
          "time": 33.088125000000005,
          "velocity": 0.5669291338582677,
          "duration": 0.2205875000000006
        },
        {
          "name": "C5",
          "midi": 72,
          "time": 33.308712500000006,
          "velocity": 0.6062992125984252,
          "duration": 0.2205875000000006
        },
        {
          "name": "C6",
          "midi": 84,
          "time": 33.308712500000006,
          "velocity": 0.6062992125984252,
          "duration": 0.2205875000000006
        },
        {
          "name": "A3",
          "midi": 57,
          "time": 33.308712500000006,
          "velocity": 0.5826771653543307,
          "duration": 0.2205875000000006
        },
        {
          "name": "C4",
          "midi": 60,
          "time": 33.308712500000006,
          "velocity": 0.5826771653543307,
          "duration": 0.2205875000000006
        },
        {
          "name": "A#4",
          "midi": 70,
          "time": 33.529300000000006,
          "velocity": 0.5354330708661418,
          "duration": 0.441174999999987
        },
        {
          "name": "A#5",
          "midi": 82,
          "time": 33.529300000000006,
          "velocity": 0.5354330708661418,
          "duration": 0.441174999999987
        },
        {
          "name": "D4",
          "midi": 62,
          "time": 33.529300000000006,
          "velocity": 0.5826771653543307,
          "duration": 0.11029374999999675
        },
        {
          "name": "A#3",
          "midi": 58,
          "time": 33.529300000000006,
          "velocity": 0.48031496062992124,
          "duration": 1.7646999999999764
        },
        {
          "name": "D#4",
          "midi": 63,
          "time": 33.63959375,
          "velocity": 0.5669291338582677,
          "duration": 0.11029374999999675
        },
        {
          "name": "G4",
          "midi": 67,
          "time": 33.7498875,
          "velocity": 0.5984251968503937,
          "duration": 0.11029374999999675
        },
        {
          "name": "D4",
          "midi": 62,
          "time": 33.86018125,
          "velocity": 0.5118110236220472,
          "duration": 0.11029374999999675
        },
        {
          "name": "D6",
          "midi": 86,
          "time": 33.97047499999999,
          "velocity": 0.4409448818897638,
          "duration": 0.11029374999999675
        },
        {
          "name": "D#4",
          "midi": 63,
          "time": 33.97047499999999,
          "velocity": 0.5748031496062992,
          "duration": 0.11029374999999675
        },
        {
          "name": "D#6",
          "midi": 87,
          "time": 34.08076874999999,
          "velocity": 0.49606299212598426,
          "duration": 0.11029374999999675
        },
        {
          "name": "G4",
          "midi": 67,
          "time": 34.08076874999999,
          "velocity": 0.5905511811023622,
          "duration": 0.11029374999999675
        },
        {
          "name": "A5",
          "midi": 81,
          "time": 34.19106249999999,
          "velocity": 0.47244094488188976,
          "duration": 0.11029374999999675
        },
        {
          "name": "G6",
          "midi": 91,
          "time": 34.19106249999999,
          "velocity": 0.47244094488188976,
          "duration": 0.11029374999999675
        },
        {
          "name": "A4",
          "midi": 69,
          "time": 34.19106249999999,
          "velocity": 0.5590551181102362,
          "duration": 0.11213197916666218
        },
        {
          "name": "A#5",
          "midi": 82,
          "time": 34.301356249999984,
          "velocity": 0.4566929133858268,
          "duration": 0.11029374999999675
        },
        {
          "name": "A#6",
          "midi": 94,
          "time": 34.301356249999984,
          "velocity": 0.4566929133858268,
          "duration": 0.11029374999999675
        },
        {
          "name": "A#4",
          "midi": 70,
          "time": 34.301356249999984,
          "velocity": 0.5669291338582677,
          "duration": 0.11213197916666218
        },
        {
          "name": "D6",
          "midi": 86,
          "time": 34.41164999999998,
          "velocity": 0.4566929133858268,
          "duration": 0.2205875000000006
        },
        {
          "name": "D7",
          "midi": 98,
          "time": 34.41164999999998,
          "velocity": 0.4566929133858268,
          "duration": 0.2205875000000006
        },
        {
          "name": "G4",
          "midi": 67,
          "time": 34.41164999999998,
          "velocity": 0.5118110236220472,
          "duration": 0.41865669270833195
        },
        {
          "name": "A#5",
          "midi": 82,
          "time": 34.63223749999998,
          "velocity": 0.3937007874015748,
          "duration": 0.2205875000000006
        },
        {
          "name": "A#6",
          "midi": 94,
          "time": 34.63223749999998,
          "velocity": 0.3937007874015748,
          "duration": 0.2205875000000006
        },
        {
          "name": "G5",
          "midi": 79,
          "time": 34.85282499999998,
          "velocity": 0.3464566929133858,
          "duration": 0.2205875000000006
        },
        {
          "name": "G6",
          "midi": 91,
          "time": 34.85282499999998,
          "velocity": 0.3464566929133858,
          "duration": 0.2205875000000006
        },
        {
          "name": "G4",
          "midi": 67,
          "time": 34.85282499999998,
          "velocity": 0.5039370078740157,
          "duration": 0.2205875000000006
        },
        {
          "name": "A5",
          "midi": 81,
          "time": 35.07341249999998,
          "velocity": 0.33858267716535434,
          "duration": 0.2205875000000006
        },
        {
          "name": "D6",
          "midi": 86,
          "time": 35.07341249999998,
          "velocity": 0.33858267716535434,
          "duration": 0.2205875000000006
        },
        {
          "name": "A4",
          "midi": 69,
          "time": 35.07341249999998,
          "velocity": 0.5196850393700787,
          "duration": 0.2205875000000006
        },
        {
          "name": "A#4",
          "midi": 70,
          "time": 35.29399999999998,
          "velocity": 0.4566929133858268,
          "duration": 0.2205875000000006
        },
        {
          "name": "C4",
          "midi": 60,
          "time": 35.29399999999998,
          "velocity": 0.4251968503937008,
          "duration": 0.8823500000000024
        },
        {
          "name": "D4",
          "midi": 62,
          "time": 35.51458749999998,
          "velocity": 0.4330708661417323,
          "duration": 0.2205875000000006
        },
        {
          "name": "D#4",
          "midi": 63,
          "time": 35.735174999999984,
          "velocity": 0.4881889763779528,
          "duration": 0.2205875000000006
        },
        {
          "name": "D5",
          "midi": 74,
          "time": 35.955762499999985,
          "velocity": 0.5354330708661418,
          "duration": 0.2205875000000006
        },
        {
          "name": "A4",
          "midi": 69,
          "time": 36.176349999999985,
          "velocity": 0.4645669291338583,
          "duration": 0.2205875000000006
        },
        {
          "name": "C5",
          "midi": 72,
          "time": 36.176349999999985,
          "velocity": 0.4645669291338583,
          "duration": 0.2205875000000006
        },
        {
          "name": "D4",
          "midi": 62,
          "time": 36.176349999999985,
          "velocity": 0.4645669291338583,
          "duration": 0.4411750000000012
        },
        {
          "name": "D4",
          "midi": 62,
          "time": 36.396937499999986,
          "velocity": 0.4251968503937008,
          "duration": 0.6617625000000018
        },
        {
          "name": "F4",
          "midi": 65,
          "time": 36.617524999999986,
          "velocity": 0.4881889763779528,
          "duration": 0.2205875000000006
        },
        {
          "name": "C5",
          "midi": 72,
          "time": 36.83811249999999,
          "velocity": 0.5196850393700787,
          "duration": 0.2205875000000006
        },
        {
          "name": "D6",
          "midi": 86,
          "time": 37.05869999999999,
          "velocity": 0.33070866141732286,
          "duration": 0.11029374999999675
        },
        {
          "name": "D#4",
          "midi": 63,
          "time": 37.05869999999999,
          "velocity": 0.5275590551181102,
          "duration": 0.441174999999987
        },
        {
          "name": "A#4",
          "midi": 70,
          "time": 37.05869999999999,
          "velocity": 0.5275590551181102,
          "duration": 0.441174999999987
        },
        {
          "name": "A#5",
          "midi": 82,
          "time": 37.168993749999984,
          "velocity": 0.2992125984251969,
          "duration": 0.11029374999999675
        },
        {
          "name": "G5",
          "midi": 79,
          "time": 37.27928749999998,
          "velocity": 0.2992125984251969,
          "duration": 0.11029374999999675
        },
        {
          "name": "D#5",
          "midi": 75,
          "time": 37.38958124999998,
          "velocity": 0.2992125984251969,
          "duration": 0.11029374999999675
        },
        {
          "name": "A#5",
          "midi": 82,
          "time": 37.499874999999975,
          "velocity": 0.33070866141732286,
          "duration": 0.11029374999999675
        },
        {
          "name": "A#4",
          "midi": 70,
          "time": 37.499874999999975,
          "velocity": 0.5905511811023622,
          "duration": 0.11029374999999675
        },
        {
          "name": "G5",
          "midi": 79,
          "time": 37.61016874999997,
          "velocity": 0.2992125984251969,
          "duration": 0.11029374999999675
        },
        {
          "name": "A4",
          "midi": 69,
          "time": 37.61016874999997,
          "velocity": 0.5590551181102362,
          "duration": 0.11029374999999675
        },
        {
          "name": "D#5",
          "midi": 75,
          "time": 37.72046249999997,
          "velocity": 0.28346456692913385,
          "duration": 0.2205874999999935
        },
        {
          "name": "A#4",
          "midi": 70,
          "time": 37.72046249999997,
          "velocity": 0.5826771653543307,
          "duration": 0.11029374999999675
        },
        {
          "name": "C5",
          "midi": 72,
          "time": 37.830756249999965,
          "velocity": 0.5748031496062992,
          "duration": 0.11029374999999675
        },
        {
          "name": "G5",
          "midi": 79,
          "time": 37.94104999999996,
          "velocity": 0.3228346456692913,
          "duration": 0.11029374999999675
        },
        {
          "name": "D5",
          "midi": 74,
          "time": 37.94104999999996,
          "velocity": 0.5748031496062992,
          "duration": 0.882349999999974
        },
        {
          "name": "D#5",
          "midi": 75,
          "time": 38.05134374999996,
          "velocity": 0.2992125984251969,
          "duration": 0.11029374999999675
        },
        {
          "name": "A#4",
          "midi": 70,
          "time": 38.161637499999955,
          "velocity": 0.29133858267716534,
          "duration": 0.11029374999999675
        },
        {
          "name": "G4",
          "midi": 67,
          "time": 38.27193124999995,
          "velocity": 0.28346456692913385,
          "duration": 0.11029374999999675
        },
        {
          "name": "D#5",
          "midi": 75,
          "time": 38.38222499999995,
          "velocity": 0.33858267716535434,
          "duration": 0.11029374999999675
        },
        {
          "name": "A#4",
          "midi": 70,
          "time": 38.492518749999945,
          "velocity": 0.28346456692913385,
          "duration": 0.11029374999999675
        },
        {
          "name": "G4",
          "midi": 67,
          "time": 38.60281249999994,
          "velocity": 0.28346456692913385,
          "duration": 0.11029374999999675
        },
        {
          "name": "D#4",
          "midi": 63,
          "time": 38.71310624999994,
          "velocity": 0.30708661417322836,
          "duration": 0.11029374999999675
        },
        {
          "name": "A#5",
          "midi": 82,
          "time": 38.823399999999936,
          "velocity": 0.3543307086614173,
          "duration": 1.764699999999948
        },
        {
          "name": "A#4",
          "midi": 70,
          "time": 38.823399999999936,
          "velocity": 0.4566929133858268,
          "duration": 0.11029374999999675
        },
        {
          "name": "D6",
          "midi": 86,
          "time": 38.90290341145827,
          "velocity": 0.3543307086614173,
          "duration": 1.685196588541615
        },
        {
          "name": "G4",
          "midi": 67,
          "time": 38.93369374999993,
          "velocity": 0.4409448818897638,
          "duration": 0.11029374999999675
        },
        {
          "name": "F6",
          "midi": 89,
          "time": 38.98194726562493,
          "velocity": 0.2992125984251969,
          "duration": 1.6061527343749518
        },
        {
          "name": "D#4",
          "midi": 63,
          "time": 39.04398749999993,
          "velocity": 0.4251968503937008,
          "duration": 0.11029374999999675
        },
        {
          "name": "A#3",
          "midi": 58,
          "time": 39.154281249999926,
          "velocity": 0.4330708661417323,
          "duration": 0.11029374999999675
        },
        {
          "name": "G4",
          "midi": 67,
          "time": 39.26457499999992,
          "velocity": 0.4881889763779528,
          "duration": 0.11029374999999675
        },
        {
          "name": "D#4",
          "midi": 63,
          "time": 39.37486874999992,
          "velocity": 0.4094488188976378,
          "duration": 0.11029374999999675
        },
        {
          "name": "A#3",
          "midi": 58,
          "time": 39.485162499999916,
          "velocity": 0.4015748031496063,
          "duration": 0.11029374999999675
        },
        {
          "name": "G3",
          "midi": 55,
          "time": 39.59545624999991,
          "velocity": 0.4015748031496063,
          "duration": 0.11029374999999675
        },
        {
          "name": "D#4",
          "midi": 63,
          "time": 39.70574999999991,
          "velocity": 0.4330708661417323,
          "duration": 0.11029374999999675
        },
        {
          "name": "A#3",
          "midi": 58,
          "time": 39.816043749999906,
          "velocity": 0.3779527559055118,
          "duration": 0.11029374999999675
        },
        {
          "name": "G3",
          "midi": 55,
          "time": 39.9263374999999,
          "velocity": 0.3543307086614173,
          "duration": 0.11029374999999675
        },
        {
          "name": "D#3",
          "midi": 51,
          "time": 40.0366312499999,
          "velocity": 0.3464566929133858,
          "duration": 0.11029374999999675
        },
        {
          "name": "A#3",
          "midi": 58,
          "time": 40.1469249999999,
          "velocity": 0.36220472440944884,
          "duration": 0.11029374999999675
        },
        {
          "name": "G3",
          "midi": 55,
          "time": 40.25721874999989,
          "velocity": 0.33858267716535434,
          "duration": 0.11029374999999675
        },
        {
          "name": "D#3",
          "midi": 51,
          "time": 40.36751249999989,
          "velocity": 0.31496062992125984,
          "duration": 0.11029374999999675
        },
        {
          "name": "A#2",
          "midi": 46,
          "time": 40.47780624999989,
          "velocity": 0.3228346456692913,
          "duration": 0.11029374999999675
        },
        {
          "name": "A#4",
          "midi": 70,
          "time": 40.58809999999988,
          "velocity": 0.7007874015748031,
          "duration": 0.4411750000000012
        },
        {
          "name": "D5",
          "midi": 74,
          "time": 40.58809999999988,
          "velocity": 0.7007874015748031,
          "duration": 0.4411750000000012
        },
        {
          "name": "G5",
          "midi": 79,
          "time": 40.58809999999988,
          "velocity": 0.7007874015748031,
          "duration": 0.4411750000000012
        },
        {
          "name": "G2",
          "midi": 43,
          "time": 40.58809999999988,
          "velocity": 0.8188976377952756,
          "duration": 0.4411750000000012
        },
        {
          "name": "G3",
          "midi": 55,
          "time": 40.58809999999988,
          "velocity": 0.8188976377952756,
          "duration": 0.4411750000000012
        },
        {
          "name": "A#4",
          "midi": 70,
          "time": 41.029274999999885,
          "velocity": 0.6062992125984252,
          "duration": 0.11029374999999675
        },
        {
          "name": "D5",
          "midi": 74,
          "time": 41.029274999999885,
          "velocity": 0.6062992125984252,
          "duration": 0.11029374999999675
        },
        {
          "name": "G3",
          "midi": 55,
          "time": 41.029274999999885,
          "velocity": 0.6614173228346457,
          "duration": 0.2205874999999935
        },
        {
          "name": "C5",
          "midi": 72,
          "time": 41.47044999999988,
          "velocity": 0.5826771653543307,
          "duration": 0.11029374999999675
        },
        {
          "name": "D#5",
          "midi": 75,
          "time": 41.47044999999988,
          "velocity": 0.5826771653543307,
          "duration": 0.11029374999999675
        },
        {
          "name": "A3",
          "midi": 57,
          "time": 41.47044999999988,
          "velocity": 0.5984251968503937,
          "duration": 0.2205874999999935
        },
        {
          "name": "A4",
          "midi": 69,
          "time": 41.91162499999987,
          "velocity": 0.5905511811023622,
          "duration": 0.11029374999999675
        },
        {
          "name": "C5",
          "midi": 72,
          "time": 41.91162499999987,
          "velocity": 0.5905511811023622,
          "duration": 0.11029374999999675
        },
        {
          "name": "F#3",
          "midi": 54,
          "time": 41.91162499999987,
          "velocity": 0.5826771653543307,
          "duration": 0.2205874999999935
        },
        {
          "name": "A#4",
          "midi": 70,
          "time": 42.35279999999987,
          "velocity": 0.5826771653543307,
          "duration": 0.11029374999999675
        },
        {
          "name": "D5",
          "midi": 74,
          "time": 42.35279999999987,
          "velocity": 0.5826771653543307,
          "duration": 0.11029374999999675
        },
        {
          "name": "G3",
          "midi": 55,
          "time": 42.35279999999987,
          "velocity": 0.5826771653543307,
          "duration": 0.2205874999999935
        },
        {
          "name": "C5",
          "midi": 72,
          "time": 42.79397499999986,
          "velocity": 0.5984251968503937,
          "duration": 0.11029374999999675
        },
        {
          "name": "D#5",
          "midi": 75,
          "time": 42.79397499999986,
          "velocity": 0.5984251968503937,
          "duration": 0.11029374999999675
        },
        {
          "name": "G3",
          "midi": 55,
          "time": 42.79397499999986,
          "velocity": 0.5748031496062992,
          "duration": 0.2205874999999935
        },
        {
          "name": "A#4",
          "midi": 70,
          "time": 43.235149999999855,
          "velocity": 0.5826771653543307,
          "duration": 0.11029374999999675
        },
        {
          "name": "D5",
          "midi": 74,
          "time": 43.235149999999855,
          "velocity": 0.5826771653543307,
          "duration": 0.11029374999999675
        },
        {
          "name": "G3",
          "midi": 55,
          "time": 43.235149999999855,
          "velocity": 0.5905511811023622,
          "duration": 0.2205874999999935
        },
        {
          "name": "A#4",
          "midi": 70,
          "time": 43.67632499999985,
          "velocity": 0.5826771653543307,
          "duration": 0.4411750000000012
        },
        {
          "name": "D5",
          "midi": 74,
          "time": 43.67632499999985,
          "velocity": 0.5826771653543307,
          "duration": 0.4411750000000012
        },
        {
          "name": "G5",
          "midi": 79,
          "time": 43.67632499999985,
          "velocity": 0.5826771653543307,
          "duration": 0.4411750000000012
        },
        {
          "name": "D2",
          "midi": 38,
          "time": 43.67632499999985,
          "velocity": 0.7165354330708661,
          "duration": 0.4411750000000012
        },
        {
          "name": "D3",
          "midi": 50,
          "time": 43.67632499999985,
          "velocity": 0.7165354330708661,
          "duration": 0.4411750000000012
        },
        {
          "name": "A#4",
          "midi": 70,
          "time": 44.11749999999985,
          "velocity": 0.7716535433070866,
          "duration": 0.4411750000000012
        },
        {
          "name": "D5",
          "midi": 74,
          "time": 44.11749999999985,
          "velocity": 0.7716535433070866,
          "duration": 0.4411750000000012
        },
        {
          "name": "G5",
          "midi": 79,
          "time": 44.11749999999985,
          "velocity": 0.7716535433070866,
          "duration": 0.4411750000000012
        },
        {
          "name": "G2",
          "midi": 43,
          "time": 44.11749999999985,
          "velocity": 0.8031496062992126,
          "duration": 0.4411750000000012
        },
        {
          "name": "G3",
          "midi": 55,
          "time": 44.11749999999985,
          "velocity": 0.8031496062992126,
          "duration": 0.4411750000000012
        },
        {
          "name": "A#4",
          "midi": 70,
          "time": 44.55867499999985,
          "velocity": 0.6220472440944882,
          "duration": 0.11029374999999675
        },
        {
          "name": "D5",
          "midi": 74,
          "time": 44.55867499999985,
          "velocity": 0.6220472440944882,
          "duration": 0.11029374999999675
        },
        {
          "name": "G3",
          "midi": 55,
          "time": 44.55867499999985,
          "velocity": 0.6692913385826772,
          "duration": 0.2205874999999935
        },
        {
          "name": "C5",
          "midi": 72,
          "time": 44.999849999999846,
          "velocity": 0.5669291338582677,
          "duration": 0.11029374999999675
        },
        {
          "name": "D#5",
          "midi": 75,
          "time": 44.999849999999846,
          "velocity": 0.5669291338582677,
          "duration": 0.11029374999999675
        },
        {
          "name": "A3",
          "midi": 57,
          "time": 44.999849999999846,
          "velocity": 0.5826771653543307,
          "duration": 0.2205874999999935
        },
        {
          "name": "A4",
          "midi": 69,
          "time": 45.44102499999984,
          "velocity": 0.5748031496062992,
          "duration": 0.11029374999999675
        },
        {
          "name": "C5",
          "midi": 72,
          "time": 45.44102499999984,
          "velocity": 0.5748031496062992,
          "duration": 0.11029374999999675
        },
        {
          "name": "F#3",
          "midi": 54,
          "time": 45.44102499999984,
          "velocity": 0.5984251968503937,
          "duration": 0.2205874999999935
        },
        {
          "name": "A#4",
          "midi": 70,
          "time": 45.882199999999834,
          "velocity": 0.5905511811023622,
          "duration": 0.11029374999999675
        },
        {
          "name": "D5",
          "midi": 74,
          "time": 45.882199999999834,
          "velocity": 0.5905511811023622,
          "duration": 0.11029374999999675
        },
        {
          "name": "A#3",
          "midi": 58,
          "time": 45.882199999999834,
          "velocity": 0.5826771653543307,
          "duration": 0.2205874999999935
        },
        {
          "name": "C5",
          "midi": 72,
          "time": 46.32337499999983,
          "velocity": 0.5984251968503937,
          "duration": 0.11029374999999675
        },
        {
          "name": "D#5",
          "midi": 75,
          "time": 46.32337499999983,
          "velocity": 0.5984251968503937,
          "duration": 0.11029374999999675
        },
        {
          "name": "F3",
          "midi": 53,
          "time": 46.32337499999983,
          "velocity": 0.6220472440944882,
          "duration": 0.2205874999999935
        },
        {
          "name": "A#4",
          "midi": 70,
          "time": 46.76454999999982,
          "velocity": 0.6062992125984252,
          "duration": 0.2205875000000006
        },
        {
          "name": "D5",
          "midi": 74,
          "time": 46.76454999999982,
          "velocity": 0.6062992125984252,
          "duration": 0.2205875000000006
        },
        {
          "name": "A#3",
          "midi": 58,
          "time": 46.76454999999982,
          "velocity": 0.5905511811023622,
          "duration": 0.2205875000000006
        },
        {
          "name": "F5",
          "midi": 77,
          "time": 47.20572499999982,
          "velocity": 0.6850393700787402,
          "duration": 0.11029374999999675
        },
        {
          "name": "F4",
          "midi": 65,
          "time": 47.20572499999982,
          "velocity": 0.5905511811023622,
          "duration": 0.2205874999999935
        },
        {
          "name": "G5",
          "midi": 79,
          "time": 47.31601874999982,
          "velocity": 0.6771653543307087,
          "duration": 0.11029374999999675
        },
        {
          "name": "A5",
          "midi": 81,
          "time": 47.42631249999982,
          "velocity": 0.6771653543307087,
          "duration": 0.11029374999999675
        },
        {
          "name": "A#5",
          "midi": 82,
          "time": 47.536606249999814,
          "velocity": 0.8031496062992126,
          "duration": 0.5620385677083277
        },
        {
          "name": "A3",
          "midi": 57,
          "time": 47.64689999999981,
          "velocity": 0.6771653543307087,
          "duration": 0.20680078124999568
        },
        {
          "name": "C4",
          "midi": 60,
          "time": 47.793498776041474,
          "velocity": 0.5039370078740157,
          "duration": 0.14659877604166383
        },
        {
          "name": "F4",
          "midi": 65,
          "time": 47.94009755208314,
          "velocity": 0.5118110236220472,
          "duration": 0.14797744791666645
        },
        {
          "name": "C6",
          "midi": 84,
          "time": 48.088074999999805,
          "velocity": 0.8267716535433071,
          "duration": 0.33088125000000446
        },
        {
          "name": "A4",
          "midi": 69,
          "time": 48.088074999999805,
          "velocity": 0.5118110236220472,
          "duration": 0.14659877604167093
        },
        {
          "name": "F4",
          "midi": 65,
          "time": 48.234673776041475,
          "velocity": 0.4566929133858268,
          "duration": 0.14659877604166383
        },
        {
          "name": "C4",
          "midi": 60,
          "time": 48.38127255208314,
          "velocity": 0.4409448818897638,
          "duration": 0.14797744791666645
        },
        {
          "name": "C6",
          "midi": 84,
          "time": 48.41895624999981,
          "velocity": 0.6299212598425197,
          "duration": 0.1139702083333276
        },
        {
          "name": "D#6",
          "midi": 87,
          "time": 48.529249999999806,
          "velocity": 0.8188976377952756,
          "duration": 0.21185591145832916
        },
        {
          "name": "F#3",
          "midi": 54,
          "time": 48.529249999999806,
          "velocity": 0.7795275590551181,
          "duration": 0.20680078124999568
        },
        {
          "name": "C4",
          "midi": 60,
          "time": 48.67584877604147,
          "velocity": 0.5275590551181102,
          "duration": 0.14659877604166383
        },
        {
          "name": "D6",
          "midi": 86,
          "time": 48.7498374999998,
          "velocity": 0.7716535433070866,
          "duration": 0.2205875000000006
        },
        {
          "name": "D#4",
          "midi": 63,
          "time": 48.82244755208313,
          "velocity": 0.5039370078740157,
          "duration": 0.14797744791666645
        },
        {
          "name": "D6",
          "midi": 86,
          "time": 48.9704249999998,
          "velocity": 0.7795275590551181,
          "duration": 0.22426395833333146
        },
        {
          "name": "A4",
          "midi": 69,
          "time": 48.9704249999998,
          "velocity": 0.5275590551181102,
          "duration": 0.14659877604166383
        },
        {
          "name": "D#4",
          "midi": 63,
          "time": 49.117023776041464,
          "velocity": 0.4409448818897638,
          "duration": 0.14659877604167093
        },
        {
          "name": "C6",
          "midi": 84,
          "time": 49.1910124999998,
          "velocity": 0.7637795275590551,
          "duration": 0.2086390104166682
        },
        {
          "name": "C4",
          "midi": 60,
          "time": 49.263622552083135,
          "velocity": 0.44881889763779526,
          "duration": 0.14797744791666645
        },
        {
          "name": "A#5",
          "midi": 82,
          "time": 49.4115999999998,
          "velocity": 0.7480314960629921,
          "duration": 0.67371098958332
        },
        {
          "name": "A#6",
          "midi": 94,
          "time": 49.4115999999998,
          "velocity": 0.7480314960629921,
          "duration": 0.67371098958332
        },
        {
          "name": "G3",
          "midi": 55,
          "time": 49.4115999999998,
          "velocity": 0.7795275590551181,
          "duration": 0.20680078124999568
        },
        {
          "name": "D4",
          "midi": 62,
          "time": 49.558198776041465,
          "velocity": 0.5118110236220472,
          "duration": 0.14659877604166383
        },
        {
          "name": "A#4",
          "midi": 70,
          "time": 49.70479755208313,
          "velocity": 0.5354330708661418,
          "duration": 0.14797744791666645
        },
        {
          "name": "F3",
          "midi": 53,
          "time": 49.852774999999795,
          "velocity": 0.7795275590551181,
          "duration": 0.20680078124999568
        },
        {
          "name": "D4",
          "midi": 62,
          "time": 49.99937377604146,
          "velocity": 0.5275590551181102,
          "duration": 0.14659877604166383
        },
        {
          "name": "A5",
          "midi": 81,
          "time": 50.07336249999979,
          "velocity": 0.7480314960629921,
          "duration": 0.14843700520833636
        },
        {
          "name": "A6",
          "midi": 93,
          "time": 50.07336249999979,
          "velocity": 0.7480314960629921,
          "duration": 0.14843700520833636
        },
        {
          "name": "A#4",
          "midi": 70,
          "time": 50.14597255208312,
          "velocity": 0.5354330708661418,
          "duration": 0.14797744791666645
        },
        {
          "name": "A#5",
          "midi": 82,
          "time": 50.21996127604146,
          "velocity": 0.7480314960629921,
          "duration": 0.14797744791666645
        },
        {
          "name": "A#6",
          "midi": 94,
          "time": 50.21996127604146,
          "velocity": 0.7480314960629921,
          "duration": 0.14797744791666645
        },
        {
          "name": "E3",
          "midi": 52,
          "time": 50.29394999999979,
          "velocity": 0.7795275590551181,
          "duration": 0.20680078125000279
        },
        {
          "name": "G5",
          "midi": 79,
          "time": 50.36656005208312,
          "velocity": 0.7480314960629921,
          "duration": 0.5583621093749969
        },
        {
          "name": "G6",
          "midi": 91,
          "time": 50.36656005208312,
          "velocity": 0.7480314960629921,
          "duration": 0.5583621093749969
        },
        {
          "name": "E4",
          "midi": 64,
          "time": 50.44054877604146,
          "velocity": 0.5354330708661418,
          "duration": 0.14659877604166383
        },
        {
          "name": "G4",
          "midi": 67,
          "time": 50.587147552083124,
          "velocity": 0.5118110236220472,
          "duration": 0.14797744791666645
        },
        {
          "name": "C5",
          "midi": 72,
          "time": 50.73512499999979,
          "velocity": 0.4881889763779528,
          "duration": 0.14659877604166383
        },
        {
          "name": "A#4",
          "midi": 70,
          "time": 50.881723776041454,
          "velocity": 0.4645669291338583,
          "duration": 0.14659877604166383
        },
        {
          "name": "G5",
          "midi": 79,
          "time": 50.955712499999784,
          "velocity": 0.6850393700787402,
          "duration": 0.11029375000000385
        },
        {
          "name": "G4",
          "midi": 67,
          "time": 51.02832255208312,
          "velocity": 0.44881889763779526,
          "duration": 0.14797744791666645
        },
        {
          "name": "A5",
          "midi": 81,
          "time": 51.06600624999979,
          "velocity": 0.7716535433070866,
          "duration": 0.11029374999999675
        },
        {
          "name": "A#5",
          "midi": 82,
          "time": 51.176299999999785,
          "velocity": 0.7716535433070866,
          "duration": 0.22426395833332435
        },
        {
          "name": "C3",
          "midi": 48,
          "time": 51.176299999999785,
          "velocity": 0.7795275590551181,
          "duration": 0.20680078124999568
        },
        {
          "name": "C4",
          "midi": 60,
          "time": 51.32289877604145,
          "velocity": 0.5354330708661418,
          "duration": 0.14659877604166383
        },
        {
          "name": "D5",
          "midi": 74,
          "time": 51.39688749999978,
          "velocity": 0.6299212598425197,
          "duration": 0.22426395833333146
        },
        {
          "name": "D#4",
          "midi": 63,
          "time": 51.46949755208311,
          "velocity": 0.5039370078740157,
          "duration": 0.14797744791666645
        },
        {
          "name": "D#5",
          "midi": 75,
          "time": 51.61747499999978,
          "velocity": 0.7952755905511811,
          "duration": 0.22426395833333146
        },
        {
          "name": "G4",
          "midi": 67,
          "time": 51.61747499999978,
          "velocity": 0.5118110236220472,
          "duration": 0.14659877604166383
        },
        {
          "name": "D#4",
          "midi": 63,
          "time": 51.76407377604144,
          "velocity": 0.44881889763779526,
          "duration": 0.14659877604167093
        },
        {
          "name": "A5",
          "midi": 81,
          "time": 51.83806249999978,
          "velocity": 0.8582677165354331,
          "duration": 0.22426395833333146
        },
        {
          "name": "C4",
          "midi": 60,
          "time": 51.91067255208311,
          "velocity": 0.4645669291338583,
          "duration": 0.14797744791666645
        },
        {
          "name": "A#5",
          "midi": 82,
          "time": 52.05864999999978,
          "velocity": 0.8188976377952756,
          "duration": 0.22426395833332435
        },
        {
          "name": "C#3",
          "midi": 49,
          "time": 52.05864999999978,
          "velocity": 0.7795275590551181,
          "duration": 0.20680078124999568
        },
        {
          "name": "C#4",
          "midi": 61,
          "time": 52.205248776041444,
          "velocity": 0.5354330708661418,
          "duration": 0.14659877604166383
        },
        {
          "name": "C#5",
          "midi": 73,
          "time": 52.27923749999977,
          "velocity": 0.6299212598425197,
          "duration": 0.22426395833333146
        },
        {
          "name": "E4",
          "midi": 64,
          "time": 52.35184755208311,
          "velocity": 0.5118110236220472,
          "duration": 0.14797744791666645
        },
        {
          "name": "D5",
          "midi": 74,
          "time": 52.499824999999774,
          "velocity": 0.7952755905511811,
          "duration": 0.22426395833333146
        },
        {
          "name": "G4",
          "midi": 67,
          "time": 52.499824999999774,
          "velocity": 0.5039370078740157,
          "duration": 0.14659877604166383
        },
        {
          "name": "E4",
          "midi": 64,
          "time": 52.64642377604144,
          "velocity": 0.4566929133858268,
          "duration": 0.14659877604167093
        },
        {
          "name": "G5",
          "midi": 79,
          "time": 52.720412499999775,
          "velocity": 0.8346456692913385,
          "duration": 0.22426395833333146
        },
        {
          "name": "C#4",
          "midi": 61,
          "time": 52.79302255208311,
          "velocity": 0.4566929133858268,
          "duration": 0.14797744791666645
        },
        {
          "name": "A#5",
          "midi": 82,
          "time": 52.940999999999775,
          "velocity": 0.6850393700787402,
          "duration": 0.6737109895833271
        },
        {
          "name": "D3",
          "midi": 50,
          "time": 52.940999999999775,
          "velocity": 0.7795275590551181,
          "duration": 0.20680078124999568
        },
        {
          "name": "D4",
          "midi": 62,
          "time": 53.08759877604144,
          "velocity": 0.5354330708661418,
          "duration": 0.14659877604166383
        },
        {
          "name": "F#4",
          "midi": 66,
          "time": 53.2341975520831,
          "velocity": 0.5118110236220472,
          "duration": 0.14797744791666645
        },
        {
          "name": "A4",
          "midi": 69,
          "time": 53.38217499999977,
          "velocity": 0.5118110236220472,
          "duration": 0.14659877604166383
        },
        {
          "name": "F#4",
          "midi": 66,
          "time": 53.52877377604143,
          "velocity": 0.4645669291338583,
          "duration": 0.14659877604167093
        },
        {
          "name": "A5",
          "midi": 81,
          "time": 53.60276249999977,
          "velocity": 0.7559055118110236,
          "duration": 0.14843700520833636
        },
        {
          "name": "D4",
          "midi": 62,
          "time": 53.675372552083104,
          "velocity": 0.4645669291338583,
          "duration": 0.14797744791666645
        },
        {
          "name": "G#5",
          "midi": 80,
          "time": 53.74936127604144,
          "velocity": 0.7559055118110236,
          "duration": 0.14797744791666645
        },
        {
          "name": "C3",
          "midi": 48,
          "time": 53.82334999999977,
          "velocity": 0.7795275590551181,
          "duration": 0.20680078125000279
        },
        {
          "name": "A5",
          "midi": 81,
          "time": 53.895960052083105,
          "velocity": 0.6614173228346457,
          "duration": 0.7683797916666606
        },
        {
          "name": "C4",
          "midi": 60,
          "time": 53.96994877604144,
          "velocity": 0.6220472440944882,
          "duration": 0.14659877604166383
        },
        {
          "name": "F#4",
          "midi": 66,
          "time": 54.116547552083105,
          "velocity": 0.6220472440944882,
          "duration": 0.14797744791666645
        },
        {
          "name": "A4",
          "midi": 69,
          "time": 54.26452499999977,
          "velocity": 0.5748031496062992,
          "duration": 0.14659877604166383
        },
        {
          "name": "F#4",
          "midi": 66,
          "time": 54.411123776041435,
          "velocity": 0.5433070866141733,
          "duration": 0.14659877604166383
        },
        {
          "name": "C4",
          "midi": 60,
          "time": 54.5577225520831,
          "velocity": 0.5275590551181102,
          "duration": 0.14797744791666645
        },
        {
          "name": "A#4",
          "midi": 70,
          "time": 54.705699999999766,
          "velocity": 0.7637795275590551,
          "duration": 0.4411750000000012
        },
        {
          "name": "D5",
          "midi": 74,
          "time": 54.705699999999766,
          "velocity": 0.7637795275590551,
          "duration": 0.4411750000000012
        },
        {
          "name": "G5",
          "midi": 79,
          "time": 54.705699999999766,
          "velocity": 0.7637795275590551,
          "duration": 0.4411750000000012
        },
        {
          "name": "G2",
          "midi": 43,
          "time": 54.705699999999766,
          "velocity": 0.7716535433070866,
          "duration": 0.4411750000000012
        },
        {
          "name": "G3",
          "midi": 55,
          "time": 54.705699999999766,
          "velocity": 0.7716535433070866,
          "duration": 0.4411750000000012
        },
        {
          "name": "A#4",
          "midi": 70,
          "time": 55.14687499999977,
          "velocity": 0.6220472440944882,
          "duration": 0.11029374999999675
        },
        {
          "name": "D5",
          "midi": 74,
          "time": 55.14687499999977,
          "velocity": 0.6220472440944882,
          "duration": 0.11029374999999675
        },
        {
          "name": "G3",
          "midi": 55,
          "time": 55.14687499999977,
          "velocity": 0.6377952755905512,
          "duration": 0.2205874999999935
        },
        {
          "name": "C5",
          "midi": 72,
          "time": 55.58804999999976,
          "velocity": 0.5826771653543307,
          "duration": 0.11029374999999675
        },
        {
          "name": "D#5",
          "midi": 75,
          "time": 55.58804999999976,
          "velocity": 0.5826771653543307,
          "duration": 0.11029374999999675
        },
        {
          "name": "A3",
          "midi": 57,
          "time": 55.58804999999976,
          "velocity": 0.5905511811023622,
          "duration": 0.2205874999999935
        },
        {
          "name": "A4",
          "midi": 69,
          "time": 56.029224999999755,
          "velocity": 0.5905511811023622,
          "duration": 0.11029374999999675
        },
        {
          "name": "C5",
          "midi": 72,
          "time": 56.029224999999755,
          "velocity": 0.5905511811023622,
          "duration": 0.11029374999999675
        },
        {
          "name": "F#3",
          "midi": 54,
          "time": 56.029224999999755,
          "velocity": 0.6062992125984252,
          "duration": 0.2205874999999935
        },
        {
          "name": "A#4",
          "midi": 70,
          "time": 56.47039999999975,
          "velocity": 0.5826771653543307,
          "duration": 0.11029374999999675
        },
        {
          "name": "D5",
          "midi": 74,
          "time": 56.47039999999975,
          "velocity": 0.5826771653543307,
          "duration": 0.11029374999999675
        },
        {
          "name": "G3",
          "midi": 55,
          "time": 56.47039999999975,
          "velocity": 0.5984251968503937,
          "duration": 0.2205874999999935
        },
        {
          "name": "C5",
          "midi": 72,
          "time": 56.91157499999974,
          "velocity": 0.5984251968503937,
          "duration": 0.11029374999999675
        },
        {
          "name": "D#5",
          "midi": 75,
          "time": 56.91157499999974,
          "velocity": 0.5984251968503937,
          "duration": 0.11029374999999675
        },
        {
          "name": "G3",
          "midi": 55,
          "time": 56.91157499999974,
          "velocity": 0.5905511811023622,
          "duration": 0.2205874999999935
        },
        {
          "name": "A#4",
          "midi": 70,
          "time": 57.35274999999974,
          "velocity": 0.5826771653543307,
          "duration": 0.11029374999999675
        },
        {
          "name": "D5",
          "midi": 74,
          "time": 57.35274999999974,
          "velocity": 0.5826771653543307,
          "duration": 0.11029374999999675
        },
        {
          "name": "G3",
          "midi": 55,
          "time": 57.35274999999974,
          "velocity": 0.5905511811023622,
          "duration": 0.2205874999999935
        },
        {
          "name": "A#4",
          "midi": 70,
          "time": 57.79392499999973,
          "velocity": 0.6771653543307087,
          "duration": 0.441174999999987
        },
        {
          "name": "D5",
          "midi": 74,
          "time": 57.79392499999973,
          "velocity": 0.6771653543307087,
          "duration": 0.441174999999987
        },
        {
          "name": "G5",
          "midi": 79,
          "time": 57.79392499999973,
          "velocity": 0.6929133858267716,
          "duration": 0.11029374999999675
        },
        {
          "name": "D2",
          "midi": 38,
          "time": 57.79392499999973,
          "velocity": 0.84251968503937,
          "duration": 0.441174999999987
        },
        {
          "name": "D3",
          "midi": 50,
          "time": 57.79392499999973,
          "velocity": 0.84251968503937,
          "duration": 0.441174999999987
        },
        {
          "name": "A5",
          "midi": 81,
          "time": 57.90421874999973,
          "velocity": 0.7795275590551181,
          "duration": 0.11029374999999675
        },
        {
          "name": "A#5",
          "midi": 82,
          "time": 58.014512499999725,
          "velocity": 0.8031496062992126,
          "duration": 0.11029374999999675
        },
        {
          "name": "C6",
          "midi": 84,
          "time": 58.12480624999972,
          "velocity": 0.8031496062992126,
          "duration": 0.11029374999999675
        },
        {
          "name": "G5",
          "midi": 79,
          "time": 58.23509999999972,
          "velocity": 1,
          "duration": 0.4411750000000012
        },
        {
          "name": "A#5",
          "midi": 82,
          "time": 58.23509999999972,
          "velocity": 1,
          "duration": 0.4411750000000012
        },
        {
          "name": "D6",
          "midi": 86,
          "time": 58.23509999999972,
          "velocity": 1,
          "duration": 0.4411750000000012
        },
        {
          "name": "G2",
          "midi": 43,
          "time": 58.23509999999972,
          "velocity": 0.937007874015748,
          "duration": 0.4411750000000012
        },
        {
          "name": "G3",
          "midi": 55,
          "time": 58.23509999999972,
          "velocity": 0.937007874015748,
          "duration": 0.4411750000000012
        },
        {
          "name": "A#4",
          "midi": 70,
          "time": 58.67627499999972,
          "velocity": 0.5748031496062992,
          "duration": 0.11029374999999675
        },
        {
          "name": "D5",
          "midi": 74,
          "time": 58.67627499999972,
          "velocity": 0.5748031496062992,
          "duration": 0.11029374999999675
        },
        {
          "name": "G3",
          "midi": 55,
          "time": 58.67627499999972,
          "velocity": 0.6692913385826772,
          "duration": 0.2205874999999935
        },
        {
          "name": "C5",
          "midi": 72,
          "time": 59.117449999999714,
          "velocity": 0.5748031496062992,
          "duration": 0.11029374999999675
        },
        {
          "name": "D#5",
          "midi": 75,
          "time": 59.117449999999714,
          "velocity": 0.5748031496062992,
          "duration": 0.11029374999999675
        },
        {
          "name": "A3",
          "midi": 57,
          "time": 59.117449999999714,
          "velocity": 0.5984251968503937,
          "duration": 0.2205874999999935
        },
        {
          "name": "A4",
          "midi": 69,
          "time": 59.55862499999971,
          "velocity": 0.5905511811023622,
          "duration": 0.11029374999999675
        },
        {
          "name": "C5",
          "midi": 72,
          "time": 59.55862499999971,
          "velocity": 0.5905511811023622,
          "duration": 0.11029374999999675
        },
        {
          "name": "F#3",
          "midi": 54,
          "time": 59.55862499999971,
          "velocity": 0.5984251968503937,
          "duration": 0.2205874999999935
        },
        {
          "name": "A#4",
          "midi": 70,
          "time": 59.9997999999997,
          "velocity": 0.5984251968503937,
          "duration": 0.11029374999999675
        },
        {
          "name": "D5",
          "midi": 74,
          "time": 59.9997999999997,
          "velocity": 0.5984251968503937,
          "duration": 0.11029374999999675
        },
        {
          "name": "A#3",
          "midi": 58,
          "time": 59.9997999999997,
          "velocity": 0.5984251968503937,
          "duration": 0.2205874999999935
        },
        {
          "name": "C5",
          "midi": 72,
          "time": 60.440974999999696,
          "velocity": 0.6062992125984252,
          "duration": 0.11029374999999675
        },
        {
          "name": "D#5",
          "midi": 75,
          "time": 60.440974999999696,
          "velocity": 0.6062992125984252,
          "duration": 0.11029374999999675
        },
        {
          "name": "F3",
          "midi": 53,
          "time": 60.440974999999696,
          "velocity": 0.5905511811023622,
          "duration": 0.2205874999999935
        },
        {
          "name": "A#4",
          "midi": 70,
          "time": 60.88214999999969,
          "velocity": 0.5984251968503937,
          "duration": 0.2205875000000006
        },
        {
          "name": "D5",
          "midi": 74,
          "time": 60.88214999999969,
          "velocity": 0.5984251968503937,
          "duration": 0.2205875000000006
        },
        {
          "name": "A#3",
          "midi": 58,
          "time": 60.88214999999969,
          "velocity": 0.5748031496062992,
          "duration": 0.2205875000000006
        },
        {
          "name": "F5",
          "midi": 77,
          "time": 61.32332499999969,
          "velocity": 0.6692913385826772,
          "duration": 0.11029374999999675
        },
        {
          "name": "F4",
          "midi": 65,
          "time": 61.32332499999969,
          "velocity": 0.5905511811023622,
          "duration": 0.2205874999999935
        },
        {
          "name": "G5",
          "midi": 79,
          "time": 61.43361874999969,
          "velocity": 0.6771653543307087,
          "duration": 0.11029374999999675
        },
        {
          "name": "A5",
          "midi": 81,
          "time": 61.543912499999685,
          "velocity": 0.6692913385826772,
          "duration": 0.11029374999999675
        },
        {
          "name": "A#5",
          "midi": 82,
          "time": 61.65420624999968,
          "velocity": 0.7795275590551181,
          "duration": 0.5620385677083277
        },
        {
          "name": "A2",
          "midi": 45,
          "time": 61.76449999999968,
          "velocity": 0.7795275590551181,
          "duration": 0.2205875000000006
        },
        {
          "name": "A3",
          "midi": 57,
          "time": 61.76449999999968,
          "velocity": 0.7795275590551181,
          "duration": 0.2205875000000006
        },
        {
          "name": "C4",
          "midi": 60,
          "time": 61.98508749999968,
          "velocity": 0.5039370078740157,
          "duration": 0.11029374999999675
        },
        {
          "name": "F4",
          "midi": 65,
          "time": 62.095381249999676,
          "velocity": 0.5905511811023622,
          "duration": 0.11029374999999675
        },
        {
          "name": "C6",
          "midi": 84,
          "time": 62.20567499999967,
          "velocity": 0.8031496062992126,
          "duration": 0.33088124999999735
        },
        {
          "name": "A4",
          "midi": 69,
          "time": 62.20567499999967,
          "velocity": 0.5984251968503937,
          "duration": 0.11029375000000385
        },
        {
          "name": "C5",
          "midi": 72,
          "time": 62.315968749999676,
          "velocity": 0.5826771653543307,
          "duration": 0.11029374999999675
        },
        {
          "name": "F5",
          "midi": 77,
          "time": 62.42626249999967,
          "velocity": 0.5826771653543307,
          "duration": 0.11029374999999675
        },
        {
          "name": "C6",
          "midi": 84,
          "time": 62.53655624999967,
          "velocity": 0.7716535433070866,
          "duration": 0.1139702083333276
        },
        {
          "name": "A5",
          "midi": 81,
          "time": 62.53655624999967,
          "velocity": 0.5905511811023622,
          "duration": 0.11029374999999675
        },
        {
          "name": "D#6",
          "midi": 87,
          "time": 62.64684999999967,
          "velocity": 0.8582677165354331,
          "duration": 0.21185591145832916
        },
        {
          "name": "G#2",
          "midi": 44,
          "time": 62.64684999999967,
          "velocity": 0.84251968503937,
          "duration": 0.2205874999999935
        },
        {
          "name": "G#3",
          "midi": 56,
          "time": 62.64684999999967,
          "velocity": 0.84251968503937,
          "duration": 0.2205874999999935
        },
        {
          "name": "D6",
          "midi": 86,
          "time": 62.86743749999966,
          "velocity": 0.8582677165354331,
          "duration": 0.2205874999999935
        },
        {
          "name": "C4",
          "midi": 60,
          "time": 62.86743749999966,
          "velocity": 0.4881889763779528,
          "duration": 0.11029374999999675
        },
        {
          "name": "D#4",
          "midi": 63,
          "time": 62.97773124999966,
          "velocity": 0.5748031496062992,
          "duration": 0.11029374999999675
        },
        {
          "name": "D6",
          "midi": 86,
          "time": 63.088024999999654,
          "velocity": 0.8582677165354331,
          "duration": 0.22426395833332435
        },
        {
          "name": "G#4",
          "midi": 68,
          "time": 63.088024999999654,
          "velocity": 0.5905511811023622,
          "duration": 0.11029374999999675
        },
        {
          "name": "C5",
          "midi": 72,
          "time": 63.19831874999965,
          "velocity": 0.5905511811023622,
          "duration": 0.11029374999999675
        },
        {
          "name": "C6",
          "midi": 84,
          "time": 63.30861249999965,
          "velocity": 0.8110236220472441,
          "duration": 0.2086390104166611
        },
        {
          "name": "D#5",
          "midi": 75,
          "time": 63.30861249999965,
          "velocity": 0.5826771653543307,
          "duration": 0.11029374999999675
        },
        {
          "name": "G#5",
          "midi": 80,
          "time": 63.418906249999644,
          "velocity": 0.5984251968503937,
          "duration": 0.11029374999999675
        },
        {
          "name": "A#5",
          "midi": 82,
          "time": 63.52919999999964,
          "velocity": 0.8503937007874016,
          "duration": 0.67371098958332
        },
        {
          "name": "D#2",
          "midi": 39,
          "time": 63.52919999999964,
          "velocity": 0.84251968503937,
          "duration": 0.2205875000000006
        },
        {
          "name": "D#3",
          "midi": 51,
          "time": 63.52919999999964,
          "velocity": 0.84251968503937,
          "duration": 0.2205875000000006
        },
        {
          "name": "G3",
          "midi": 55,
          "time": 63.74978749999964,
          "velocity": 0.5275590551181102,
          "duration": 0.11029374999999675
        },
        {
          "name": "A#3",
          "midi": 58,
          "time": 63.86008124999964,
          "velocity": 0.5669291338582677,
          "duration": 0.11029374999999675
        },
        {
          "name": "D#4",
          "midi": 63,
          "time": 63.970374999999635,
          "velocity": 0.5826771653543307,
          "duration": 0.11029374999999675
        },
        {
          "name": "G4",
          "midi": 67,
          "time": 64.08066874999963,
          "velocity": 0.5826771653543307,
          "duration": 0.11029374999999675
        },
        {
          "name": "A5",
          "midi": 81,
          "time": 64.19096249999963,
          "velocity": 0.8267716535433071,
          "duration": 0.11213197916666218
        },
        {
          "name": "A#4",
          "midi": 70,
          "time": 64.19096249999963,
          "velocity": 0.5984251968503937,
          "duration": 0.11029374999999675
        },
        {
          "name": "A#5",
          "midi": 82,
          "time": 64.30125624999962,
          "velocity": 0.7952755905511811,
          "duration": 0.16727885416666766
        },
        {
          "name": "D#5",
          "midi": 75,
          "time": 64.30125624999962,
          "velocity": 0.5905511811023622,
          "duration": 0.16544062500000223
        },
        {
          "name": "G5",
          "midi": 79,
          "time": 64.46669687499963,
          "velocity": 0.7559055118110236,
          "duration": 0.627295703124986
        },
        {
          "name": "D2",
          "midi": 38,
          "time": 64.46669687499963,
          "velocity": 0.84251968503937,
          "duration": 0.2205874999999935
        },
        {
          "name": "D3",
          "midi": 50,
          "time": 64.46669687499963,
          "velocity": 0.84251968503937,
          "duration": 0.2205874999999935
        },
        {
          "name": "G3",
          "midi": 55,
          "time": 64.68728437499962,
          "velocity": 0.5118110236220472,
          "duration": 0.11029374999999675
        },
        {
          "name": "A#3",
          "midi": 58,
          "time": 64.79757812499962,
          "velocity": 0.5669291338582677,
          "duration": 0.11029374999999675
        },
        {
          "name": "D4",
          "midi": 62,
          "time": 64.90787187499961,
          "velocity": 0.5984251968503937,
          "duration": 0.11029374999999675
        },
        {
          "name": "G4",
          "midi": 67,
          "time": 65.01816562499961,
          "velocity": 0.5826771653543307,
          "duration": 0.11029374999999675
        },
        {
          "name": "G5",
          "midi": 79,
          "time": 65.12845937499961,
          "velocity": 0.8188976377952756,
          "duration": 0.11029374999999675
        },
        {
          "name": "A#4",
          "midi": 70,
          "time": 65.12845937499961,
          "velocity": 0.5826771653543307,
          "duration": 0.11029374999999675
        },
        {
          "name": "A5",
          "midi": 81,
          "time": 65.2387531249996,
          "velocity": 0.8188976377952756,
          "duration": 0.11029374999999675
        },
        {
          "name": "D5",
          "midi": 74,
          "time": 65.2387531249996,
          "velocity": 0.5984251968503937,
          "duration": 0.11029374999999675
        },
        {
          "name": "A#5",
          "midi": 82,
          "time": 65.3490468749996,
          "velocity": 0.8267716535433071,
          "duration": 0.22426395833332435
        },
        {
          "name": "C2",
          "midi": 36,
          "time": 65.3490468749996,
          "velocity": 0.84251968503937,
          "duration": 0.2205874999999935
        },
        {
          "name": "C3",
          "midi": 48,
          "time": 65.3490468749996,
          "velocity": 0.84251968503937,
          "duration": 0.2205874999999935
        },
        {
          "name": "D5",
          "midi": 74,
          "time": 65.5696343749996,
          "velocity": 0.7401574803149606,
          "duration": 0.22426395833332435
        },
        {
          "name": "C4",
          "midi": 60,
          "time": 65.5696343749996,
          "velocity": 0.5354330708661418,
          "duration": 0.11029374999999675
        },
        {
          "name": "G3",
          "midi": 55,
          "time": 65.67992812499959,
          "velocity": 0.5511811023622047,
          "duration": 0.11029374999999675
        },
        {
          "name": "D#5",
          "midi": 75,
          "time": 65.79022187499959,
          "velocity": 0.7716535433070866,
          "duration": 0.22426395833332435
        },
        {
          "name": "C4",
          "midi": 60,
          "time": 65.79022187499959,
          "velocity": 0.5826771653543307,
          "duration": 0.11029374999999675
        },
        {
          "name": "D#4",
          "midi": 63,
          "time": 65.90051562499958,
          "velocity": 0.5826771653543307,
          "duration": 0.11029374999999675
        },
        {
          "name": "A5",
          "midi": 81,
          "time": 66.01080937499958,
          "velocity": 0.8503937007874016,
          "duration": 0.22426395833332435
        },
        {
          "name": "G4",
          "midi": 67,
          "time": 66.01080937499958,
          "velocity": 0.6141732283464567,
          "duration": 0.2205874999999935
        },
        {
          "name": "A#5",
          "midi": 82,
          "time": 66.23139687499958,
          "velocity": 0.8110236220472441,
          "duration": 0.22426395833332435
        },
        {
          "name": "C#2",
          "midi": 37,
          "time": 66.23139687499958,
          "velocity": 0.84251968503937,
          "duration": 0.2205874999999935
        },
        {
          "name": "C#3",
          "midi": 49,
          "time": 66.23139687499958,
          "velocity": 0.84251968503937,
          "duration": 0.2205874999999935
        },
        {
          "name": "C#5",
          "midi": 73,
          "time": 66.45198437499957,
          "velocity": 0.7244094488188977,
          "duration": 0.22426395833332435
        },
        {
          "name": "C#4",
          "midi": 61,
          "time": 66.45198437499957,
          "velocity": 0.5511811023622047,
          "duration": 0.11029374999999675
        },
        {
          "name": "A3",
          "midi": 57,
          "time": 66.56227812499957,
          "velocity": 0.5590551181102362,
          "duration": 0.11029374999999675
        },
        {
          "name": "D5",
          "midi": 74,
          "time": 66.67257187499956,
          "velocity": 0.8031496062992126,
          "duration": 0.22426395833332435
        },
        {
          "name": "C#4",
          "midi": 61,
          "time": 66.67257187499956,
          "velocity": 0.5905511811023622,
          "duration": 0.11029374999999675
        },
        {
          "name": "E4",
          "midi": 64,
          "time": 66.78286562499956,
          "velocity": 0.5905511811023622,
          "duration": 0.11029374999999675
        },
        {
          "name": "G5",
          "midi": 79,
          "time": 66.89315937499956,
          "velocity": 0.84251968503937,
          "duration": 0.22426395833332435
        },
        {
          "name": "G4",
          "midi": 67,
          "time": 66.89315937499956,
          "velocity": 0.5748031496062992,
          "duration": 0.2205874999999935
        },
        {
          "name": "A#5",
          "midi": 82,
          "time": 67.11374687499955,
          "velocity": 0.7874015748031497,
          "duration": 0.6737109895833129
        },
        {
          "name": "D2",
          "midi": 38,
          "time": 67.11374687499955,
          "velocity": 0.84251968503937,
          "duration": 0.2205874999999935
        },
        {
          "name": "D3",
          "midi": 50,
          "time": 67.11374687499955,
          "velocity": 0.84251968503937,
          "duration": 0.2205874999999935
        },
        {
          "name": "F#3",
          "midi": 54,
          "time": 67.33433437499954,
          "velocity": 0.5275590551181102,
          "duration": 0.11029374999999675
        },
        {
          "name": "A3",
          "midi": 57,
          "time": 67.44462812499954,
          "velocity": 0.5433070866141733,
          "duration": 0.11029374999999675
        },
        {
          "name": "D4",
          "midi": 62,
          "time": 67.55492187499954,
          "velocity": 0.5984251968503937,
          "duration": 0.11029374999999675
        },
        {
          "name": "F#4",
          "midi": 66,
          "time": 67.66521562499953,
          "velocity": 0.5905511811023622,
          "duration": 0.11029374999999675
        },
        {
          "name": "A5",
          "midi": 81,
          "time": 67.77550937499953,
          "velocity": 0.8031496062992126,
          "duration": 0.11213197916666218
        },
        {
          "name": "A4",
          "midi": 69,
          "time": 67.77550937499953,
          "velocity": 0.5826771653543307,
          "duration": 0.11029374999999675
        },
        {
          "name": "G#5",
          "midi": 80,
          "time": 67.88580312499953,
          "velocity": 0.7559055118110236,
          "duration": 0.11213197916666218
        },
        {
          "name": "D5",
          "midi": 74,
          "time": 67.88580312499953,
          "velocity": 0.5905511811023622,
          "duration": 0.11029374999999675
        },
        {
          "name": "A5",
          "midi": 81,
          "time": 67.99609687499952,
          "velocity": 0.8031496062992126,
          "duration": 0.2086390104166611
        },
        {
          "name": "D6",
          "midi": 86,
          "time": 67.99609687499952,
          "velocity": 0.8031496062992126,
          "duration": 0.2086390104166611
        },
        {
          "name": "C3",
          "midi": 48,
          "time": 67.99609687499952,
          "velocity": 0.7874015748031497,
          "duration": 0.441174999999987
        },
        {
          "name": "C5",
          "midi": 72,
          "time": 68.21668437499952,
          "velocity": 0.6299212598425197,
          "duration": 0.2205874999999935
        },
        {
          "name": "D5",
          "midi": 74,
          "time": 68.43727187499951,
          "velocity": 0.6299212598425197,
          "duration": 0.11029374999999675
        },
        {
          "name": "D3",
          "midi": 50,
          "time": 68.43727187499951,
          "velocity": 0.5433070866141733,
          "duration": 0.441174999999987
        },
        {
          "name": "D#3",
          "midi": 51,
          "time": 68.43727187499951,
          "velocity": 0.5433070866141733,
          "duration": 0.441174999999987
        },
        {
          "name": "C5",
          "midi": 72,
          "time": 68.5475656249995,
          "velocity": 0.6929133858267716,
          "duration": 0.11029374999999675
        },
        {
          "name": "A4",
          "midi": 69,
          "time": 68.6578593749995,
          "velocity": 0.5118110236220472,
          "duration": 0.11029374999999675
        },
        {
          "name": "F#4",
          "midi": 66,
          "time": 68.7681531249995,
          "velocity": 0.6456692913385826,
          "duration": 0.11029374999999675
        },
        {
          "name": "D4",
          "midi": 62,
          "time": 68.8784468749995,
          "velocity": 0.6299212598425197,
          "duration": 0.8823499999999882
        },
        {
          "name": "G3",
          "midi": 55,
          "time": 68.8784468749995,
          "velocity": 0.41732283464566927,
          "duration": 0.2205874999999935
        },
        {
          "name": "A#3",
          "midi": 58,
          "time": 68.8784468749995,
          "velocity": 0.41732283464566927,
          "duration": 0.2205874999999935
        },
        {
          "name": "G3",
          "midi": 55,
          "time": 69.09903437499949,
          "velocity": 0.4881889763779528,
          "duration": 0.4411750000000012
        },
        {
          "name": "A#3",
          "midi": 58,
          "time": 69.09903437499949,
          "velocity": 0.4881889763779528,
          "duration": 0.4411750000000012
        },
        {
          "name": "G3",
          "midi": 55,
          "time": 69.54020937499949,
          "velocity": 0.47244094488188976,
          "duration": 0.2205874999999935
        },
        {
          "name": "A#3",
          "midi": 58,
          "time": 69.54020937499949,
          "velocity": 0.47244094488188976,
          "duration": 0.2205874999999935
        },
        {
          "name": "G3",
          "midi": 55,
          "time": 69.76079687499949,
          "velocity": 0.49606299212598426,
          "duration": 0.2205874999999935
        },
        {
          "name": "A#3",
          "midi": 58,
          "time": 69.76079687499949,
          "velocity": 0.49606299212598426,
          "duration": 0.2205874999999935
        },
        {
          "name": "D4",
          "midi": 62,
          "time": 69.98138437499948,
          "velocity": 0.5826771653543307,
          "duration": 0.2205874999999935
        },
        {
          "name": "G3",
          "midi": 55,
          "time": 69.98138437499948,
          "velocity": 0.48031496062992124,
          "duration": 0.441174999999987
        },
        {
          "name": "A#3",
          "midi": 58,
          "time": 69.98138437499948,
          "velocity": 0.48031496062992124,
          "duration": 0.441174999999987
        },
        {
          "name": "A#4",
          "midi": 70,
          "time": 70.20197187499947,
          "velocity": 0.7165354330708661,
          "duration": 0.2205874999999935
        },
        {
          "name": "A4",
          "midi": 69,
          "time": 70.42255937499947,
          "velocity": 0.6535433070866141,
          "duration": 0.2205874999999935
        },
        {
          "name": "G3",
          "midi": 55,
          "time": 70.42255937499947,
          "velocity": 0.47244094488188976,
          "duration": 0.2205874999999935
        },
        {
          "name": "A#3",
          "midi": 58,
          "time": 70.42255937499947,
          "velocity": 0.47244094488188976,
          "duration": 0.2205874999999935
        },
        {
          "name": "D#4",
          "midi": 63,
          "time": 70.64314687499946,
          "velocity": 0.6299212598425197,
          "duration": 0.2205874999999935
        },
        {
          "name": "G4",
          "midi": 67,
          "time": 70.64314687499946,
          "velocity": 0.6299212598425197,
          "duration": 0.2205874999999935
        },
        {
          "name": "G3",
          "midi": 55,
          "time": 70.64314687499946,
          "velocity": 0.47244094488188976,
          "duration": 0.2205874999999935
        },
        {
          "name": "A#3",
          "midi": 58,
          "time": 70.64314687499946,
          "velocity": 0.47244094488188976,
          "duration": 0.2205874999999935
        },
        {
          "name": "D4",
          "midi": 62,
          "time": 70.86373437499945,
          "velocity": 0.6220472440944882,
          "duration": 0.11029374999999675
        },
        {
          "name": "G3",
          "midi": 55,
          "time": 70.86373437499945,
          "velocity": 0.4881889763779528,
          "duration": 0.441174999999987
        },
        {
          "name": "A#3",
          "midi": 58,
          "time": 70.86373437499945,
          "velocity": 0.4881889763779528,
          "duration": 0.441174999999987
        },
        {
          "name": "D#4",
          "midi": 63,
          "time": 70.97402812499945,
          "velocity": 0.6692913385826772,
          "duration": 0.11029374999999675
        },
        {
          "name": "F4",
          "midi": 65,
          "time": 71.08432187499945,
          "velocity": 0.6692913385826772,
          "duration": 0.11029374999999675
        },
        {
          "name": "G4",
          "midi": 67,
          "time": 71.19461562499944,
          "velocity": 0.6929133858267716,
          "duration": 0.11029374999999675
        },
        {
          "name": "A4",
          "midi": 69,
          "time": 71.30490937499944,
          "velocity": 0.6771653543307087,
          "duration": 0.11029374999999675
        },
        {
          "name": "G3",
          "midi": 55,
          "time": 71.30490937499944,
          "velocity": 0.48031496062992124,
          "duration": 0.2205874999999935
        },
        {
          "name": "A#3",
          "midi": 58,
          "time": 71.30490937499944,
          "velocity": 0.48031496062992124,
          "duration": 0.2205874999999935
        },
        {
          "name": "A#4",
          "midi": 70,
          "time": 71.41520312499944,
          "velocity": 0.6692913385826772,
          "duration": 0.11029374999999675
        },
        {
          "name": "G3",
          "midi": 55,
          "time": 71.52549687499943,
          "velocity": 0.4881889763779528,
          "duration": 0.2205874999999935
        },
        {
          "name": "A#3",
          "midi": 58,
          "time": 71.52549687499943,
          "velocity": 0.4881889763779528,
          "duration": 0.2205874999999935
        },
        {
          "name": "G4",
          "midi": 67,
          "time": 71.74608437499943,
          "velocity": 0.6062992125984252,
          "duration": 0.2205874999999935
        },
        {
          "name": "G3",
          "midi": 55,
          "time": 71.74608437499943,
          "velocity": 0.4881889763779528,
          "duration": 0.441174999999987
        },
        {
          "name": "A#3",
          "midi": 58,
          "time": 71.74608437499943,
          "velocity": 0.4881889763779528,
          "duration": 0.441174999999987
        },
        {
          "name": "D4",
          "midi": 62,
          "time": 71.96667187499942,
          "velocity": 0.49606299212598426,
          "duration": 0.2205874999999935
        },
        {
          "name": "A#4",
          "midi": 70,
          "time": 71.96667187499942,
          "velocity": 0.6771653543307087,
          "duration": 0.2205874999999935
        },
        {
          "name": "G4",
          "midi": 67,
          "time": 72.18725937499941,
          "velocity": 0.49606299212598426,
          "duration": 0.2205874999999935
        },
        {
          "name": "C5",
          "midi": 72,
          "time": 72.18725937499941,
          "velocity": 0.6377952755905512,
          "duration": 0.2205874999999935
        },
        {
          "name": "G3",
          "midi": 55,
          "time": 72.18725937499941,
          "velocity": 0.4881889763779528,
          "duration": 0.2205874999999935
        },
        {
          "name": "A#3",
          "midi": 58,
          "time": 72.18725937499941,
          "velocity": 0.4881889763779528,
          "duration": 0.2205874999999935
        },
        {
          "name": "F4",
          "midi": 65,
          "time": 72.40784687499941,
          "velocity": 0.5196850393700787,
          "duration": 0.8823499999999882
        },
        {
          "name": "D5",
          "midi": 74,
          "time": 72.40784687499941,
          "velocity": 0.6771653543307087,
          "duration": 0.8823499999999882
        },
        {
          "name": "G3",
          "midi": 55,
          "time": 72.40784687499941,
          "velocity": 0.47244094488188976,
          "duration": 0.2205874999999935
        },
        {
          "name": "A#3",
          "midi": 58,
          "time": 72.40784687499941,
          "velocity": 0.47244094488188976,
          "duration": 0.2205874999999935
        },
        {
          "name": "G3",
          "midi": 55,
          "time": 72.6284343749994,
          "velocity": 0.47244094488188976,
          "duration": 0.4411750000000012
        },
        {
          "name": "A#3",
          "midi": 58,
          "time": 72.6284343749994,
          "velocity": 0.47244094488188976,
          "duration": 0.4411750000000012
        },
        {
          "name": "G3",
          "midi": 55,
          "time": 73.0696093749994,
          "velocity": 0.47244094488188976,
          "duration": 0.2205874999999935
        },
        {
          "name": "A#3",
          "midi": 58,
          "time": 73.0696093749994,
          "velocity": 0.47244094488188976,
          "duration": 0.2205874999999935
        },
        {
          "name": "G3",
          "midi": 55,
          "time": 73.2901968749994,
          "velocity": 0.48031496062992124,
          "duration": 0.2205874999999935
        },
        {
          "name": "A#3",
          "midi": 58,
          "time": 73.2901968749994,
          "velocity": 0.48031496062992124,
          "duration": 0.2205874999999935
        },
        {
          "name": "F4",
          "midi": 65,
          "time": 73.51078437499939,
          "velocity": 0.49606299212598426,
          "duration": 0.2205874999999935
        },
        {
          "name": "D5",
          "midi": 74,
          "time": 73.51078437499939,
          "velocity": 0.7165354330708661,
          "duration": 0.2205874999999935
        },
        {
          "name": "G3",
          "midi": 55,
          "time": 73.51078437499939,
          "velocity": 0.47244094488188976,
          "duration": 0.441174999999987
        },
        {
          "name": "A#3",
          "midi": 58,
          "time": 73.51078437499939,
          "velocity": 0.47244094488188976,
          "duration": 0.441174999999987
        },
        {
          "name": "D#4",
          "midi": 63,
          "time": 73.73137187499938,
          "velocity": 0.7874015748031497,
          "duration": 0.2205874999999935
        },
        {
          "name": "D#5",
          "midi": 75,
          "time": 73.73137187499938,
          "velocity": 0.7874015748031497,
          "duration": 0.2205874999999935
        },
        {
          "name": "F4",
          "midi": 65,
          "time": 73.95195937499938,
          "velocity": 0.49606299212598426,
          "duration": 0.2205874999999935
        },
        {
          "name": "F5",
          "midi": 77,
          "time": 73.95195937499938,
          "velocity": 0.8031496062992126,
          "duration": 0.2205874999999935
        },
        {
          "name": "G3",
          "midi": 55,
          "time": 73.95195937499938,
          "velocity": 0.4881889763779528,
          "duration": 0.2205874999999935
        },
        {
          "name": "A#3",
          "midi": 58,
          "time": 73.95195937499938,
          "velocity": 0.4881889763779528,
          "duration": 0.2205874999999935
        },
        {
          "name": "C4",
          "midi": 60,
          "time": 74.17254687499937,
          "velocity": 0.6141732283464567,
          "duration": 0.8823499999999882
        },
        {
          "name": "C5",
          "midi": 72,
          "time": 74.17254687499937,
          "velocity": 0.6141732283464567,
          "duration": 0.8823499999999882
        },
        {
          "name": "F3",
          "midi": 53,
          "time": 74.17254687499937,
          "velocity": 0.4645669291338583,
          "duration": 0.2205874999999935
        },
        {
          "name": "A3",
          "midi": 57,
          "time": 74.17254687499937,
          "velocity": 0.4645669291338583,
          "duration": 0.2205874999999935
        },
        {
          "name": "F3",
          "midi": 53,
          "time": 74.39313437499936,
          "velocity": 0.4881889763779528,
          "duration": 0.4411750000000012
        },
        {
          "name": "A3",
          "midi": 57,
          "time": 74.39313437499936,
          "velocity": 0.4881889763779528,
          "duration": 0.4411750000000012
        },
        {
          "name": "F3",
          "midi": 53,
          "time": 74.83430937499936,
          "velocity": 0.47244094488188976,
          "duration": 0.2205874999999935
        },
        {
          "name": "A3",
          "midi": 57,
          "time": 74.83430937499936,
          "velocity": 0.47244094488188976,
          "duration": 0.2205874999999935
        },
        {
          "name": "F3",
          "midi": 53,
          "time": 75.05489687499936,
          "velocity": 0.49606299212598426,
          "duration": 0.2205874999999935
        },
        {
          "name": "A3",
          "midi": 57,
          "time": 75.05489687499936,
          "velocity": 0.49606299212598426,
          "duration": 0.2205874999999935
        },
        {
          "name": "C4",
          "midi": 60,
          "time": 75.27548437499935,
          "velocity": 0.5984251968503937,
          "duration": 0.2205874999999935
        },
        {
          "name": "C5",
          "midi": 72,
          "time": 75.27548437499935,
          "velocity": 0.5984251968503937,
          "duration": 0.2205874999999935
        },
        {
          "name": "F3",
          "midi": 53,
          "time": 75.27548437499935,
          "velocity": 0.48031496062992124,
          "duration": 0.441174999999987
        },
        {
          "name": "A3",
          "midi": 57,
          "time": 75.27548437499935,
          "velocity": 0.48031496062992124,
          "duration": 0.441174999999987
        },
        {
          "name": "F4",
          "midi": 65,
          "time": 75.49607187499934,
          "velocity": 0.6850393700787402,
          "duration": 0.2205874999999935
        },
        {
          "name": "F5",
          "midi": 77,
          "time": 75.49607187499934,
          "velocity": 0.6850393700787402,
          "duration": 0.2205874999999935
        },
        {
          "name": "D#4",
          "midi": 63,
          "time": 75.71665937499934,
          "velocity": 0.6299212598425197,
          "duration": 0.2205874999999935
        },
        {
          "name": "D#5",
          "midi": 75,
          "time": 75.71665937499934,
          "velocity": 0.6299212598425197,
          "duration": 0.2205874999999935
        },
        {
          "name": "F3",
          "midi": 53,
          "time": 75.71665937499934,
          "velocity": 0.4881889763779528,
          "duration": 0.2205874999999935
        },
        {
          "name": "A3",
          "midi": 57,
          "time": 75.71665937499934,
          "velocity": 0.4881889763779528,
          "duration": 0.2205874999999935
        },
        {
          "name": "D6",
          "midi": 86,
          "time": 75.93724687499933,
          "velocity": 0.84251968503937,
          "duration": 0.441174999999987
        },
        {
          "name": "G3",
          "midi": 55,
          "time": 75.93724687499933,
          "velocity": 0.5984251968503937,
          "duration": 0.2205874999999935
        },
        {
          "name": "A#3",
          "midi": 58,
          "time": 75.93724687499933,
          "velocity": 0.5984251968503937,
          "duration": 0.2205874999999935
        },
        {
          "name": "D4",
          "midi": 62,
          "time": 75.93724687499933,
          "velocity": 0.5984251968503937,
          "duration": 0.2205874999999935
        },
        {
          "name": "G3",
          "midi": 55,
          "time": 76.15783437499933,
          "velocity": 0.6535433070866141,
          "duration": 0.441174999999987
        },
        {
          "name": "A#3",
          "midi": 58,
          "time": 76.15783437499933,
          "velocity": 0.6535433070866141,
          "duration": 0.441174999999987
        },
        {
          "name": "D4",
          "midi": 62,
          "time": 76.15783437499933,
          "velocity": 0.6535433070866141,
          "duration": 0.441174999999987
        },
        {
          "name": "G5",
          "midi": 79,
          "time": 76.37842187499932,
          "velocity": 0.8110236220472441,
          "duration": 0.441174999999987
        },
        {
          "name": "G3",
          "midi": 55,
          "time": 76.59900937499931,
          "velocity": 0.6535433070866141,
          "duration": 0.2205874999999935
        },
        {
          "name": "A#3",
          "midi": 58,
          "time": 76.59900937499931,
          "velocity": 0.6535433070866141,
          "duration": 0.2205874999999935
        },
        {
          "name": "D4",
          "midi": 62,
          "time": 76.59900937499931,
          "velocity": 0.6535433070866141,
          "duration": 0.2205874999999935
        },
        {
          "name": "F3",
          "midi": 53,
          "time": 76.8195968749993,
          "velocity": 0.6692913385826772,
          "duration": 0.2205874999999935
        },
        {
          "name": "A#3",
          "midi": 58,
          "time": 76.8195968749993,
          "velocity": 0.6692913385826772,
          "duration": 0.2205874999999935
        },
        {
          "name": "D4",
          "midi": 62,
          "time": 76.8195968749993,
          "velocity": 0.6692913385826772,
          "duration": 0.2205874999999935
        },
        {
          "name": "D5",
          "midi": 74,
          "time": 77.0401843749993,
          "velocity": 0.7244094488188977,
          "duration": 0.2205874999999935
        },
        {
          "name": "F3",
          "midi": 53,
          "time": 77.0401843749993,
          "velocity": 0.6614173228346457,
          "duration": 0.441174999999987
        },
        {
          "name": "A#3",
          "midi": 58,
          "time": 77.0401843749993,
          "velocity": 0.6614173228346457,
          "duration": 0.441174999999987
        },
        {
          "name": "D4",
          "midi": 62,
          "time": 77.0401843749993,
          "velocity": 0.6614173228346457,
          "duration": 0.441174999999987
        },
        {
          "name": "A#4",
          "midi": 70,
          "time": 77.26077187499929,
          "velocity": 0.7637795275590551,
          "duration": 0.2205874999999935
        },
        {
          "name": "A#5",
          "midi": 82,
          "time": 77.26077187499929,
          "velocity": 0.7637795275590551,
          "duration": 0.2205874999999935
        },
        {
          "name": "A4",
          "midi": 69,
          "time": 77.48135937499929,
          "velocity": 0.7637795275590551,
          "duration": 0.2205874999999935
        },
        {
          "name": "A5",
          "midi": 81,
          "time": 77.48135937499929,
          "velocity": 0.7637795275590551,
          "duration": 0.2205874999999935
        },
        {
          "name": "F3",
          "midi": 53,
          "time": 77.48135937499929,
          "velocity": 0.6456692913385826,
          "duration": 0.2205874999999935
        },
        {
          "name": "A#3",
          "midi": 58,
          "time": 77.48135937499929,
          "velocity": 0.6456692913385826,
          "duration": 0.2205874999999935
        },
        {
          "name": "D4",
          "midi": 62,
          "time": 77.48135937499929,
          "velocity": 0.6456692913385826,
          "duration": 0.2205874999999935
        },
        {
          "name": "G4",
          "midi": 67,
          "time": 77.70194687499928,
          "velocity": 0.7322834645669292,
          "duration": 0.8823499999999882
        },
        {
          "name": "G5",
          "midi": 79,
          "time": 77.70194687499928,
          "velocity": 0.7322834645669292,
          "duration": 0.8823499999999882
        },
        {
          "name": "E3",
          "midi": 52,
          "time": 77.70194687499928,
          "velocity": 0.6614173228346457,
          "duration": 0.2205874999999935
        },
        {
          "name": "A#3",
          "midi": 58,
          "time": 77.70194687499928,
          "velocity": 0.6614173228346457,
          "duration": 0.2205874999999935
        },
        {
          "name": "D4",
          "midi": 62,
          "time": 77.70194687499928,
          "velocity": 0.6614173228346457,
          "duration": 0.2205874999999935
        },
        {
          "name": "E3",
          "midi": 52,
          "time": 77.92253437499927,
          "velocity": 0.6692913385826772,
          "duration": 0.4411750000000012
        },
        {
          "name": "A#3",
          "midi": 58,
          "time": 77.92253437499927,
          "velocity": 0.6692913385826772,
          "duration": 0.4411750000000012
        },
        {
          "name": "D4",
          "midi": 62,
          "time": 77.92253437499927,
          "velocity": 0.6692913385826772,
          "duration": 0.4411750000000012
        },
        {
          "name": "E3",
          "midi": 52,
          "time": 78.36370937499927,
          "velocity": 0.7007874015748031,
          "duration": 0.2205874999999935
        },
        {
          "name": "A#3",
          "midi": 58,
          "time": 78.36370937499927,
          "velocity": 0.7007874015748031,
          "duration": 0.2205874999999935
        },
        {
          "name": "D4",
          "midi": 62,
          "time": 78.36370937499927,
          "velocity": 0.7007874015748031,
          "duration": 0.2205874999999935
        },
        {
          "name": "D#3",
          "midi": 51,
          "time": 78.58429687499927,
          "velocity": 0.7244094488188977,
          "duration": 0.2205874999999935
        },
        {
          "name": "A#3",
          "midi": 58,
          "time": 78.58429687499927,
          "velocity": 0.7244094488188977,
          "duration": 0.2205874999999935
        },
        {
          "name": "D4",
          "midi": 62,
          "time": 78.58429687499927,
          "velocity": 0.7244094488188977,
          "duration": 0.2205874999999935
        },
        {
          "name": "G4",
          "midi": 67,
          "time": 78.80488437499926,
          "velocity": 0.7480314960629921,
          "duration": 0.2205874999999935
        },
        {
          "name": "G5",
          "midi": 79,
          "time": 78.80488437499926,
          "velocity": 0.7480314960629921,
          "duration": 0.2205874999999935
        },
        {
          "name": "D#3",
          "midi": 51,
          "time": 78.80488437499926,
          "velocity": 0.7244094488188977,
          "duration": 0.441174999999987
        },
        {
          "name": "A#3",
          "midi": 58,
          "time": 78.80488437499926,
          "velocity": 0.7244094488188977,
          "duration": 0.441174999999987
        },
        {
          "name": "D4",
          "midi": 62,
          "time": 78.80488437499926,
          "velocity": 0.7244094488188977,
          "duration": 0.441174999999987
        },
        {
          "name": "A#4",
          "midi": 70,
          "time": 79.02547187499925,
          "velocity": 0.7480314960629921,
          "duration": 0.2205874999999935
        },
        {
          "name": "A#5",
          "midi": 82,
          "time": 79.02547187499925,
          "velocity": 0.7480314960629921,
          "duration": 0.2205874999999935
        },
        {
          "name": "C5",
          "midi": 72,
          "time": 79.24605937499925,
          "velocity": 0.7480314960629921,
          "duration": 0.2205874999999935
        },
        {
          "name": "C6",
          "midi": 84,
          "time": 79.24605937499925,
          "velocity": 0.7480314960629921,
          "duration": 0.2205874999999935
        },
        {
          "name": "D#3",
          "midi": 51,
          "time": 79.24605937499925,
          "velocity": 0.7559055118110236,
          "duration": 0.2205874999999935
        },
        {
          "name": "A#3",
          "midi": 58,
          "time": 79.24605937499925,
          "velocity": 0.7559055118110236,
          "duration": 0.2205874999999935
        },
        {
          "name": "D4",
          "midi": 62,
          "time": 79.24605937499925,
          "velocity": 0.7559055118110236,
          "duration": 0.2205874999999935
        },
        {
          "name": "D5",
          "midi": 74,
          "time": 79.46664687499924,
          "velocity": 0.7795275590551181,
          "duration": 0.6617624999999805
        },
        {
          "name": "D6",
          "midi": 86,
          "time": 79.46664687499924,
          "velocity": 0.7795275590551181,
          "duration": 0.6617624999999805
        },
        {
          "name": "C2",
          "midi": 36,
          "time": 79.46664687499924,
          "velocity": 0.7007874015748031,
          "duration": 0.882349999999974
        },
        {
          "name": "C3",
          "midi": 48,
          "time": 79.46664687499924,
          "velocity": 0.7007874015748031,
          "duration": 0.882349999999974
        },
        {
          "name": "G3",
          "midi": 55,
          "time": 79.68723437499924,
          "velocity": 0.5984251968503937,
          "duration": 0.2205874999999935
        },
        {
          "name": "A#3",
          "midi": 58,
          "time": 79.68723437499924,
          "velocity": 0.5984251968503937,
          "duration": 0.2205874999999935
        },
        {
          "name": "D4",
          "midi": 62,
          "time": 79.68723437499924,
          "velocity": 0.5984251968503937,
          "duration": 0.2205874999999935
        },
        {
          "name": "G3",
          "midi": 55,
          "time": 79.90782187499923,
          "velocity": 0.6771653543307087,
          "duration": 0.2205874999999935
        },
        {
          "name": "A#3",
          "midi": 58,
          "time": 79.90782187499923,
          "velocity": 0.6771653543307087,
          "duration": 0.2205874999999935
        },
        {
          "name": "D4",
          "midi": 62,
          "time": 79.90782187499923,
          "velocity": 0.6771653543307087,
          "duration": 0.2205874999999935
        },
        {
          "name": "G4",
          "midi": 67,
          "time": 80.12840937499922,
          "velocity": 0.7480314960629921,
          "duration": 0.2205874999999935
        },
        {
          "name": "G5",
          "midi": 79,
          "time": 80.12840937499922,
          "velocity": 0.7480314960629921,
          "duration": 0.2205874999999935
        },
        {
          "name": "G3",
          "midi": 55,
          "time": 80.12840937499922,
          "velocity": 0.7086614173228346,
          "duration": 0.2205874999999935
        },
        {
          "name": "A#3",
          "midi": 58,
          "time": 80.12840937499922,
          "velocity": 0.7086614173228346,
          "duration": 0.2205874999999935
        },
        {
          "name": "D4",
          "midi": 62,
          "time": 80.12840937499922,
          "velocity": 0.7086614173228346,
          "duration": 0.2205874999999935
        },
        {
          "name": "D5",
          "midi": 74,
          "time": 80.34899687499922,
          "velocity": 0.889763779527559,
          "duration": 0.6617624999999805
        },
        {
          "name": "D6",
          "midi": 86,
          "time": 80.34899687499922,
          "velocity": 0.889763779527559,
          "duration": 0.6617624999999805
        },
        {
          "name": "A#1",
          "midi": 34,
          "time": 80.34899687499922,
          "velocity": 0.8188976377952756,
          "duration": 0.882349999999974
        },
        {
          "name": "A#2",
          "midi": 46,
          "time": 80.34899687499922,
          "velocity": 0.8188976377952756,
          "duration": 0.882349999999974
        },
        {
          "name": "G3",
          "midi": 55,
          "time": 80.56958437499921,
          "velocity": 0.6456692913385826,
          "duration": 0.2205874999999935
        },
        {
          "name": "A#3",
          "midi": 58,
          "time": 80.56958437499921,
          "velocity": 0.6456692913385826,
          "duration": 0.2205874999999935
        },
        {
          "name": "C4",
          "midi": 60,
          "time": 80.56958437499921,
          "velocity": 0.6456692913385826,
          "duration": 0.2205874999999935
        },
        {
          "name": "G3",
          "midi": 55,
          "time": 80.7901718749992,
          "velocity": 0.7401574803149606,
          "duration": 0.2205874999999935
        },
        {
          "name": "A#3",
          "midi": 58,
          "time": 80.7901718749992,
          "velocity": 0.7401574803149606,
          "duration": 0.2205874999999935
        },
        {
          "name": "C4",
          "midi": 60,
          "time": 80.7901718749992,
          "velocity": 0.7401574803149606,
          "duration": 0.2205874999999935
        },
        {
          "name": "G4",
          "midi": 67,
          "time": 81.0107593749992,
          "velocity": 0.7874015748031497,
          "duration": 0.2205874999999935
        },
        {
          "name": "G5",
          "midi": 79,
          "time": 81.0107593749992,
          "velocity": 0.7874015748031497,
          "duration": 0.2205874999999935
        },
        {
          "name": "G3",
          "midi": 55,
          "time": 81.0107593749992,
          "velocity": 0.7322834645669292,
          "duration": 0.2205874999999935
        },
        {
          "name": "A#3",
          "midi": 58,
          "time": 81.0107593749992,
          "velocity": 0.7322834645669292,
          "duration": 0.2205874999999935
        },
        {
          "name": "C4",
          "midi": 60,
          "time": 81.0107593749992,
          "velocity": 0.7322834645669292,
          "duration": 0.2205874999999935
        },
        {
          "name": "C5",
          "midi": 72,
          "time": 81.23134687499919,
          "velocity": 0.9448818897637795,
          "duration": 0.2205874999999935
        },
        {
          "name": "C6",
          "midi": 84,
          "time": 81.23134687499919,
          "velocity": 0.9448818897637795,
          "duration": 0.2205874999999935
        },
        {
          "name": "A1",
          "midi": 33,
          "time": 81.23134687499919,
          "velocity": 0.889763779527559,
          "duration": 0.6617624999999805
        },
        {
          "name": "A2",
          "midi": 45,
          "time": 81.23134687499919,
          "velocity": 0.889763779527559,
          "duration": 0.6617624999999805
        },
        {
          "name": "D4",
          "midi": 62,
          "time": 81.45193437499918,
          "velocity": 0.7716535433070866,
          "duration": 0.2205874999999935
        },
        {
          "name": "G3",
          "midi": 55,
          "time": 81.45193437499918,
          "velocity": 0.6929133858267716,
          "duration": 0.2205874999999935
        },
        {
          "name": "A#3",
          "midi": 58,
          "time": 81.45193437499918,
          "velocity": 0.6929133858267716,
          "duration": 0.2205874999999935
        },
        {
          "name": "E4",
          "midi": 64,
          "time": 81.67252187499918,
          "velocity": 0.889763779527559,
          "duration": 0.2205874999999935
        },
        {
          "name": "G3",
          "midi": 55,
          "time": 81.67252187499918,
          "velocity": 0.7401574803149606,
          "duration": 0.2205874999999935
        },
        {
          "name": "A#3",
          "midi": 58,
          "time": 81.67252187499918,
          "velocity": 0.7401574803149606,
          "duration": 0.2205874999999935
        },
        {
          "name": "G4",
          "midi": 67,
          "time": 81.89310937499917,
          "velocity": 0.8976377952755905,
          "duration": 0.2205874999999935
        },
        {
          "name": "G3",
          "midi": 55,
          "time": 81.89310937499917,
          "velocity": 0.7322834645669292,
          "duration": 0.2205874999999935
        },
        {
          "name": "A#3",
          "midi": 58,
          "time": 81.89310937499917,
          "velocity": 0.7322834645669292,
          "duration": 0.2205874999999935
        },
        {
          "name": "A1",
          "midi": 33,
          "time": 81.89310937499917,
          "velocity": 0.7795275590551181,
          "duration": 0.2205874999999935
        },
        {
          "name": "F#4",
          "midi": 66,
          "time": 82.11369687499916,
          "velocity": 0.8110236220472441,
          "duration": 0.2205874999999935
        },
        {
          "name": "D2",
          "midi": 38,
          "time": 82.11369687499916,
          "velocity": 0.8582677165354331,
          "duration": 0.882349999999974
        },
        {
          "name": "A#4",
          "midi": 70,
          "time": 82.33428437499916,
          "velocity": 0.6692913385826772,
          "duration": 0.2205874999999935
        },
        {
          "name": "A#5",
          "midi": 82,
          "time": 82.33428437499916,
          "velocity": 0.6692913385826772,
          "duration": 0.2205874999999935
        },
        {
          "name": "D#4",
          "midi": 63,
          "time": 82.33428437499916,
          "velocity": 0.6456692913385826,
          "duration": 0.2205874999999935
        },
        {
          "name": "A4",
          "midi": 69,
          "time": 82.55487187499915,
          "velocity": 0.6692913385826772,
          "duration": 0.2205874999999935
        },
        {
          "name": "A5",
          "midi": 81,
          "time": 82.55487187499915,
          "velocity": 0.6692913385826772,
          "duration": 0.2205874999999935
        },
        {
          "name": "D4",
          "midi": 62,
          "time": 82.55487187499915,
          "velocity": 0.6614173228346457,
          "duration": 0.2205874999999935
        },
        {
          "name": "C5",
          "midi": 72,
          "time": 82.77545937499914,
          "velocity": 0.6692913385826772,
          "duration": 0.2205874999999935
        },
        {
          "name": "C6",
          "midi": 84,
          "time": 82.77545937499914,
          "velocity": 0.6692913385826772,
          "duration": 0.2205874999999935
        },
        {
          "name": "C4",
          "midi": 60,
          "time": 82.77545937499914,
          "velocity": 0.6614173228346457,
          "duration": 0.2205874999999935
        },
        {
          "name": "G4",
          "midi": 67,
          "time": 82.99604687499914,
          "velocity": 0.6692913385826772,
          "duration": 0.11029374999999675
        },
        {
          "name": "D#3",
          "midi": 51,
          "time": 82.99604687499914,
          "velocity": 0.6220472440944882,
          "duration": 0.2205874999999935
        },
        {
          "name": "G3",
          "midi": 55,
          "time": 82.99604687499914,
          "velocity": 0.6220472440944882,
          "duration": 0.2205874999999935
        },
        {
          "name": "A#4",
          "midi": 70,
          "time": 83.10634062499913,
          "velocity": 0.8031496062992126,
          "duration": 0.11029374999999675
        },
        {
          "name": "D5",
          "midi": 74,
          "time": 83.21663437499913,
          "velocity": 0.8031496062992126,
          "duration": 0.11029374999999675
        },
        {
          "name": "D#3",
          "midi": 51,
          "time": 83.21663437499913,
          "velocity": 0.6535433070866141,
          "duration": 0.4411750000000154
        },
        {
          "name": "G3",
          "midi": 55,
          "time": 83.21663437499913,
          "velocity": 0.6535433070866141,
          "duration": 0.4411750000000154
        },
        {
          "name": "A5",
          "midi": 81,
          "time": 83.32692812499913,
          "velocity": 0.8267716535433071,
          "duration": 0.11029374999999675
        },
        {
          "name": "G5",
          "midi": 79,
          "time": 83.43722187499912,
          "velocity": 0.7480314960629921,
          "duration": 0.05514687500000548
        },
        {
          "name": "F#5",
          "midi": 78,
          "time": 83.49236874999913,
          "velocity": 0.7322834645669292,
          "duration": 0.05514687500000548
        },
        {
          "name": "D#5",
          "midi": 75,
          "time": 83.54751562499914,
          "velocity": 0.7322834645669292,
          "duration": 0.05514687500000548
        },
        {
          "name": "D5",
          "midi": 74,
          "time": 83.60266249999914,
          "velocity": 0.7401574803149606,
          "duration": 0.05514687500000548
        },
        {
          "name": "C5",
          "midi": 72,
          "time": 83.65780937499915,
          "velocity": 0.7480314960629921,
          "duration": 0.05514687500000548
        },
        {
          "name": "D#3",
          "midi": 51,
          "time": 83.65780937499915,
          "velocity": 0.6614173228346457,
          "duration": 0.22058750000002192
        },
        {
          "name": "G3",
          "midi": 55,
          "time": 83.65780937499915,
          "velocity": 0.6614173228346457,
          "duration": 0.22058750000002192
        },
        {
          "name": "A#4",
          "midi": 70,
          "time": 83.71295624999915,
          "velocity": 0.7480314960629921,
          "duration": 0.05514687500000548
        },
        {
          "name": "A4",
          "midi": 69,
          "time": 83.76810312499916,
          "velocity": 0.7480314960629921,
          "duration": 0.05514687500000548
        },
        {
          "name": "G4",
          "midi": 67,
          "time": 83.82324999999916,
          "velocity": 0.7480314960629921,
          "duration": 0.05514687500000548
        },
        {
          "name": "A4",
          "midi": 69,
          "time": 83.87839687499917,
          "velocity": 0.7716535433070866,
          "duration": 0.11029374999999675
        },
        {
          "name": "F3",
          "midi": 53,
          "time": 83.87839687499917,
          "velocity": 0.6771653543307087,
          "duration": 0.2205874999999935
        },
        {
          "name": "A3",
          "midi": 57,
          "time": 83.87839687499917,
          "velocity": 0.6771653543307087,
          "duration": 0.2205874999999935
        },
        {
          "name": "D5",
          "midi": 74,
          "time": 83.98869062499917,
          "velocity": 0.8031496062992126,
          "duration": 0.11029374999999675
        },
        {
          "name": "A5",
          "midi": 81,
          "time": 84.09898437499916,
          "velocity": 0.84251968503937,
          "duration": 0.11029374999999675
        },
        {
          "name": "F3",
          "midi": 53,
          "time": 84.09898437499916,
          "velocity": 0.6614173228346457,
          "duration": 0.4411750000000154
        },
        {
          "name": "A3",
          "midi": 57,
          "time": 84.09898437499916,
          "velocity": 0.6614173228346457,
          "duration": 0.4411750000000154
        },
        {
          "name": "D#6",
          "midi": 87,
          "time": 84.20927812499916,
          "velocity": 0.8503937007874016,
          "duration": 0.11029374999999675
        },
        {
          "name": "D6",
          "midi": 86,
          "time": 84.31957187499916,
          "velocity": 0.7559055118110236,
          "duration": 0.05514687500000548
        },
        {
          "name": "C6",
          "midi": 84,
          "time": 84.37471874999916,
          "velocity": 0.7322834645669292,
          "duration": 0.05514687500000548
        },
        {
          "name": "A#5",
          "midi": 82,
          "time": 84.42986562499917,
          "velocity": 0.7401574803149606,
          "duration": 0.05514687500000548
        },
        {
          "name": "A5",
          "midi": 81,
          "time": 84.48501249999917,
          "velocity": 0.7480314960629921,
          "duration": 0.05514687500000548
        },
        {
          "name": "F5",
          "midi": 77,
          "time": 84.54015937499918,
          "velocity": 0.7480314960629921,
          "duration": 0.05514687500000548
        },
        {
          "name": "F3",
          "midi": 53,
          "time": 84.54015937499918,
          "velocity": 0.6614173228346457,
          "duration": 0.22058750000002192
        },
        {
          "name": "A3",
          "midi": 57,
          "time": 84.54015937499918,
          "velocity": 0.6614173228346457,
          "duration": 0.22058750000002192
        },
        {
          "name": "D#5",
          "midi": 75,
          "time": 84.59530624999918,
          "velocity": 0.7559055118110236,
          "duration": 0.05514687500000548
        },
        {
          "name": "D5",
          "midi": 74,
          "time": 84.65045312499919,
          "velocity": 0.7322834645669292,
          "duration": 0.05514687500000548
        },
        {
          "name": "C5",
          "midi": 72,
          "time": 84.7055999999992,
          "velocity": 0.7559055118110236,
          "duration": 0.05514687500000548
        },
        {
          "name": "D5",
          "midi": 74,
          "time": 84.7607468749992,
          "velocity": 0.7952755905511811,
          "duration": 0.11029374999999675
        },
        {
          "name": "G3",
          "midi": 55,
          "time": 84.7607468749992,
          "velocity": 0.6614173228346457,
          "duration": 0.2205874999999935
        },
        {
          "name": "A#3",
          "midi": 58,
          "time": 84.7607468749992,
          "velocity": 0.6614173228346457,
          "duration": 0.2205874999999935
        },
        {
          "name": "F5",
          "midi": 77,
          "time": 84.8710406249992,
          "velocity": 0.7874015748031497,
          "duration": 0.11029374999999675
        },
        {
          "name": "A#5",
          "midi": 82,
          "time": 84.9813343749992,
          "velocity": 0.8188976377952756,
          "duration": 0.11029374999999675
        },
        {
          "name": "G3",
          "midi": 55,
          "time": 84.9813343749992,
          "velocity": 0.6535433070866141,
          "duration": 0.4411750000000154
        },
        {
          "name": "A#3",
          "midi": 58,
          "time": 84.9813343749992,
          "velocity": 0.6535433070866141,
          "duration": 0.4411750000000154
        },
        {
          "name": "D6",
          "midi": 86,
          "time": 85.09162812499919,
          "velocity": 0.8188976377952756,
          "duration": 0.11029374999999675
        },
        {
          "name": "D#6",
          "midi": 87,
          "time": 85.20192187499919,
          "velocity": 0.7952755905511811,
          "duration": 0.05514687500000548
        },
        {
          "name": "D6",
          "midi": 86,
          "time": 85.25706874999919,
          "velocity": 0.7559055118110236,
          "duration": 0.05514687500000548
        },
        {
          "name": "C6",
          "midi": 84,
          "time": 85.3122156249992,
          "velocity": 0.7401574803149606,
          "duration": 0.05514687500000548
        },
        {
          "name": "A#5",
          "midi": 82,
          "time": 85.3673624999992,
          "velocity": 0.7244094488188977,
          "duration": 0.05514687500000548
        },
        {
          "name": "A5",
          "midi": 81,
          "time": 85.42250937499921,
          "velocity": 0.7559055118110236,
          "duration": 0.05514687500000548
        },
        {
          "name": "G3",
          "midi": 55,
          "time": 85.42250937499921,
          "velocity": 0.6535433070866141,
          "duration": 0.22058750000002192
        },
        {
          "name": "A#3",
          "midi": 58,
          "time": 85.42250937499921,
          "velocity": 0.6535433070866141,
          "duration": 0.22058750000002192
        },
        {
          "name": "G5",
          "midi": 79,
          "time": 85.47765624999921,
          "velocity": 0.7401574803149606,
          "duration": 0.05514687500000548
        },
        {
          "name": "F5",
          "midi": 77,
          "time": 85.53280312499922,
          "velocity": 0.7244094488188977,
          "duration": 0.05514687500000548
        },
        {
          "name": "D#5",
          "midi": 75,
          "time": 85.58794999999922,
          "velocity": 0.7165354330708661,
          "duration": 0.05514687500000548
        },
        {
          "name": "E5",
          "midi": 76,
          "time": 85.64309687499923,
          "velocity": 0.8110236220472441,
          "duration": 0.11029374999999675
        },
        {
          "name": "A3",
          "midi": 57,
          "time": 85.64309687499923,
          "velocity": 0.6614173228346457,
          "duration": 0.2205874999999935
        },
        {
          "name": "C4",
          "midi": 60,
          "time": 85.64309687499923,
          "velocity": 0.6614173228346457,
          "duration": 0.2205874999999935
        },
        {
          "name": "G5",
          "midi": 79,
          "time": 85.75339062499923,
          "velocity": 0.7952755905511811,
          "duration": 0.11029374999999675
        },
        {
          "name": "C6",
          "midi": 84,
          "time": 85.86368437499922,
          "velocity": 0.8267716535433071,
          "duration": 0.11029374999999675
        },
        {
          "name": "A3",
          "midi": 57,
          "time": 85.86368437499922,
          "velocity": 0.6614173228346457,
          "duration": 0.4411750000000012
        },
        {
          "name": "C4",
          "midi": 60,
          "time": 85.86368437499922,
          "velocity": 0.6614173228346457,
          "duration": 0.4411750000000012
        },
        {
          "name": "D6",
          "midi": 86,
          "time": 85.97397812499922,
          "velocity": 0.8188976377952756,
          "duration": 0.11029374999999675
        },
        {
          "name": "G5",
          "midi": 79,
          "time": 86.08427187499922,
          "velocity": 0.7007874015748031,
          "duration": 0.07261005208333415
        },
        {
          "name": "C6",
          "midi": 84,
          "time": 86.15688192708255,
          "velocity": 0.8188976377952756,
          "duration": 0.07398872395833678
        },
        {
          "name": "D6",
          "midi": 86,
          "time": 86.23087065104089,
          "velocity": 0.7795275590551181,
          "duration": 0.07398872395833678
        },
        {
          "name": "C6",
          "midi": 84,
          "time": 86.30485937499922,
          "velocity": 0.7322834645669292,
          "duration": 0.07261005208333415
        },
        {
          "name": "A3",
          "midi": 57,
          "time": 86.30485937499922,
          "velocity": 0.6614173228346457,
          "duration": 0.2205875000000077
        },
        {
          "name": "C4",
          "midi": 60,
          "time": 86.30485937499922,
          "velocity": 0.6614173228346457,
          "duration": 0.2205875000000077
        },
        {
          "name": "D6",
          "midi": 86,
          "time": 86.37746942708256,
          "velocity": 0.7952755905511811,
          "duration": 0.07398872395833678
        },
        {
          "name": "G6",
          "midi": 91,
          "time": 86.4514581510409,
          "velocity": 0.8267716535433071,
          "duration": 0.07398872395833678
        },
        {
          "name": "C2",
          "midi": 36,
          "time": 86.52544687499923,
          "velocity": 0.8346456692913385,
          "duration": 0.4411750000000012
        },
        {
          "name": "C3",
          "midi": 48,
          "time": 86.52544687499923,
          "velocity": 0.8346456692913385,
          "duration": 0.4411750000000012
        },
        {
          "name": "A#6",
          "midi": 94,
          "time": 86.96662187499923,
          "velocity": 0.6850393700787402,
          "duration": 0.11029374999999675
        },
        {
          "name": "C3",
          "midi": 48,
          "time": 86.96662187499923,
          "velocity": 0.8346456692913385,
          "duration": 0.441174999999987
        },
        {
          "name": "D#3",
          "midi": 51,
          "time": 86.96662187499923,
          "velocity": 0.8346456692913385,
          "duration": 0.441174999999987
        },
        {
          "name": "A6",
          "midi": 93,
          "time": 87.07691562499923,
          "velocity": 0.7559055118110236,
          "duration": 0.11029374999999675
        },
        {
          "name": "G6",
          "midi": 91,
          "time": 87.18720937499923,
          "velocity": 0.7480314960629921,
          "duration": 0.11029374999999675
        },
        {
          "name": "F6",
          "midi": 89,
          "time": 87.29750312499922,
          "velocity": 0.7480314960629921,
          "duration": 0.11029374999999675
        },
        {
          "name": "D#6",
          "midi": 87,
          "time": 87.40779687499922,
          "velocity": 0.7322834645669292,
          "duration": 0.11029374999999675
        },
        {
          "name": "D2",
          "midi": 38,
          "time": 87.40779687499922,
          "velocity": 0.8346456692913385,
          "duration": 0.6617624999999805
        },
        {
          "name": "D3",
          "midi": 50,
          "time": 87.40779687499922,
          "velocity": 0.8346456692913385,
          "duration": 0.6617624999999805
        },
        {
          "name": "D6",
          "midi": 86,
          "time": 87.51809062499922,
          "velocity": 0.7401574803149606,
          "duration": 0.11029374999999675
        },
        {
          "name": "C6",
          "midi": 84,
          "time": 87.62838437499921,
          "velocity": 0.7480314960629921,
          "duration": 0.11029374999999675
        },
        {
          "name": "A#5",
          "midi": 82,
          "time": 87.73867812499921,
          "velocity": 0.7480314960629921,
          "duration": 0.11029374999999675
        },
        {
          "name": "A5",
          "midi": 81,
          "time": 87.84897187499921,
          "velocity": 0.7322834645669292,
          "duration": 0.11029374999999675
        },
        {
          "name": "G5",
          "midi": 79,
          "time": 87.9592656249992,
          "velocity": 0.7480314960629921,
          "duration": 0.11029374999999675
        },
        {
          "name": "F5",
          "midi": 77,
          "time": 88.0695593749992,
          "velocity": 0.7322834645669292,
          "duration": 0.11029374999999675
        },
        {
          "name": "D2",
          "midi": 38,
          "time": 88.0695593749992,
          "velocity": 0.8346456692913385,
          "duration": 0.2205874999999935
        },
        {
          "name": "D3",
          "midi": 50,
          "time": 88.0695593749992,
          "velocity": 0.8346456692913385,
          "duration": 0.2205874999999935
        },
        {
          "name": "D5",
          "midi": 74,
          "time": 88.1798531249992,
          "velocity": 0.7322834645669292,
          "duration": 0.11029374999999675
        },
        {
          "name": "D#2",
          "midi": 39,
          "time": 88.2901468749992,
          "velocity": 0.8346456692913385,
          "duration": 0.6617624999999947
        },
        {
          "name": "D#3",
          "midi": 51,
          "time": 88.2901468749992,
          "velocity": 0.8346456692913385,
          "duration": 0.6617624999999947
        },
        {
          "name": "A#6",
          "midi": 94,
          "time": 88.7313218749992,
          "velocity": 0.6771653543307087,
          "duration": 0.11029374999999675
        },
        {
          "name": "A6",
          "midi": 93,
          "time": 88.84161562499919,
          "velocity": 0.7480314960629921,
          "duration": 0.11029374999999675
        },
        {
          "name": "G6",
          "midi": 91,
          "time": 88.95190937499919,
          "velocity": 0.7401574803149606,
          "duration": 0.11029374999999675
        },
        {
          "name": "D#2",
          "midi": 39,
          "time": 88.95190937499919,
          "velocity": 0.8346456692913385,
          "duration": 0.2205874999999935
        },
        {
          "name": "D#3",
          "midi": 51,
          "time": 88.95190937499919,
          "velocity": 0.8346456692913385,
          "duration": 0.2205874999999935
        },
        {
          "name": "F6",
          "midi": 89,
          "time": 89.06220312499919,
          "velocity": 0.7401574803149606,
          "duration": 0.11029374999999675
        },
        {
          "name": "C7",
          "midi": 96,
          "time": 89.17249687499918,
          "velocity": 0.84251968503937,
          "duration": 0.11029374999999675
        },
        {
          "name": "F2",
          "midi": 41,
          "time": 89.17249687499918,
          "velocity": 0.8346456692913385,
          "duration": 0.882349999999974
        },
        {
          "name": "F3",
          "midi": 53,
          "time": 89.17249687499918,
          "velocity": 0.8346456692913385,
          "duration": 0.882349999999974
        },
        {
          "name": "A#6",
          "midi": 94,
          "time": 89.28279062499918,
          "velocity": 0.7322834645669292,
          "duration": 0.11029374999999675
        },
        {
          "name": "A6",
          "midi": 93,
          "time": 89.39308437499918,
          "velocity": 0.7401574803149606,
          "duration": 0.11029374999999675
        },
        {
          "name": "G6",
          "midi": 91,
          "time": 89.50337812499917,
          "velocity": 0.7401574803149606,
          "duration": 0.11029374999999675
        },
        {
          "name": "A6",
          "midi": 93,
          "time": 89.61367187499917,
          "velocity": 0.7716535433070866,
          "duration": 0.11029374999999675
        },
        {
          "name": "A#6",
          "midi": 94,
          "time": 89.72396562499917,
          "velocity": 0.7874015748031497,
          "duration": 0.11029374999999675
        },
        {
          "name": "C7",
          "midi": 96,
          "time": 89.83425937499916,
          "velocity": 0.8110236220472441,
          "duration": 0.11029374999999675
        },
        {
          "name": "D#7",
          "midi": 99,
          "time": 89.94455312499916,
          "velocity": 0.7795275590551181,
          "duration": 0.11029374999999675
        },
        {
          "name": "F7",
          "midi": 101,
          "time": 90.05484687499916,
          "velocity": 0.8031496062992126,
          "duration": 0.2205874999999935
        },
        {
          "name": "G7",
          "midi": 103,
          "time": 90.27543437499915,
          "velocity": 0.7795275590551181,
          "duration": 0.11029374999999675
        },
        {
          "name": "F#7",
          "midi": 102,
          "time": 90.38572812499915,
          "velocity": 0.7716535433070866,
          "duration": 0.11029374999999675
        },
        {
          "name": "D#7",
          "midi": 99,
          "time": 90.49602187499914,
          "velocity": 0.7480314960629921,
          "duration": 0.07261005208333415
        },
        {
          "name": "G1",
          "midi": 31,
          "time": 90.49602187499914,
          "velocity": 0.8346456692913385,
          "duration": 0.4411750000000154
        },
        {
          "name": "G2",
          "midi": 43,
          "time": 90.49602187499914,
          "velocity": 0.8346456692913385,
          "duration": 0.4411750000000154
        },
        {
          "name": "D7",
          "midi": 98,
          "time": 90.56863192708248,
          "velocity": 0.7480314960629921,
          "duration": 0.07398872395833678
        },
        {
          "name": "C7",
          "midi": 96,
          "time": 90.64262065104082,
          "velocity": 0.7322834645669292,
          "duration": 0.07398872395833678
        },
        {
          "name": "A#6",
          "midi": 94,
          "time": 90.71660937499915,
          "velocity": 0.7637795275590551,
          "duration": 0.07261005208333415
        },
        {
          "name": "A6",
          "midi": 93,
          "time": 90.78921942708249,
          "velocity": 0.7401574803149606,
          "duration": 0.07398872395833678
        },
        {
          "name": "G6",
          "midi": 91,
          "time": 90.86320815104082,
          "velocity": 0.7559055118110236,
          "duration": 0.07398872395833678
        },
        {
          "name": "F#6",
          "midi": 90,
          "time": 90.93719687499916,
          "velocity": 0.7480314960629921,
          "duration": 0.07261005208333415
        },
        {
          "name": "A1",
          "midi": 33,
          "time": 90.93719687499916,
          "velocity": 0.8346456692913385,
          "duration": 0.8823500000000024
        },
        {
          "name": "F#2",
          "midi": 42,
          "time": 90.93719687499916,
          "velocity": 0.8346456692913385,
          "duration": 0.8823500000000024
        },
        {
          "name": "A2",
          "midi": 45,
          "time": 90.93719687499916,
          "velocity": 0.8346456692913385,
          "duration": 0.8823500000000024
        },
        {
          "name": "A#6",
          "midi": 94,
          "time": 91.0098069270825,
          "velocity": 0.8188976377952756,
          "duration": 0.07398872395833678
        },
        {
          "name": "A6",
          "midi": 93,
          "time": 91.08379565104083,
          "velocity": 0.7559055118110236,
          "duration": 0.07398872395833678
        },
        {
          "name": "C7",
          "midi": 96,
          "time": 91.15778437499917,
          "velocity": 0.8110236220472441,
          "duration": 0.07261005208333415
        },
        {
          "name": "A#6",
          "midi": 94,
          "time": 91.2303944270825,
          "velocity": 0.7559055118110236,
          "duration": 0.07398872395833678
        },
        {
          "name": "D#7",
          "midi": 99,
          "time": 91.30438315104084,
          "velocity": 0.8267716535433071,
          "duration": 0.07398872395833678
        },
        {
          "name": "D7",
          "midi": 98,
          "time": 91.37837187499917,
          "velocity": 0.7559055118110236,
          "duration": 0.11029374999999675
        },
        {
          "name": "A#7",
          "midi": 106,
          "time": 91.48866562499917,
          "velocity": 0.84251968503937,
          "duration": 0.11029374999999675
        },
        {
          "name": "A7",
          "midi": 105,
          "time": 91.59895937499917,
          "velocity": 0.7480314960629921,
          "duration": 0.2205874999999935
        },
        {
          "name": "G6",
          "midi": 91,
          "time": 91.81954687499916,
          "velocity": 0.6929133858267716,
          "duration": 0.11029374999999675
        },
        {
          "name": "A#1",
          "midi": 34,
          "time": 91.81954687499916,
          "velocity": 0.8346456692913385,
          "duration": 0.882349999999974
        },
        {
          "name": "F2",
          "midi": 41,
          "time": 91.81954687499916,
          "velocity": 0.8346456692913385,
          "duration": 0.882349999999974
        },
        {
          "name": "A#2",
          "midi": 46,
          "time": 91.81954687499916,
          "velocity": 0.8346456692913385,
          "duration": 0.882349999999974
        },
        {
          "name": "F6",
          "midi": 89,
          "time": 91.92984062499916,
          "velocity": 0.7244094488188977,
          "duration": 0.11029374999999675
        },
        {
          "name": "A#6",
          "midi": 94,
          "time": 92.04013437499916,
          "velocity": 0.7952755905511811,
          "duration": 0.11029374999999675
        },
        {
          "name": "A6",
          "midi": 93,
          "time": 92.15042812499915,
          "velocity": 0.7637795275590551,
          "duration": 0.11029374999999675
        },
        {
          "name": "C7",
          "midi": 96,
          "time": 92.26072187499915,
          "velocity": 0.8110236220472441,
          "duration": 0.11029374999999675
        },
        {
          "name": "A#6",
          "midi": 94,
          "time": 92.37101562499915,
          "velocity": 0.7559055118110236,
          "duration": 0.11029374999999675
        },
        {
          "name": "D#7",
          "midi": 99,
          "time": 92.48130937499914,
          "velocity": 0.8188976377952756,
          "duration": 0.11029374999999675
        },
        {
          "name": "D7",
          "midi": 98,
          "time": 92.59160312499914,
          "velocity": 0.7637795275590551,
          "duration": 0.11029374999999675
        },
        {
          "name": "E7",
          "midi": 100,
          "time": 92.70189687499914,
          "velocity": 0.8031496062992126,
          "duration": 0.2205874999999935
        },
        {
          "name": "C2",
          "midi": 36,
          "time": 92.70189687499914,
          "velocity": 0.8346456692913385,
          "duration": 0.882350000000045
        },
        {
          "name": "G2",
          "midi": 43,
          "time": 92.70189687499914,
          "velocity": 0.8346456692913385,
          "duration": 0.882350000000045
        },
        {
          "name": "C3",
          "midi": 48,
          "time": 92.70189687499914,
          "velocity": 0.8346456692913385,
          "duration": 0.882350000000045
        },
        {
          "name": "D#7",
          "midi": 99,
          "time": 92.92248437499913,
          "velocity": 0.7401574803149606,
          "duration": 0.11029374999999675
        },
        {
          "name": "D7",
          "midi": 98,
          "time": 93.03277812499913,
          "velocity": 0.7401574803149606,
          "duration": 0.05514687500000548
        },
        {
          "name": "C#7",
          "midi": 97,
          "time": 93.08792499999913,
          "velocity": 0.7559055118110236,
          "duration": 0.05514687500000548
        },
        {
          "name": "C7",
          "midi": 96,
          "time": 93.14307187499914,
          "velocity": 0.7716535433070866,
          "duration": 0.05514687500000548
        },
        {
          "name": "B6",
          "midi": 95,
          "time": 93.19821874999914,
          "velocity": 0.7637795275590551,
          "duration": 0.05514687500000548
        },
        {
          "name": "A#6",
          "midi": 94,
          "time": 93.25336562499915,
          "velocity": 0.7637795275590551,
          "duration": 0.05514687500000548
        },
        {
          "name": "A6",
          "midi": 93,
          "time": 93.30851249999915,
          "velocity": 0.7637795275590551,
          "duration": 0.05514687500000548
        },
        {
          "name": "G#6",
          "midi": 92,
          "time": 93.36365937499916,
          "velocity": 0.7322834645669292,
          "duration": 0.05514687500000548
        },
        {
          "name": "G6",
          "midi": 91,
          "time": 93.41880624999916,
          "velocity": 0.7559055118110236,
          "duration": 0.05514687500000548
        },
        {
          "name": "F#6",
          "midi": 90,
          "time": 93.47395312499917,
          "velocity": 0.7480314960629921,
          "duration": 0.05514687500000548
        },
        {
          "name": "F6",
          "midi": 89,
          "time": 93.52909999999918,
          "velocity": 0.7559055118110236,
          "duration": 0.05514687500000548
        },
        {
          "name": "E6",
          "midi": 88,
          "time": 93.58424687499918,
          "velocity": 0.7480314960629921,
          "duration": 0.11029374999999675
        },
        {
          "name": "C#2",
          "midi": 37,
          "time": 93.58424687499918,
          "velocity": 0.8346456692913385,
          "duration": 0.882349999999974
        },
        {
          "name": "A2",
          "midi": 45,
          "time": 93.58424687499918,
          "velocity": 0.8346456692913385,
          "duration": 0.882349999999974
        },
        {
          "name": "C#3",
          "midi": 49,
          "time": 93.58424687499918,
          "velocity": 0.8346456692913385,
          "duration": 0.882349999999974
        },
        {
          "name": "E5",
          "midi": 76,
          "time": 93.69454062499918,
          "velocity": 0.6614173228346457,
          "duration": 0.11029374999999675
        },
        {
          "name": "A#6",
          "midi": 94,
          "time": 93.80483437499917,
          "velocity": 0.8740157480314961,
          "duration": 0.11029374999999675
        },
        {
          "name": "A#5",
          "midi": 82,
          "time": 93.91512812499917,
          "velocity": 0.6850393700787402,
          "duration": 0.11029374999999675
        },
        {
          "name": "G6",
          "midi": 91,
          "time": 94.02542187499917,
          "velocity": 0.8267716535433071,
          "duration": 0.11029374999999675
        },
        {
          "name": "G5",
          "midi": 79,
          "time": 94.13571562499916,
          "velocity": 0.6850393700787402,
          "duration": 0.11029374999999675
        },
        {
          "name": "C#7",
          "midi": 97,
          "time": 94.24600937499916,
          "velocity": 0.8661417322834646,
          "duration": 0.11029374999999675
        },
        {
          "name": "C#6",
          "midi": 85,
          "time": 94.35630312499916,
          "velocity": 0.6850393700787402,
          "duration": 0.11029374999999675
        },
        {
          "name": "D7",
          "midi": 98,
          "time": 94.46659687499915,
          "velocity": 0.8582677165354331,
          "duration": 0.11029374999999675
        },
        {
          "name": "D2",
          "midi": 38,
          "time": 94.46659687499915,
          "velocity": 0.8346456692913385,
          "duration": 0.441174999999987
        },
        {
          "name": "A2",
          "midi": 45,
          "time": 94.46659687499915,
          "velocity": 0.8346456692913385,
          "duration": 0.441174999999987
        },
        {
          "name": "D3",
          "midi": 50,
          "time": 94.46659687499915,
          "velocity": 0.8346456692913385,
          "duration": 0.441174999999987
        },
        {
          "name": "D6",
          "midi": 86,
          "time": 94.57689062499915,
          "velocity": 0.6692913385826772,
          "duration": 0.11029374999999675
        },
        {
          "name": "C7",
          "midi": 96,
          "time": 94.68718437499915,
          "velocity": 0.84251968503937,
          "duration": 0.11029374999999675
        },
        {
          "name": "C6",
          "midi": 84,
          "time": 94.79747812499915,
          "velocity": 0.6692913385826772,
          "duration": 0.11029374999999675
        },
        {
          "name": "A#6",
          "midi": 94,
          "time": 94.90777187499914,
          "velocity": 0.8503937007874016,
          "duration": 0.11029374999999675
        },
        {
          "name": "C2",
          "midi": 36,
          "time": 94.90777187499914,
          "velocity": 0.8346456692913385,
          "duration": 0.441174999999987
        },
        {
          "name": "A2",
          "midi": 45,
          "time": 94.90777187499914,
          "velocity": 0.8346456692913385,
          "duration": 0.441174999999987
        },
        {
          "name": "C3",
          "midi": 48,
          "time": 94.90777187499914,
          "velocity": 0.8346456692913385,
          "duration": 0.441174999999987
        },
        {
          "name": "A#5",
          "midi": 82,
          "time": 95.01806562499914,
          "velocity": 0.6614173228346457,
          "duration": 0.11029374999999675
        },
        {
          "name": "A6",
          "midi": 93,
          "time": 95.12835937499914,
          "velocity": 0.8582677165354331,
          "duration": 0.11029374999999675
        },
        {
          "name": "A5",
          "midi": 81,
          "time": 95.23865312499913,
          "velocity": 0.6692913385826772,
          "duration": 0.11029374999999675
        },
        {
          "name": "G6",
          "midi": 91,
          "time": 95.34894687499913,
          "velocity": 0.8661417322834646,
          "duration": 0.11029374999999675
        },
        {
          "name": "A#1",
          "midi": 34,
          "time": 95.34894687499913,
          "velocity": 0.8346456692913385,
          "duration": 0.882349999999974
        },
        {
          "name": "G2",
          "midi": 43,
          "time": 95.34894687499913,
          "velocity": 0.8346456692913385,
          "duration": 0.882349999999974
        },
        {
          "name": "A#2",
          "midi": 46,
          "time": 95.34894687499913,
          "velocity": 0.8346456692913385,
          "duration": 0.882349999999974
        },
        {
          "name": "D6",
          "midi": 86,
          "time": 95.45924062499913,
          "velocity": 0.7165354330708661,
          "duration": 0.11029374999999675
        },
        {
          "name": "B5",
          "midi": 83,
          "time": 95.56953437499912,
          "velocity": 0.7322834645669292,
          "duration": 0.11029374999999675
        },
        {
          "name": "G5",
          "midi": 79,
          "time": 95.67982812499912,
          "velocity": 0.7165354330708661,
          "duration": 0.11029374999999675
        },
        {
          "name": "D5",
          "midi": 74,
          "time": 95.79012187499912,
          "velocity": 0.7322834645669292,
          "duration": 0.11029374999999675
        },
        {
          "name": "B4",
          "midi": 71,
          "time": 95.90041562499911,
          "velocity": 0.7244094488188977,
          "duration": 0.11029374999999675
        },
        {
          "name": "G4",
          "midi": 67,
          "time": 96.01070937499911,
          "velocity": 0.7244094488188977,
          "duration": 0.11029374999999675
        },
        {
          "name": "D4",
          "midi": 62,
          "time": 96.1210031249991,
          "velocity": 0.7086614173228346,
          "duration": 0.11029374999999675
        },
        {
          "name": "G6",
          "midi": 91,
          "time": 96.2312968749991,
          "velocity": 0.8740157480314961,
          "duration": 0.11029374999999675
        },
        {
          "name": "A1",
          "midi": 33,
          "time": 96.2312968749991,
          "velocity": 0.8346456692913385,
          "duration": 0.882349999999974
        },
        {
          "name": "G2",
          "midi": 43,
          "time": 96.2312968749991,
          "velocity": 0.8346456692913385,
          "duration": 0.882349999999974
        },
        {
          "name": "A2",
          "midi": 45,
          "time": 96.2312968749991,
          "velocity": 0.8346456692913385,
          "duration": 0.882349999999974
        },
        {
          "name": "D6",
          "midi": 86,
          "time": 96.3415906249991,
          "velocity": 0.7244094488188977,
          "duration": 0.11029374999999675
        },
        {
          "name": "A#5",
          "midi": 82,
          "time": 96.4518843749991,
          "velocity": 0.7007874015748031,
          "duration": 0.11029374999999675
        },
        {
          "name": "G5",
          "midi": 79,
          "time": 96.5621781249991,
          "velocity": 0.7322834645669292,
          "duration": 0.11029374999999675
        },
        {
          "name": "D5",
          "midi": 74,
          "time": 96.67247187499909,
          "velocity": 0.7086614173228346,
          "duration": 0.11029374999999675
        },
        {
          "name": "A#4",
          "midi": 70,
          "time": 96.78276562499909,
          "velocity": 0.7086614173228346,
          "duration": 0.11029374999999675
        },
        {
          "name": "G4",
          "midi": 67,
          "time": 96.89305937499908,
          "velocity": 0.7559055118110236,
          "duration": 0.11029374999999675
        },
        {
          "name": "D4",
          "midi": 62,
          "time": 97.00335312499908,
          "velocity": 0.7244094488188977,
          "duration": 0.11029374999999675
        },
        {
          "name": "C4",
          "midi": 60,
          "time": 97.11364687499908,
          "velocity": 0.7401574803149606,
          "duration": 0.0877754427083346
        },
        {
          "name": "A1",
          "midi": 33,
          "time": 97.11364687499908,
          "velocity": 0.8346456692913385,
          "duration": 0.8823500000000024
        },
        {
          "name": "A2",
          "midi": 45,
          "time": 97.11364687499908,
          "velocity": 0.8346456692913385,
          "duration": 0.8823500000000024
        },
        {
          "name": "C#4",
          "midi": 61,
          "time": 97.20142231770741,
          "velocity": 0.7952755905511811,
          "duration": 0.0882349999999974
        },
        {
          "name": "D4",
          "midi": 62,
          "time": 97.28965731770741,
          "velocity": 0.7795275590551181,
          "duration": 0.0877754427083346
        },
        {
          "name": "D#4",
          "midi": 63,
          "time": 97.37743276041574,
          "velocity": 0.7874015748031497,
          "duration": 0.0877754427083346
        },
        {
          "name": "E4",
          "midi": 64,
          "time": 97.46520820312408,
          "velocity": 0.7795275590551181,
          "duration": 0.08961367187500002
        },
        {
          "name": "F4",
          "midi": 65,
          "time": 97.55482187499908,
          "velocity": 0.7952755905511811,
          "duration": 0.0877754427083346
        },
        {
          "name": "F#4",
          "midi": 66,
          "time": 97.64259731770741,
          "velocity": 0.7874015748031497,
          "duration": 0.0882349999999974
        },
        {
          "name": "G4",
          "midi": 67,
          "time": 97.73083231770741,
          "velocity": 0.7874015748031497,
          "duration": 0.0877754427083346
        },
        {
          "name": "G#4",
          "midi": 68,
          "time": 97.81860776041574,
          "velocity": 0.7795275590551181,
          "duration": 0.0877754427083346
        },
        {
          "name": "A4",
          "midi": 69,
          "time": 97.90638320312408,
          "velocity": 0.7716535433070866,
          "duration": 0.08961367187500002
        },
        {
          "name": "D5",
          "midi": 74,
          "time": 97.99599687499908,
          "velocity": 0.8188976377952756,
          "duration": 0.0877754427083346
        },
        {
          "name": "D2",
          "midi": 38,
          "time": 97.99599687499908,
          "velocity": 0.8346456692913385,
          "duration": 0.8823500000000024
        },
        {
          "name": "D3",
          "midi": 50,
          "time": 97.99599687499908,
          "velocity": 0.8346456692913385,
          "duration": 0.8823500000000024
        },
        {
          "name": "C#5",
          "midi": 73,
          "time": 98.08377231770741,
          "velocity": 0.7559055118110236,
          "duration": 0.0882349999999974
        },
        {
          "name": "C5",
          "midi": 72,
          "time": 98.17200731770741,
          "velocity": 0.7480314960629921,
          "duration": 0.0877754427083346
        },
        {
          "name": "B4",
          "midi": 71,
          "time": 98.25978276041575,
          "velocity": 0.7637795275590551,
          "duration": 0.0877754427083346
        },
        {
          "name": "A#4",
          "midi": 70,
          "time": 98.34755820312408,
          "velocity": 0.7559055118110236,
          "duration": 0.08961367187500002
        },
        {
          "name": "A4",
          "midi": 69,
          "time": 98.43717187499908,
          "velocity": 0.7480314960629921,
          "duration": 0.0877754427083346
        },
        {
          "name": "D#4",
          "midi": 63,
          "time": 98.52494731770742,
          "velocity": 0.7165354330708661,
          "duration": 0.0882349999999974
        },
        {
          "name": "D4",
          "midi": 62,
          "time": 98.61318231770741,
          "velocity": 0.7480314960629921,
          "duration": 0.0877754427083346
        },
        {
          "name": "C4",
          "midi": 60,
          "time": 98.70095776041575,
          "velocity": 0.7480314960629921,
          "duration": 0.0877754427083346
        },
        {
          "name": "A3",
          "midi": 57,
          "time": 98.78873320312408,
          "velocity": 0.7559055118110236,
          "duration": 0.08961367187500002
        },
        {
          "name": "D6",
          "midi": 86,
          "time": 99.76069687499908,
          "velocity": 0.2677165354330709,
          "duration": 0.4411750000000012
        },
        {
          "name": "D7",
          "midi": 98,
          "time": 100.64304687499909,
          "velocity": 0.28346456692913385,
          "duration": 0.4411750000000012
        },
        {
          "name": "D6",
          "midi": 86,
          "time": 101.52539687499909,
          "velocity": 0.25984251968503935,
          "duration": 0.4411750000000012
        },
        {
          "name": "A#5",
          "midi": 82,
          "time": 102.40774687499909,
          "velocity": 0.5118110236220472,
          "duration": 0.2205874999999935
        },
        {
          "name": "G3",
          "midi": 55,
          "time": 102.40774687499909,
          "velocity": 0.5826771653543307,
          "duration": 0.882349999999974
        },
        {
          "name": "D5",
          "midi": 74,
          "time": 102.62833437499908,
          "velocity": 0.49606299212598426,
          "duration": 0.2205874999999935
        },
        {
          "name": "A#4",
          "midi": 70,
          "time": 102.62833437499908,
          "velocity": 0.41732283464566927,
          "duration": 0.441174999999987
        },
        {
          "name": "G5",
          "midi": 79,
          "time": 102.84892187499908,
          "velocity": 0.5905511811023622,
          "duration": 0.2205874999999935
        },
        {
          "name": "A#5",
          "midi": 82,
          "time": 103.06950937499907,
          "velocity": 0.5905511811023622,
          "duration": 0.2205874999999935
        },
        {
          "name": "G4",
          "midi": 67,
          "time": 103.06950937499907,
          "velocity": 0.44881889763779526,
          "duration": 0.2205874999999935
        },
        {
          "name": "A5",
          "midi": 81,
          "time": 103.29009687499907,
          "velocity": 0.5511811023622047,
          "duration": 0.2205874999999935
        },
        {
          "name": "F#4",
          "midi": 66,
          "time": 103.29009687499907,
          "velocity": 0.48031496062992124,
          "duration": 0.2205874999999935
        },
        {
          "name": "A3",
          "midi": 57,
          "time": 103.29009687499907,
          "velocity": 0.5748031496062992,
          "duration": 0.882349999999974
        },
        {
          "name": "D5",
          "midi": 74,
          "time": 103.51068437499906,
          "velocity": 0.5196850393700787,
          "duration": 0.2205874999999935
        },
        {
          "name": "A4",
          "midi": 69,
          "time": 103.51068437499906,
          "velocity": 0.5039370078740157,
          "duration": 0.441174999999987
        },
        {
          "name": "D6",
          "midi": 86,
          "time": 103.73127187499905,
          "velocity": 0.6220472440944882,
          "duration": 0.2205874999999935
        },
        {
          "name": "C6",
          "midi": 84,
          "time": 103.95185937499905,
          "velocity": 0.5511811023622047,
          "duration": 0.2205874999999935
        },
        {
          "name": "F#4",
          "midi": 66,
          "time": 103.95185937499905,
          "velocity": 0.4645669291338583,
          "duration": 0.2205874999999935
        },
        {
          "name": "A#5",
          "midi": 82,
          "time": 104.17244687499904,
          "velocity": 0.5590551181102362,
          "duration": 0.2205874999999935
        },
        {
          "name": "F4",
          "midi": 65,
          "time": 104.17244687499904,
          "velocity": 0.4566929133858268,
          "duration": 0.2205874999999935
        },
        {
          "name": "A#3",
          "midi": 58,
          "time": 104.17244687499904,
          "velocity": 0.5748031496062992,
          "duration": 0.882349999999974
        },
        {
          "name": "F5",
          "midi": 77,
          "time": 104.39303437499903,
          "velocity": 0.5118110236220472,
          "duration": 0.2205874999999935
        },
        {
          "name": "A#4",
          "midi": 70,
          "time": 104.39303437499903,
          "velocity": 0.5039370078740157,
          "duration": 0.2205874999999935
        },
        {
          "name": "D6",
          "midi": 86,
          "time": 104.61362187499903,
          "velocity": 0.6220472440944882,
          "duration": 0.2205874999999935
        },
        {
          "name": "D5",
          "midi": 74,
          "time": 104.61362187499903,
          "velocity": 0.5196850393700787,
          "duration": 0.2205874999999935
        },
        {
          "name": "A#5",
          "midi": 82,
          "time": 104.83420937499902,
          "velocity": 0.5354330708661418,
          "duration": 0.12775692708333963
        },
        {
          "name": "A#4",
          "midi": 70,
          "time": 104.83420937499902,
          "velocity": 0.4645669291338583,
          "duration": 0.2205874999999935
        },
        {
          "name": "C6",
          "midi": 84,
          "time": 104.96196630208236,
          "velocity": 0.5275590551181102,
          "duration": 0.09283057291665386
        },
        {
          "name": "D6",
          "midi": 86,
          "time": 105.00838158854069,
          "velocity": 0.5275590551181102,
          "duration": 0.04641528645832693
        },
        {
          "name": "C6",
          "midi": 84,
          "time": 105.05479687499901,
          "velocity": 0.5275590551181102,
          "duration": 0.441174999999987
        },
        {
          "name": "E4",
          "midi": 64,
          "time": 105.05479687499901,
          "velocity": 0.4645669291338583,
          "duration": 0.2205874999999935
        },
        {
          "name": "C4",
          "midi": 60,
          "time": 105.05479687499901,
          "velocity": 0.5826771653543307,
          "duration": 0.882349999999974
        },
        {
          "name": "G4",
          "midi": 67,
          "time": 105.275384374999,
          "velocity": 0.4881889763779528,
          "duration": 0.2205874999999935
        },
        {
          "name": "G5",
          "midi": 79,
          "time": 105.495971874999,
          "velocity": 0.5039370078740157,
          "duration": 0.2205874999999935
        },
        {
          "name": "C5",
          "midi": 72,
          "time": 105.495971874999,
          "velocity": 0.5118110236220472,
          "duration": 0.2205874999999935
        },
        {
          "name": "A5",
          "midi": 81,
          "time": 105.716559374999,
          "velocity": 0.5748031496062992,
          "duration": 0.2205874999999935
        },
        {
          "name": "G4",
          "midi": 67,
          "time": 105.716559374999,
          "velocity": 0.44881889763779526,
          "duration": 0.2205874999999935
        },
        {
          "name": "A#5",
          "midi": 82,
          "time": 105.93714687499899,
          "velocity": 0.5669291338582677,
          "duration": 0.2205874999999935
        },
        {
          "name": "D#4",
          "midi": 63,
          "time": 105.93714687499899,
          "velocity": 0.5905511811023622,
          "duration": 0.882349999999974
        },
        {
          "name": "D#5",
          "midi": 75,
          "time": 106.15773437499898,
          "velocity": 0.5039370078740157,
          "duration": 0.2205874999999935
        },
        {
          "name": "G4",
          "midi": 67,
          "time": 106.15773437499898,
          "velocity": 0.4566929133858268,
          "duration": 0.2205874999999935
        },
        {
          "name": "G5",
          "midi": 79,
          "time": 106.37832187499897,
          "velocity": 0.5669291338582677,
          "duration": 0.2205874999999935
        },
        {
          "name": "A#4",
          "midi": 70,
          "time": 106.37832187499897,
          "velocity": 0.4881889763779528,
          "duration": 0.2205874999999935
        },
        {
          "name": "A#5",
          "midi": 82,
          "time": 106.59890937499897,
          "velocity": 0.5905511811023622,
          "duration": 0.2205874999999935
        },
        {
          "name": "G4",
          "midi": 67,
          "time": 106.59890937499897,
          "velocity": 0.47244094488188976,
          "duration": 0.2205874999999935
        },
        {
          "name": "A5",
          "midi": 81,
          "time": 106.81949687499896,
          "velocity": 0.5511811023622047,
          "duration": 0.2205874999999935
        },
        {
          "name": "F4",
          "midi": 65,
          "time": 106.81949687499896,
          "velocity": 0.5748031496062992,
          "duration": 0.882349999999974
        },
        {
          "name": "C6",
          "midi": 84,
          "time": 107.04008437499895,
          "velocity": 0.5826771653543307,
          "duration": 0.2205874999999935
        },
        {
          "name": "A4",
          "midi": 69,
          "time": 107.04008437499895,
          "velocity": 0.4330708661417323,
          "duration": 0.2205874999999935
        },
        {
          "name": "F6",
          "midi": 89,
          "time": 107.26067187499895,
          "velocity": 0.5826771653543307,
          "duration": 0.2205874999999935
        },
        {
          "name": "C5",
          "midi": 72,
          "time": 107.26067187499895,
          "velocity": 0.4881889763779528,
          "duration": 0.2205874999999935
        },
        {
          "name": "C6",
          "midi": 84,
          "time": 107.48125937499894,
          "velocity": 0.5275590551181102,
          "duration": 0.2205874999999935
        },
        {
          "name": "A4",
          "midi": 69,
          "time": 107.48125937499894,
          "velocity": 0.4409448818897638,
          "duration": 0.2205874999999935
        },
        {
          "name": "D#6",
          "midi": 87,
          "time": 107.70184687499894,
          "velocity": 0.5748031496062992,
          "duration": 0.6617624999999805
        },
        {
          "name": "A#4",
          "midi": 70,
          "time": 107.70184687499894,
          "velocity": 0.48031496062992124,
          "duration": 0.2205874999999935
        },
        {
          "name": "A#3",
          "midi": 58,
          "time": 107.70184687499894,
          "velocity": 0.5433070866141733,
          "duration": 0.882349999999974
        },
        {
          "name": "D5",
          "midi": 74,
          "time": 107.92243437499893,
          "velocity": 0.5118110236220472,
          "duration": 0.2205874999999935
        },
        {
          "name": "F5",
          "midi": 77,
          "time": 108.14302187499892,
          "velocity": 0.49606299212598426,
          "duration": 0.2205874999999935
        },
        {
          "name": "D6",
          "midi": 86,
          "time": 108.36360937499892,
          "velocity": 0.5511811023622047,
          "duration": 0.11029374999999675
        },
        {
          "name": "D5",
          "midi": 74,
          "time": 108.36360937499892,
          "velocity": 0.4645669291338583,
          "duration": 0.2205874999999935
        },
        {
          "name": "C#6",
          "midi": 85,
          "time": 108.47390312499891,
          "velocity": 0.5354330708661418,
          "duration": 0.11029374999999675
        },
        {
          "name": "D6",
          "midi": 86,
          "time": 108.58419687499891,
          "velocity": 0.5826771653543307,
          "duration": 0.882349999999974
        },
        {
          "name": "G4",
          "midi": 67,
          "time": 108.58419687499891,
          "velocity": 0.4409448818897638,
          "duration": 0.2205874999999935
        },
        {
          "name": "B3",
          "midi": 59,
          "time": 108.58419687499891,
          "velocity": 0.5590551181102362,
          "duration": 0.882349999999974
        },
        {
          "name": "B4",
          "midi": 71,
          "time": 108.8047843749989,
          "velocity": 0.49606299212598426,
          "duration": 0.2205874999999935
        },
        {
          "name": "C#5",
          "midi": 73,
          "time": 109.0253718749989,
          "velocity": 0.5039370078740157,
          "duration": 0.2205874999999935
        },
        {
          "name": "D5",
          "midi": 74,
          "time": 109.0253718749989,
          "velocity": 0.5039370078740157,
          "duration": 0.2205874999999935
        },
        {
          "name": "B4",
          "midi": 71,
          "time": 109.24595937499889,
          "velocity": 0.44881889763779526,
          "duration": 0.2205874999999935
        },
        {
          "name": "D#5",
          "midi": 75,
          "time": 109.46654687499888,
          "velocity": 0.5039370078740157,
          "duration": 0.2205874999999935
        },
        {
          "name": "C4",
          "midi": 60,
          "time": 109.46654687499888,
          "velocity": 0.4251968503937008,
          "duration": 0.441174999999987
        },
        {
          "name": "G3",
          "midi": 55,
          "time": 109.46654687499888,
          "velocity": 0.5275590551181102,
          "duration": 0.882349999999974
        },
        {
          "name": "G5",
          "midi": 79,
          "time": 109.68713437499888,
          "velocity": 0.5826771653543307,
          "duration": 0.2205874999999935
        },
        {
          "name": "D6",
          "midi": 86,
          "time": 109.90772187499887,
          "velocity": 0.5984251968503937,
          "duration": 0.2205874999999935
        },
        {
          "name": "G4",
          "midi": 67,
          "time": 109.90772187499887,
          "velocity": 0.5275590551181102,
          "duration": 0.2205874999999935
        },
        {
          "name": "C6",
          "midi": 84,
          "time": 110.12830937499886,
          "velocity": 0.5354330708661418,
          "duration": 0.2205874999999935
        },
        {
          "name": "D#4",
          "midi": 63,
          "time": 110.12830937499886,
          "velocity": 0.4566929133858268,
          "duration": 0.2205874999999935
        },
        {
          "name": "A#5",
          "midi": 82,
          "time": 110.34889687499886,
          "velocity": 0.5433070866141733,
          "duration": 0.2205874999999935
        },
        {
          "name": "F4",
          "midi": 65,
          "time": 110.34889687499886,
          "velocity": 0.4881889763779528,
          "duration": 0.2205874999999935
        },
        {
          "name": "F3",
          "midi": 53,
          "time": 110.34889687499886,
          "velocity": 0.5511811023622047,
          "duration": 0.882349999999974
        },
        {
          "name": "A5",
          "midi": 81,
          "time": 110.56948437499885,
          "velocity": 0.5433070866141733,
          "duration": 0.2205874999999935
        },
        {
          "name": "C5",
          "midi": 72,
          "time": 110.56948437499885,
          "velocity": 0.5039370078740157,
          "duration": 0.2205874999999935
        },
        {
          "name": "A#5",
          "midi": 82,
          "time": 110.79007187499884,
          "velocity": 0.5669291338582677,
          "duration": 0.2205874999999935
        },
        {
          "name": "F5",
          "midi": 77,
          "time": 110.79007187499884,
          "velocity": 0.5275590551181102,
          "duration": 0.2205874999999935
        },
        {
          "name": "C6",
          "midi": 84,
          "time": 111.01065937499884,
          "velocity": 0.5905511811023622,
          "duration": 0.2205874999999935
        },
        {
          "name": "C5",
          "midi": 72,
          "time": 111.01065937499884,
          "velocity": 0.4566929133858268,
          "duration": 0.2205874999999935
        },
        {
          "name": "D6",
          "midi": 86,
          "time": 111.23124687499883,
          "velocity": 0.5669291338582677,
          "duration": 0.441174999999987
        },
        {
          "name": "A#4",
          "midi": 70,
          "time": 111.23124687499883,
          "velocity": 0.4566929133858268,
          "duration": 0.2205874999999935
        },
        {
          "name": "A#3",
          "midi": 58,
          "time": 111.23124687499883,
          "velocity": 0.5826771653543307,
          "duration": 0.441174999999987
        },
        {
          "name": "D5",
          "midi": 74,
          "time": 111.45183437499882,
          "velocity": 0.5039370078740157,
          "duration": 0.2205874999999935
        },
        {
          "name": "D#6",
          "midi": 87,
          "time": 111.67242187499882,
          "velocity": 0.5826771653543307,
          "duration": 0.2205874999999935
        },
        {
          "name": "A4",
          "midi": 69,
          "time": 111.67242187499882,
          "velocity": 0.4566929133858268,
          "duration": 0.2205874999999935
        },
        {
          "name": "A3",
          "midi": 57,
          "time": 111.67242187499882,
          "velocity": 0.5433070866141733,
          "duration": 0.441174999999987
        },
        {
          "name": "F6",
          "midi": 89,
          "time": 111.89300937499881,
          "velocity": 0.5748031496062992,
          "duration": 0.2205874999999935
        },
        {
          "name": "D5",
          "midi": 74,
          "time": 111.89300937499881,
          "velocity": 0.5118110236220472,
          "duration": 0.2205874999999935
        },
        {
          "name": "A#5",
          "midi": 82,
          "time": 112.1135968749988,
          "velocity": 0.49606299212598426,
          "duration": 0.441174999999987
        },
        {
          "name": "G4",
          "midi": 67,
          "time": 112.1135968749988,
          "velocity": 0.4566929133858268,
          "duration": 0.2205874999999935
        },
        {
          "name": "G3",
          "midi": 55,
          "time": 112.1135968749988,
          "velocity": 0.5354330708661418,
          "duration": 0.441174999999987
        },
        {
          "name": "D5",
          "midi": 74,
          "time": 112.3341843749988,
          "velocity": 0.5196850393700787,
          "duration": 0.2205874999999935
        },
        {
          "name": "G5",
          "midi": 79,
          "time": 112.55477187499879,
          "velocity": 0.5354330708661418,
          "duration": 0.2205874999999935
        },
        {
          "name": "F4",
          "midi": 65,
          "time": 112.55477187499879,
          "velocity": 0.4409448818897638,
          "duration": 0.2205874999999935
        },
        {
          "name": "F3",
          "midi": 53,
          "time": 112.55477187499879,
          "velocity": 0.5590551181102362,
          "duration": 0.441174999999987
        },
        {
          "name": "A5",
          "midi": 81,
          "time": 112.77535937499879,
          "velocity": 0.5826771653543307,
          "duration": 0.2205874999999935
        },
        {
          "name": "D5",
          "midi": 74,
          "time": 112.77535937499879,
          "velocity": 0.5433070866141733,
          "duration": 0.2205874999999935
        },
        {
          "name": "A#5",
          "midi": 82,
          "time": 112.99594687499878,
          "velocity": 0.5669291338582677,
          "duration": 0.2205874999999935
        },
        {
          "name": "D#4",
          "midi": 63,
          "time": 112.99594687499878,
          "velocity": 0.4015748031496063,
          "duration": 0.2205874999999935
        },
        {
          "name": "D#3",
          "midi": 51,
          "time": 112.99594687499878,
          "velocity": 0.5511811023622047,
          "duration": 0.882349999999974
        },
        {
          "name": "D5",
          "midi": 74,
          "time": 113.21653437499877,
          "velocity": 0.5039370078740157,
          "duration": 0.2205874999999935
        },
        {
          "name": "G4",
          "midi": 67,
          "time": 113.21653437499877,
          "velocity": 0.5039370078740157,
          "duration": 0.2205874999999935
        },
        {
          "name": "D#5",
          "midi": 75,
          "time": 113.43712187499877,
          "velocity": 0.5669291338582677,
          "duration": 0.2205874999999935
        },
        {
          "name": "A#4",
          "midi": 70,
          "time": 113.43712187499877,
          "velocity": 0.49606299212598426,
          "duration": 0.2205874999999935
        },
        {
          "name": "D6",
          "midi": 86,
          "time": 113.65770937499876,
          "velocity": 0.6220472440944882,
          "duration": 0.2205874999999935
        },
        {
          "name": "D#4",
          "midi": 63,
          "time": 113.65770937499876,
          "velocity": 0.4409448818897638,
          "duration": 0.2205874999999935
        },
        {
          "name": "C6",
          "midi": 84,
          "time": 113.87829687499875,
          "velocity": 0.5433070866141733,
          "duration": 0.2205874999999935
        },
        {
          "name": "D4",
          "midi": 62,
          "time": 113.87829687499875,
          "velocity": 0.4645669291338583,
          "duration": 0.2205874999999935
        },
        {
          "name": "D3",
          "midi": 50,
          "time": 113.87829687499875,
          "velocity": 0.5669291338582677,
          "duration": 0.882349999999974
        },
        {
          "name": "D5",
          "midi": 74,
          "time": 114.09888437499875,
          "velocity": 0.4881889763779528,
          "duration": 0.2205874999999935
        },
        {
          "name": "F4",
          "midi": 65,
          "time": 114.09888437499875,
          "velocity": 0.4881889763779528,
          "duration": 0.2205874999999935
        },
        {
          "name": "F5",
          "midi": 77,
          "time": 114.31947187499874,
          "velocity": 0.5905511811023622,
          "duration": 0.2205874999999935
        },
        {
          "name": "A4",
          "midi": 69,
          "time": 114.31947187499874,
          "velocity": 0.5118110236220472,
          "duration": 0.2205874999999935
        },
        {
          "name": "C6",
          "midi": 84,
          "time": 114.54005937499873,
          "velocity": 0.5826771653543307,
          "duration": 0.2205874999999935
        },
        {
          "name": "F4",
          "midi": 65,
          "time": 114.54005937499873,
          "velocity": 0.4645669291338583,
          "duration": 0.2205874999999935
        },
        {
          "name": "A#5",
          "midi": 82,
          "time": 114.76064687499873,
          "velocity": 0.5433070866141733,
          "duration": 0.6617624999999805
        },
        {
          "name": "C4",
          "midi": 60,
          "time": 114.76064687499873,
          "velocity": 0.4409448818897638,
          "duration": 0.2205874999999935
        },
        {
          "name": "C3",
          "midi": 48,
          "time": 114.76064687499873,
          "velocity": 0.5590551181102362,
          "duration": 1.764699999999948
        },
        {
          "name": "E4",
          "midi": 64,
          "time": 114.98123437499872,
          "velocity": 0.49606299212598426,
          "duration": 0.2205874999999935
        },
        {
          "name": "G4",
          "midi": 67,
          "time": 115.20182187499871,
          "velocity": 0.49606299212598426,
          "duration": 0.2205874999999935
        },
        {
          "name": "A5",
          "midi": 81,
          "time": 115.42240937499871,
          "velocity": 0.5354330708661418,
          "duration": 0.11029374999999675
        },
        {
          "name": "E4",
          "midi": 64,
          "time": 115.42240937499871,
          "velocity": 0.4645669291338583,
          "duration": 0.2205874999999935
        },
        {
          "name": "A#5",
          "midi": 82,
          "time": 115.5327031249987,
          "velocity": 0.5748031496062992,
          "duration": 0.11029374999999675
        },
        {
          "name": "G5",
          "midi": 79,
          "time": 115.6429968749987,
          "velocity": 0.5196850393700787,
          "duration": 0.441174999999987
        },
        {
          "name": "C4",
          "midi": 60,
          "time": 115.6429968749987,
          "velocity": 0.4566929133858268,
          "duration": 0.2205874999999935
        },
        {
          "name": "E4",
          "midi": 64,
          "time": 115.8635843749987,
          "velocity": 0.5118110236220472,
          "duration": 0.2205874999999935
        },
        {
          "name": "G5",
          "midi": 79,
          "time": 116.08417187499869,
          "velocity": 0.5669291338582677,
          "duration": 0.2205874999999935
        },
        {
          "name": "G3",
          "midi": 55,
          "time": 116.08417187499869,
          "velocity": 0.49606299212598426,
          "duration": 0.2205874999999935
        },
        {
          "name": "G4",
          "midi": 67,
          "time": 116.08417187499869,
          "velocity": 0.49606299212598426,
          "duration": 0.2205874999999935
        },
        {
          "name": "A5",
          "midi": 81,
          "time": 116.30475937499868,
          "velocity": 0.5669291338582677,
          "duration": 0.2205874999999935
        },
        {
          "name": "E4",
          "midi": 64,
          "time": 116.30475937499868,
          "velocity": 0.4645669291338583,
          "duration": 0.2205874999999935
        },
        {
          "name": "A#5",
          "midi": 82,
          "time": 116.52534687499868,
          "velocity": 0.5826771653543307,
          "duration": 0.2205874999999935
        },
        {
          "name": "C4",
          "midi": 60,
          "time": 116.52534687499868,
          "velocity": 0.4645669291338583,
          "duration": 0.2205874999999935
        },
        {
          "name": "C3",
          "midi": 48,
          "time": 116.52534687499868,
          "velocity": 0.5590551181102362,
          "duration": 0.882349999999974
        },
        {
          "name": "D5",
          "midi": 74,
          "time": 116.74593437499867,
          "velocity": 0.49606299212598426,
          "duration": 0.2205874999999935
        },
        {
          "name": "D#4",
          "midi": 63,
          "time": 116.74593437499867,
          "velocity": 0.4881889763779528,
          "duration": 0.2205874999999935
        },
        {
          "name": "D#5",
          "midi": 75,
          "time": 116.96652187499866,
          "velocity": 0.5826771653543307,
          "duration": 0.2205874999999935
        },
        {
          "name": "G4",
          "midi": 67,
          "time": 116.96652187499866,
          "velocity": 0.5118110236220472,
          "duration": 0.2205874999999935
        },
        {
          "name": "D6",
          "midi": 86,
          "time": 117.18710937499866,
          "velocity": 0.6456692913385826,
          "duration": 0.2205874999999935
        },
        {
          "name": "D#4",
          "midi": 63,
          "time": 117.18710937499866,
          "velocity": 0.4566929133858268,
          "duration": 0.2205874999999935
        },
        {
          "name": "C6",
          "midi": 84,
          "time": 117.40769687499865,
          "velocity": 0.5433070866141733,
          "duration": 0.2205874999999935
        },
        {
          "name": "D4",
          "midi": 62,
          "time": 117.40769687499865,
          "velocity": 0.4645669291338583,
          "duration": 0.2205874999999935
        },
        {
          "name": "D3",
          "midi": 50,
          "time": 117.40769687499865,
          "velocity": 0.5826771653543307,
          "duration": 0.882349999999974
        },
        {
          "name": "D5",
          "midi": 74,
          "time": 117.62828437499864,
          "velocity": 0.48031496062992124,
          "duration": 0.2205874999999935
        },
        {
          "name": "F4",
          "midi": 65,
          "time": 117.62828437499864,
          "velocity": 0.4881889763779528,
          "duration": 0.2205874999999935
        },
        {
          "name": "F5",
          "midi": 77,
          "time": 117.84887187499864,
          "velocity": 0.5748031496062992,
          "duration": 0.2205874999999935
        },
        {
          "name": "A4",
          "midi": 69,
          "time": 117.84887187499864,
          "velocity": 0.49606299212598426,
          "duration": 0.2205874999999935
        },
        {
          "name": "C6",
          "midi": 84,
          "time": 118.06945937499863,
          "velocity": 0.5984251968503937,
          "duration": 0.2205874999999935
        },
        {
          "name": "F4",
          "midi": 65,
          "time": 118.06945937499863,
          "velocity": 0.4566929133858268,
          "duration": 0.2205874999999935
        },
        {
          "name": "A#5",
          "midi": 82,
          "time": 118.29004687499862,
          "velocity": 0.5511811023622047,
          "duration": 0.44990658854165133
        },
        {
          "name": "D#4",
          "midi": 63,
          "time": 118.29004687499862,
          "velocity": 0.4566929133858268,
          "duration": 0.2205874999999935
        },
        {
          "name": "D#3",
          "midi": 51,
          "time": 118.29004687499862,
          "velocity": 0.5748031496062992,
          "duration": 3.529399999999896
        },
        {
          "name": "G4",
          "midi": 67,
          "time": 118.51063437499862,
          "velocity": 0.5275590551181102,
          "duration": 0.2205874999999935
        },
        {
          "name": "A#4",
          "midi": 70,
          "time": 118.73122187499861,
          "velocity": 0.5196850393700787,
          "duration": 0.2205874999999935
        },
        {
          "name": "A5",
          "midi": 81,
          "time": 118.8415156249986,
          "velocity": 0.5039370078740157,
          "duration": 0.11213197916666218
        },
        {
          "name": "A#5",
          "midi": 82,
          "time": 118.9518093749986,
          "velocity": 0.5039370078740157,
          "duration": 0.11213197916666218
        },
        {
          "name": "G4",
          "midi": 67,
          "time": 118.9518093749986,
          "velocity": 0.4881889763779528,
          "duration": 0.2205874999999935
        },
        {
          "name": "C6",
          "midi": 84,
          "time": 119.0621031249986,
          "velocity": 0.5669291338582677,
          "duration": 0.11213197916666218
        },
        {
          "name": "D6",
          "midi": 86,
          "time": 119.1723968749986,
          "velocity": 0.5984251968503937,
          "duration": 0.8377729427083125
        },
        {
          "name": "D#4",
          "midi": 63,
          "time": 119.1723968749986,
          "velocity": 0.4566929133858268,
          "duration": 0.2205874999999935
        },
        {
          "name": "G4",
          "midi": 67,
          "time": 119.39298437499859,
          "velocity": 0.5118110236220472,
          "duration": 0.2205874999999935
        },
        {
          "name": "A#4",
          "midi": 70,
          "time": 119.61357187499858,
          "velocity": 0.49606299212598426,
          "duration": 0.2205874999999935
        },
        {
          "name": "G4",
          "midi": 67,
          "time": 119.83415937499858,
          "velocity": 0.4645669291338583,
          "duration": 0.2205874999999935
        },
        {
          "name": "G5",
          "midi": 79,
          "time": 120.05474687499857,
          "velocity": 0.5196850393700787,
          "duration": 0.882349999999974
        },
        {
          "name": "D#4",
          "midi": 63,
          "time": 120.05474687499857,
          "velocity": 0.4330708661417323,
          "duration": 0.2205874999999935
        },
        {
          "name": "G4",
          "midi": 67,
          "time": 120.27533437499856,
          "velocity": 0.5275590551181102,
          "duration": 0.2205874999999935
        },
        {
          "name": "A#4",
          "midi": 70,
          "time": 120.49592187499856,
          "velocity": 0.5039370078740157,
          "duration": 0.2205874999999935
        },
        {
          "name": "G4",
          "midi": 67,
          "time": 120.71650937499855,
          "velocity": 0.4566929133858268,
          "duration": 0.2205874999999935
        },
        {
          "name": "G5",
          "midi": 79,
          "time": 120.93709687499855,
          "velocity": 0.49606299212598426,
          "duration": 0.8377729427083125
        },
        {
          "name": "A5",
          "midi": 81,
          "time": 120.93709687499855,
          "velocity": 0.49606299212598426,
          "duration": 0.8377729427083125
        },
        {
          "name": "D#4",
          "midi": 63,
          "time": 120.93709687499855,
          "velocity": 0.4566929133858268,
          "duration": 0.2205874999999935
        },
        {
          "name": "G4",
          "midi": 67,
          "time": 121.15768437499854,
          "velocity": 0.4881889763779528,
          "duration": 0.2205874999999935
        },
        {
          "name": "A#4",
          "midi": 70,
          "time": 121.37827187499853,
          "velocity": 0.48031496062992124,
          "duration": 0.2205874999999935
        },
        {
          "name": "G4",
          "midi": 67,
          "time": 121.59885937499853,
          "velocity": 0.4566929133858268,
          "duration": 0.2205874999999935
        },
        {
          "name": "A#4",
          "midi": 70,
          "time": 121.81944687499852,
          "velocity": 0.49606299212598426,
          "duration": 0.441174999999987
        },
        {
          "name": "G4",
          "midi": 67,
          "time": 121.81944687499852,
          "velocity": 0.4015748031496063,
          "duration": 0.2205874999999935
        },
        {
          "name": "G2",
          "midi": 43,
          "time": 121.81944687499852,
          "velocity": 0.6692913385826772,
          "duration": 0.2205874999999935
        },
        {
          "name": "G3",
          "midi": 55,
          "time": 121.81944687499852,
          "velocity": 0.6692913385826772,
          "duration": 0.2205874999999935
        },
        {
          "name": "D4",
          "midi": 62,
          "time": 122.04003437499851,
          "velocity": 0.4645669291338583,
          "duration": 0.2205874999999935
        },
        {
          "name": "D3",
          "midi": 50,
          "time": 122.04003437499851,
          "velocity": 0.7401574803149606,
          "duration": 0.2205874999999935
        },
        {
          "name": "G4",
          "midi": 67,
          "time": 122.2606218749985,
          "velocity": 0.6141732283464567,
          "duration": 0.441174999999987
        },
        {
          "name": "G3",
          "midi": 55,
          "time": 122.2606218749985,
          "velocity": 0.7401574803149606,
          "duration": 0.2205874999999935
        },
        {
          "name": "A#4",
          "midi": 70,
          "time": 122.4812093749985,
          "velocity": 0.7874015748031497,
          "duration": 0.2205874999999935
        },
        {
          "name": "D3",
          "midi": 50,
          "time": 122.4812093749985,
          "velocity": 0.6299212598425197,
          "duration": 0.2205874999999935
        },
        {
          "name": "A4",
          "midi": 69,
          "time": 122.7017968749985,
          "velocity": 0.7480314960629921,
          "duration": 0.441174999999987
        },
        {
          "name": "F#4",
          "midi": 66,
          "time": 122.7017968749985,
          "velocity": 0.5196850393700787,
          "duration": 0.2205874999999935
        },
        {
          "name": "A2",
          "midi": 45,
          "time": 122.7017968749985,
          "velocity": 0.6692913385826772,
          "duration": 0.2205874999999935
        },
        {
          "name": "A3",
          "midi": 57,
          "time": 122.7017968749985,
          "velocity": 0.6692913385826772,
          "duration": 0.2205874999999935
        },
        {
          "name": "G4",
          "midi": 67,
          "time": 122.92238437499849,
          "velocity": 0.5669291338582677,
          "duration": 0.2205874999999935
        },
        {
          "name": "D3",
          "midi": 50,
          "time": 122.92238437499849,
          "velocity": 0.6929133858267716,
          "duration": 0.2205874999999935
        },
        {
          "name": "D5",
          "midi": 74,
          "time": 123.14297187499848,
          "velocity": 0.8267716535433071,
          "duration": 0.2205874999999935
        },
        {
          "name": "A4",
          "midi": 69,
          "time": 123.14297187499848,
          "velocity": 0.5590551181102362,
          "duration": 0.441174999999987
        },
        {
          "name": "A3",
          "midi": 57,
          "time": 123.14297187499848,
          "velocity": 0.6929133858267716,
          "duration": 0.2205874999999935
        },
        {
          "name": "C5",
          "midi": 72,
          "time": 123.36355937499847,
          "velocity": 0.7480314960629921,
          "duration": 0.2205874999999935
        },
        {
          "name": "D3",
          "midi": 50,
          "time": 123.36355937499847,
          "velocity": 0.6299212598425197,
          "duration": 0.2205874999999935
        },
        {
          "name": "A#4",
          "midi": 70,
          "time": 123.58414687499847,
          "velocity": 0.7480314960629921,
          "duration": 0.441174999999987
        },
        {
          "name": "A#2",
          "midi": 46,
          "time": 123.58414687499847,
          "velocity": 0.6850393700787402,
          "duration": 0.2205874999999935
        },
        {
          "name": "A#3",
          "midi": 58,
          "time": 123.58414687499847,
          "velocity": 0.6850393700787402,
          "duration": 0.2205874999999935
        },
        {
          "name": "F4",
          "midi": 65,
          "time": 123.80473437499846,
          "velocity": 0.5433070866141733,
          "duration": 0.2205874999999935
        },
        {
          "name": "F3",
          "midi": 53,
          "time": 123.80473437499846,
          "velocity": 0.6535433070866141,
          "duration": 0.2205874999999935
        },
        {
          "name": "D5",
          "midi": 74,
          "time": 124.02532187499845,
          "velocity": 0.7244094488188977,
          "duration": 0.4411750000000012
        },
        {
          "name": "A#3",
          "midi": 58,
          "time": 124.02532187499845,
          "velocity": 0.6771653543307087,
          "duration": 0.2205874999999935
        },
        {
          "name": "A#4",
          "midi": 70,
          "time": 124.24590937499845,
          "velocity": 0.5354330708661418,
          "duration": 0.2205875000000077
        },
        {
          "name": "F3",
          "midi": 53,
          "time": 124.24590937499845,
          "velocity": 0.6377952755905512,
          "duration": 0.2205875000000077
        },
        {
          "name": "G4",
          "midi": 67,
          "time": 124.39756328124845,
          "velocity": 0.5511811023622047,
          "duration": 0.2205875000000077
        },
        {
          "name": "C5",
          "midi": 72,
          "time": 124.46649687499846,
          "velocity": 0.7559055118110236,
          "duration": 0.4411750000000012
        },
        {
          "name": "C3",
          "midi": 48,
          "time": 124.46649687499846,
          "velocity": 0.7086614173228346,
          "duration": 0.2205875000000077
        },
        {
          "name": "C4",
          "midi": 60,
          "time": 124.46649687499846,
          "velocity": 0.7086614173228346,
          "duration": 0.2205875000000077
        },
        {
          "name": "F4",
          "midi": 65,
          "time": 124.68708437499846,
          "velocity": 0.5433070866141733,
          "duration": 0.2205874999999935
        },
        {
          "name": "G3",
          "midi": 55,
          "time": 124.68708437499846,
          "velocity": 0.6377952755905512,
          "duration": 0.2205874999999935
        },
        {
          "name": "G4",
          "midi": 67,
          "time": 124.90767187499846,
          "velocity": 0.5905511811023622,
          "duration": 0.2205874999999935
        },
        {
          "name": "E4",
          "midi": 64,
          "time": 124.90767187499846,
          "velocity": 0.5511811023622047,
          "duration": 0.441174999999987
        },
        {
          "name": "C4",
          "midi": 60,
          "time": 124.90767187499846,
          "velocity": 0.7086614173228346,
          "duration": 0.2205874999999935
        },
        {
          "name": "A4",
          "midi": 69,
          "time": 125.12825937499845,
          "velocity": 0.7952755905511811,
          "duration": 0.2205874999999935
        },
        {
          "name": "G3",
          "midi": 55,
          "time": 125.12825937499845,
          "velocity": 0.6377952755905512,
          "duration": 0.2205874999999935
        },
        {
          "name": "A#4",
          "midi": 70,
          "time": 125.34884687499844,
          "velocity": 0.7952755905511811,
          "duration": 0.2205874999999935
        },
        {
          "name": "D#3",
          "midi": 51,
          "time": 125.34884687499844,
          "velocity": 0.6220472440944882,
          "duration": 0.2205874999999935
        },
        {
          "name": "D#4",
          "midi": 63,
          "time": 125.56943437499844,
          "velocity": 0.7007874015748031,
          "duration": 0.2205874999999935
        },
        {
          "name": "G3",
          "midi": 55,
          "time": 125.56943437499844,
          "velocity": 0.6614173228346457,
          "duration": 0.2205874999999935
        },
        {
          "name": "G4",
          "midi": 67,
          "time": 125.79002187499843,
          "velocity": 0.8188976377952756,
          "duration": 0.2205874999999935
        },
        {
          "name": "A#3",
          "midi": 58,
          "time": 125.79002187499843,
          "velocity": 0.6850393700787402,
          "duration": 0.2205874999999935
        },
        {
          "name": "A#4",
          "midi": 70,
          "time": 126.01060937499842,
          "velocity": 0.7401574803149606,
          "duration": 0.2205874999999935
        },
        {
          "name": "G3",
          "midi": 55,
          "time": 126.01060937499842,
          "velocity": 0.6456692913385826,
          "duration": 0.2205874999999935
        },
        {
          "name": "F4",
          "midi": 65,
          "time": 126.23119687499842,
          "velocity": 0.5196850393700787,
          "duration": 0.2205874999999935
        },
        {
          "name": "A4",
          "midi": 69,
          "time": 126.23119687499842,
          "velocity": 0.7637795275590551,
          "duration": 0.2205874999999935
        },
        {
          "name": "F3",
          "midi": 53,
          "time": 126.23119687499842,
          "velocity": 0.6692913385826772,
          "duration": 0.2205874999999935
        },
        {
          "name": "C5",
          "midi": 72,
          "time": 126.45178437499841,
          "velocity": 0.7086614173228346,
          "duration": 0.2205874999999935
        },
        {
          "name": "A3",
          "midi": 57,
          "time": 126.45178437499841,
          "velocity": 0.6771653543307087,
          "duration": 0.2205874999999935
        },
        {
          "name": "F5",
          "midi": 77,
          "time": 126.6723718749984,
          "velocity": 0.7559055118110236,
          "duration": 0.2205874999999935
        },
        {
          "name": "C4",
          "midi": 60,
          "time": 126.6723718749984,
          "velocity": 0.7086614173228346,
          "duration": 0.2205874999999935
        },
        {
          "name": "C5",
          "midi": 72,
          "time": 126.8929593749984,
          "velocity": 0.7401574803149606,
          "duration": 0.2205874999999935
        },
        {
          "name": "A3",
          "midi": 57,
          "time": 126.8929593749984,
          "velocity": 0.6377952755905512,
          "duration": 0.2205874999999935
        },
        {
          "name": "A#4",
          "midi": 70,
          "time": 127.11354687499839,
          "velocity": 0.6299212598425197,
          "duration": 0.6617624999999805
        },
        {
          "name": "D#5",
          "midi": 75,
          "time": 127.11354687499839,
          "velocity": 0.6299212598425197,
          "duration": 0.6617624999999805
        },
        {
          "name": "F3",
          "midi": 53,
          "time": 127.11354687499839,
          "velocity": 0.6692913385826772,
          "duration": 0.2205874999999935
        },
        {
          "name": "A#3",
          "midi": 58,
          "time": 127.11354687499839,
          "velocity": 0.6692913385826772,
          "duration": 0.2205874999999935
        },
        {
          "name": "D4",
          "midi": 62,
          "time": 127.33413437499838,
          "velocity": 0.7007874015748031,
          "duration": 0.2205874999999935
        },
        {
          "name": "F4",
          "midi": 65,
          "time": 127.55472187499838,
          "velocity": 0.6929133858267716,
          "duration": 0.2205874999999935
        },
        {
          "name": "D5",
          "midi": 74,
          "time": 127.77530937499837,
          "velocity": 0.7086614173228346,
          "duration": 0.11029374999999675
        },
        {
          "name": "D4",
          "midi": 62,
          "time": 127.77530937499837,
          "velocity": 0.6220472440944882,
          "duration": 0.2205874999999935
        },
        {
          "name": "C#5",
          "midi": 73,
          "time": 127.88560312499837,
          "velocity": 0.6692913385826772,
          "duration": 0.11029374999999675
        },
        {
          "name": "B4",
          "midi": 71,
          "time": 127.99589687499837,
          "velocity": 0.5433070866141733,
          "duration": 0.4411750000000012
        },
        {
          "name": "D5",
          "midi": 74,
          "time": 127.99589687499837,
          "velocity": 0.6692913385826772,
          "duration": 0.4411750000000012
        },
        {
          "name": "G3",
          "midi": 55,
          "time": 127.99589687499837,
          "velocity": 0.6141732283464567,
          "duration": 0.2205875000000077
        },
        {
          "name": "B3",
          "midi": 59,
          "time": 128.21648437499837,
          "velocity": 0.6771653543307087,
          "duration": 0.2205874999999935
        },
        {
          "name": "C#5",
          "midi": 73,
          "time": 128.43707187499837,
          "velocity": 0.7401574803149606,
          "duration": 0.2205874999999935
        },
        {
          "name": "D4",
          "midi": 62,
          "time": 128.43707187499837,
          "velocity": 0.6771653543307087,
          "duration": 0.4411750000000154
        },
        {
          "name": "D5",
          "midi": 74,
          "time": 128.65765937499836,
          "velocity": 0.7716535433070866,
          "duration": 0.22058750000002192
        },
        {
          "name": "G5",
          "midi": 79,
          "time": 128.87824687499838,
          "velocity": 0.6929133858267716,
          "duration": 0.11029375000001096
        },
        {
          "name": "C2",
          "midi": 36,
          "time": 128.87824687499838,
          "velocity": 0.6299212598425197,
          "duration": 0.44117500000004384
        },
        {
          "name": "C3",
          "midi": 48,
          "time": 128.87824687499838,
          "velocity": 0.6299212598425197,
          "duration": 0.44117500000004384
        },
        {
          "name": "A5",
          "midi": 81,
          "time": 128.9885406249984,
          "velocity": 0.6850393700787402,
          "duration": 0.11029375000001096
        },
        {
          "name": "A#5",
          "midi": 82,
          "time": 129.0988343749984,
          "velocity": 0.6850393700787402,
          "duration": 0.11029375000001096
        },
        {
          "name": "C6",
          "midi": 84,
          "time": 129.20912812499841,
          "velocity": 0.7007874015748031,
          "duration": 0.11029375000001096
        },
        {
          "name": "D6",
          "midi": 86,
          "time": 129.31942187499843,
          "velocity": 0.6850393700787402,
          "duration": 0.11029375000001096
        },
        {
          "name": "C4",
          "midi": 60,
          "time": 129.31942187499843,
          "velocity": 0.7401574803149606,
          "duration": 0.44117500000004384
        },
        {
          "name": "D#4",
          "midi": 63,
          "time": 129.31942187499843,
          "velocity": 0.7401574803149606,
          "duration": 0.44117500000004384
        },
        {
          "name": "G4",
          "midi": 67,
          "time": 129.31942187499843,
          "velocity": 0.7401574803149606,
          "duration": 0.44117500000004384
        },
        {
          "name": "D#6",
          "midi": 87,
          "time": 129.42971562499844,
          "velocity": 0.6614173228346457,
          "duration": 0.11029375000001096
        },
        {
          "name": "D6",
          "midi": 86,
          "time": 129.54000937499845,
          "velocity": 0.6377952755905512,
          "duration": 0.11029375000001096
        },
        {
          "name": "C6",
          "midi": 84,
          "time": 129.65030312499846,
          "velocity": 0.6220472440944882,
          "duration": 0.11029375000001096
        },
        {
          "name": "A#5",
          "midi": 82,
          "time": 129.76059687499847,
          "velocity": 0.6377952755905512,
          "duration": 0.11029375000001096
        },
        {
          "name": "F#2",
          "midi": 42,
          "time": 129.76059687499847,
          "velocity": 0.6377952755905512,
          "duration": 0.44117500000004384
        },
        {
          "name": "F#3",
          "midi": 54,
          "time": 129.76059687499847,
          "velocity": 0.6377952755905512,
          "duration": 0.44117500000004384
        },
        {
          "name": "C6",
          "midi": 84,
          "time": 129.87089062499848,
          "velocity": 0.6850393700787402,
          "duration": 0.11029375000001096
        },
        {
          "name": "A5",
          "midi": 81,
          "time": 129.9811843749985,
          "velocity": 0.6220472440944882,
          "duration": 0.11029375000001096
        },
        {
          "name": "C6",
          "midi": 84,
          "time": 130.0914781249985,
          "velocity": 0.6850393700787402,
          "duration": 0.11029375000001096
        },
        {
          "name": "A#5",
          "midi": 82,
          "time": 130.2017718749985,
          "velocity": 0.6299212598425197,
          "duration": 0.11029375000001096
        },
        {
          "name": "A3",
          "midi": 57,
          "time": 130.2017718749985,
          "velocity": 0.7322834645669292,
          "duration": 0.44117500000004384
        },
        {
          "name": "C4",
          "midi": 60,
          "time": 130.2017718749985,
          "velocity": 0.7322834645669292,
          "duration": 0.44117500000004384
        },
        {
          "name": "F#4",
          "midi": 66,
          "time": 130.2017718749985,
          "velocity": 0.7322834645669292,
          "duration": 0.44117500000004384
        },
        {
          "name": "A5",
          "midi": 81,
          "time": 130.31206562499852,
          "velocity": 0.6614173228346457,
          "duration": 0.11029375000001096
        },
        {
          "name": "C6",
          "midi": 84,
          "time": 130.42235937499854,
          "velocity": 0.6929133858267716,
          "duration": 0.11029375000001096
        },
        {
          "name": "A5",
          "midi": 81,
          "time": 130.53265312499855,
          "velocity": 0.6456692913385826,
          "duration": 0.11029375000001096
        },
        {
          "name": "F5",
          "midi": 77,
          "time": 130.64294687499856,
          "velocity": 0.7007874015748031,
          "duration": 0.33088125000000446
        },
        {
          "name": "A#5",
          "midi": 82,
          "time": 130.64294687499856,
          "velocity": 0.7007874015748031,
          "duration": 0.33088125000000446
        },
        {
          "name": "D6",
          "midi": 86,
          "time": 130.64294687499856,
          "velocity": 0.7007874015748031,
          "duration": 0.33088125000000446
        },
        {
          "name": "F2",
          "midi": 41,
          "time": 130.64294687499856,
          "velocity": 0.6299212598425197,
          "duration": 0.4411750000000154
        },
        {
          "name": "F3",
          "midi": 53,
          "time": 130.64294687499856,
          "velocity": 0.6299212598425197,
          "duration": 0.4411750000000154
        },
        {
          "name": "F5",
          "midi": 77,
          "time": 130.97382812499856,
          "velocity": 0.5748031496062992,
          "duration": 0.11029375000001096
        },
        {
          "name": "F5",
          "midi": 77,
          "time": 131.08412187499857,
          "velocity": 0.7244094488188977,
          "duration": 0.2205874999999935
        },
        {
          "name": "D#6",
          "midi": 87,
          "time": 131.08412187499857,
          "velocity": 0.7244094488188977,
          "duration": 0.2205874999999935
        },
        {
          "name": "A#3",
          "midi": 58,
          "time": 131.08412187499857,
          "velocity": 0.7716535433070866,
          "duration": 0.4411750000000154
        },
        {
          "name": "D4",
          "midi": 62,
          "time": 131.08412187499857,
          "velocity": 0.7716535433070866,
          "duration": 0.4411750000000154
        },
        {
          "name": "F4",
          "midi": 65,
          "time": 131.08412187499857,
          "velocity": 0.7716535433070866,
          "duration": 0.4411750000000154
        },
        {
          "name": "F6",
          "midi": 89,
          "time": 131.30470937499857,
          "velocity": 0.6929133858267716,
          "duration": 0.22058750000002192
        },
        {
          "name": "A#5",
          "midi": 82,
          "time": 131.5252968749986,
          "velocity": 0.6062992125984252,
          "duration": 0.11029375000001096
        },
        {
          "name": "E2",
          "midi": 40,
          "time": 131.5252968749986,
          "velocity": 0.6377952755905512,
          "duration": 0.22058750000002192
        },
        {
          "name": "E3",
          "midi": 52,
          "time": 131.5252968749986,
          "velocity": 0.6377952755905512,
          "duration": 0.22058750000002192
        },
        {
          "name": "E5",
          "midi": 76,
          "time": 131.6355906249986,
          "velocity": 0.5984251968503937,
          "duration": 0.11029375000001096
        },
        {
          "name": "G5",
          "midi": 79,
          "time": 131.7458843749986,
          "velocity": 0.6692913385826772,
          "duration": 0.11029375000001096
        },
        {
          "name": "C4",
          "midi": 60,
          "time": 131.7458843749986,
          "velocity": 0.7322834645669292,
          "duration": 0.22058750000002192
        },
        {
          "name": "G4",
          "midi": 67,
          "time": 131.7458843749986,
          "velocity": 0.7322834645669292,
          "duration": 0.22058750000002192
        },
        {
          "name": "C6",
          "midi": 84,
          "time": 131.85617812499862,
          "velocity": 0.7086614173228346,
          "duration": 0.11029375000001096
        },
        {
          "name": "G5",
          "midi": 79,
          "time": 131.96647187499863,
          "velocity": 0.7165354330708661,
          "duration": 0.22058750000002192
        },
        {
          "name": "G6",
          "midi": 91,
          "time": 131.96647187499863,
          "velocity": 0.7165354330708661,
          "duration": 0.22058750000002192
        },
        {
          "name": "C4",
          "midi": 60,
          "time": 131.96647187499863,
          "velocity": 0.6692913385826772,
          "duration": 0.22058750000002192
        },
        {
          "name": "G4",
          "midi": 67,
          "time": 131.96647187499863,
          "velocity": 0.6692913385826772,
          "duration": 0.22058750000002192
        },
        {
          "name": "A5",
          "midi": 81,
          "time": 132.18705937499865,
          "velocity": 0.6220472440944882,
          "duration": 0.22058750000002192
        },
        {
          "name": "D6",
          "midi": 86,
          "time": 132.18705937499865,
          "velocity": 0.6220472440944882,
          "duration": 0.22058750000002192
        },
        {
          "name": "A#4",
          "midi": 70,
          "time": 132.40764687499868,
          "velocity": 0.5275590551181102,
          "duration": 0.2205874999999935
        },
        {
          "name": "A#5",
          "midi": 82,
          "time": 132.40764687499868,
          "velocity": 0.5275590551181102,
          "duration": 0.2205874999999935
        },
        {
          "name": "G3",
          "midi": 55,
          "time": 132.40764687499868,
          "velocity": 0.4881889763779528,
          "duration": 0.2205874999999935
        },
        {
          "name": "A#3",
          "midi": 58,
          "time": 132.40764687499868,
          "velocity": 0.4881889763779528,
          "duration": 0.2205874999999935
        },
        {
          "name": "D4",
          "midi": 62,
          "time": 132.62823437499867,
          "velocity": 0.5118110236220472,
          "duration": 0.2205874999999935
        },
        {
          "name": "D5",
          "midi": 74,
          "time": 132.62823437499867,
          "velocity": 0.5118110236220472,
          "duration": 0.2205874999999935
        },
        {
          "name": "D3",
          "midi": 50,
          "time": 132.62823437499867,
          "velocity": 0.5590551181102362,
          "duration": 0.2205874999999935
        },
        {
          "name": "G3",
          "midi": 55,
          "time": 132.62823437499867,
          "velocity": 0.5590551181102362,
          "duration": 0.2205874999999935
        },
        {
          "name": "D#4",
          "midi": 63,
          "time": 132.84882187499866,
          "velocity": 0.5669291338582677,
          "duration": 0.2205874999999935
        },
        {
          "name": "D#5",
          "midi": 75,
          "time": 132.84882187499866,
          "velocity": 0.5669291338582677,
          "duration": 0.2205874999999935
        },
        {
          "name": "D#3",
          "midi": 51,
          "time": 132.84882187499866,
          "velocity": 0.5590551181102362,
          "duration": 0.2205874999999935
        },
        {
          "name": "G3",
          "midi": 55,
          "time": 132.84882187499866,
          "velocity": 0.5590551181102362,
          "duration": 0.2205874999999935
        },
        {
          "name": "D5",
          "midi": 74,
          "time": 133.06940937499866,
          "velocity": 0.6377952755905512,
          "duration": 0.22058750000002192
        },
        {
          "name": "D6",
          "midi": 86,
          "time": 133.06940937499866,
          "velocity": 0.6377952755905512,
          "duration": 0.22058750000002192
        },
        {
          "name": "G3",
          "midi": 55,
          "time": 133.06940937499866,
          "velocity": 0.5905511811023622,
          "duration": 0.22058750000002192
        },
        {
          "name": "D4",
          "midi": 62,
          "time": 133.06940937499866,
          "velocity": 0.5905511811023622,
          "duration": 0.22058750000002192
        },
        {
          "name": "C5",
          "midi": 72,
          "time": 133.28999687499868,
          "velocity": 0.5275590551181102,
          "duration": 0.2205874999999935
        },
        {
          "name": "C6",
          "midi": 84,
          "time": 133.28999687499868,
          "velocity": 0.5275590551181102,
          "duration": 0.2205874999999935
        },
        {
          "name": "A3",
          "midi": 57,
          "time": 133.28999687499868,
          "velocity": 0.5669291338582677,
          "duration": 0.2205874999999935
        },
        {
          "name": "C4",
          "midi": 60,
          "time": 133.28999687499868,
          "velocity": 0.5669291338582677,
          "duration": 0.2205874999999935
        },
        {
          "name": "D4",
          "midi": 62,
          "time": 133.51058437499867,
          "velocity": 0.4881889763779528,
          "duration": 0.2205874999999935
        },
        {
          "name": "D5",
          "midi": 74,
          "time": 133.51058437499867,
          "velocity": 0.4881889763779528,
          "duration": 0.2205874999999935
        },
        {
          "name": "D3",
          "midi": 50,
          "time": 133.51058437499867,
          "velocity": 0.5590551181102362,
          "duration": 0.2205874999999935
        },
        {
          "name": "A3",
          "midi": 57,
          "time": 133.51058437499867,
          "velocity": 0.5590551181102362,
          "duration": 0.2205874999999935
        },
        {
          "name": "F4",
          "midi": 65,
          "time": 133.73117187499867,
          "velocity": 0.5748031496062992,
          "duration": 0.2205874999999935
        },
        {
          "name": "F5",
          "midi": 77,
          "time": 133.73117187499867,
          "velocity": 0.5748031496062992,
          "duration": 0.2205874999999935
        },
        {
          "name": "F3",
          "midi": 53,
          "time": 133.73117187499867,
          "velocity": 0.5590551181102362,
          "duration": 0.2205874999999935
        },
        {
          "name": "A3",
          "midi": 57,
          "time": 133.73117187499867,
          "velocity": 0.5590551181102362,
          "duration": 0.2205874999999935
        },
        {
          "name": "C5",
          "midi": 72,
          "time": 133.95175937499866,
          "velocity": 0.6062992125984252,
          "duration": 0.22058750000002192
        },
        {
          "name": "C6",
          "midi": 84,
          "time": 133.95175937499866,
          "velocity": 0.6062992125984252,
          "duration": 0.22058750000002192
        },
        {
          "name": "A3",
          "midi": 57,
          "time": 133.95175937499866,
          "velocity": 0.5826771653543307,
          "duration": 0.22058750000002192
        },
        {
          "name": "C4",
          "midi": 60,
          "time": 133.95175937499866,
          "velocity": 0.5826771653543307,
          "duration": 0.22058750000002192
        },
        {
          "name": "A#4",
          "midi": 70,
          "time": 134.17234687499868,
          "velocity": 0.5669291338582677,
          "duration": 0.44117500000004384
        },
        {
          "name": "A#5",
          "midi": 82,
          "time": 134.17234687499868,
          "velocity": 0.5669291338582677,
          "duration": 0.44117500000004384
        },
        {
          "name": "D4",
          "midi": 62,
          "time": 134.17234687499868,
          "velocity": 0.5826771653543307,
          "duration": 0.11029375000001096
        },
        {
          "name": "A#3",
          "midi": 58,
          "time": 134.17234687499868,
          "velocity": 0.5354330708661418,
          "duration": 1.7647000000001754
        },
        {
          "name": "D#4",
          "midi": 63,
          "time": 134.2826406249987,
          "velocity": 0.5748031496062992,
          "duration": 0.11029375000001096
        },
        {
          "name": "G4",
          "midi": 67,
          "time": 134.3929343749987,
          "velocity": 0.5826771653543307,
          "duration": 0.11029375000001096
        },
        {
          "name": "D4",
          "midi": 62,
          "time": 134.5032281249987,
          "velocity": 0.5275590551181102,
          "duration": 0.11029375000001096
        },
        {
          "name": "D6",
          "midi": 86,
          "time": 134.61352187499872,
          "velocity": 0.4251968503937008,
          "duration": 0.11029375000001096
        },
        {
          "name": "D#4",
          "midi": 63,
          "time": 134.61352187499872,
          "velocity": 0.5826771653543307,
          "duration": 0.11029375000001096
        },
        {
          "name": "D#6",
          "midi": 87,
          "time": 134.72381562499874,
          "velocity": 0.4645669291338583,
          "duration": 0.11029375000001096
        },
        {
          "name": "G4",
          "midi": 67,
          "time": 134.72381562499874,
          "velocity": 0.5984251968503937,
          "duration": 0.11029375000001096
        },
        {
          "name": "A5",
          "midi": 81,
          "time": 134.83410937499875,
          "velocity": 0.49606299212598426,
          "duration": 0.11029375000001096
        },
        {
          "name": "G6",
          "midi": 91,
          "time": 134.83410937499875,
          "velocity": 0.49606299212598426,
          "duration": 0.11029375000001096
        },
        {
          "name": "A4",
          "midi": 69,
          "time": 134.83410937499875,
          "velocity": 0.5826771653543307,
          "duration": 0.1121319791666906
        },
        {
          "name": "A#5",
          "midi": 82,
          "time": 134.94440312499876,
          "velocity": 0.4645669291338583,
          "duration": 0.11029375000003938
        },
        {
          "name": "A#6",
          "midi": 94,
          "time": 134.94440312499876,
          "velocity": 0.4645669291338583,
          "duration": 0.11029375000003938
        },
        {
          "name": "A#4",
          "midi": 70,
          "time": 134.94440312499876,
          "velocity": 0.5669291338582677,
          "duration": 0.11213197916671902
        },
        {
          "name": "D6",
          "midi": 86,
          "time": 135.0546968749988,
          "velocity": 0.4645669291338583,
          "duration": 0.22058750000002192
        },
        {
          "name": "D7",
          "midi": 98,
          "time": 135.0546968749988,
          "velocity": 0.4645669291338583,
          "duration": 0.22058750000002192
        },
        {
          "name": "G4",
          "midi": 67,
          "time": 135.0546968749988,
          "velocity": 0.5118110236220472,
          "duration": 0.4186566927083675
        },
        {
          "name": "A#5",
          "midi": 82,
          "time": 135.27528437499882,
          "velocity": 0.3937007874015748,
          "duration": 0.22058750000002192
        },
        {
          "name": "A#6",
          "midi": 94,
          "time": 135.27528437499882,
          "velocity": 0.3937007874015748,
          "duration": 0.22058750000002192
        },
        {
          "name": "G5",
          "midi": 79,
          "time": 135.49587187499884,
          "velocity": 0.36220472440944884,
          "duration": 0.2205874999999935
        },
        {
          "name": "G6",
          "midi": 91,
          "time": 135.49587187499884,
          "velocity": 0.36220472440944884,
          "duration": 0.2205874999999935
        },
        {
          "name": "G4",
          "midi": 67,
          "time": 135.49587187499884,
          "velocity": 0.5196850393700787,
          "duration": 0.2205874999999935
        },
        {
          "name": "A5",
          "midi": 81,
          "time": 135.71645937499883,
          "velocity": 0.33070866141732286,
          "duration": 0.22058750000002192
        },
        {
          "name": "D6",
          "midi": 86,
          "time": 135.71645937499883,
          "velocity": 0.33070866141732286,
          "duration": 0.22058750000002192
        },
        {
          "name": "A4",
          "midi": 69,
          "time": 135.71645937499883,
          "velocity": 0.5196850393700787,
          "duration": 0.22058750000002192
        },
        {
          "name": "A#4",
          "midi": 70,
          "time": 135.93704687499886,
          "velocity": 0.4409448818897638,
          "duration": 0.2205874999999935
        },
        {
          "name": "C4",
          "midi": 60,
          "time": 135.93704687499886,
          "velocity": 0.41732283464566927,
          "duration": 0.8823500000000024
        },
        {
          "name": "D4",
          "midi": 62,
          "time": 136.15763437499885,
          "velocity": 0.4566929133858268,
          "duration": 0.2205874999999935
        },
        {
          "name": "D#4",
          "midi": 63,
          "time": 136.37822187499884,
          "velocity": 0.4881889763779528,
          "duration": 0.2205874999999935
        },
        {
          "name": "D5",
          "midi": 74,
          "time": 136.59880937499884,
          "velocity": 0.5511811023622047,
          "duration": 0.22058750000002192
        },
        {
          "name": "A4",
          "midi": 69,
          "time": 136.81939687499886,
          "velocity": 0.48031496062992124,
          "duration": 0.2205874999999935
        },
        {
          "name": "C5",
          "midi": 72,
          "time": 136.81939687499886,
          "velocity": 0.48031496062992124,
          "duration": 0.2205874999999935
        },
        {
          "name": "D4",
          "midi": 62,
          "time": 136.81939687499886,
          "velocity": 0.49606299212598426,
          "duration": 0.441174999999987
        },
        {
          "name": "D4",
          "midi": 62,
          "time": 137.03998437499885,
          "velocity": 0.41732283464566927,
          "duration": 0.6617625000000089
        },
        {
          "name": "F4",
          "midi": 65,
          "time": 137.26057187499885,
          "velocity": 0.5039370078740157,
          "duration": 0.2205874999999935
        },
        {
          "name": "C5",
          "midi": 72,
          "time": 137.48115937499884,
          "velocity": 0.5275590551181102,
          "duration": 0.22058750000002192
        },
        {
          "name": "D6",
          "midi": 86,
          "time": 137.70174687499886,
          "velocity": 0.36220472440944884,
          "duration": 0.11029375000001096
        },
        {
          "name": "D#4",
          "midi": 63,
          "time": 137.70174687499886,
          "velocity": 0.5275590551181102,
          "duration": 0.44117500000004384
        },
        {
          "name": "A#4",
          "midi": 70,
          "time": 137.70174687499886,
          "velocity": 0.5275590551181102,
          "duration": 0.44117500000004384
        },
        {
          "name": "A#5",
          "midi": 82,
          "time": 137.81204062499887,
          "velocity": 0.28346456692913385,
          "duration": 0.11029375000001096
        },
        {
          "name": "G5",
          "midi": 79,
          "time": 137.92233437499888,
          "velocity": 0.29133858267716534,
          "duration": 0.11029375000001096
        },
        {
          "name": "D#5",
          "midi": 75,
          "time": 138.0326281249989,
          "velocity": 0.28346456692913385,
          "duration": 0.11029375000001096
        },
        {
          "name": "A#5",
          "midi": 82,
          "time": 138.1429218749989,
          "velocity": 0.33070866141732286,
          "duration": 0.11029375000001096
        },
        {
          "name": "A#4",
          "midi": 70,
          "time": 138.1429218749989,
          "velocity": 0.5433070866141733,
          "duration": 0.11029375000001096
        },
        {
          "name": "G5",
          "midi": 79,
          "time": 138.25321562499892,
          "velocity": 0.28346456692913385,
          "duration": 0.11029375000001096
        },
        {
          "name": "A4",
          "midi": 69,
          "time": 138.25321562499892,
          "velocity": 0.5511811023622047,
          "duration": 0.11029375000001096
        },
        {
          "name": "D#5",
          "midi": 75,
          "time": 138.36350937499893,
          "velocity": 0.29133858267716534,
          "duration": 0.22058750000002192
        },
        {
          "name": "A#4",
          "midi": 70,
          "time": 138.36350937499893,
          "velocity": 0.5590551181102362,
          "duration": 0.11029375000001096
        },
        {
          "name": "C5",
          "midi": 72,
          "time": 138.47380312499894,
          "velocity": 0.5826771653543307,
          "duration": 0.11029375000001096
        },
        {
          "name": "G5",
          "midi": 79,
          "time": 138.58409687499895,
          "velocity": 0.3228346456692913,
          "duration": 0.11029375000001096
        },
        {
          "name": "D5",
          "midi": 74,
          "time": 138.58409687499895,
          "velocity": 0.5669291338582677,
          "duration": 0.8823500000000877
        },
        {
          "name": "D#5",
          "midi": 75,
          "time": 138.69439062499896,
          "velocity": 0.29133858267716534,
          "duration": 0.11029375000001096
        },
        {
          "name": "A#4",
          "midi": 70,
          "time": 138.80468437499897,
          "velocity": 0.30708661417322836,
          "duration": 0.11029375000001096
        },
        {
          "name": "G4",
          "midi": 67,
          "time": 138.91497812499898,
          "velocity": 0.2992125984251969,
          "duration": 0.11029375000001096
        },
        {
          "name": "D#5",
          "midi": 75,
          "time": 139.025271874999,
          "velocity": 0.3543307086614173,
          "duration": 0.11029375000001096
        },
        {
          "name": "A#4",
          "midi": 70,
          "time": 139.135565624999,
          "velocity": 0.29133858267716534,
          "duration": 0.11029375000001096
        },
        {
          "name": "G4",
          "midi": 67,
          "time": 139.24585937499901,
          "velocity": 0.29133858267716534,
          "duration": 0.11029375000001096
        },
        {
          "name": "D#4",
          "midi": 63,
          "time": 139.35615312499903,
          "velocity": 0.2992125984251969,
          "duration": 0.11029375000001096
        },
        {
          "name": "A#5",
          "midi": 82,
          "time": 139.46644687499904,
          "velocity": 0.3543307086614173,
          "duration": 1.764700000000147
        },
        {
          "name": "A#4",
          "midi": 70,
          "time": 139.46644687499904,
          "velocity": 0.4645669291338583,
          "duration": 0.11029375000001096
        },
        {
          "name": "D6",
          "midi": 86,
          "time": 139.54595028645738,
          "velocity": 0.3543307086614173,
          "duration": 1.6851965885417997
        },
        {
          "name": "G4",
          "midi": 67,
          "time": 139.57674062499905,
          "velocity": 0.4566929133858268,
          "duration": 0.11029374999998254
        },
        {
          "name": "F6",
          "midi": 89,
          "time": 139.62499414062404,
          "velocity": 0.2992125984251969,
          "duration": 1.6061527343751436
        },
        {
          "name": "D#4",
          "midi": 63,
          "time": 139.68703437499903,
          "velocity": 0.4330708661417323,
          "duration": 0.11029375000001096
        },
        {
          "name": "A#3",
          "midi": 58,
          "time": 139.79732812499904,
          "velocity": 0.4330708661417323,
          "duration": 0.11029375000001096
        },
        {
          "name": "G4",
          "midi": 67,
          "time": 139.90762187499905,
          "velocity": 0.4881889763779528,
          "duration": 0.11029375000001096
        },
        {
          "name": "D#4",
          "midi": 63,
          "time": 140.01791562499906,
          "velocity": 0.4015748031496063,
          "duration": 0.11029375000001096
        },
        {
          "name": "A#3",
          "midi": 58,
          "time": 140.12820937499907,
          "velocity": 0.3858267716535433,
          "duration": 0.11029375000001096
        },
        {
          "name": "G3",
          "midi": 55,
          "time": 140.23850312499908,
          "velocity": 0.4094488188976378,
          "duration": 0.11029375000001096
        },
        {
          "name": "D#4",
          "midi": 63,
          "time": 140.3487968749991,
          "velocity": 0.4330708661417323,
          "duration": 0.11029375000001096
        },
        {
          "name": "A#3",
          "midi": 58,
          "time": 140.4590906249991,
          "velocity": 0.36220472440944884,
          "duration": 0.11029375000001096
        },
        {
          "name": "G3",
          "midi": 55,
          "time": 140.56938437499912,
          "velocity": 0.3779527559055118,
          "duration": 0.11029375000001096
        },
        {
          "name": "D#3",
          "midi": 51,
          "time": 140.67967812499913,
          "velocity": 0.36220472440944884,
          "duration": 0.11029375000001096
        },
        {
          "name": "A#3",
          "midi": 58,
          "time": 140.78997187499914,
          "velocity": 0.3858267716535433,
          "duration": 0.11029375000001096
        },
        {
          "name": "G3",
          "midi": 55,
          "time": 140.90026562499915,
          "velocity": 0.3464566929133858,
          "duration": 0.11029375000001096
        },
        {
          "name": "D#3",
          "midi": 51,
          "time": 141.01055937499916,
          "velocity": 0.33070866141732286,
          "duration": 0.11029375000001096
        },
        {
          "name": "A#2",
          "midi": 46,
          "time": 141.12085312499917,
          "velocity": 0.30708661417322836,
          "duration": 0.11029375000001096
        },
        {
          "name": "A#4",
          "midi": 70,
          "time": 141.23114687499918,
          "velocity": 0.7322834645669292,
          "duration": 0.441174999999987
        },
        {
          "name": "D5",
          "midi": 74,
          "time": 141.23114687499918,
          "velocity": 0.7322834645669292,
          "duration": 0.441174999999987
        },
        {
          "name": "G5",
          "midi": 79,
          "time": 141.23114687499918,
          "velocity": 0.7322834645669292,
          "duration": 0.441174999999987
        },
        {
          "name": "G2",
          "midi": 43,
          "time": 141.23114687499918,
          "velocity": 0.8267716535433071,
          "duration": 0.441174999999987
        },
        {
          "name": "G3",
          "midi": 55,
          "time": 141.23114687499918,
          "velocity": 0.8267716535433071,
          "duration": 0.441174999999987
        },
        {
          "name": "A#4",
          "midi": 70,
          "time": 141.67232187499917,
          "velocity": 0.6062992125984252,
          "duration": 0.11029375000001096
        },
        {
          "name": "D5",
          "midi": 74,
          "time": 141.67232187499917,
          "velocity": 0.6062992125984252,
          "duration": 0.11029375000001096
        },
        {
          "name": "G3",
          "midi": 55,
          "time": 141.67232187499917,
          "velocity": 0.6850393700787402,
          "duration": 0.22058750000002192
        },
        {
          "name": "C5",
          "midi": 72,
          "time": 142.11349687499919,
          "velocity": 0.5905511811023622,
          "duration": 0.11029375000001096
        },
        {
          "name": "D#5",
          "midi": 75,
          "time": 142.11349687499919,
          "velocity": 0.5905511811023622,
          "duration": 0.11029375000001096
        },
        {
          "name": "A3",
          "midi": 57,
          "time": 142.11349687499919,
          "velocity": 0.5905511811023622,
          "duration": 0.22058750000002192
        },
        {
          "name": "A4",
          "midi": 69,
          "time": 142.5546718749992,
          "velocity": 0.5984251968503937,
          "duration": 0.11029375000001096
        },
        {
          "name": "C5",
          "midi": 72,
          "time": 142.5546718749992,
          "velocity": 0.5984251968503937,
          "duration": 0.11029375000001096
        },
        {
          "name": "F#3",
          "midi": 54,
          "time": 142.5546718749992,
          "velocity": 0.5984251968503937,
          "duration": 0.22058750000002192
        },
        {
          "name": "A#4",
          "midi": 70,
          "time": 142.99584687499922,
          "velocity": 0.5984251968503937,
          "duration": 0.11029375000001096
        },
        {
          "name": "D5",
          "midi": 74,
          "time": 142.99584687499922,
          "velocity": 0.5984251968503937,
          "duration": 0.11029375000001096
        },
        {
          "name": "G3",
          "midi": 55,
          "time": 142.99584687499922,
          "velocity": 0.6062992125984252,
          "duration": 0.22058750000002192
        },
        {
          "name": "C5",
          "midi": 72,
          "time": 143.43702187499923,
          "velocity": 0.5984251968503937,
          "duration": 0.11029375000001096
        },
        {
          "name": "D#5",
          "midi": 75,
          "time": 143.43702187499923,
          "velocity": 0.5984251968503937,
          "duration": 0.11029375000001096
        },
        {
          "name": "G3",
          "midi": 55,
          "time": 143.43702187499923,
          "velocity": 0.5905511811023622,
          "duration": 0.22058750000002192
        },
        {
          "name": "A#4",
          "midi": 70,
          "time": 143.87819687499925,
          "velocity": 0.5826771653543307,
          "duration": 0.11029375000001096
        },
        {
          "name": "D5",
          "midi": 74,
          "time": 143.87819687499925,
          "velocity": 0.5826771653543307,
          "duration": 0.11029375000001096
        },
        {
          "name": "G3",
          "midi": 55,
          "time": 143.87819687499925,
          "velocity": 0.6062992125984252,
          "duration": 0.22058750000002192
        },
        {
          "name": "A#4",
          "midi": 70,
          "time": 144.31937187499926,
          "velocity": 0.5905511811023622,
          "duration": 0.441174999999987
        },
        {
          "name": "D5",
          "midi": 74,
          "time": 144.31937187499926,
          "velocity": 0.5905511811023622,
          "duration": 0.441174999999987
        },
        {
          "name": "G5",
          "midi": 79,
          "time": 144.31937187499926,
          "velocity": 0.5905511811023622,
          "duration": 0.441174999999987
        },
        {
          "name": "D2",
          "midi": 38,
          "time": 144.31937187499926,
          "velocity": 0.7086614173228346,
          "duration": 0.441174999999987
        },
        {
          "name": "D3",
          "midi": 50,
          "time": 144.31937187499926,
          "velocity": 0.7086614173228346,
          "duration": 0.441174999999987
        },
        {
          "name": "A#4",
          "midi": 70,
          "time": 144.76054687499925,
          "velocity": 0.7716535433070866,
          "duration": 0.441174999999987
        },
        {
          "name": "D5",
          "midi": 74,
          "time": 144.76054687499925,
          "velocity": 0.7716535433070866,
          "duration": 0.441174999999987
        },
        {
          "name": "G5",
          "midi": 79,
          "time": 144.76054687499925,
          "velocity": 0.7716535433070866,
          "duration": 0.441174999999987
        },
        {
          "name": "G2",
          "midi": 43,
          "time": 144.76054687499925,
          "velocity": 0.8267716535433071,
          "duration": 0.441174999999987
        },
        {
          "name": "G3",
          "midi": 55,
          "time": 144.76054687499925,
          "velocity": 0.8267716535433071,
          "duration": 0.441174999999987
        },
        {
          "name": "A#4",
          "midi": 70,
          "time": 145.20172187499924,
          "velocity": 0.6141732283464567,
          "duration": 0.11029375000001096
        },
        {
          "name": "D5",
          "midi": 74,
          "time": 145.20172187499924,
          "velocity": 0.6141732283464567,
          "duration": 0.11029375000001096
        },
        {
          "name": "G3",
          "midi": 55,
          "time": 145.20172187499924,
          "velocity": 0.6614173228346457,
          "duration": 0.22058750000002192
        },
        {
          "name": "C5",
          "midi": 72,
          "time": 145.64289687499925,
          "velocity": 0.5984251968503937,
          "duration": 0.11029375000001096
        },
        {
          "name": "D#5",
          "midi": 75,
          "time": 145.64289687499925,
          "velocity": 0.5984251968503937,
          "duration": 0.11029375000001096
        },
        {
          "name": "A3",
          "midi": 57,
          "time": 145.64289687499925,
          "velocity": 0.5826771653543307,
          "duration": 0.22058750000002192
        },
        {
          "name": "A4",
          "midi": 69,
          "time": 146.08407187499927,
          "velocity": 0.5748031496062992,
          "duration": 0.11029375000001096
        },
        {
          "name": "C5",
          "midi": 72,
          "time": 146.08407187499927,
          "velocity": 0.5748031496062992,
          "duration": 0.11029375000001096
        },
        {
          "name": "F#3",
          "midi": 54,
          "time": 146.08407187499927,
          "velocity": 0.5984251968503937,
          "duration": 0.22058750000002192
        },
        {
          "name": "A#4",
          "midi": 70,
          "time": 146.52524687499928,
          "velocity": 0.5905511811023622,
          "duration": 0.11029375000001096
        },
        {
          "name": "D5",
          "midi": 74,
          "time": 146.52524687499928,
          "velocity": 0.5905511811023622,
          "duration": 0.11029375000001096
        },
        {
          "name": "A#3",
          "midi": 58,
          "time": 146.52524687499928,
          "velocity": 0.5826771653543307,
          "duration": 0.22058750000002192
        },
        {
          "name": "C5",
          "midi": 72,
          "time": 146.9664218749993,
          "velocity": 0.6220472440944882,
          "duration": 0.11029375000001096
        },
        {
          "name": "D#5",
          "midi": 75,
          "time": 146.9664218749993,
          "velocity": 0.6220472440944882,
          "duration": 0.11029375000001096
        },
        {
          "name": "F3",
          "midi": 53,
          "time": 146.9664218749993,
          "velocity": 0.5826771653543307,
          "duration": 0.22058750000002192
        },
        {
          "name": "A#4",
          "midi": 70,
          "time": 147.4075968749993,
          "velocity": 0.6062992125984252,
          "duration": 0.2205874999999935
        },
        {
          "name": "D5",
          "midi": 74,
          "time": 147.4075968749993,
          "velocity": 0.6062992125984252,
          "duration": 0.2205874999999935
        },
        {
          "name": "A#3",
          "midi": 58,
          "time": 147.4075968749993,
          "velocity": 0.5984251968503937,
          "duration": 0.2205874999999935
        },
        {
          "name": "F5",
          "midi": 77,
          "time": 147.8487718749993,
          "velocity": 0.6850393700787402,
          "duration": 0.11029375000001096
        },
        {
          "name": "F4",
          "midi": 65,
          "time": 147.8487718749993,
          "velocity": 0.6062992125984252,
          "duration": 0.22058750000002192
        },
        {
          "name": "G5",
          "midi": 79,
          "time": 147.9590656249993,
          "velocity": 0.6692913385826772,
          "duration": 0.11029375000001096
        },
        {
          "name": "A5",
          "midi": 81,
          "time": 148.06935937499932,
          "velocity": 0.6771653543307087,
          "duration": 0.11029375000001096
        },
        {
          "name": "A#5",
          "midi": 82,
          "time": 148.17965312499933,
          "velocity": 0.7874015748031497,
          "duration": 0.5620385677083561
        },
        {
          "name": "A3",
          "midi": 57,
          "time": 148.28994687499934,
          "velocity": 0.6771653543307087,
          "duration": 0.20680078124999568
        },
        {
          "name": "C4",
          "midi": 60,
          "time": 148.436545651041,
          "velocity": 0.4881889763779528,
          "duration": 0.14659877604168514
        },
        {
          "name": "F4",
          "midi": 65,
          "time": 148.5831444270827,
          "velocity": 0.5118110236220472,
          "duration": 0.14797744791667355
        },
        {
          "name": "C6",
          "midi": 84,
          "time": 148.73112187499936,
          "velocity": 0.8188976377952756,
          "duration": 0.33088124999997603
        },
        {
          "name": "A4",
          "midi": 69,
          "time": 148.73112187499936,
          "velocity": 0.5275590551181102,
          "duration": 0.14659877604165672
        },
        {
          "name": "F4",
          "midi": 65,
          "time": 148.87772065104102,
          "velocity": 0.4645669291338583,
          "duration": 0.14659877604165672
        },
        {
          "name": "C4",
          "midi": 60,
          "time": 149.02431942708267,
          "velocity": 0.4645669291338583,
          "duration": 0.14797744791667355
        },
        {
          "name": "C6",
          "midi": 84,
          "time": 149.06200312499934,
          "velocity": 0.6299212598425197,
          "duration": 0.11397020833334182
        },
        {
          "name": "D#6",
          "midi": 87,
          "time": 149.17229687499935,
          "velocity": 0.8188976377952756,
          "duration": 0.21185591145831495
        },
        {
          "name": "F#3",
          "midi": 54,
          "time": 149.17229687499935,
          "velocity": 0.7795275590551181,
          "duration": 0.20680078124999568
        },
        {
          "name": "C4",
          "midi": 60,
          "time": 149.318895651041,
          "velocity": 0.5118110236220472,
          "duration": 0.14659877604165672
        },
        {
          "name": "D6",
          "midi": 86,
          "time": 149.39288437499934,
          "velocity": 0.7559055118110236,
          "duration": 0.2205874999999935
        },
        {
          "name": "D#4",
          "midi": 63,
          "time": 149.46549442708266,
          "velocity": 0.5039370078740157,
          "duration": 0.14797744791667355
        },
        {
          "name": "D6",
          "midi": 86,
          "time": 149.61347187499933,
          "velocity": 0.7716535433070866,
          "duration": 0.22426395833332435
        },
        {
          "name": "A4",
          "midi": 69,
          "time": 149.61347187499933,
          "velocity": 0.5275590551181102,
          "duration": 0.14659877604165672
        },
        {
          "name": "D#4",
          "midi": 63,
          "time": 149.760070651041,
          "velocity": 0.4409448818897638,
          "duration": 0.14659877604165672
        },
        {
          "name": "C6",
          "midi": 84,
          "time": 149.83405937499933,
          "velocity": 0.7480314960629921,
          "duration": 0.2086390104166469
        },
        {
          "name": "C4",
          "midi": 60,
          "time": 149.90666942708265,
          "velocity": 0.4566929133858268,
          "duration": 0.14797744791667355
        },
        {
          "name": "A#5",
          "midi": 82,
          "time": 150.05464687499932,
          "velocity": 0.7480314960629921,
          "duration": 0.6737109895833555
        },
        {
          "name": "A#6",
          "midi": 94,
          "time": 150.05464687499932,
          "velocity": 0.7480314960629921,
          "duration": 0.6737109895833555
        },
        {
          "name": "G3",
          "midi": 55,
          "time": 150.05464687499932,
          "velocity": 0.7795275590551181,
          "duration": 0.20680078124999568
        },
        {
          "name": "D4",
          "midi": 62,
          "time": 150.20124565104098,
          "velocity": 0.5275590551181102,
          "duration": 0.14659877604168514
        },
        {
          "name": "A#4",
          "midi": 70,
          "time": 150.34784442708266,
          "velocity": 0.5275590551181102,
          "duration": 0.14797744791667355
        },
        {
          "name": "F3",
          "midi": 53,
          "time": 150.49582187499934,
          "velocity": 0.7795275590551181,
          "duration": 0.20680078124999568
        },
        {
          "name": "D4",
          "midi": 62,
          "time": 150.642420651041,
          "velocity": 0.5354330708661418,
          "duration": 0.14659877604168514
        },
        {
          "name": "A5",
          "midi": 81,
          "time": 150.71640937499933,
          "velocity": 0.7480314960629921,
          "duration": 0.14843700520836478
        },
        {
          "name": "A6",
          "midi": 93,
          "time": 150.71640937499933,
          "velocity": 0.7480314960629921,
          "duration": 0.14843700520836478
        },
        {
          "name": "A#4",
          "midi": 70,
          "time": 150.78901942708268,
          "velocity": 0.5433070866141733,
          "duration": 0.14797744791670198
        },
        {
          "name": "A#5",
          "midi": 82,
          "time": 150.86300815104102,
          "velocity": 0.7480314960629921,
          "duration": 0.14797744791667355
        },
        {
          "name": "A#6",
          "midi": 94,
          "time": 150.86300815104102,
          "velocity": 0.7480314960629921,
          "duration": 0.14797744791667355
        },
        {
          "name": "E3",
          "midi": 52,
          "time": 150.93699687499938,
          "velocity": 0.7795275590551181,
          "duration": 0.20680078124996726
        },
        {
          "name": "G5",
          "midi": 79,
          "time": 151.0096069270827,
          "velocity": 0.7480314960629921,
          "duration": 0.5583621093749969
        },
        {
          "name": "G6",
          "midi": 91,
          "time": 151.0096069270827,
          "velocity": 0.7480314960629921,
          "duration": 0.5583621093749969
        },
        {
          "name": "E4",
          "midi": 64,
          "time": 151.083595651041,
          "velocity": 0.5590551181102362,
          "duration": 0.14659877604168514
        },
        {
          "name": "G4",
          "midi": 67,
          "time": 151.2301944270827,
          "velocity": 0.5196850393700787,
          "duration": 0.14797744791667355
        },
        {
          "name": "C5",
          "midi": 72,
          "time": 151.37817187499937,
          "velocity": 0.5275590551181102,
          "duration": 0.14659877604165672
        },
        {
          "name": "A#4",
          "midi": 70,
          "time": 151.52477065104102,
          "velocity": 0.47244094488188976,
          "duration": 0.14659877604165672
        },
        {
          "name": "G5",
          "midi": 79,
          "time": 151.59875937499936,
          "velocity": 0.6692913385826772,
          "duration": 0.11029374999998254
        },
        {
          "name": "G4",
          "midi": 67,
          "time": 151.67136942708268,
          "velocity": 0.4645669291338583,
          "duration": 0.14797744791667355
        },
        {
          "name": "A5",
          "midi": 81,
          "time": 151.70905312499934,
          "velocity": 0.7952755905511811,
          "duration": 0.11029375000001096
        },
        {
          "name": "A#5",
          "midi": 82,
          "time": 151.81934687499935,
          "velocity": 0.7874015748031497,
          "duration": 0.22426395833332435
        },
        {
          "name": "C3",
          "midi": 48,
          "time": 151.81934687499935,
          "velocity": 0.7795275590551181,
          "duration": 0.20680078124999568
        },
        {
          "name": "C4",
          "midi": 60,
          "time": 151.965945651041,
          "velocity": 0.5511811023622047,
          "duration": 0.14659877604165672
        },
        {
          "name": "D5",
          "midi": 74,
          "time": 152.03993437499935,
          "velocity": 0.6299212598425197,
          "duration": 0.22426395833332435
        },
        {
          "name": "D#4",
          "midi": 63,
          "time": 152.11254442708267,
          "velocity": 0.5039370078740157,
          "duration": 0.14797744791667355
        },
        {
          "name": "D#5",
          "midi": 75,
          "time": 152.26052187499934,
          "velocity": 0.7795275590551181,
          "duration": 0.22426395833332435
        },
        {
          "name": "G4",
          "midi": 67,
          "time": 152.26052187499934,
          "velocity": 0.5118110236220472,
          "duration": 0.14659877604165672
        },
        {
          "name": "D#4",
          "midi": 63,
          "time": 152.407120651041,
          "velocity": 0.4645669291338583,
          "duration": 0.14659877604165672
        },
        {
          "name": "A5",
          "midi": 81,
          "time": 152.48110937499933,
          "velocity": 0.8503937007874016,
          "duration": 0.22426395833332435
        },
        {
          "name": "C4",
          "midi": 60,
          "time": 152.55371942708265,
          "velocity": 0.4566929133858268,
          "duration": 0.14797744791667355
        },
        {
          "name": "A#5",
          "midi": 82,
          "time": 152.70169687499933,
          "velocity": 0.7874015748031497,
          "duration": 0.22426395833335278
        },
        {
          "name": "C#3",
          "midi": 49,
          "time": 152.70169687499933,
          "velocity": 0.7795275590551181,
          "duration": 0.2068007812500241
        },
        {
          "name": "C#4",
          "midi": 61,
          "time": 152.848295651041,
          "velocity": 0.5433070866141733,
          "duration": 0.14659877604165672
        },
        {
          "name": "C#5",
          "midi": 73,
          "time": 152.92228437499935,
          "velocity": 0.6299212598425197,
          "duration": 0.22426395833332435
        },
        {
          "name": "E4",
          "midi": 64,
          "time": 152.99489442708267,
          "velocity": 0.5039370078740157,
          "duration": 0.14797744791667355
        },
        {
          "name": "D5",
          "midi": 74,
          "time": 153.14287187499934,
          "velocity": 0.7874015748031497,
          "duration": 0.22426395833332435
        },
        {
          "name": "G4",
          "midi": 67,
          "time": 153.14287187499934,
          "velocity": 0.49606299212598426,
          "duration": 0.14659877604165672
        },
        {
          "name": "E4",
          "midi": 64,
          "time": 153.289470651041,
          "velocity": 0.4566929133858268,
          "duration": 0.14659877604165672
        },
        {
          "name": "G5",
          "midi": 79,
          "time": 153.36345937499934,
          "velocity": 0.8267716535433071,
          "duration": 0.22426395833332435
        },
        {
          "name": "C#4",
          "midi": 61,
          "time": 153.43606942708266,
          "velocity": 0.4409448818897638,
          "duration": 0.14797744791667355
        },
        {
          "name": "A#5",
          "midi": 82,
          "time": 153.58404687499933,
          "velocity": 0.6929133858267716,
          "duration": 0.6737109895833839
        },
        {
          "name": "D3",
          "midi": 50,
          "time": 153.58404687499933,
          "velocity": 0.7795275590551181,
          "duration": 0.2068007812500241
        },
        {
          "name": "D4",
          "midi": 62,
          "time": 153.73064565104102,
          "velocity": 0.5511811023622047,
          "duration": 0.14659877604168514
        },
        {
          "name": "F#4",
          "midi": 66,
          "time": 153.8772444270827,
          "velocity": 0.5118110236220472,
          "duration": 0.14797744791667355
        },
        {
          "name": "A4",
          "midi": 69,
          "time": 154.02522187499937,
          "velocity": 0.5039370078740157,
          "duration": 0.14659877604165672
        },
        {
          "name": "F#4",
          "midi": 66,
          "time": 154.17182065104103,
          "velocity": 0.4645669291338583,
          "duration": 0.14659877604168514
        },
        {
          "name": "A5",
          "midi": 81,
          "time": 154.24580937499937,
          "velocity": 0.7559055118110236,
          "duration": 0.14843700520836478
        },
        {
          "name": "D4",
          "midi": 62,
          "time": 154.31841942708272,
          "velocity": 0.44881889763779526,
          "duration": 0.14797744791670198
        },
        {
          "name": "G#5",
          "midi": 80,
          "time": 154.39240815104105,
          "velocity": 0.7559055118110236,
          "duration": 0.14797744791667355
        },
        {
          "name": "C3",
          "midi": 48,
          "time": 154.46639687499942,
          "velocity": 0.7795275590551181,
          "duration": 0.20680078124999568
        },
        {
          "name": "A5",
          "midi": 81,
          "time": 154.53900692708274,
          "velocity": 0.6614173228346457,
          "duration": 0.768379791666689
        },
        {
          "name": "C4",
          "midi": 60,
          "time": 154.61299565104108,
          "velocity": 0.6377952755905512,
          "duration": 0.14659877604168514
        },
        {
          "name": "F#4",
          "midi": 66,
          "time": 154.75959442708276,
          "velocity": 0.6062992125984252,
          "duration": 0.14797744791667355
        },
        {
          "name": "A4",
          "midi": 69,
          "time": 154.90757187499943,
          "velocity": 0.5748031496062992,
          "duration": 0.14659877604165672
        },
        {
          "name": "F#4",
          "midi": 66,
          "time": 155.0541706510411,
          "velocity": 0.5354330708661418,
          "duration": 0.14659877604165672
        },
        {
          "name": "C4",
          "midi": 60,
          "time": 155.20076942708275,
          "velocity": 0.5196850393700787,
          "duration": 0.14797744791670198
        },
        {
          "name": "A#4",
          "midi": 70,
          "time": 155.34874687499945,
          "velocity": 0.7716535433070866,
          "duration": 0.441174999999987
        },
        {
          "name": "D5",
          "midi": 74,
          "time": 155.34874687499945,
          "velocity": 0.7716535433070866,
          "duration": 0.441174999999987
        },
        {
          "name": "G5",
          "midi": 79,
          "time": 155.34874687499945,
          "velocity": 0.7716535433070866,
          "duration": 0.441174999999987
        },
        {
          "name": "G2",
          "midi": 43,
          "time": 155.34874687499945,
          "velocity": 0.7795275590551181,
          "duration": 0.441174999999987
        },
        {
          "name": "G3",
          "midi": 55,
          "time": 155.34874687499945,
          "velocity": 0.7795275590551181,
          "duration": 0.441174999999987
        },
        {
          "name": "A#4",
          "midi": 70,
          "time": 155.78992187499944,
          "velocity": 0.6299212598425197,
          "duration": 0.11029375000001096
        },
        {
          "name": "D5",
          "midi": 74,
          "time": 155.78992187499944,
          "velocity": 0.6299212598425197,
          "duration": 0.11029375000001096
        },
        {
          "name": "G3",
          "midi": 55,
          "time": 155.78992187499944,
          "velocity": 0.6614173228346457,
          "duration": 0.22058750000002192
        },
        {
          "name": "C5",
          "midi": 72,
          "time": 156.23109687499945,
          "velocity": 0.6062992125984252,
          "duration": 0.11029375000001096
        },
        {
          "name": "D#5",
          "midi": 75,
          "time": 156.23109687499945,
          "velocity": 0.6062992125984252,
          "duration": 0.11029375000001096
        },
        {
          "name": "A3",
          "midi": 57,
          "time": 156.23109687499945,
          "velocity": 0.5984251968503937,
          "duration": 0.22058750000002192
        },
        {
          "name": "A4",
          "midi": 69,
          "time": 156.67227187499947,
          "velocity": 0.5826771653543307,
          "duration": 0.11029375000001096
        },
        {
          "name": "C5",
          "midi": 72,
          "time": 156.67227187499947,
          "velocity": 0.5826771653543307,
          "duration": 0.11029375000001096
        },
        {
          "name": "F#3",
          "midi": 54,
          "time": 156.67227187499947,
          "velocity": 0.5905511811023622,
          "duration": 0.22058750000002192
        },
        {
          "name": "A#4",
          "midi": 70,
          "time": 157.11344687499948,
          "velocity": 0.5905511811023622,
          "duration": 0.11029375000001096
        },
        {
          "name": "D5",
          "midi": 74,
          "time": 157.11344687499948,
          "velocity": 0.5905511811023622,
          "duration": 0.11029375000001096
        },
        {
          "name": "G3",
          "midi": 55,
          "time": 157.11344687499948,
          "velocity": 0.6062992125984252,
          "duration": 0.22058750000002192
        },
        {
          "name": "C5",
          "midi": 72,
          "time": 157.5546218749995,
          "velocity": 0.5826771653543307,
          "duration": 0.11029375000001096
        },
        {
          "name": "D#5",
          "midi": 75,
          "time": 157.5546218749995,
          "velocity": 0.5826771653543307,
          "duration": 0.11029375000001096
        },
        {
          "name": "G3",
          "midi": 55,
          "time": 157.5546218749995,
          "velocity": 0.5905511811023622,
          "duration": 0.22058750000002192
        },
        {
          "name": "A#4",
          "midi": 70,
          "time": 157.9957968749995,
          "velocity": 0.5984251968503937,
          "duration": 0.11029375000001096
        },
        {
          "name": "D5",
          "midi": 74,
          "time": 157.9957968749995,
          "velocity": 0.5984251968503937,
          "duration": 0.11029375000001096
        },
        {
          "name": "G3",
          "midi": 55,
          "time": 157.9957968749995,
          "velocity": 0.5984251968503937,
          "duration": 0.22058750000002192
        },
        {
          "name": "A#4",
          "midi": 70,
          "time": 158.43697187499953,
          "velocity": 0.6929133858267716,
          "duration": 0.44117500000004384
        },
        {
          "name": "D5",
          "midi": 74,
          "time": 158.43697187499953,
          "velocity": 0.6929133858267716,
          "duration": 0.44117500000004384
        },
        {
          "name": "G5",
          "midi": 79,
          "time": 158.43697187499953,
          "velocity": 0.6929133858267716,
          "duration": 0.11029375000001096
        },
        {
          "name": "D2",
          "midi": 38,
          "time": 158.43697187499953,
          "velocity": 0.8267716535433071,
          "duration": 0.44117500000004384
        },
        {
          "name": "D3",
          "midi": 50,
          "time": 158.43697187499953,
          "velocity": 0.8267716535433071,
          "duration": 0.44117500000004384
        },
        {
          "name": "A5",
          "midi": 81,
          "time": 158.54726562499954,
          "velocity": 0.7795275590551181,
          "duration": 0.11029375000001096
        },
        {
          "name": "A#5",
          "midi": 82,
          "time": 158.65755937499955,
          "velocity": 0.7952755905511811,
          "duration": 0.11029375000001096
        },
        {
          "name": "C6",
          "midi": 84,
          "time": 158.76785312499956,
          "velocity": 0.7874015748031497,
          "duration": 0.11029375000001096
        },
        {
          "name": "G5",
          "midi": 79,
          "time": 158.87814687499957,
          "velocity": 1,
          "duration": 0.441174999999987
        },
        {
          "name": "A#5",
          "midi": 82,
          "time": 158.87814687499957,
          "velocity": 1,
          "duration": 0.441174999999987
        },
        {
          "name": "D6",
          "midi": 86,
          "time": 158.87814687499957,
          "velocity": 1,
          "duration": 0.441174999999987
        },
        {
          "name": "G2",
          "midi": 43,
          "time": 158.87814687499957,
          "velocity": 0.937007874015748,
          "duration": 0.441174999999987
        },
        {
          "name": "G3",
          "midi": 55,
          "time": 158.87814687499957,
          "velocity": 0.937007874015748,
          "duration": 0.441174999999987
        },
        {
          "name": "A#4",
          "midi": 70,
          "time": 159.31932187499956,
          "velocity": 0.5826771653543307,
          "duration": 0.11029375000001096
        },
        {
          "name": "D5",
          "midi": 74,
          "time": 159.31932187499956,
          "velocity": 0.5826771653543307,
          "duration": 0.11029375000001096
        },
        {
          "name": "G3",
          "midi": 55,
          "time": 159.31932187499956,
          "velocity": 0.6456692913385826,
          "duration": 0.22058750000002192
        },
        {
          "name": "C5",
          "midi": 72,
          "time": 159.76049687499957,
          "velocity": 0.5905511811023622,
          "duration": 0.11029375000001096
        },
        {
          "name": "D#5",
          "midi": 75,
          "time": 159.76049687499957,
          "velocity": 0.5905511811023622,
          "duration": 0.11029375000001096
        },
        {
          "name": "A3",
          "midi": 57,
          "time": 159.76049687499957,
          "velocity": 0.5826771653543307,
          "duration": 0.22058750000002192
        },
        {
          "name": "A4",
          "midi": 69,
          "time": 160.2016718749996,
          "velocity": 0.5984251968503937,
          "duration": 0.11029375000001096
        },
        {
          "name": "C5",
          "midi": 72,
          "time": 160.2016718749996,
          "velocity": 0.5984251968503937,
          "duration": 0.11029375000001096
        },
        {
          "name": "F#3",
          "midi": 54,
          "time": 160.2016718749996,
          "velocity": 0.5905511811023622,
          "duration": 0.22058750000002192
        },
        {
          "name": "A#4",
          "midi": 70,
          "time": 160.6428468749996,
          "velocity": 0.5984251968503937,
          "duration": 0.11029375000001096
        },
        {
          "name": "D5",
          "midi": 74,
          "time": 160.6428468749996,
          "velocity": 0.5984251968503937,
          "duration": 0.11029375000001096
        },
        {
          "name": "A#3",
          "midi": 58,
          "time": 160.6428468749996,
          "velocity": 0.6062992125984252,
          "duration": 0.22058750000002192
        },
        {
          "name": "C5",
          "midi": 72,
          "time": 161.08402187499962,
          "velocity": 0.5984251968503937,
          "duration": 0.11029375000001096
        },
        {
          "name": "D#5",
          "midi": 75,
          "time": 161.08402187499962,
          "velocity": 0.5984251968503937,
          "duration": 0.11029375000001096
        },
        {
          "name": "F3",
          "midi": 53,
          "time": 161.08402187499962,
          "velocity": 0.6062992125984252,
          "duration": 0.22058750000002192
        },
        {
          "name": "A#4",
          "midi": 70,
          "time": 161.52519687499964,
          "velocity": 0.5905511811023622,
          "duration": 0.2205874999999935
        },
        {
          "name": "D5",
          "midi": 74,
          "time": 161.52519687499964,
          "velocity": 0.5905511811023622,
          "duration": 0.2205874999999935
        },
        {
          "name": "A#3",
          "midi": 58,
          "time": 161.52519687499964,
          "velocity": 0.5905511811023622,
          "duration": 0.2205874999999935
        },
        {
          "name": "F5",
          "midi": 77,
          "time": 161.96637187499962,
          "velocity": 0.6929133858267716,
          "duration": 0.11029375000001096
        },
        {
          "name": "F4",
          "midi": 65,
          "time": 161.96637187499962,
          "velocity": 0.5826771653543307,
          "duration": 0.22058750000002192
        },
        {
          "name": "G5",
          "midi": 79,
          "time": 162.07666562499963,
          "velocity": 0.6771653543307087,
          "duration": 0.11029375000001096
        },
        {
          "name": "A5",
          "midi": 81,
          "time": 162.18695937499965,
          "velocity": 0.6850393700787402,
          "duration": 0.11029375000001096
        },
        {
          "name": "A#5",
          "midi": 82,
          "time": 162.29725312499966,
          "velocity": 0.7952755905511811,
          "duration": 0.5620385677083561
        },
        {
          "name": "A2",
          "midi": 45,
          "time": 162.40754687499967,
          "velocity": 0.7795275590551181,
          "duration": 0.2205874999999935
        },
        {
          "name": "A3",
          "midi": 57,
          "time": 162.40754687499967,
          "velocity": 0.7795275590551181,
          "duration": 0.2205874999999935
        },
        {
          "name": "C4",
          "midi": 60,
          "time": 162.62813437499966,
          "velocity": 0.4881889763779528,
          "duration": 0.11029375000001096
        },
        {
          "name": "F4",
          "midi": 65,
          "time": 162.73842812499967,
          "velocity": 0.5826771653543307,
          "duration": 0.11029375000001096
        },
        {
          "name": "C6",
          "midi": 84,
          "time": 162.84872187499968,
          "velocity": 0.8031496062992126,
          "duration": 0.33088125000000446
        },
        {
          "name": "A4",
          "midi": 69,
          "time": 162.84872187499968,
          "velocity": 0.5669291338582677,
          "duration": 0.11029374999998254
        },
        {
          "name": "C5",
          "midi": 72,
          "time": 162.95901562499967,
          "velocity": 0.5984251968503937,
          "duration": 0.11029375000001096
        },
        {
          "name": "F5",
          "midi": 77,
          "time": 163.06930937499968,
          "velocity": 0.5748031496062992,
          "duration": 0.11029375000001096
        },
        {
          "name": "C6",
          "midi": 84,
          "time": 163.1796031249997,
          "velocity": 0.7637795275590551,
          "duration": 0.11397020833334182
        },
        {
          "name": "A5",
          "midi": 81,
          "time": 163.1796031249997,
          "velocity": 0.5984251968503937,
          "duration": 0.11029375000001096
        },
        {
          "name": "D#6",
          "midi": 87,
          "time": 163.2898968749997,
          "velocity": 0.8582677165354331,
          "duration": 0.21185591145834337
        },
        {
          "name": "G#2",
          "midi": 44,
          "time": 163.2898968749997,
          "velocity": 0.84251968503937,
          "duration": 0.22058750000002192
        },
        {
          "name": "G#3",
          "midi": 56,
          "time": 163.2898968749997,
          "velocity": 0.84251968503937,
          "duration": 0.22058750000002192
        },
        {
          "name": "D6",
          "midi": 86,
          "time": 163.51048437499972,
          "velocity": 0.8582677165354331,
          "duration": 0.22058750000002192
        },
        {
          "name": "C4",
          "midi": 60,
          "time": 163.51048437499972,
          "velocity": 0.5039370078740157,
          "duration": 0.11029375000001096
        },
        {
          "name": "D#4",
          "midi": 63,
          "time": 163.62077812499973,
          "velocity": 0.5669291338582677,
          "duration": 0.11029375000001096
        },
        {
          "name": "D6",
          "midi": 86,
          "time": 163.73107187499974,
          "velocity": 0.8582677165354331,
          "duration": 0.22426395833335278
        },
        {
          "name": "G#4",
          "midi": 68,
          "time": 163.73107187499974,
          "velocity": 0.5826771653543307,
          "duration": 0.11029375000001096
        },
        {
          "name": "C5",
          "midi": 72,
          "time": 163.84136562499975,
          "velocity": 0.6062992125984252,
          "duration": 0.11029375000001096
        },
        {
          "name": "C6",
          "midi": 84,
          "time": 163.95165937499976,
          "velocity": 0.8110236220472441,
          "duration": 0.20863901041667532
        },
        {
          "name": "D#5",
          "midi": 75,
          "time": 163.95165937499976,
          "velocity": 0.5748031496062992,
          "duration": 0.11029375000001096
        },
        {
          "name": "G#5",
          "midi": 80,
          "time": 164.06195312499977,
          "velocity": 0.5984251968503937,
          "duration": 0.11029375000001096
        },
        {
          "name": "A#5",
          "midi": 82,
          "time": 164.1722468749998,
          "velocity": 0.8503937007874016,
          "duration": 0.6737109895833839
        },
        {
          "name": "D#2",
          "midi": 39,
          "time": 164.1722468749998,
          "velocity": 0.84251968503937,
          "duration": 0.2205874999999935
        },
        {
          "name": "D#3",
          "midi": 51,
          "time": 164.1722468749998,
          "velocity": 0.84251968503937,
          "duration": 0.2205874999999935
        },
        {
          "name": "G3",
          "midi": 55,
          "time": 164.39283437499978,
          "velocity": 0.5275590551181102,
          "duration": 0.11029375000001096
        },
        {
          "name": "A#3",
          "midi": 58,
          "time": 164.5031281249998,
          "velocity": 0.5590551181102362,
          "duration": 0.11029375000001096
        },
        {
          "name": "D#4",
          "midi": 63,
          "time": 164.6134218749998,
          "velocity": 0.5905511811023622,
          "duration": 0.11029375000001096
        },
        {
          "name": "G4",
          "midi": 67,
          "time": 164.7237156249998,
          "velocity": 0.5984251968503937,
          "duration": 0.11029375000001096
        },
        {
          "name": "A5",
          "midi": 81,
          "time": 164.83400937499982,
          "velocity": 0.8267716535433071,
          "duration": 0.1121319791666906
        },
        {
          "name": "A#4",
          "midi": 70,
          "time": 164.83400937499982,
          "velocity": 0.5748031496062992,
          "duration": 0.11029375000001096
        },
        {
          "name": "A#5",
          "midi": 82,
          "time": 164.94430312499983,
          "velocity": 0.7637795275590551,
          "duration": 0.1672788541667103
        },
        {
          "name": "D#5",
          "midi": 75,
          "time": 164.94430312499983,
          "velocity": 0.5905511811023622,
          "duration": 0.16544062500003065
        },
        {
          "name": "G5",
          "midi": 79,
          "time": 165.10974374999986,
          "velocity": 0.7165354330708661,
          "duration": 0.6272957031250428
        },
        {
          "name": "D2",
          "midi": 38,
          "time": 165.10974374999986,
          "velocity": 0.84251968503937,
          "duration": 0.22058750000002192
        },
        {
          "name": "D3",
          "midi": 50,
          "time": 165.10974374999986,
          "velocity": 0.84251968503937,
          "duration": 0.22058750000002192
        },
        {
          "name": "G3",
          "midi": 55,
          "time": 165.3303312499999,
          "velocity": 0.5354330708661418,
          "duration": 0.11029375000001096
        },
        {
          "name": "A#3",
          "midi": 58,
          "time": 165.4406249999999,
          "velocity": 0.5748031496062992,
          "duration": 0.11029375000001096
        },
        {
          "name": "D4",
          "midi": 62,
          "time": 165.5509187499999,
          "velocity": 0.5984251968503937,
          "duration": 0.11029375000001096
        },
        {
          "name": "G4",
          "midi": 67,
          "time": 165.66121249999992,
          "velocity": 0.6141732283464567,
          "duration": 0.11029374999998254
        },
        {
          "name": "G5",
          "midi": 79,
          "time": 165.7715062499999,
          "velocity": 0.8188976377952756,
          "duration": 0.11029375000001096
        },
        {
          "name": "A#4",
          "midi": 70,
          "time": 165.7715062499999,
          "velocity": 0.5826771653543307,
          "duration": 0.11029375000001096
        },
        {
          "name": "A5",
          "midi": 81,
          "time": 165.8817999999999,
          "velocity": 0.8188976377952756,
          "duration": 0.11029375000001096
        },
        {
          "name": "D5",
          "midi": 74,
          "time": 165.8817999999999,
          "velocity": 0.5905511811023622,
          "duration": 0.11029375000001096
        },
        {
          "name": "A#5",
          "midi": 82,
          "time": 165.99209374999992,
          "velocity": 0.8267716535433071,
          "duration": 0.22426395833332435
        },
        {
          "name": "C2",
          "midi": 36,
          "time": 165.99209374999992,
          "velocity": 0.84251968503937,
          "duration": 0.2205874999999935
        },
        {
          "name": "C3",
          "midi": 48,
          "time": 165.99209374999992,
          "velocity": 0.84251968503937,
          "duration": 0.2205874999999935
        },
        {
          "name": "D5",
          "midi": 74,
          "time": 166.21268124999992,
          "velocity": 0.7165354330708661,
          "duration": 0.22426395833335278
        },
        {
          "name": "C4",
          "midi": 60,
          "time": 166.21268124999992,
          "velocity": 0.5590551181102362,
          "duration": 0.11029375000001096
        },
        {
          "name": "G3",
          "midi": 55,
          "time": 166.32297499999993,
          "velocity": 0.5354330708661418,
          "duration": 0.11029375000001096
        },
        {
          "name": "D#5",
          "midi": 75,
          "time": 166.43326874999994,
          "velocity": 0.7874015748031497,
          "duration": 0.22426395833335278
        },
        {
          "name": "C4",
          "midi": 60,
          "time": 166.43326874999994,
          "velocity": 0.6062992125984252,
          "duration": 0.11029375000001096
        },
        {
          "name": "D#4",
          "midi": 63,
          "time": 166.54356249999995,
          "velocity": 0.5826771653543307,
          "duration": 0.11029375000001096
        },
        {
          "name": "A5",
          "midi": 81,
          "time": 166.65385624999996,
          "velocity": 0.8503937007874016,
          "duration": 0.22426395833335278
        },
        {
          "name": "G4",
          "midi": 67,
          "time": 166.65385624999996,
          "velocity": 0.5984251968503937,
          "duration": 0.22058750000002192
        },
        {
          "name": "A#5",
          "midi": 82,
          "time": 166.87444374999998,
          "velocity": 0.8110236220472441,
          "duration": 0.22426395833332435
        },
        {
          "name": "C#2",
          "midi": 37,
          "time": 166.87444374999998,
          "velocity": 0.84251968503937,
          "duration": 0.2205874999999935
        },
        {
          "name": "C#3",
          "midi": 49,
          "time": 166.87444374999998,
          "velocity": 0.84251968503937,
          "duration": 0.2205874999999935
        },
        {
          "name": "C#5",
          "midi": 73,
          "time": 167.09503124999998,
          "velocity": 0.7086614173228346,
          "duration": 0.22426395833335278
        },
        {
          "name": "C#4",
          "midi": 61,
          "time": 167.09503124999998,
          "velocity": 0.5590551181102362,
          "duration": 0.11029375000001096
        },
        {
          "name": "A3",
          "midi": 57,
          "time": 167.205325,
          "velocity": 0.5590551181102362,
          "duration": 0.11029375000001096
        },
        {
          "name": "D5",
          "midi": 74,
          "time": 167.31561875,
          "velocity": 0.7874015748031497,
          "duration": 0.22426395833335278
        },
        {
          "name": "C#4",
          "midi": 61,
          "time": 167.31561875,
          "velocity": 0.5905511811023622,
          "duration": 0.11029375000001096
        },
        {
          "name": "E4",
          "midi": 64,
          "time": 167.4259125,
          "velocity": 0.5826771653543307,
          "duration": 0.11029375000001096
        },
        {
          "name": "G5",
          "midi": 79,
          "time": 167.53620625000002,
          "velocity": 0.84251968503937,
          "duration": 0.22426395833335278
        },
        {
          "name": "G4",
          "midi": 67,
          "time": 167.53620625000002,
          "velocity": 0.5826771653543307,
          "duration": 0.22058750000002192
        },
        {
          "name": "A#5",
          "midi": 82,
          "time": 167.75679375000004,
          "velocity": 0.7874015748031497,
          "duration": 0.6737109895833839
        },
        {
          "name": "D2",
          "midi": 38,
          "time": 167.75679375000004,
          "velocity": 0.84251968503937,
          "duration": 0.2205874999999935
        },
        {
          "name": "D3",
          "midi": 50,
          "time": 167.75679375000004,
          "velocity": 0.84251968503937,
          "duration": 0.2205874999999935
        },
        {
          "name": "F#3",
          "midi": 54,
          "time": 167.97738125000004,
          "velocity": 0.5433070866141733,
          "duration": 0.11029375000001096
        },
        {
          "name": "A3",
          "midi": 57,
          "time": 168.08767500000005,
          "velocity": 0.5748031496062992,
          "duration": 0.11029375000001096
        },
        {
          "name": "D4",
          "midi": 62,
          "time": 168.19796875000006,
          "velocity": 0.5984251968503937,
          "duration": 0.11029375000001096
        },
        {
          "name": "F#4",
          "midi": 66,
          "time": 168.30826250000007,
          "velocity": 0.5984251968503937,
          "duration": 0.11029375000001096
        },
        {
          "name": "A5",
          "midi": 81,
          "time": 168.41855625000008,
          "velocity": 0.8188976377952756,
          "duration": 0.1121319791666906
        },
        {
          "name": "A4",
          "midi": 69,
          "time": 168.41855625000008,
          "velocity": 0.5826771653543307,
          "duration": 0.11029375000001096
        },
        {
          "name": "G#5",
          "midi": 80,
          "time": 168.5288500000001,
          "velocity": 0.7401574803149606,
          "duration": 0.11213197916671902
        },
        {
          "name": "D5",
          "midi": 74,
          "time": 168.5288500000001,
          "velocity": 0.5905511811023622,
          "duration": 0.11029375000003938
        },
        {
          "name": "A5",
          "midi": 81,
          "time": 168.63914375000013,
          "velocity": 0.7795275590551181,
          "duration": 0.20863901041670374
        },
        {
          "name": "D6",
          "midi": 86,
          "time": 168.63914375000013,
          "velocity": 0.7795275590551181,
          "duration": 0.20863901041670374
        },
        {
          "name": "C3",
          "midi": 48,
          "time": 168.63914375000013,
          "velocity": 0.7874015748031497,
          "duration": 0.44117500000004384
        },
        {
          "name": "C5",
          "midi": 72,
          "time": 168.85973125000018,
          "velocity": 0.6299212598425197,
          "duration": 0.2205874999999935
        },
        {
          "name": "D5",
          "midi": 74,
          "time": 169.08031875000017,
          "velocity": 0.6299212598425197,
          "duration": 0.11029375000001096
        },
        {
          "name": "D3",
          "midi": 50,
          "time": 169.08031875000017,
          "velocity": 0.5433070866141733,
          "duration": 0.44117500000004384
        },
        {
          "name": "D#3",
          "midi": 51,
          "time": 169.08031875000017,
          "velocity": 0.5433070866141733,
          "duration": 0.44117500000004384
        },
        {
          "name": "C5",
          "midi": 72,
          "time": 169.19061250000019,
          "velocity": 0.7086614173228346,
          "duration": 0.11029375000001096
        },
        {
          "name": "A4",
          "midi": 69,
          "time": 169.3009062500002,
          "velocity": 0.5118110236220472,
          "duration": 0.11029375000001096
        },
        {
          "name": "F#4",
          "midi": 66,
          "time": 169.4112000000002,
          "velocity": 0.6614173228346457,
          "duration": 0.11029375000001096
        },
        {
          "name": "D4",
          "midi": 62,
          "time": 169.52149375000022,
          "velocity": 0.6220472440944882,
          "duration": 0.8823500000000024
        },
        {
          "name": "G3",
          "midi": 55,
          "time": 169.52149375000022,
          "velocity": 0.5039370078740157,
          "duration": 0.2205874999999935
        },
        {
          "name": "A#3",
          "midi": 58,
          "time": 169.52149375000022,
          "velocity": 0.5039370078740157,
          "duration": 0.2205874999999935
        },
        {
          "name": "G3",
          "midi": 55,
          "time": 169.7420812500002,
          "velocity": 0.4645669291338583,
          "duration": 0.441174999999987
        },
        {
          "name": "A#3",
          "midi": 58,
          "time": 169.7420812500002,
          "velocity": 0.4645669291338583,
          "duration": 0.441174999999987
        },
        {
          "name": "G3",
          "midi": 55,
          "time": 170.1832562500002,
          "velocity": 0.47244094488188976,
          "duration": 0.22058750000002192
        },
        {
          "name": "A#3",
          "midi": 58,
          "time": 170.1832562500002,
          "velocity": 0.47244094488188976,
          "duration": 0.22058750000002192
        },
        {
          "name": "G3",
          "midi": 55,
          "time": 170.40384375000022,
          "velocity": 0.4881889763779528,
          "duration": 0.2205874999999935
        },
        {
          "name": "A#3",
          "midi": 58,
          "time": 170.40384375000022,
          "velocity": 0.4881889763779528,
          "duration": 0.2205874999999935
        },
        {
          "name": "D4",
          "midi": 62,
          "time": 170.6244312500002,
          "velocity": 0.5984251968503937,
          "duration": 0.2205874999999935
        },
        {
          "name": "G3",
          "midi": 55,
          "time": 170.6244312500002,
          "velocity": 0.47244094488188976,
          "duration": 0.441174999999987
        },
        {
          "name": "A#3",
          "midi": 58,
          "time": 170.6244312500002,
          "velocity": 0.47244094488188976,
          "duration": 0.441174999999987
        },
        {
          "name": "A#4",
          "midi": 70,
          "time": 170.8450187500002,
          "velocity": 0.7322834645669292,
          "duration": 0.2205874999999935
        },
        {
          "name": "A4",
          "midi": 69,
          "time": 171.0656062500002,
          "velocity": 0.6377952755905512,
          "duration": 0.22058750000002192
        },
        {
          "name": "G3",
          "midi": 55,
          "time": 171.0656062500002,
          "velocity": 0.4566929133858268,
          "duration": 0.22058750000002192
        },
        {
          "name": "A#3",
          "midi": 58,
          "time": 171.0656062500002,
          "velocity": 0.4566929133858268,
          "duration": 0.22058750000002192
        },
        {
          "name": "D#4",
          "midi": 63,
          "time": 171.28619375000022,
          "velocity": 0.6377952755905512,
          "duration": 0.2205874999999935
        },
        {
          "name": "G4",
          "midi": 67,
          "time": 171.28619375000022,
          "velocity": 0.6377952755905512,
          "duration": 0.2205874999999935
        },
        {
          "name": "G3",
          "midi": 55,
          "time": 171.28619375000022,
          "velocity": 0.49606299212598426,
          "duration": 0.2205874999999935
        },
        {
          "name": "A#3",
          "midi": 58,
          "time": 171.28619375000022,
          "velocity": 0.49606299212598426,
          "duration": 0.2205874999999935
        },
        {
          "name": "D4",
          "midi": 62,
          "time": 171.50678125000022,
          "velocity": 0.6141732283464567,
          "duration": 0.11029375000001096
        },
        {
          "name": "G3",
          "midi": 55,
          "time": 171.50678125000022,
          "velocity": 0.47244094488188976,
          "duration": 0.44117500000004384
        },
        {
          "name": "A#3",
          "midi": 58,
          "time": 171.50678125000022,
          "velocity": 0.47244094488188976,
          "duration": 0.44117500000004384
        },
        {
          "name": "D#4",
          "midi": 63,
          "time": 171.61707500000023,
          "velocity": 0.6771653543307087,
          "duration": 0.11029375000001096
        },
        {
          "name": "F4",
          "midi": 65,
          "time": 171.72736875000024,
          "velocity": 0.6850393700787402,
          "duration": 0.11029375000001096
        },
        {
          "name": "G4",
          "midi": 67,
          "time": 171.83766250000025,
          "velocity": 0.6692913385826772,
          "duration": 0.11029375000001096
        },
        {
          "name": "A4",
          "midi": 69,
          "time": 171.94795625000026,
          "velocity": 0.6692913385826772,
          "duration": 0.11029375000001096
        },
        {
          "name": "G3",
          "midi": 55,
          "time": 171.94795625000026,
          "velocity": 0.48031496062992124,
          "duration": 0.22058750000002192
        },
        {
          "name": "A#3",
          "midi": 58,
          "time": 171.94795625000026,
          "velocity": 0.48031496062992124,
          "duration": 0.22058750000002192
        },
        {
          "name": "A#4",
          "midi": 70,
          "time": 172.05825000000027,
          "velocity": 0.6850393700787402,
          "duration": 0.11029375000001096
        },
        {
          "name": "G3",
          "midi": 55,
          "time": 172.16854375000028,
          "velocity": 0.48031496062992124,
          "duration": 0.2205874999999935
        },
        {
          "name": "A#3",
          "midi": 58,
          "time": 172.16854375000028,
          "velocity": 0.48031496062992124,
          "duration": 0.2205874999999935
        },
        {
          "name": "G4",
          "midi": 67,
          "time": 172.38913125000028,
          "velocity": 0.5905511811023622,
          "duration": 0.2205874999999935
        },
        {
          "name": "G3",
          "midi": 55,
          "time": 172.38913125000028,
          "velocity": 0.48031496062992124,
          "duration": 0.441174999999987
        },
        {
          "name": "A#3",
          "midi": 58,
          "time": 172.38913125000028,
          "velocity": 0.48031496062992124,
          "duration": 0.441174999999987
        },
        {
          "name": "D4",
          "midi": 62,
          "time": 172.60971875000027,
          "velocity": 0.49606299212598426,
          "duration": 0.2205874999999935
        },
        {
          "name": "A#4",
          "midi": 70,
          "time": 172.60971875000027,
          "velocity": 0.6850393700787402,
          "duration": 0.2205874999999935
        },
        {
          "name": "G4",
          "midi": 67,
          "time": 172.83030625000026,
          "velocity": 0.49606299212598426,
          "duration": 0.22058750000002192
        },
        {
          "name": "C5",
          "midi": 72,
          "time": 172.83030625000026,
          "velocity": 0.6850393700787402,
          "duration": 0.22058750000002192
        },
        {
          "name": "G3",
          "midi": 55,
          "time": 172.83030625000026,
          "velocity": 0.47244094488188976,
          "duration": 0.22058750000002192
        },
        {
          "name": "A#3",
          "midi": 58,
          "time": 172.83030625000026,
          "velocity": 0.47244094488188976,
          "duration": 0.22058750000002192
        },
        {
          "name": "F4",
          "midi": 65,
          "time": 173.05089375000028,
          "velocity": 0.5196850393700787,
          "duration": 0.8823500000000024
        },
        {
          "name": "D5",
          "midi": 74,
          "time": 173.05089375000028,
          "velocity": 0.6850393700787402,
          "duration": 0.8823500000000024
        },
        {
          "name": "G3",
          "midi": 55,
          "time": 173.05089375000028,
          "velocity": 0.47244094488188976,
          "duration": 0.2205874999999935
        },
        {
          "name": "A#3",
          "midi": 58,
          "time": 173.05089375000028,
          "velocity": 0.47244094488188976,
          "duration": 0.2205874999999935
        },
        {
          "name": "G3",
          "midi": 55,
          "time": 173.27148125000028,
          "velocity": 0.48031496062992124,
          "duration": 0.441174999999987
        },
        {
          "name": "A#3",
          "midi": 58,
          "time": 173.27148125000028,
          "velocity": 0.48031496062992124,
          "duration": 0.441174999999987
        },
        {
          "name": "G3",
          "midi": 55,
          "time": 173.71265625000026,
          "velocity": 0.48031496062992124,
          "duration": 0.22058750000002192
        },
        {
          "name": "A#3",
          "midi": 58,
          "time": 173.71265625000026,
          "velocity": 0.48031496062992124,
          "duration": 0.22058750000002192
        },
        {
          "name": "G3",
          "midi": 55,
          "time": 173.9332437500003,
          "velocity": 0.4645669291338583,
          "duration": 0.2205874999999935
        },
        {
          "name": "A#3",
          "midi": 58,
          "time": 173.9332437500003,
          "velocity": 0.4645669291338583,
          "duration": 0.2205874999999935
        },
        {
          "name": "F4",
          "midi": 65,
          "time": 174.15383125000028,
          "velocity": 0.49606299212598426,
          "duration": 0.2205874999999935
        },
        {
          "name": "D5",
          "midi": 74,
          "time": 174.15383125000028,
          "velocity": 0.6771653543307087,
          "duration": 0.2205874999999935
        },
        {
          "name": "G3",
          "midi": 55,
          "time": 174.15383125000028,
          "velocity": 0.4881889763779528,
          "duration": 0.441174999999987
        },
        {
          "name": "A#3",
          "midi": 58,
          "time": 174.15383125000028,
          "velocity": 0.4881889763779528,
          "duration": 0.441174999999987
        },
        {
          "name": "D#4",
          "midi": 63,
          "time": 174.37441875000027,
          "velocity": 0.7952755905511811,
          "duration": 0.2205874999999935
        },
        {
          "name": "D#5",
          "midi": 75,
          "time": 174.37441875000027,
          "velocity": 0.7952755905511811,
          "duration": 0.2205874999999935
        },
        {
          "name": "F4",
          "midi": 65,
          "time": 174.59500625000027,
          "velocity": 0.49606299212598426,
          "duration": 0.22058750000002192
        },
        {
          "name": "F5",
          "midi": 77,
          "time": 174.59500625000027,
          "velocity": 0.7795275590551181,
          "duration": 0.22058750000002192
        },
        {
          "name": "G3",
          "midi": 55,
          "time": 174.59500625000027,
          "velocity": 0.48031496062992124,
          "duration": 0.22058750000002192
        },
        {
          "name": "A#3",
          "midi": 58,
          "time": 174.59500625000027,
          "velocity": 0.48031496062992124,
          "duration": 0.22058750000002192
        },
        {
          "name": "C4",
          "midi": 60,
          "time": 174.8155937500003,
          "velocity": 0.6141732283464567,
          "duration": 0.8823500000000024
        },
        {
          "name": "C5",
          "midi": 72,
          "time": 174.8155937500003,
          "velocity": 0.6141732283464567,
          "duration": 0.8823500000000024
        },
        {
          "name": "F3",
          "midi": 53,
          "time": 174.8155937500003,
          "velocity": 0.4566929133858268,
          "duration": 0.2205874999999935
        },
        {
          "name": "A3",
          "midi": 57,
          "time": 174.8155937500003,
          "velocity": 0.4566929133858268,
          "duration": 0.2205874999999935
        },
        {
          "name": "F3",
          "midi": 53,
          "time": 175.03618125000028,
          "velocity": 0.4881889763779528,
          "duration": 0.441174999999987
        },
        {
          "name": "A3",
          "midi": 57,
          "time": 175.03618125000028,
          "velocity": 0.4881889763779528,
          "duration": 0.441174999999987
        },
        {
          "name": "F3",
          "midi": 53,
          "time": 175.47735625000027,
          "velocity": 0.48031496062992124,
          "duration": 0.22058750000002192
        },
        {
          "name": "A3",
          "midi": 57,
          "time": 175.47735625000027,
          "velocity": 0.48031496062992124,
          "duration": 0.22058750000002192
        },
        {
          "name": "F3",
          "midi": 53,
          "time": 175.6979437500003,
          "velocity": 0.47244094488188976,
          "duration": 0.2205874999999935
        },
        {
          "name": "A3",
          "midi": 57,
          "time": 175.6979437500003,
          "velocity": 0.47244094488188976,
          "duration": 0.2205874999999935
        },
        {
          "name": "C4",
          "midi": 60,
          "time": 175.91853125000029,
          "velocity": 0.5905511811023622,
          "duration": 0.2205874999999935
        },
        {
          "name": "C5",
          "midi": 72,
          "time": 175.91853125000029,
          "velocity": 0.5905511811023622,
          "duration": 0.2205874999999935
        },
        {
          "name": "F3",
          "midi": 53,
          "time": 175.91853125000029,
          "velocity": 0.48031496062992124,
          "duration": 0.441174999999987
        },
        {
          "name": "A3",
          "midi": 57,
          "time": 175.91853125000029,
          "velocity": 0.48031496062992124,
          "duration": 0.441174999999987
        },
        {
          "name": "F4",
          "midi": 65,
          "time": 176.13911875000028,
          "velocity": 0.6771653543307087,
          "duration": 0.2205874999999935
        },
        {
          "name": "F5",
          "midi": 77,
          "time": 176.13911875000028,
          "velocity": 0.6771653543307087,
          "duration": 0.2205874999999935
        },
        {
          "name": "D#4",
          "midi": 63,
          "time": 176.35970625000027,
          "velocity": 0.6377952755905512,
          "duration": 0.22058750000002192
        },
        {
          "name": "D#5",
          "midi": 75,
          "time": 176.35970625000027,
          "velocity": 0.6377952755905512,
          "duration": 0.22058750000002192
        },
        {
          "name": "F3",
          "midi": 53,
          "time": 176.35970625000027,
          "velocity": 0.47244094488188976,
          "duration": 0.22058750000002192
        },
        {
          "name": "A3",
          "midi": 57,
          "time": 176.35970625000027,
          "velocity": 0.47244094488188976,
          "duration": 0.22058750000002192
        },
        {
          "name": "D6",
          "midi": 86,
          "time": 176.5802937500003,
          "velocity": 0.84251968503937,
          "duration": 0.441174999999987
        },
        {
          "name": "G3",
          "midi": 55,
          "time": 176.5802937500003,
          "velocity": 0.5984251968503937,
          "duration": 0.2205874999999935
        },
        {
          "name": "A#3",
          "midi": 58,
          "time": 176.5802937500003,
          "velocity": 0.5984251968503937,
          "duration": 0.2205874999999935
        },
        {
          "name": "D4",
          "midi": 62,
          "time": 176.5802937500003,
          "velocity": 0.5984251968503937,
          "duration": 0.2205874999999935
        },
        {
          "name": "G3",
          "midi": 55,
          "time": 176.8008812500003,
          "velocity": 0.6692913385826772,
          "duration": 0.441174999999987
        },
        {
          "name": "A#3",
          "midi": 58,
          "time": 176.8008812500003,
          "velocity": 0.6692913385826772,
          "duration": 0.441174999999987
        },
        {
          "name": "D4",
          "midi": 62,
          "time": 176.8008812500003,
          "velocity": 0.6692913385826772,
          "duration": 0.441174999999987
        },
        {
          "name": "G5",
          "midi": 79,
          "time": 177.02146875000028,
          "velocity": 0.8110236220472441,
          "duration": 0.441174999999987
        },
        {
          "name": "G3",
          "midi": 55,
          "time": 177.24205625000027,
          "velocity": 0.6535433070866141,
          "duration": 0.2205874999999935
        },
        {
          "name": "A#3",
          "midi": 58,
          "time": 177.24205625000027,
          "velocity": 0.6535433070866141,
          "duration": 0.2205874999999935
        },
        {
          "name": "D4",
          "midi": 62,
          "time": 177.24205625000027,
          "velocity": 0.6535433070866141,
          "duration": 0.2205874999999935
        },
        {
          "name": "F3",
          "midi": 53,
          "time": 177.46264375000027,
          "velocity": 0.6456692913385826,
          "duration": 0.2205874999999935
        },
        {
          "name": "A#3",
          "midi": 58,
          "time": 177.46264375000027,
          "velocity": 0.6456692913385826,
          "duration": 0.2205874999999935
        },
        {
          "name": "D4",
          "midi": 62,
          "time": 177.46264375000027,
          "velocity": 0.6456692913385826,
          "duration": 0.2205874999999935
        },
        {
          "name": "D5",
          "midi": 74,
          "time": 177.68323125000026,
          "velocity": 0.7244094488188977,
          "duration": 0.2205874999999935
        },
        {
          "name": "F3",
          "midi": 53,
          "time": 177.68323125000026,
          "velocity": 0.6614173228346457,
          "duration": 0.441174999999987
        },
        {
          "name": "A#3",
          "midi": 58,
          "time": 177.68323125000026,
          "velocity": 0.6614173228346457,
          "duration": 0.441174999999987
        },
        {
          "name": "D4",
          "midi": 62,
          "time": 177.68323125000026,
          "velocity": 0.6614173228346457,
          "duration": 0.441174999999987
        },
        {
          "name": "A#4",
          "midi": 70,
          "time": 177.90381875000026,
          "velocity": 0.7637795275590551,
          "duration": 0.2205874999999935
        },
        {
          "name": "A#5",
          "midi": 82,
          "time": 177.90381875000026,
          "velocity": 0.7637795275590551,
          "duration": 0.2205874999999935
        },
        {
          "name": "A4",
          "midi": 69,
          "time": 178.12440625000025,
          "velocity": 0.7716535433070866,
          "duration": 0.2205874999999935
        },
        {
          "name": "A5",
          "midi": 81,
          "time": 178.12440625000025,
          "velocity": 0.7716535433070866,
          "duration": 0.2205874999999935
        },
        {
          "name": "F3",
          "midi": 53,
          "time": 178.12440625000025,
          "velocity": 0.6692913385826772,
          "duration": 0.2205874999999935
        },
        {
          "name": "A#3",
          "midi": 58,
          "time": 178.12440625000025,
          "velocity": 0.6692913385826772,
          "duration": 0.2205874999999935
        },
        {
          "name": "D4",
          "midi": 62,
          "time": 178.12440625000025,
          "velocity": 0.6692913385826772,
          "duration": 0.2205874999999935
        },
        {
          "name": "G4",
          "midi": 67,
          "time": 178.34499375000024,
          "velocity": 0.7559055118110236,
          "duration": 0.8823500000000024
        },
        {
          "name": "G5",
          "midi": 79,
          "time": 178.34499375000024,
          "velocity": 0.7559055118110236,
          "duration": 0.8823500000000024
        },
        {
          "name": "E3",
          "midi": 52,
          "time": 178.34499375000024,
          "velocity": 0.6771653543307087,
          "duration": 0.2205874999999935
        },
        {
          "name": "A#3",
          "midi": 58,
          "time": 178.34499375000024,
          "velocity": 0.6771653543307087,
          "duration": 0.2205874999999935
        },
        {
          "name": "D4",
          "midi": 62,
          "time": 178.34499375000024,
          "velocity": 0.6771653543307087,
          "duration": 0.2205874999999935
        },
        {
          "name": "E3",
          "midi": 52,
          "time": 178.56558125000024,
          "velocity": 0.6456692913385826,
          "duration": 0.441174999999987
        },
        {
          "name": "A#3",
          "midi": 58,
          "time": 178.56558125000024,
          "velocity": 0.6456692913385826,
          "duration": 0.441174999999987
        },
        {
          "name": "D4",
          "midi": 62,
          "time": 178.56558125000024,
          "velocity": 0.6456692913385826,
          "duration": 0.441174999999987
        },
        {
          "name": "E3",
          "midi": 52,
          "time": 179.00675625000022,
          "velocity": 0.6929133858267716,
          "duration": 0.22058750000002192
        },
        {
          "name": "A#3",
          "midi": 58,
          "time": 179.00675625000022,
          "velocity": 0.6929133858267716,
          "duration": 0.22058750000002192
        },
        {
          "name": "D4",
          "midi": 62,
          "time": 179.00675625000022,
          "velocity": 0.6929133858267716,
          "duration": 0.22058750000002192
        },
        {
          "name": "D#3",
          "midi": 51,
          "time": 179.22734375000024,
          "velocity": 0.7007874015748031,
          "duration": 0.2205874999999935
        },
        {
          "name": "A#3",
          "midi": 58,
          "time": 179.22734375000024,
          "velocity": 0.7007874015748031,
          "duration": 0.2205874999999935
        },
        {
          "name": "D4",
          "midi": 62,
          "time": 179.22734375000024,
          "velocity": 0.7007874015748031,
          "duration": 0.2205874999999935
        },
        {
          "name": "G4",
          "midi": 67,
          "time": 179.44793125000024,
          "velocity": 0.7480314960629921,
          "duration": 0.2205874999999935
        },
        {
          "name": "G5",
          "midi": 79,
          "time": 179.44793125000024,
          "velocity": 0.7480314960629921,
          "duration": 0.2205874999999935
        },
        {
          "name": "D#3",
          "midi": 51,
          "time": 179.44793125000024,
          "velocity": 0.7244094488188977,
          "duration": 0.441174999999987
        },
        {
          "name": "A#3",
          "midi": 58,
          "time": 179.44793125000024,
          "velocity": 0.7244094488188977,
          "duration": 0.441174999999987
        },
        {
          "name": "D4",
          "midi": 62,
          "time": 179.44793125000024,
          "velocity": 0.7244094488188977,
          "duration": 0.441174999999987
        },
        {
          "name": "A#4",
          "midi": 70,
          "time": 179.66851875000023,
          "velocity": 0.7480314960629921,
          "duration": 0.2205874999999935
        },
        {
          "name": "A#5",
          "midi": 82,
          "time": 179.66851875000023,
          "velocity": 0.7480314960629921,
          "duration": 0.2205874999999935
        },
        {
          "name": "C5",
          "midi": 72,
          "time": 179.88910625000022,
          "velocity": 0.7480314960629921,
          "duration": 0.22058750000002192
        },
        {
          "name": "C6",
          "midi": 84,
          "time": 179.88910625000022,
          "velocity": 0.7480314960629921,
          "duration": 0.22058750000002192
        },
        {
          "name": "D#3",
          "midi": 51,
          "time": 179.88910625000022,
          "velocity": 0.7480314960629921,
          "duration": 0.22058750000002192
        },
        {
          "name": "A#3",
          "midi": 58,
          "time": 179.88910625000022,
          "velocity": 0.7480314960629921,
          "duration": 0.22058750000002192
        },
        {
          "name": "D4",
          "midi": 62,
          "time": 179.88910625000022,
          "velocity": 0.7480314960629921,
          "duration": 0.22058750000002192
        },
        {
          "name": "D5",
          "midi": 74,
          "time": 180.10969375000025,
          "velocity": 0.8031496062992126,
          "duration": 0.6617624999999805
        },
        {
          "name": "D6",
          "midi": 86,
          "time": 180.10969375000025,
          "velocity": 0.8031496062992126,
          "duration": 0.6617624999999805
        },
        {
          "name": "C2",
          "midi": 36,
          "time": 180.10969375000025,
          "velocity": 0.7401574803149606,
          "duration": 0.8823500000000024
        },
        {
          "name": "C3",
          "midi": 48,
          "time": 180.10969375000025,
          "velocity": 0.7401574803149606,
          "duration": 0.8823500000000024
        },
        {
          "name": "G3",
          "midi": 55,
          "time": 180.33028125000024,
          "velocity": 0.6062992125984252,
          "duration": 0.2205874999999935
        },
        {
          "name": "A#3",
          "midi": 58,
          "time": 180.33028125000024,
          "velocity": 0.6062992125984252,
          "duration": 0.2205874999999935
        },
        {
          "name": "D4",
          "midi": 62,
          "time": 180.33028125000024,
          "velocity": 0.6062992125984252,
          "duration": 0.2205874999999935
        },
        {
          "name": "G3",
          "midi": 55,
          "time": 180.55086875000023,
          "velocity": 0.6850393700787402,
          "duration": 0.2205874999999935
        },
        {
          "name": "A#3",
          "midi": 58,
          "time": 180.55086875000023,
          "velocity": 0.6850393700787402,
          "duration": 0.2205874999999935
        },
        {
          "name": "D4",
          "midi": 62,
          "time": 180.55086875000023,
          "velocity": 0.6850393700787402,
          "duration": 0.2205874999999935
        },
        {
          "name": "G4",
          "midi": 67,
          "time": 180.77145625000023,
          "velocity": 0.7401574803149606,
          "duration": 0.22058750000002192
        },
        {
          "name": "G5",
          "midi": 79,
          "time": 180.77145625000023,
          "velocity": 0.7401574803149606,
          "duration": 0.22058750000002192
        },
        {
          "name": "G3",
          "midi": 55,
          "time": 180.77145625000023,
          "velocity": 0.6692913385826772,
          "duration": 0.22058750000002192
        },
        {
          "name": "A#3",
          "midi": 58,
          "time": 180.77145625000023,
          "velocity": 0.6692913385826772,
          "duration": 0.22058750000002192
        },
        {
          "name": "D4",
          "midi": 62,
          "time": 180.77145625000023,
          "velocity": 0.6692913385826772,
          "duration": 0.22058750000002192
        },
        {
          "name": "D5",
          "midi": 74,
          "time": 180.99204375000025,
          "velocity": 0.889763779527559,
          "duration": 0.6617624999999805
        },
        {
          "name": "D6",
          "midi": 86,
          "time": 180.99204375000025,
          "velocity": 0.889763779527559,
          "duration": 0.6617624999999805
        },
        {
          "name": "A#1",
          "midi": 34,
          "time": 180.99204375000025,
          "velocity": 0.8188976377952756,
          "duration": 0.8823500000000024
        },
        {
          "name": "A#2",
          "midi": 46,
          "time": 180.99204375000025,
          "velocity": 0.8188976377952756,
          "duration": 0.8823500000000024
        },
        {
          "name": "G3",
          "midi": 55,
          "time": 181.21263125000024,
          "velocity": 0.6535433070866141,
          "duration": 0.2205874999999935
        },
        {
          "name": "A#3",
          "midi": 58,
          "time": 181.21263125000024,
          "velocity": 0.6535433070866141,
          "duration": 0.2205874999999935
        },
        {
          "name": "C4",
          "midi": 60,
          "time": 181.21263125000024,
          "velocity": 0.6535433070866141,
          "duration": 0.2205874999999935
        },
        {
          "name": "G3",
          "midi": 55,
          "time": 181.43321875000024,
          "velocity": 0.7322834645669292,
          "duration": 0.2205874999999935
        },
        {
          "name": "A#3",
          "midi": 58,
          "time": 181.43321875000024,
          "velocity": 0.7322834645669292,
          "duration": 0.2205874999999935
        },
        {
          "name": "C4",
          "midi": 60,
          "time": 181.43321875000024,
          "velocity": 0.7322834645669292,
          "duration": 0.2205874999999935
        },
        {
          "name": "G4",
          "midi": 67,
          "time": 181.65380625000023,
          "velocity": 0.8031496062992126,
          "duration": 0.22058750000002192
        },
        {
          "name": "G5",
          "midi": 79,
          "time": 181.65380625000023,
          "velocity": 0.8031496062992126,
          "duration": 0.22058750000002192
        },
        {
          "name": "G3",
          "midi": 55,
          "time": 181.65380625000023,
          "velocity": 0.7401574803149606,
          "duration": 0.22058750000002192
        },
        {
          "name": "A#3",
          "midi": 58,
          "time": 181.65380625000023,
          "velocity": 0.7401574803149606,
          "duration": 0.22058750000002192
        },
        {
          "name": "C4",
          "midi": 60,
          "time": 181.65380625000023,
          "velocity": 0.7401574803149606,
          "duration": 0.22058750000002192
        },
        {
          "name": "C5",
          "midi": 72,
          "time": 181.87439375000025,
          "velocity": 0.9291338582677166,
          "duration": 0.2205874999999935
        },
        {
          "name": "C6",
          "midi": 84,
          "time": 181.87439375000025,
          "velocity": 0.9291338582677166,
          "duration": 0.2205874999999935
        },
        {
          "name": "A1",
          "midi": 33,
          "time": 181.87439375000025,
          "velocity": 0.8976377952755905,
          "duration": 0.6617624999999805
        },
        {
          "name": "A2",
          "midi": 45,
          "time": 181.87439375000025,
          "velocity": 0.8976377952755905,
          "duration": 0.6617624999999805
        },
        {
          "name": "D4",
          "midi": 62,
          "time": 182.09498125000025,
          "velocity": 0.7559055118110236,
          "duration": 0.2205874999999935
        },
        {
          "name": "G3",
          "midi": 55,
          "time": 182.09498125000025,
          "velocity": 0.7007874015748031,
          "duration": 0.2205874999999935
        },
        {
          "name": "A#3",
          "midi": 58,
          "time": 182.09498125000025,
          "velocity": 0.7007874015748031,
          "duration": 0.2205874999999935
        },
        {
          "name": "E4",
          "midi": 64,
          "time": 182.31556875000024,
          "velocity": 0.889763779527559,
          "duration": 0.2205874999999935
        },
        {
          "name": "G3",
          "midi": 55,
          "time": 182.31556875000024,
          "velocity": 0.7401574803149606,
          "duration": 0.2205874999999935
        },
        {
          "name": "A#3",
          "midi": 58,
          "time": 182.31556875000024,
          "velocity": 0.7401574803149606,
          "duration": 0.2205874999999935
        },
        {
          "name": "G4",
          "midi": 67,
          "time": 182.53615625000023,
          "velocity": 0.8740157480314961,
          "duration": 0.22058750000002192
        },
        {
          "name": "G3",
          "midi": 55,
          "time": 182.53615625000023,
          "velocity": 0.7322834645669292,
          "duration": 0.22058750000002192
        },
        {
          "name": "A#3",
          "midi": 58,
          "time": 182.53615625000023,
          "velocity": 0.7322834645669292,
          "duration": 0.22058750000002192
        },
        {
          "name": "A1",
          "midi": 33,
          "time": 182.53615625000023,
          "velocity": 0.7952755905511811,
          "duration": 0.22058750000002192
        },
        {
          "name": "F#4",
          "midi": 66,
          "time": 182.75674375000025,
          "velocity": 0.8346456692913385,
          "duration": 0.2205874999999935
        },
        {
          "name": "D2",
          "midi": 38,
          "time": 182.75674375000025,
          "velocity": 0.8503937007874016,
          "duration": 0.8823500000000024
        },
        {
          "name": "A#4",
          "midi": 70,
          "time": 182.97733125000025,
          "velocity": 0.6692913385826772,
          "duration": 0.2205874999999935
        },
        {
          "name": "A#5",
          "midi": 82,
          "time": 182.97733125000025,
          "velocity": 0.6692913385826772,
          "duration": 0.2205874999999935
        },
        {
          "name": "D#4",
          "midi": 63,
          "time": 182.97733125000025,
          "velocity": 0.6299212598425197,
          "duration": 0.2205874999999935
        },
        {
          "name": "A4",
          "midi": 69,
          "time": 183.19791875000024,
          "velocity": 0.6692913385826772,
          "duration": 0.2205874999999935
        },
        {
          "name": "A5",
          "midi": 81,
          "time": 183.19791875000024,
          "velocity": 0.6692913385826772,
          "duration": 0.2205874999999935
        },
        {
          "name": "D4",
          "midi": 62,
          "time": 183.19791875000024,
          "velocity": 0.6692913385826772,
          "duration": 0.2205874999999935
        },
        {
          "name": "C5",
          "midi": 72,
          "time": 183.41850625000023,
          "velocity": 0.6692913385826772,
          "duration": 0.22058750000002192
        },
        {
          "name": "C6",
          "midi": 84,
          "time": 183.41850625000023,
          "velocity": 0.6692913385826772,
          "duration": 0.22058750000002192
        },
        {
          "name": "C4",
          "midi": 60,
          "time": 183.41850625000023,
          "velocity": 0.6614173228346457,
          "duration": 0.22058750000002192
        },
        {
          "name": "G4",
          "midi": 67,
          "time": 183.63909375000026,
          "velocity": 0.6771653543307087,
          "duration": 0.11029375000001096
        },
        {
          "name": "D#3",
          "midi": 51,
          "time": 183.63909375000026,
          "velocity": 0.6377952755905512,
          "duration": 0.22058750000002192
        },
        {
          "name": "G3",
          "midi": 55,
          "time": 183.63909375000026,
          "velocity": 0.6377952755905512,
          "duration": 0.22058750000002192
        },
        {
          "name": "A#4",
          "midi": 70,
          "time": 183.74938750000027,
          "velocity": 0.7952755905511811,
          "duration": 0.11029375000001096
        },
        {
          "name": "D5",
          "midi": 74,
          "time": 183.85968125000028,
          "velocity": 0.8267716535433071,
          "duration": 0.11029375000001096
        },
        {
          "name": "D#3",
          "midi": 51,
          "time": 183.85968125000028,
          "velocity": 0.6456692913385826,
          "duration": 0.441174999999987
        },
        {
          "name": "G3",
          "midi": 55,
          "time": 183.85968125000028,
          "velocity": 0.6456692913385826,
          "duration": 0.441174999999987
        },
        {
          "name": "A5",
          "midi": 81,
          "time": 183.9699750000003,
          "velocity": 0.8188976377952756,
          "duration": 0.11029375000001096
        },
        {
          "name": "G5",
          "midi": 79,
          "time": 184.0802687500003,
          "velocity": 0.7637795275590551,
          "duration": 0.05514687499999127
        },
        {
          "name": "F#5",
          "midi": 78,
          "time": 184.1354156250003,
          "velocity": 0.7480314960629921,
          "duration": 0.05514687499999127
        },
        {
          "name": "D#5",
          "midi": 75,
          "time": 184.19056250000028,
          "velocity": 0.7322834645669292,
          "duration": 0.05514687499999127
        },
        {
          "name": "D5",
          "midi": 74,
          "time": 184.24570937500027,
          "velocity": 0.7559055118110236,
          "duration": 0.05514687499999127
        },
        {
          "name": "C5",
          "midi": 72,
          "time": 184.30085625000027,
          "velocity": 0.7322834645669292,
          "duration": 0.05514687499999127
        },
        {
          "name": "D#3",
          "midi": 51,
          "time": 184.30085625000027,
          "velocity": 0.6692913385826772,
          "duration": 0.2205874999999935
        },
        {
          "name": "G3",
          "midi": 55,
          "time": 184.30085625000027,
          "velocity": 0.6692913385826772,
          "duration": 0.2205874999999935
        },
        {
          "name": "A#4",
          "midi": 70,
          "time": 184.35600312500026,
          "velocity": 0.7401574803149606,
          "duration": 0.05514687499999127
        },
        {
          "name": "A4",
          "midi": 69,
          "time": 184.41115000000025,
          "velocity": 0.7559055118110236,
          "duration": 0.05514687499999127
        },
        {
          "name": "G4",
          "midi": 67,
          "time": 184.46629687500024,
          "velocity": 0.7559055118110236,
          "duration": 0.05514687500001969
        },
        {
          "name": "A4",
          "midi": 69,
          "time": 184.52144375000026,
          "velocity": 0.8031496062992126,
          "duration": 0.11029375000001096
        },
        {
          "name": "F3",
          "midi": 53,
          "time": 184.52144375000026,
          "velocity": 0.6850393700787402,
          "duration": 0.22058750000002192
        },
        {
          "name": "A3",
          "midi": 57,
          "time": 184.52144375000026,
          "velocity": 0.6850393700787402,
          "duration": 0.22058750000002192
        },
        {
          "name": "D5",
          "midi": 74,
          "time": 184.63173750000027,
          "velocity": 0.8110236220472441,
          "duration": 0.11029375000001096
        },
        {
          "name": "A5",
          "midi": 81,
          "time": 184.74203125000028,
          "velocity": 0.84251968503937,
          "duration": 0.11029375000001096
        },
        {
          "name": "F3",
          "midi": 53,
          "time": 184.74203125000028,
          "velocity": 0.6692913385826772,
          "duration": 0.441174999999987
        },
        {
          "name": "A3",
          "midi": 57,
          "time": 184.74203125000028,
          "velocity": 0.6692913385826772,
          "duration": 0.441174999999987
        },
        {
          "name": "D#6",
          "midi": 87,
          "time": 184.8523250000003,
          "velocity": 0.84251968503937,
          "duration": 0.11029375000001096
        },
        {
          "name": "D6",
          "midi": 86,
          "time": 184.9626187500003,
          "velocity": 0.7559055118110236,
          "duration": 0.05514687499999127
        },
        {
          "name": "C6",
          "midi": 84,
          "time": 185.0177656250003,
          "velocity": 0.7480314960629921,
          "duration": 0.05514687499999127
        },
        {
          "name": "A#5",
          "midi": 82,
          "time": 185.07291250000029,
          "velocity": 0.7480314960629921,
          "duration": 0.05514687499999127
        },
        {
          "name": "A5",
          "midi": 81,
          "time": 185.12805937500028,
          "velocity": 0.7244094488188977,
          "duration": 0.05514687499999127
        },
        {
          "name": "F5",
          "midi": 77,
          "time": 185.18320625000027,
          "velocity": 0.7322834645669292,
          "duration": 0.05514687499999127
        },
        {
          "name": "F3",
          "midi": 53,
          "time": 185.18320625000027,
          "velocity": 0.6535433070866141,
          "duration": 0.2205874999999935
        },
        {
          "name": "A3",
          "midi": 57,
          "time": 185.18320625000027,
          "velocity": 0.6535433070866141,
          "duration": 0.2205874999999935
        },
        {
          "name": "D#5",
          "midi": 75,
          "time": 185.23835312500026,
          "velocity": 0.7480314960629921,
          "duration": 0.05514687499999127
        },
        {
          "name": "D5",
          "midi": 74,
          "time": 185.29350000000025,
          "velocity": 0.7401574803149606,
          "duration": 0.05514687499999127
        },
        {
          "name": "C5",
          "midi": 72,
          "time": 185.34864687500024,
          "velocity": 0.7480314960629921,
          "duration": 0.05514687500001969
        },
        {
          "name": "D5",
          "midi": 74,
          "time": 185.40379375000026,
          "velocity": 0.8031496062992126,
          "duration": 0.11029375000001096
        },
        {
          "name": "G3",
          "midi": 55,
          "time": 185.40379375000026,
          "velocity": 0.6614173228346457,
          "duration": 0.22058750000002192
        },
        {
          "name": "A#3",
          "midi": 58,
          "time": 185.40379375000026,
          "velocity": 0.6614173228346457,
          "duration": 0.22058750000002192
        },
        {
          "name": "F5",
          "midi": 77,
          "time": 185.51408750000027,
          "velocity": 0.7952755905511811,
          "duration": 0.11029375000001096
        },
        {
          "name": "A#5",
          "midi": 82,
          "time": 185.62438125000028,
          "velocity": 0.8267716535433071,
          "duration": 0.11029375000001096
        },
        {
          "name": "G3",
          "midi": 55,
          "time": 185.62438125000028,
          "velocity": 0.6535433070866141,
          "duration": 0.441174999999987
        },
        {
          "name": "A#3",
          "midi": 58,
          "time": 185.62438125000028,
          "velocity": 0.6535433070866141,
          "duration": 0.441174999999987
        },
        {
          "name": "D6",
          "midi": 86,
          "time": 185.7346750000003,
          "velocity": 0.8110236220472441,
          "duration": 0.11029375000001096
        },
        {
          "name": "D#6",
          "midi": 87,
          "time": 185.8449687500003,
          "velocity": 0.8031496062992126,
          "duration": 0.05514687499999127
        },
        {
          "name": "D6",
          "midi": 86,
          "time": 185.9001156250003,
          "velocity": 0.7322834645669292,
          "duration": 0.05514687499999127
        },
        {
          "name": "C6",
          "midi": 84,
          "time": 185.9552625000003,
          "velocity": 0.7401574803149606,
          "duration": 0.05514687499999127
        },
        {
          "name": "A#5",
          "midi": 82,
          "time": 186.01040937500028,
          "velocity": 0.7401574803149606,
          "duration": 0.05514687499999127
        },
        {
          "name": "A5",
          "midi": 81,
          "time": 186.06555625000027,
          "velocity": 0.7559055118110236,
          "duration": 0.05514687499999127
        },
        {
          "name": "G3",
          "midi": 55,
          "time": 186.06555625000027,
          "velocity": 0.6456692913385826,
          "duration": 0.2205874999999935
        },
        {
          "name": "A#3",
          "midi": 58,
          "time": 186.06555625000027,
          "velocity": 0.6456692913385826,
          "duration": 0.2205874999999935
        },
        {
          "name": "G5",
          "midi": 79,
          "time": 186.12070312500026,
          "velocity": 0.7480314960629921,
          "duration": 0.05514687499999127
        },
        {
          "name": "F5",
          "midi": 77,
          "time": 186.17585000000025,
          "velocity": 0.7559055118110236,
          "duration": 0.05514687499999127
        },
        {
          "name": "D#5",
          "midi": 75,
          "time": 186.23099687500024,
          "velocity": 0.7637795275590551,
          "duration": 0.05514687500001969
        },
        {
          "name": "E5",
          "midi": 76,
          "time": 186.28614375000026,
          "velocity": 0.7795275590551181,
          "duration": 0.11029375000001096
        },
        {
          "name": "A3",
          "midi": 57,
          "time": 186.28614375000026,
          "velocity": 0.6771653543307087,
          "duration": 0.22058750000002192
        },
        {
          "name": "C4",
          "midi": 60,
          "time": 186.28614375000026,
          "velocity": 0.6771653543307087,
          "duration": 0.22058750000002192
        },
        {
          "name": "G5",
          "midi": 79,
          "time": 186.39643750000027,
          "velocity": 0.8110236220472441,
          "duration": 0.11029375000001096
        },
        {
          "name": "C6",
          "midi": 84,
          "time": 186.50673125000029,
          "velocity": 0.8188976377952756,
          "duration": 0.11029375000001096
        },
        {
          "name": "A3",
          "midi": 57,
          "time": 186.50673125000029,
          "velocity": 0.6771653543307087,
          "duration": 0.4411750000000154
        },
        {
          "name": "C4",
          "midi": 60,
          "time": 186.50673125000029,
          "velocity": 0.6771653543307087,
          "duration": 0.4411750000000154
        },
        {
          "name": "D6",
          "midi": 86,
          "time": 186.6170250000003,
          "velocity": 0.7952755905511811,
          "duration": 0.11029375000001096
        },
        {
          "name": "G5",
          "midi": 79,
          "time": 186.7273187500003,
          "velocity": 0.7165354330708661,
          "duration": 0.07261005208331994
        },
        {
          "name": "C6",
          "midi": 84,
          "time": 186.79992880208363,
          "velocity": 0.8188976377952756,
          "duration": 0.07398872395833678
        },
        {
          "name": "D6",
          "midi": 86,
          "time": 186.87391752604196,
          "velocity": 0.7952755905511811,
          "duration": 0.07398872395833678
        },
        {
          "name": "C6",
          "midi": 84,
          "time": 186.9479062500003,
          "velocity": 0.7401574803149606,
          "duration": 0.07261005208331994
        },
        {
          "name": "A3",
          "midi": 57,
          "time": 186.9479062500003,
          "velocity": 0.6692913385826772,
          "duration": 0.2205874999999935
        },
        {
          "name": "C4",
          "midi": 60,
          "time": 186.9479062500003,
          "velocity": 0.6692913385826772,
          "duration": 0.2205874999999935
        },
        {
          "name": "D6",
          "midi": 86,
          "time": 187.02051630208362,
          "velocity": 0.7795275590551181,
          "duration": 0.07398872395833678
        },
        {
          "name": "G6",
          "midi": 91,
          "time": 187.09450502604196,
          "velocity": 0.8110236220472441,
          "duration": 0.07398872395833678
        },
        {
          "name": "C2",
          "midi": 36,
          "time": 187.1684937500003,
          "velocity": 0.8346456692913385,
          "duration": 0.441174999999987
        },
        {
          "name": "C3",
          "midi": 48,
          "time": 187.1684937500003,
          "velocity": 0.8346456692913385,
          "duration": 0.441174999999987
        },
        {
          "name": "A#6",
          "midi": 94,
          "time": 187.60966875000028,
          "velocity": 0.6929133858267716,
          "duration": 0.11029375000001096
        },
        {
          "name": "C3",
          "midi": 48,
          "time": 187.60966875000028,
          "velocity": 0.8346456692913385,
          "duration": 0.44117500000004384
        },
        {
          "name": "D#3",
          "midi": 51,
          "time": 187.60966875000028,
          "velocity": 0.8346456692913385,
          "duration": 0.44117500000004384
        },
        {
          "name": "A6",
          "midi": 93,
          "time": 187.7199625000003,
          "velocity": 0.7244094488188977,
          "duration": 0.11029375000001096
        },
        {
          "name": "G6",
          "midi": 91,
          "time": 187.8302562500003,
          "velocity": 0.7480314960629921,
          "duration": 0.11029375000001096
        },
        {
          "name": "F6",
          "midi": 89,
          "time": 187.94055000000031,
          "velocity": 0.7480314960629921,
          "duration": 0.11029375000001096
        },
        {
          "name": "D#6",
          "midi": 87,
          "time": 188.05084375000033,
          "velocity": 0.7480314960629921,
          "duration": 0.11029375000001096
        },
        {
          "name": "D2",
          "midi": 38,
          "time": 188.05084375000033,
          "velocity": 0.8346456692913385,
          "duration": 0.6617625000000658
        },
        {
          "name": "D3",
          "midi": 50,
          "time": 188.05084375000033,
          "velocity": 0.8346456692913385,
          "duration": 0.6617625000000658
        },
        {
          "name": "D6",
          "midi": 86,
          "time": 188.16113750000034,
          "velocity": 0.7559055118110236,
          "duration": 0.11029375000001096
        },
        {
          "name": "C6",
          "midi": 84,
          "time": 188.27143125000035,
          "velocity": 0.7401574803149606,
          "duration": 0.11029375000001096
        },
        {
          "name": "A#5",
          "midi": 82,
          "time": 188.38172500000036,
          "velocity": 0.7401574803149606,
          "duration": 0.11029375000001096
        },
        {
          "name": "A5",
          "midi": 81,
          "time": 188.49201875000037,
          "velocity": 0.7637795275590551,
          "duration": 0.11029375000001096
        },
        {
          "name": "G5",
          "midi": 79,
          "time": 188.60231250000038,
          "velocity": 0.7322834645669292,
          "duration": 0.11029375000001096
        },
        {
          "name": "F5",
          "midi": 77,
          "time": 188.7126062500004,
          "velocity": 0.7559055118110236,
          "duration": 0.11029375000001096
        },
        {
          "name": "D2",
          "midi": 38,
          "time": 188.7126062500004,
          "velocity": 0.8346456692913385,
          "duration": 0.22058750000002192
        },
        {
          "name": "D3",
          "midi": 50,
          "time": 188.7126062500004,
          "velocity": 0.8346456692913385,
          "duration": 0.22058750000002192
        },
        {
          "name": "D5",
          "midi": 74,
          "time": 188.8229000000004,
          "velocity": 0.7401574803149606,
          "duration": 0.11029375000001096
        },
        {
          "name": "D#2",
          "midi": 39,
          "time": 188.9331937500004,
          "velocity": 0.8346456692913385,
          "duration": 0.6617625000000089
        },
        {
          "name": "D#3",
          "midi": 51,
          "time": 188.9331937500004,
          "velocity": 0.8346456692913385,
          "duration": 0.6617625000000089
        },
        {
          "name": "A#6",
          "midi": 94,
          "time": 189.3743687500004,
          "velocity": 0.7086614173228346,
          "duration": 0.11029375000001096
        },
        {
          "name": "A6",
          "midi": 93,
          "time": 189.4846625000004,
          "velocity": 0.7401574803149606,
          "duration": 0.11029375000001096
        },
        {
          "name": "G6",
          "midi": 91,
          "time": 189.59495625000042,
          "velocity": 0.7401574803149606,
          "duration": 0.11029375000001096
        },
        {
          "name": "D#2",
          "midi": 39,
          "time": 189.59495625000042,
          "velocity": 0.8346456692913385,
          "duration": 0.22058750000002192
        },
        {
          "name": "D#3",
          "midi": 51,
          "time": 189.59495625000042,
          "velocity": 0.8346456692913385,
          "duration": 0.22058750000002192
        },
        {
          "name": "F6",
          "midi": 89,
          "time": 189.70525000000043,
          "velocity": 0.7401574803149606,
          "duration": 0.11029375000001096
        },
        {
          "name": "C7",
          "midi": 96,
          "time": 189.81554375000044,
          "velocity": 0.8346456692913385,
          "duration": 0.11029375000001096
        },
        {
          "name": "F2",
          "midi": 41,
          "time": 189.81554375000044,
          "velocity": 0.8346456692913385,
          "duration": 0.8823500000000877
        },
        {
          "name": "F3",
          "midi": 53,
          "time": 189.81554375000044,
          "velocity": 0.8346456692913385,
          "duration": 0.8823500000000877
        },
        {
          "name": "A#6",
          "midi": 94,
          "time": 189.92583750000045,
          "velocity": 0.7401574803149606,
          "duration": 0.11029375000001096
        },
        {
          "name": "A6",
          "midi": 93,
          "time": 190.03613125000047,
          "velocity": 0.7401574803149606,
          "duration": 0.11029375000001096
        },
        {
          "name": "G6",
          "midi": 91,
          "time": 190.14642500000048,
          "velocity": 0.7480314960629921,
          "duration": 0.11029375000001096
        },
        {
          "name": "A6",
          "midi": 93,
          "time": 190.2567187500005,
          "velocity": 0.8031496062992126,
          "duration": 0.11029375000001096
        },
        {
          "name": "A#6",
          "midi": 94,
          "time": 190.3670125000005,
          "velocity": 0.7795275590551181,
          "duration": 0.11029375000001096
        },
        {
          "name": "C7",
          "midi": 96,
          "time": 190.4773062500005,
          "velocity": 0.8110236220472441,
          "duration": 0.11029375000001096
        },
        {
          "name": "D#7",
          "midi": 99,
          "time": 190.58760000000052,
          "velocity": 0.7952755905511811,
          "duration": 0.11029375000001096
        },
        {
          "name": "F7",
          "midi": 101,
          "time": 190.69789375000053,
          "velocity": 0.7795275590551181,
          "duration": 0.2205874999999935
        },
        {
          "name": "G7",
          "midi": 103,
          "time": 190.91848125000053,
          "velocity": 0.7952755905511811,
          "duration": 0.11029375000001096
        },
        {
          "name": "F#7",
          "midi": 102,
          "time": 191.02877500000054,
          "velocity": 0.7401574803149606,
          "duration": 0.11029375000001096
        },
        {
          "name": "D#7",
          "midi": 99,
          "time": 191.13906875000055,
          "velocity": 0.7480314960629921,
          "duration": 0.07261005208331994
        },
        {
          "name": "G1",
          "midi": 31,
          "time": 191.13906875000055,
          "velocity": 0.8346456692913385,
          "duration": 0.441174999999987
        },
        {
          "name": "G2",
          "midi": 43,
          "time": 191.13906875000055,
          "velocity": 0.8346456692913385,
          "duration": 0.441174999999987
        },
        {
          "name": "D7",
          "midi": 98,
          "time": 191.21167880208387,
          "velocity": 0.7480314960629921,
          "duration": 0.07398872395833678
        },
        {
          "name": "C7",
          "midi": 96,
          "time": 191.2856675260422,
          "velocity": 0.7480314960629921,
          "duration": 0.07398872395833678
        },
        {
          "name": "A#6",
          "midi": 94,
          "time": 191.35965625000054,
          "velocity": 0.7559055118110236,
          "duration": 0.07261005208331994
        },
        {
          "name": "A6",
          "midi": 93,
          "time": 191.43226630208386,
          "velocity": 0.7480314960629921,
          "duration": 0.07398872395833678
        },
        {
          "name": "G6",
          "midi": 91,
          "time": 191.5062550260422,
          "velocity": 0.7322834645669292,
          "duration": 0.07398872395833678
        },
        {
          "name": "F#6",
          "midi": 90,
          "time": 191.58024375000053,
          "velocity": 0.7559055118110236,
          "duration": 0.07261005208331994
        },
        {
          "name": "A1",
          "midi": 33,
          "time": 191.58024375000053,
          "velocity": 0.8346456692913385,
          "duration": 0.8823500000000308
        },
        {
          "name": "F#2",
          "midi": 42,
          "time": 191.58024375000053,
          "velocity": 0.8346456692913385,
          "duration": 0.8823500000000308
        },
        {
          "name": "A2",
          "midi": 45,
          "time": 191.58024375000053,
          "velocity": 0.8346456692913385,
          "duration": 0.8823500000000308
        },
        {
          "name": "A#6",
          "midi": 94,
          "time": 191.65285380208385,
          "velocity": 0.8031496062992126,
          "duration": 0.07398872395833678
        },
        {
          "name": "A6",
          "midi": 93,
          "time": 191.7268425260422,
          "velocity": 0.7559055118110236,
          "duration": 0.07398872395833678
        },
        {
          "name": "C7",
          "midi": 96,
          "time": 191.80083125000053,
          "velocity": 0.8031496062992126,
          "duration": 0.07261005208331994
        },
        {
          "name": "A#6",
          "midi": 94,
          "time": 191.87344130208385,
          "velocity": 0.7559055118110236,
          "duration": 0.07398872395833678
        },
        {
          "name": "D#7",
          "midi": 99,
          "time": 191.94743002604218,
          "velocity": 0.8110236220472441,
          "duration": 0.07398872395833678
        },
        {
          "name": "D7",
          "midi": 98,
          "time": 192.02141875000052,
          "velocity": 0.7716535433070866,
          "duration": 0.11029375000001096
        },
        {
          "name": "A#7",
          "midi": 106,
          "time": 192.13171250000053,
          "velocity": 0.8346456692913385,
          "duration": 0.11029375000001096
        },
        {
          "name": "A7",
          "midi": 105,
          "time": 192.24200625000054,
          "velocity": 0.7716535433070866,
          "duration": 0.22058750000002192
        },
        {
          "name": "G6",
          "midi": 91,
          "time": 192.46259375000056,
          "velocity": 0.6771653543307087,
          "duration": 0.11029375000001096
        },
        {
          "name": "A#1",
          "midi": 34,
          "time": 192.46259375000056,
          "velocity": 0.8346456692913385,
          "duration": 0.8823500000000877
        },
        {
          "name": "F2",
          "midi": 41,
          "time": 192.46259375000056,
          "velocity": 0.8346456692913385,
          "duration": 0.8823500000000877
        },
        {
          "name": "A#2",
          "midi": 46,
          "time": 192.46259375000056,
          "velocity": 0.8346456692913385,
          "duration": 0.8823500000000877
        },
        {
          "name": "F6",
          "midi": 89,
          "time": 192.57288750000058,
          "velocity": 0.7322834645669292,
          "duration": 0.11029375000001096
        },
        {
          "name": "A#6",
          "midi": 94,
          "time": 192.6831812500006,
          "velocity": 0.8267716535433071,
          "duration": 0.11029375000001096
        },
        {
          "name": "A6",
          "midi": 93,
          "time": 192.7934750000006,
          "velocity": 0.7480314960629921,
          "duration": 0.11029375000001096
        },
        {
          "name": "C7",
          "midi": 96,
          "time": 192.9037687500006,
          "velocity": 0.8031496062992126,
          "duration": 0.11029375000001096
        },
        {
          "name": "A#6",
          "midi": 94,
          "time": 193.01406250000062,
          "velocity": 0.7401574803149606,
          "duration": 0.11029375000001096
        },
        {
          "name": "D#7",
          "midi": 99,
          "time": 193.12435625000063,
          "velocity": 0.8267716535433071,
          "duration": 0.11029375000001096
        },
        {
          "name": "D7",
          "midi": 98,
          "time": 193.23465000000064,
          "velocity": 0.7480314960629921,
          "duration": 0.11029375000001096
        },
        {
          "name": "E7",
          "midi": 100,
          "time": 193.34494375000065,
          "velocity": 0.7952755905511811,
          "duration": 0.2205874999999935
        },
        {
          "name": "C2",
          "midi": 36,
          "time": 193.34494375000065,
          "velocity": 0.8346456692913385,
          "duration": 0.8823499999999456
        },
        {
          "name": "G2",
          "midi": 43,
          "time": 193.34494375000065,
          "velocity": 0.8346456692913385,
          "duration": 0.8823499999999456
        },
        {
          "name": "C3",
          "midi": 48,
          "time": 193.34494375000065,
          "velocity": 0.8346456692913385,
          "duration": 0.8823499999999456
        },
        {
          "name": "D#7",
          "midi": 99,
          "time": 193.56553125000065,
          "velocity": 0.7401574803149606,
          "duration": 0.11029375000001096
        },
        {
          "name": "D7",
          "midi": 98,
          "time": 193.67582500000066,
          "velocity": 0.7559055118110236,
          "duration": 0.05514687499999127
        },
        {
          "name": "C#7",
          "midi": 97,
          "time": 193.73097187500065,
          "velocity": 0.7559055118110236,
          "duration": 0.05514687499999127
        },
        {
          "name": "C7",
          "midi": 96,
          "time": 193.78611875000064,
          "velocity": 0.7716535433070866,
          "duration": 0.05514687499999127
        },
        {
          "name": "B6",
          "midi": 95,
          "time": 193.84126562500063,
          "velocity": 0.7637795275590551,
          "duration": 0.05514687499999127
        },
        {
          "name": "A#6",
          "midi": 94,
          "time": 193.89641250000062,
          "velocity": 0.7559055118110236,
          "duration": 0.05514687499999127
        },
        {
          "name": "A6",
          "midi": 93,
          "time": 193.9515593750006,
          "velocity": 0.7637795275590551,
          "duration": 0.05514687499999127
        },
        {
          "name": "G#6",
          "midi": 92,
          "time": 194.0067062500006,
          "velocity": 0.7559055118110236,
          "duration": 0.05514687499999127
        },
        {
          "name": "G6",
          "midi": 91,
          "time": 194.0618531250006,
          "velocity": 0.7559055118110236,
          "duration": 0.05514687499999127
        },
        {
          "name": "F#6",
          "midi": 90,
          "time": 194.1170000000006,
          "velocity": 0.7559055118110236,
          "duration": 0.05514687499999127
        },
        {
          "name": "F6",
          "midi": 89,
          "time": 194.17214687500058,
          "velocity": 0.7637795275590551,
          "duration": 0.05514687500001969
        },
        {
          "name": "E6",
          "midi": 88,
          "time": 194.2272937500006,
          "velocity": 0.7480314960629921,
          "duration": 0.11029375000001096
        },
        {
          "name": "C#2",
          "midi": 37,
          "time": 194.2272937500006,
          "velocity": 0.8346456692913385,
          "duration": 0.8823500000000877
        },
        {
          "name": "A2",
          "midi": 45,
          "time": 194.2272937500006,
          "velocity": 0.8346456692913385,
          "duration": 0.8823500000000877
        },
        {
          "name": "C#3",
          "midi": 49,
          "time": 194.2272937500006,
          "velocity": 0.8346456692913385,
          "duration": 0.8823500000000877
        },
        {
          "name": "E5",
          "midi": 76,
          "time": 194.3375875000006,
          "velocity": 0.6692913385826772,
          "duration": 0.11029375000001096
        },
        {
          "name": "A#6",
          "midi": 94,
          "time": 194.44788125000062,
          "velocity": 0.8582677165354331,
          "duration": 0.11029375000001096
        },
        {
          "name": "A#5",
          "midi": 82,
          "time": 194.55817500000063,
          "velocity": 0.6614173228346457,
          "duration": 0.11029375000001096
        },
        {
          "name": "G6",
          "midi": 91,
          "time": 194.66846875000064,
          "velocity": 0.84251968503937,
          "duration": 0.11029375000001096
        },
        {
          "name": "G5",
          "midi": 79,
          "time": 194.77876250000065,
          "velocity": 0.6614173228346457,
          "duration": 0.11029375000001096
        },
        {
          "name": "C#7",
          "midi": 97,
          "time": 194.88905625000066,
          "velocity": 0.8661417322834646,
          "duration": 0.11029375000001096
        },
        {
          "name": "C#6",
          "midi": 85,
          "time": 194.99935000000067,
          "velocity": 0.6535433070866141,
          "duration": 0.11029375000001096
        },
        {
          "name": "D7",
          "midi": 98,
          "time": 195.10964375000069,
          "velocity": 0.84251968503937,
          "duration": 0.11029375000001096
        },
        {
          "name": "D2",
          "midi": 38,
          "time": 195.10964375000069,
          "velocity": 0.8346456692913385,
          "duration": 0.44117500000004384
        },
        {
          "name": "A2",
          "midi": 45,
          "time": 195.10964375000069,
          "velocity": 0.8346456692913385,
          "duration": 0.44117500000004384
        },
        {
          "name": "D3",
          "midi": 50,
          "time": 195.10964375000069,
          "velocity": 0.8346456692913385,
          "duration": 0.44117500000004384
        },
        {
          "name": "D6",
          "midi": 86,
          "time": 195.2199375000007,
          "velocity": 0.6771653543307087,
          "duration": 0.11029375000001096
        },
        {
          "name": "C7",
          "midi": 96,
          "time": 195.3302312500007,
          "velocity": 0.8661417322834646,
          "duration": 0.11029375000001096
        },
        {
          "name": "C6",
          "midi": 84,
          "time": 195.44052500000072,
          "velocity": 0.6771653543307087,
          "duration": 0.11029375000001096
        },
        {
          "name": "A#6",
          "midi": 94,
          "time": 195.55081875000073,
          "velocity": 0.84251968503937,
          "duration": 0.11029375000001096
        },
        {
          "name": "C2",
          "midi": 36,
          "time": 195.55081875000073,
          "velocity": 0.8346456692913385,
          "duration": 0.44117500000004384
        },
        {
          "name": "A2",
          "midi": 45,
          "time": 195.55081875000073,
          "velocity": 0.8346456692913385,
          "duration": 0.44117500000004384
        },
        {
          "name": "C3",
          "midi": 48,
          "time": 195.55081875000073,
          "velocity": 0.8346456692913385,
          "duration": 0.44117500000004384
        },
        {
          "name": "A#5",
          "midi": 82,
          "time": 195.66111250000074,
          "velocity": 0.6850393700787402,
          "duration": 0.11029375000001096
        },
        {
          "name": "A6",
          "midi": 93,
          "time": 195.77140625000075,
          "velocity": 0.8503937007874016,
          "duration": 0.11029375000001096
        },
        {
          "name": "A5",
          "midi": 81,
          "time": 195.88170000000076,
          "velocity": 0.6692913385826772,
          "duration": 0.11029375000001096
        },
        {
          "name": "G6",
          "midi": 91,
          "time": 195.99199375000077,
          "velocity": 0.8740157480314961,
          "duration": 0.11029375000001096
        },
        {
          "name": "A#1",
          "midi": 34,
          "time": 195.99199375000077,
          "velocity": 0.8346456692913385,
          "duration": 0.8823500000000877
        },
        {
          "name": "G2",
          "midi": 43,
          "time": 195.99199375000077,
          "velocity": 0.8346456692913385,
          "duration": 0.8823500000000877
        },
        {
          "name": "A#2",
          "midi": 46,
          "time": 195.99199375000077,
          "velocity": 0.8346456692913385,
          "duration": 0.8823500000000877
        },
        {
          "name": "D6",
          "midi": 86,
          "time": 196.10228750000078,
          "velocity": 0.7165354330708661,
          "duration": 0.11029375000001096
        },
        {
          "name": "B5",
          "midi": 83,
          "time": 196.2125812500008,
          "velocity": 0.7480314960629921,
          "duration": 0.11029375000001096
        },
        {
          "name": "G5",
          "midi": 79,
          "time": 196.3228750000008,
          "velocity": 0.7165354330708661,
          "duration": 0.11029375000001096
        },
        {
          "name": "D5",
          "midi": 74,
          "time": 196.43316875000082,
          "velocity": 0.7322834645669292,
          "duration": 0.11029375000001096
        },
        {
          "name": "B4",
          "midi": 71,
          "time": 196.54346250000083,
          "velocity": 0.7322834645669292,
          "duration": 0.11029375000001096
        },
        {
          "name": "G4",
          "midi": 67,
          "time": 196.65375625000084,
          "velocity": 0.7401574803149606,
          "duration": 0.11029375000001096
        },
        {
          "name": "D4",
          "midi": 62,
          "time": 196.76405000000085,
          "velocity": 0.7086614173228346,
          "duration": 0.11029375000001096
        },
        {
          "name": "G6",
          "midi": 91,
          "time": 196.87434375000086,
          "velocity": 0.8582677165354331,
          "duration": 0.11029375000001096
        },
        {
          "name": "A1",
          "midi": 33,
          "time": 196.87434375000086,
          "velocity": 0.8346456692913385,
          "duration": 0.8823500000000877
        },
        {
          "name": "G2",
          "midi": 43,
          "time": 196.87434375000086,
          "velocity": 0.8346456692913385,
          "duration": 0.8823500000000877
        },
        {
          "name": "A2",
          "midi": 45,
          "time": 196.87434375000086,
          "velocity": 0.8346456692913385,
          "duration": 0.8823500000000877
        },
        {
          "name": "D6",
          "midi": 86,
          "time": 196.98463750000087,
          "velocity": 0.7401574803149606,
          "duration": 0.11029375000001096
        },
        {
          "name": "A#5",
          "midi": 82,
          "time": 197.09493125000088,
          "velocity": 0.7401574803149606,
          "duration": 0.11029375000001096
        },
        {
          "name": "G5",
          "midi": 79,
          "time": 197.2052250000009,
          "velocity": 0.7401574803149606,
          "duration": 0.11029375000001096
        },
        {
          "name": "D5",
          "midi": 74,
          "time": 197.3155187500009,
          "velocity": 0.7007874015748031,
          "duration": 0.11029375000001096
        },
        {
          "name": "A#4",
          "midi": 70,
          "time": 197.42581250000092,
          "velocity": 0.7244094488188977,
          "duration": 0.11029375000001096
        },
        {
          "name": "G4",
          "midi": 67,
          "time": 197.53610625000093,
          "velocity": 0.7401574803149606,
          "duration": 0.11029375000001096
        },
        {
          "name": "D4",
          "midi": 62,
          "time": 197.64640000000094,
          "velocity": 0.7165354330708661,
          "duration": 0.11029375000001096
        },
        {
          "name": "C4",
          "midi": 60,
          "time": 197.75669375000095,
          "velocity": 0.7322834645669292,
          "duration": 0.0877754427083346
        },
        {
          "name": "A1",
          "midi": 33,
          "time": 197.75669375000095,
          "velocity": 0.8346456692913385,
          "duration": 0.8823500000000024
        },
        {
          "name": "A2",
          "midi": 45,
          "time": 197.75669375000095,
          "velocity": 0.8346456692913385,
          "duration": 0.8823500000000024
        },
        {
          "name": "C#4",
          "midi": 61,
          "time": 197.84446919270928,
          "velocity": 0.7874015748031497,
          "duration": 0.0882349999999974
        },
        {
          "name": "D4",
          "midi": 62,
          "time": 197.93270419270928,
          "velocity": 0.7795275590551181,
          "duration": 0.0877754427083346
        },
        {
          "name": "D#4",
          "midi": 63,
          "time": 198.02047963541762,
          "velocity": 0.7874015748031497,
          "duration": 0.0877754427083346
        },
        {
          "name": "E4",
          "midi": 64,
          "time": 198.10825507812595,
          "velocity": 0.7795275590551181,
          "duration": 0.08961367187498581
        },
        {
          "name": "F4",
          "midi": 65,
          "time": 198.19786875000094,
          "velocity": 0.7637795275590551,
          "duration": 0.0877754427083346
        },
        {
          "name": "F#4",
          "midi": 66,
          "time": 198.28564419270927,
          "velocity": 0.7874015748031497,
          "duration": 0.0882349999999974
        },
        {
          "name": "G4",
          "midi": 67,
          "time": 198.37387919270927,
          "velocity": 0.7952755905511811,
          "duration": 0.0877754427083346
        },
        {
          "name": "G#4",
          "midi": 68,
          "time": 198.4616546354176,
          "velocity": 0.8031496062992126,
          "duration": 0.0877754427083346
        },
        {
          "name": "A4",
          "midi": 69,
          "time": 198.54943007812594,
          "velocity": 0.7716535433070866,
          "duration": 0.08961367187501423
        },
        {
          "name": "D5",
          "midi": 74,
          "time": 198.63904375000095,
          "velocity": 0.8188976377952756,
          "duration": 0.0877754427083346
        },
        {
          "name": "D2",
          "midi": 38,
          "time": 198.63904375000095,
          "velocity": 0.8346456692913385,
          "duration": 0.8823500000000024
        },
        {
          "name": "D3",
          "midi": 50,
          "time": 198.63904375000095,
          "velocity": 0.8346456692913385,
          "duration": 0.8823500000000024
        },
        {
          "name": "C#5",
          "midi": 73,
          "time": 198.72681919270929,
          "velocity": 0.7322834645669292,
          "duration": 0.0882349999999974
        },
        {
          "name": "C5",
          "midi": 72,
          "time": 198.81505419270928,
          "velocity": 0.7401574803149606,
          "duration": 0.0877754427083346
        },
        {
          "name": "B4",
          "midi": 71,
          "time": 198.90282963541762,
          "velocity": 0.7559055118110236,
          "duration": 0.0877754427083346
        },
        {
          "name": "A#4",
          "midi": 70,
          "time": 198.99060507812595,
          "velocity": 0.7480314960629921,
          "duration": 0.08961367187498581
        },
        {
          "name": "A4",
          "midi": 69,
          "time": 199.08021875000094,
          "velocity": 0.7322834645669292,
          "duration": 0.0877754427083346
        },
        {
          "name": "D#4",
          "midi": 63,
          "time": 199.16799419270927,
          "velocity": 0.7007874015748031,
          "duration": 0.0882349999999974
        },
        {
          "name": "D4",
          "midi": 62,
          "time": 199.25622919270927,
          "velocity": 0.7322834645669292,
          "duration": 0.0877754427083346
        },
        {
          "name": "C4",
          "midi": 60,
          "time": 199.3440046354176,
          "velocity": 0.7401574803149606,
          "duration": 0.0877754427083346
        },
        {
          "name": "A3",
          "midi": 57,
          "time": 199.43178007812594,
          "velocity": 0.7716535433070866,
          "duration": 0.08961367187501423
        },
        {
          "name": "A#4",
          "midi": 70,
          "time": 201.28609375000096,
          "velocity": 1,
          "duration": 0.2205874999999935
        },
        {
          "name": "D5",
          "midi": 74,
          "time": 201.28609375000096,
          "velocity": 1,
          "duration": 0.2205874999999935
        },
        {
          "name": "G5",
          "midi": 79,
          "time": 201.28609375000096,
          "velocity": 1,
          "duration": 0.2205874999999935
        },
        {
          "name": "G2",
          "midi": 43,
          "time": 201.28609375000096,
          "velocity": 0.952755905511811,
          "duration": 0.2205874999999935
        },
        {
          "name": "G3",
          "midi": 55,
          "time": 201.28609375000096,
          "velocity": 0.952755905511811,
          "duration": 0.2205874999999935
        },
        {
          "name": "A#4",
          "midi": 70,
          "time": 201.72726875000095,
          "velocity": 0.7007874015748031,
          "duration": 0.11029375000001096
        },
        {
          "name": "D5",
          "midi": 74,
          "time": 201.72726875000095,
          "velocity": 0.7007874015748031,
          "duration": 0.11029375000001096
        },
        {
          "name": "G3",
          "midi": 55,
          "time": 201.72726875000095,
          "velocity": 0.6929133858267716,
          "duration": 0.22058750000002192
        },
        {
          "name": "C5",
          "midi": 72,
          "time": 202.16844375000096,
          "velocity": 0.6850393700787402,
          "duration": 0.11029375000001096
        },
        {
          "name": "D#5",
          "midi": 75,
          "time": 202.16844375000096,
          "velocity": 0.6850393700787402,
          "duration": 0.11029375000001096
        },
        {
          "name": "A3",
          "midi": 57,
          "time": 202.16844375000096,
          "velocity": 0.6850393700787402,
          "duration": 0.22058750000002192
        },
        {
          "name": "A4",
          "midi": 69,
          "time": 202.60961875000098,
          "velocity": 0.6929133858267716,
          "duration": 0.11029375000001096
        },
        {
          "name": "C5",
          "midi": 72,
          "time": 202.60961875000098,
          "velocity": 0.6929133858267716,
          "duration": 0.11029375000001096
        },
        {
          "name": "F#3",
          "midi": 54,
          "time": 202.60961875000098,
          "velocity": 0.7007874015748031,
          "duration": 0.22058750000002192
        },
        {
          "name": "A#4",
          "midi": 70,
          "time": 203.050793750001,
          "velocity": 0.6850393700787402,
          "duration": 0.11029375000001096
        },
        {
          "name": "D5",
          "midi": 74,
          "time": 203.050793750001,
          "velocity": 0.6850393700787402,
          "duration": 0.11029375000001096
        },
        {
          "name": "G3",
          "midi": 55,
          "time": 203.050793750001,
          "velocity": 0.6850393700787402,
          "duration": 0.22058750000002192
        },
        {
          "name": "C5",
          "midi": 72,
          "time": 203.491968750001,
          "velocity": 0.7086614173228346,
          "duration": 0.11029375000001096
        },
        {
          "name": "D#5",
          "midi": 75,
          "time": 203.491968750001,
          "velocity": 0.7086614173228346,
          "duration": 0.11029375000001096
        },
        {
          "name": "G3",
          "midi": 55,
          "time": 203.491968750001,
          "velocity": 0.6929133858267716,
          "duration": 0.22058750000002192
        },
        {
          "name": "A#4",
          "midi": 70,
          "time": 203.93314375000102,
          "velocity": 0.6850393700787402,
          "duration": 0.2205874999999935
        },
        {
          "name": "D5",
          "midi": 74,
          "time": 203.93314375000102,
          "velocity": 0.6850393700787402,
          "duration": 0.2205874999999935
        },
        {
          "name": "D2",
          "midi": 38,
          "time": 203.93314375000102,
          "velocity": 0.8267716535433071,
          "duration": 0.441174999999987
        },
        {
          "name": "D3",
          "midi": 50,
          "time": 203.93314375000102,
          "velocity": 0.8267716535433071,
          "duration": 0.441174999999987
        },
        {
          "name": "A#4",
          "midi": 70,
          "time": 204.374318750001,
          "velocity": 0.9763779527559056,
          "duration": 0.441174999999987
        },
        {
          "name": "D5",
          "midi": 74,
          "time": 204.374318750001,
          "velocity": 0.9763779527559056,
          "duration": 0.441174999999987
        },
        {
          "name": "G5",
          "midi": 79,
          "time": 204.374318750001,
          "velocity": 0.9763779527559056,
          "duration": 0.441174999999987
        },
        {
          "name": "G2",
          "midi": 43,
          "time": 204.374318750001,
          "velocity": 0.9448818897637795,
          "duration": 0.441174999999987
        },
        {
          "name": "G3",
          "midi": 55,
          "time": 204.374318750001,
          "velocity": 0.9448818897637795,
          "duration": 0.441174999999987
        }
      ],
      "controlChanges": {
        "7": [
          {
            "number": 7,
            "time": 1.323525,
            "value": 1
          },
          {
            "number": 7,
            "time": 1.323525,
            "value": 0.7480314960629921
          }
        ],
        "10": [
          {
            "number": 10,
            "time": 1.323525,
            "value": 0.4015748031496063
          },
          {
            "number": 10,
            "time": 1.323525,
            "value": 0.4015748031496063
          }
        ],
        "64": [
          {
            "number": 64,
            "time": 1.323525,
            "value": 0
          },
          {
            "number": 64,
            "time": 1.323525,
            "value": 0
          },
          {
            "number": 64,
            "time": 1.7647,
            "value": 1
          },
          {
            "number": 64,
            "time": 1.7647,
            "value": 1
          },
          {
            "number": 64,
            "time": 2.6452117708333334,
            "value": 0
          },
          {
            "number": 64,
            "time": 2.6452117708333334,
            "value": 0
          },
          {
            "number": 64,
            "time": 2.64705,
            "value": 1
          },
          {
            "number": 64,
            "time": 2.64705,
            "value": 1
          },
          {
            "number": 64,
            "time": 3.527561770833334,
            "value": 0
          },
          {
            "number": 64,
            "time": 3.527561770833334,
            "value": 0
          },
          {
            "number": 64,
            "time": 3.5294000000000008,
            "value": 1
          },
          {
            "number": 64,
            "time": 3.5294000000000008,
            "value": 1
          },
          {
            "number": 64,
            "time": 4.409911770833334,
            "value": 0
          },
          {
            "number": 64,
            "time": 4.409911770833334,
            "value": 0
          },
          {
            "number": 64,
            "time": 4.4117500000000005,
            "value": 1
          },
          {
            "number": 64,
            "time": 4.4117500000000005,
            "value": 1
          },
          {
            "number": 64,
            "time": 5.292261770833333,
            "value": 0
          },
          {
            "number": 64,
            "time": 5.292261770833333,
            "value": 0
          },
          {
            "number": 64,
            "time": 5.294099999999999,
            "value": 1
          },
          {
            "number": 64,
            "time": 5.294099999999999,
            "value": 1
          },
          {
            "number": 64,
            "time": 6.174611770833332,
            "value": 0
          },
          {
            "number": 64,
            "time": 6.174611770833332,
            "value": 0
          },
          {
            "number": 64,
            "time": 6.176449999999998,
            "value": 1
          },
          {
            "number": 64,
            "time": 6.176449999999998,
            "value": 1
          },
          {
            "number": 64,
            "time": 7.056961770833331,
            "value": 0
          },
          {
            "number": 64,
            "time": 7.056961770833331,
            "value": 0
          },
          {
            "number": 64,
            "time": 7.058799999999997,
            "value": 1
          },
          {
            "number": 64,
            "time": 7.058799999999997,
            "value": 1
          },
          {
            "number": 64,
            "time": 7.93931177083333,
            "value": 0
          },
          {
            "number": 64,
            "time": 7.93931177083333,
            "value": 0
          },
          {
            "number": 64,
            "time": 7.941149999999996,
            "value": 1
          },
          {
            "number": 64,
            "time": 7.941149999999996,
            "value": 1
          },
          {
            "number": 64,
            "time": 8.82166177083333,
            "value": 0
          },
          {
            "number": 64,
            "time": 8.82166177083333,
            "value": 0
          },
          {
            "number": 64,
            "time": 8.823499999999997,
            "value": 1
          },
          {
            "number": 64,
            "time": 8.823499999999997,
            "value": 1
          },
          {
            "number": 64,
            "time": 9.704011770833333,
            "value": 0
          },
          {
            "number": 64,
            "time": 9.704011770833333,
            "value": 0
          },
          {
            "number": 64,
            "time": 9.70585,
            "value": 1
          },
          {
            "number": 64,
            "time": 9.70585,
            "value": 1
          },
          {
            "number": 64,
            "time": 10.586361770833335,
            "value": 0
          },
          {
            "number": 64,
            "time": 10.586361770833335,
            "value": 0
          },
          {
            "number": 64,
            "time": 10.588200000000002,
            "value": 1
          },
          {
            "number": 64,
            "time": 10.588200000000002,
            "value": 1
          },
          {
            "number": 64,
            "time": 11.468711770833337,
            "value": 0
          },
          {
            "number": 64,
            "time": 11.468711770833337,
            "value": 0
          },
          {
            "number": 64,
            "time": 11.470550000000005,
            "value": 1
          },
          {
            "number": 64,
            "time": 11.470550000000005,
            "value": 1
          },
          {
            "number": 64,
            "time": 12.35106177083334,
            "value": 0
          },
          {
            "number": 64,
            "time": 12.35106177083334,
            "value": 0
          },
          {
            "number": 64,
            "time": 12.352900000000007,
            "value": 1
          },
          {
            "number": 64,
            "time": 12.352900000000007,
            "value": 1
          },
          {
            "number": 64,
            "time": 13.233411770833342,
            "value": 0
          },
          {
            "number": 64,
            "time": 13.233411770833342,
            "value": 0
          },
          {
            "number": 64,
            "time": 13.23525000000001,
            "value": 1
          },
          {
            "number": 64,
            "time": 13.23525000000001,
            "value": 1
          },
          {
            "number": 64,
            "time": 14.115761770833345,
            "value": 0
          },
          {
            "number": 64,
            "time": 14.115761770833345,
            "value": 0
          },
          {
            "number": 64,
            "time": 14.117600000000012,
            "value": 1
          },
          {
            "number": 64,
            "time": 14.117600000000012,
            "value": 1
          },
          {
            "number": 64,
            "time": 14.998111770833347,
            "value": 0
          },
          {
            "number": 64,
            "time": 14.998111770833347,
            "value": 0
          },
          {
            "number": 64,
            "time": 14.999950000000014,
            "value": 1
          },
          {
            "number": 64,
            "time": 14.999950000000014,
            "value": 1
          },
          {
            "number": 64,
            "time": 15.88046177083335,
            "value": 0
          },
          {
            "number": 64,
            "time": 15.88046177083335,
            "value": 0
          },
          {
            "number": 64,
            "time": 15.882300000000017,
            "value": 1
          },
          {
            "number": 64,
            "time": 15.882300000000017,
            "value": 1
          },
          {
            "number": 64,
            "time": 16.76281177083335,
            "value": 0
          },
          {
            "number": 64,
            "time": 16.76281177083335,
            "value": 0
          },
          {
            "number": 64,
            "time": 16.764650000000014,
            "value": 1
          },
          {
            "number": 64,
            "time": 16.764650000000014,
            "value": 1
          },
          {
            "number": 64,
            "time": 17.645161770833347,
            "value": 0
          },
          {
            "number": 64,
            "time": 17.645161770833347,
            "value": 0
          },
          {
            "number": 64,
            "time": 17.647000000000013,
            "value": 1
          },
          {
            "number": 64,
            "time": 17.647000000000013,
            "value": 1
          },
          {
            "number": 64,
            "time": 18.527511770833346,
            "value": 0
          },
          {
            "number": 64,
            "time": 18.52935000000001,
            "value": 1
          },
          {
            "number": 64,
            "time": 19.40986177083334,
            "value": 0
          },
          {
            "number": 64,
            "time": 19.411700000000007,
            "value": 0
          },
          {
            "number": 64,
            "time": 19.411700000000007,
            "value": 1
          },
          {
            "number": 64,
            "time": 19.411700000000007,
            "value": 1
          },
          {
            "number": 64,
            "time": 20.29221177083334,
            "value": 0
          },
          {
            "number": 64,
            "time": 20.294050000000006,
            "value": 1
          },
          {
            "number": 64,
            "time": 20.294050000000006,
            "value": 1
          },
          {
            "number": 64,
            "time": 21.17456177083334,
            "value": 0
          },
          {
            "number": 64,
            "time": 21.17456177083334,
            "value": 0
          },
          {
            "number": 64,
            "time": 21.176400000000005,
            "value": 0
          },
          {
            "number": 64,
            "time": 21.176400000000005,
            "value": 1
          },
          {
            "number": 64,
            "time": 21.176400000000005,
            "value": 1
          },
          {
            "number": 64,
            "time": 22.056911770833338,
            "value": 0
          },
          {
            "number": 64,
            "time": 22.056911770833338,
            "value": 0
          },
          {
            "number": 64,
            "time": 22.058750000000003,
            "value": 1
          },
          {
            "number": 64,
            "time": 22.058750000000003,
            "value": 1
          },
          {
            "number": 64,
            "time": 22.939261770833337,
            "value": 0
          },
          {
            "number": 64,
            "time": 22.941100000000002,
            "value": 1
          },
          {
            "number": 64,
            "time": 23.82161177083334,
            "value": 0
          },
          {
            "number": 64,
            "time": 23.823450000000005,
            "value": 1
          },
          {
            "number": 64,
            "time": 24.703961770833338,
            "value": 0
          },
          {
            "number": 64,
            "time": 24.705800000000004,
            "value": 0
          },
          {
            "number": 64,
            "time": 24.705800000000004,
            "value": 1
          },
          {
            "number": 64,
            "time": 24.705800000000004,
            "value": 1
          },
          {
            "number": 64,
            "time": 25.586311770833337,
            "value": 0
          },
          {
            "number": 64,
            "time": 25.588150000000002,
            "value": 1
          },
          {
            "number": 64,
            "time": 25.588150000000002,
            "value": 1
          },
          {
            "number": 64,
            "time": 26.029325000000004,
            "value": 0
          },
          {
            "number": 64,
            "time": 26.468661770833336,
            "value": 0
          },
          {
            "number": 64,
            "time": 26.468661770833336,
            "value": 0
          },
          {
            "number": 64,
            "time": 26.4705,
            "value": 1
          },
          {
            "number": 64,
            "time": 26.4705,
            "value": 1
          },
          {
            "number": 64,
            "time": 26.4705,
            "value": 1
          },
          {
            "number": 64,
            "time": 26.4705,
            "value": 1
          },
          {
            "number": 64,
            "time": 27.35101177083334,
            "value": 0
          },
          {
            "number": 64,
            "time": 27.35101177083334,
            "value": 0
          },
          {
            "number": 64,
            "time": 27.35101177083334,
            "value": 0
          },
          {
            "number": 64,
            "time": 27.35101177083334,
            "value": 0
          },
          {
            "number": 64,
            "time": 27.352850000000004,
            "value": 1
          },
          {
            "number": 64,
            "time": 27.352850000000004,
            "value": 1
          },
          {
            "number": 64,
            "time": 27.352850000000004,
            "value": 1
          },
          {
            "number": 64,
            "time": 27.352850000000004,
            "value": 1
          },
          {
            "number": 64,
            "time": 28.233361770833337,
            "value": 0
          },
          {
            "number": 64,
            "time": 28.233361770833337,
            "value": 0
          },
          {
            "number": 64,
            "time": 28.233361770833337,
            "value": 0
          },
          {
            "number": 64,
            "time": 28.233361770833337,
            "value": 0
          },
          {
            "number": 64,
            "time": 28.235200000000003,
            "value": 1
          },
          {
            "number": 64,
            "time": 28.235200000000003,
            "value": 1
          },
          {
            "number": 64,
            "time": 29.11571177083334,
            "value": 0
          },
          {
            "number": 64,
            "time": 29.11571177083334,
            "value": 0
          },
          {
            "number": 64,
            "time": 29.117550000000005,
            "value": 1
          },
          {
            "number": 64,
            "time": 29.117550000000005,
            "value": 1
          },
          {
            "number": 64,
            "time": 29.998061770833342,
            "value": 0
          },
          {
            "number": 64,
            "time": 29.998061770833342,
            "value": 0
          },
          {
            "number": 64,
            "time": 29.999900000000007,
            "value": 1
          },
          {
            "number": 64,
            "time": 29.999900000000007,
            "value": 1
          },
          {
            "number": 64,
            "time": 30.66166250000001,
            "value": 1
          },
          {
            "number": 64,
            "time": 30.88041177083334,
            "value": 0
          },
          {
            "number": 64,
            "time": 30.88041177083334,
            "value": 0
          },
          {
            "number": 64,
            "time": 30.882250000000006,
            "value": 1
          },
          {
            "number": 64,
            "time": 31.54217427083334,
            "value": 0
          },
          {
            "number": 64,
            "time": 31.762761770833336,
            "value": 0
          },
          {
            "number": 64,
            "time": 31.7646,
            "value": 1
          },
          {
            "number": 64,
            "time": 31.7646,
            "value": 1
          },
          {
            "number": 64,
            "time": 32.64511177083334,
            "value": 0
          },
          {
            "number": 64,
            "time": 32.64511177083334,
            "value": 0
          },
          {
            "number": 64,
            "time": 32.646950000000004,
            "value": 1
          },
          {
            "number": 64,
            "time": 32.646950000000004,
            "value": 1
          },
          {
            "number": 64,
            "time": 33.52746177083334,
            "value": 0
          },
          {
            "number": 64,
            "time": 33.52746177083334,
            "value": 0
          },
          {
            "number": 64,
            "time": 33.529300000000006,
            "value": 1
          },
          {
            "number": 64,
            "time": 33.529300000000006,
            "value": 1
          },
          {
            "number": 64,
            "time": 34.19106249999999,
            "value": 1
          },
          {
            "number": 64,
            "time": 34.409811770833315,
            "value": 0
          },
          {
            "number": 64,
            "time": 34.409811770833315,
            "value": 0
          },
          {
            "number": 64,
            "time": 34.409811770833315,
            "value": 0
          },
          {
            "number": 64,
            "time": 34.41164999999998,
            "value": 1
          },
          {
            "number": 64,
            "time": 34.41164999999998,
            "value": 1
          },
          {
            "number": 64,
            "time": 34.41164999999998,
            "value": 1
          },
          {
            "number": 64,
            "time": 35.29216177083332,
            "value": 0
          },
          {
            "number": 64,
            "time": 35.29216177083332,
            "value": 0
          },
          {
            "number": 64,
            "time": 35.29216177083332,
            "value": 0
          },
          {
            "number": 64,
            "time": 35.29399999999998,
            "value": 1
          },
          {
            "number": 64,
            "time": 36.17451177083332,
            "value": 0
          },
          {
            "number": 64,
            "time": 36.176349999999985,
            "value": 1
          },
          {
            "number": 64,
            "time": 37.05686177083332,
            "value": 0
          },
          {
            "number": 64,
            "time": 37.05869999999999,
            "value": 1
          },
          {
            "number": 64,
            "time": 37.05869999999999,
            "value": 1
          },
          {
            "number": 64,
            "time": 37.939211770833296,
            "value": 0
          },
          {
            "number": 64,
            "time": 37.94104999999996,
            "value": 1
          },
          {
            "number": 64,
            "time": 38.82156177083327,
            "value": 0
          },
          {
            "number": 64,
            "time": 38.823399999999936,
            "value": 0
          },
          {
            "number": 64,
            "time": 38.823399999999936,
            "value": 1
          },
          {
            "number": 64,
            "time": 40.58809999999988,
            "value": 0
          },
          {
            "number": 64,
            "time": 47.20572499999982,
            "value": 1
          },
          {
            "number": 64,
            "time": 47.64689999999981,
            "value": 1
          },
          {
            "number": 64,
            "time": 48.52741177083314,
            "value": 0
          },
          {
            "number": 64,
            "time": 48.529249999999806,
            "value": 0
          },
          {
            "number": 64,
            "time": 48.529249999999806,
            "value": 1
          },
          {
            "number": 64,
            "time": 48.529249999999806,
            "value": 1
          },
          {
            "number": 64,
            "time": 49.409761770833136,
            "value": 0
          },
          {
            "number": 64,
            "time": 49.409761770833136,
            "value": 0
          },
          {
            "number": 64,
            "time": 49.4115999999998,
            "value": 1
          },
          {
            "number": 64,
            "time": 49.4115999999998,
            "value": 1
          },
          {
            "number": 64,
            "time": 50.292111770833124,
            "value": 0
          },
          {
            "number": 64,
            "time": 50.292111770833124,
            "value": 0
          },
          {
            "number": 64,
            "time": 50.29394999999979,
            "value": 1
          },
          {
            "number": 64,
            "time": 50.29394999999979,
            "value": 1
          },
          {
            "number": 64,
            "time": 50.29394999999979,
            "value": 1
          },
          {
            "number": 64,
            "time": 51.17446177083312,
            "value": 0
          },
          {
            "number": 64,
            "time": 51.17446177083312,
            "value": 0
          },
          {
            "number": 64,
            "time": 51.17446177083312,
            "value": 0
          },
          {
            "number": 64,
            "time": 51.176299999999785,
            "value": 1
          },
          {
            "number": 64,
            "time": 51.176299999999785,
            "value": 1
          },
          {
            "number": 64,
            "time": 52.20341054687478,
            "value": 0
          },
          {
            "number": 64,
            "time": 52.205248776041444,
            "value": 1
          },
          {
            "number": 64,
            "time": 52.940999999999775,
            "value": 0
          },
          {
            "number": 64,
            "time": 52.940999999999775,
            "value": 1
          },
          {
            "number": 64,
            "time": 53.08576054687477,
            "value": 0
          },
          {
            "number": 64,
            "time": 53.08759877604144,
            "value": 1
          },
          {
            "number": 64,
            "time": 53.821511770833105,
            "value": 0
          },
          {
            "number": 64,
            "time": 53.82334999999977,
            "value": 1
          },
          {
            "number": 64,
            "time": 53.82334999999977,
            "value": 1
          },
          {
            "number": 64,
            "time": 53.968110546874776,
            "value": 0
          },
          {
            "number": 64,
            "time": 53.96994877604144,
            "value": 1
          },
          {
            "number": 64,
            "time": 54.7038617708331,
            "value": 0
          },
          {
            "number": 64,
            "time": 54.7038617708331,
            "value": 0
          },
          {
            "number": 64,
            "time": 54.7038617708331,
            "value": 0
          },
          {
            "number": 64,
            "time": 61.76449999999968,
            "value": 1
          },
          {
            "number": 64,
            "time": 61.76449999999968,
            "value": 1
          },
          {
            "number": 64,
            "time": 61.76449999999968,
            "value": 1
          },
          {
            "number": 64,
            "time": 62.645011770833,
            "value": 0
          },
          {
            "number": 64,
            "time": 62.645011770833,
            "value": 0
          },
          {
            "number": 64,
            "time": 62.645011770833,
            "value": 0
          },
          {
            "number": 64,
            "time": 62.64684999999967,
            "value": 1
          },
          {
            "number": 64,
            "time": 62.64684999999967,
            "value": 1
          },
          {
            "number": 64,
            "time": 62.64684999999967,
            "value": 1
          },
          {
            "number": 64,
            "time": 63.527361770832975,
            "value": 0
          },
          {
            "number": 64,
            "time": 63.527361770832975,
            "value": 0
          },
          {
            "number": 64,
            "time": 63.527361770832975,
            "value": 0
          },
          {
            "number": 64,
            "time": 63.52919999999964,
            "value": 1
          },
          {
            "number": 64,
            "time": 63.52919999999964,
            "value": 1
          },
          {
            "number": 64,
            "time": 64.40971177083296,
            "value": 0
          },
          {
            "number": 64,
            "time": 64.40971177083296,
            "value": 0
          },
          {
            "number": 64,
            "time": 64.46669687499963,
            "value": 1
          },
          {
            "number": 64,
            "time": 64.46669687499963,
            "value": 1
          },
          {
            "number": 64,
            "time": 65.34720864583294,
            "value": 0
          },
          {
            "number": 64,
            "time": 65.34720864583294,
            "value": 0
          },
          {
            "number": 64,
            "time": 65.3490468749996,
            "value": 1
          },
          {
            "number": 64,
            "time": 65.3490468749996,
            "value": 1
          },
          {
            "number": 64,
            "time": 66.22955864583291,
            "value": 0
          },
          {
            "number": 64,
            "time": 66.23139687499958,
            "value": 1
          },
          {
            "number": 64,
            "time": 66.89315937499956,
            "value": 0
          },
          {
            "number": 64,
            "time": 67.11190864583288,
            "value": 0
          },
          {
            "number": 64,
            "time": 67.11374687499955,
            "value": 1
          },
          {
            "number": 64,
            "time": 67.11374687499955,
            "value": 1
          },
          {
            "number": 64,
            "time": 67.99425864583286,
            "value": 0
          },
          {
            "number": 64,
            "time": 67.99609687499952,
            "value": 1
          },
          {
            "number": 64,
            "time": 67.99609687499952,
            "value": 1
          },
          {
            "number": 64,
            "time": 68.10455239583285,
            "value": 0
          },
          {
            "number": 64,
            "time": 68.87660864583283,
            "value": 0
          },
          {
            "number": 64,
            "time": 68.87660864583283,
            "value": 0
          },
          {
            "number": 64,
            "time": 68.8784468749995,
            "value": 1
          },
          {
            "number": 64,
            "time": 69.75895864583282,
            "value": 0
          },
          {
            "number": 64,
            "time": 69.76079687499949,
            "value": 1
          },
          {
            "number": 64,
            "time": 69.76079687499949,
            "value": 1
          },
          {
            "number": 64,
            "time": 70.6413086458328,
            "value": 0
          },
          {
            "number": 64,
            "time": 70.64314687499946,
            "value": 0
          },
          {
            "number": 64,
            "time": 70.64314687499946,
            "value": 1
          },
          {
            "number": 64,
            "time": 70.64314687499946,
            "value": 1
          },
          {
            "number": 64,
            "time": 71.52365864583277,
            "value": 0
          },
          {
            "number": 64,
            "time": 71.52365864583277,
            "value": 0
          },
          {
            "number": 64,
            "time": 71.52549687499943,
            "value": 1
          },
          {
            "number": 64,
            "time": 71.52549687499943,
            "value": 1
          },
          {
            "number": 64,
            "time": 72.40600864583274,
            "value": 0
          },
          {
            "number": 64,
            "time": 72.40600864583274,
            "value": 0
          },
          {
            "number": 64,
            "time": 72.40784687499941,
            "value": 1
          },
          {
            "number": 64,
            "time": 73.28835864583273,
            "value": 0
          },
          {
            "number": 64,
            "time": 73.2901968749994,
            "value": 1
          },
          {
            "number": 64,
            "time": 73.2901968749994,
            "value": 1
          },
          {
            "number": 64,
            "time": 73.2901968749994,
            "value": 1
          },
          {
            "number": 64,
            "time": 74.1707086458327,
            "value": 0
          },
          {
            "number": 64,
            "time": 74.1707086458327,
            "value": 0
          },
          {
            "number": 64,
            "time": 74.1707086458327,
            "value": 0
          },
          {
            "number": 64,
            "time": 74.17254687499937,
            "value": 1
          },
          {
            "number": 64,
            "time": 74.17254687499937,
            "value": 1
          },
          {
            "number": 64,
            "time": 75.05305864583269,
            "value": 0
          },
          {
            "number": 64,
            "time": 75.05305864583269,
            "value": 0
          },
          {
            "number": 64,
            "time": 75.05489687499936,
            "value": 1
          },
          {
            "number": 64,
            "time": 75.05489687499936,
            "value": 1
          },
          {
            "number": 64,
            "time": 75.93540864583267,
            "value": 0
          },
          {
            "number": 64,
            "time": 75.93540864583267,
            "value": 0
          },
          {
            "number": 64,
            "time": 75.93724687499933,
            "value": 1
          },
          {
            "number": 64,
            "time": 75.93724687499933,
            "value": 1
          },
          {
            "number": 64,
            "time": 77.70194687499928,
            "value": 0
          },
          {
            "number": 64,
            "time": 77.70194687499928,
            "value": 1
          },
          {
            "number": 64,
            "time": 77.70194687499928,
            "value": 0
          },
          {
            "number": 64,
            "time": 77.70194687499928,
            "value": 1
          },
          {
            "number": 64,
            "time": 78.5824586458326,
            "value": 0
          },
          {
            "number": 64,
            "time": 78.5824586458326,
            "value": 0
          },
          {
            "number": 64,
            "time": 78.58429687499927,
            "value": 1
          },
          {
            "number": 64,
            "time": 78.58429687499927,
            "value": 1
          },
          {
            "number": 64,
            "time": 79.46480864583258,
            "value": 0
          },
          {
            "number": 64,
            "time": 79.46480864583258,
            "value": 0
          },
          {
            "number": 64,
            "time": 79.46664687499924,
            "value": 1
          },
          {
            "number": 64,
            "time": 79.46664687499924,
            "value": 1
          },
          {
            "number": 64,
            "time": 80.34715864583255,
            "value": 0
          },
          {
            "number": 64,
            "time": 80.34715864583255,
            "value": 0
          },
          {
            "number": 64,
            "time": 80.34899687499922,
            "value": 1
          },
          {
            "number": 64,
            "time": 80.34899687499922,
            "value": 1
          },
          {
            "number": 64,
            "time": 81.22950864583252,
            "value": 0
          },
          {
            "number": 64,
            "time": 81.22950864583252,
            "value": 0
          },
          {
            "number": 64,
            "time": 81.23134687499919,
            "value": 1
          },
          {
            "number": 64,
            "time": 81.23134687499919,
            "value": 1
          },
          {
            "number": 64,
            "time": 82.1118586458325,
            "value": 0
          },
          {
            "number": 64,
            "time": 82.1118586458325,
            "value": 0
          },
          {
            "number": 64,
            "time": 82.11369687499916,
            "value": 1
          },
          {
            "number": 64,
            "time": 82.11369687499916,
            "value": 1
          },
          {
            "number": 64,
            "time": 82.99420864583247,
            "value": 0
          },
          {
            "number": 64,
            "time": 82.99420864583247,
            "value": 0
          },
          {
            "number": 64,
            "time": 82.99604687499914,
            "value": 1
          },
          {
            "number": 64,
            "time": 82.99604687499914,
            "value": 1
          },
          {
            "number": 64,
            "time": 83.8765586458325,
            "value": 0
          },
          {
            "number": 64,
            "time": 83.8765586458325,
            "value": 0
          },
          {
            "number": 64,
            "time": 83.87839687499917,
            "value": 1
          },
          {
            "number": 64,
            "time": 83.87839687499917,
            "value": 1
          },
          {
            "number": 64,
            "time": 84.75890864583253,
            "value": 0
          },
          {
            "number": 64,
            "time": 84.75890864583253,
            "value": 0
          },
          {
            "number": 64,
            "time": 84.7607468749992,
            "value": 1
          },
          {
            "number": 64,
            "time": 84.7607468749992,
            "value": 1
          },
          {
            "number": 64,
            "time": 85.64125864583256,
            "value": 0
          },
          {
            "number": 64,
            "time": 85.64125864583256,
            "value": 0
          },
          {
            "number": 64,
            "time": 85.64309687499923,
            "value": 1
          },
          {
            "number": 64,
            "time": 85.64309687499923,
            "value": 1
          },
          {
            "number": 64,
            "time": 86.52360864583257,
            "value": 0
          },
          {
            "number": 64,
            "time": 86.52360864583257,
            "value": 0
          },
          {
            "number": 64,
            "time": 86.52544687499923,
            "value": 1
          },
          {
            "number": 64,
            "time": 86.52544687499923,
            "value": 1
          },
          {
            "number": 64,
            "time": 87.40595864583256,
            "value": 0
          },
          {
            "number": 64,
            "time": 87.40595864583256,
            "value": 0
          },
          {
            "number": 64,
            "time": 87.40779687499922,
            "value": 1
          },
          {
            "number": 64,
            "time": 87.40779687499922,
            "value": 1
          },
          {
            "number": 64,
            "time": 88.28830864583253,
            "value": 0
          },
          {
            "number": 64,
            "time": 88.28830864583253,
            "value": 0
          },
          {
            "number": 64,
            "time": 88.2901468749992,
            "value": 1
          },
          {
            "number": 64,
            "time": 88.2901468749992,
            "value": 1
          },
          {
            "number": 64,
            "time": 89.17065864583252,
            "value": 0
          },
          {
            "number": 64,
            "time": 89.17065864583252,
            "value": 0
          },
          {
            "number": 64,
            "time": 89.17249687499918,
            "value": 1
          },
          {
            "number": 64,
            "time": 89.17249687499918,
            "value": 1
          },
          {
            "number": 64,
            "time": 90.05300864583249,
            "value": 0
          },
          {
            "number": 64,
            "time": 90.05300864583249,
            "value": 0
          },
          {
            "number": 64,
            "time": 90.05484687499916,
            "value": 1
          },
          {
            "number": 64,
            "time": 90.05484687499916,
            "value": 1
          },
          {
            "number": 64,
            "time": 90.9353586458325,
            "value": 0
          },
          {
            "number": 64,
            "time": 90.9353586458325,
            "value": 0
          },
          {
            "number": 64,
            "time": 90.93719687499916,
            "value": 1
          },
          {
            "number": 64,
            "time": 90.93719687499916,
            "value": 1
          },
          {
            "number": 64,
            "time": 91.8177086458325,
            "value": 0
          },
          {
            "number": 64,
            "time": 91.8177086458325,
            "value": 0
          },
          {
            "number": 64,
            "time": 91.81954687499916,
            "value": 1
          },
          {
            "number": 64,
            "time": 91.81954687499916,
            "value": 1
          },
          {
            "number": 64,
            "time": 92.70005864583247,
            "value": 0
          },
          {
            "number": 64,
            "time": 92.70005864583247,
            "value": 0
          },
          {
            "number": 64,
            "time": 92.70189687499914,
            "value": 1
          },
          {
            "number": 64,
            "time": 92.70189687499914,
            "value": 1
          },
          {
            "number": 64,
            "time": 93.58240864583252,
            "value": 0
          },
          {
            "number": 64,
            "time": 93.58240864583252,
            "value": 0
          },
          {
            "number": 64,
            "time": 93.58424687499918,
            "value": 1
          },
          {
            "number": 64,
            "time": 93.58424687499918,
            "value": 1
          },
          {
            "number": 64,
            "time": 94.46475864583249,
            "value": 0
          },
          {
            "number": 64,
            "time": 94.46475864583249,
            "value": 0
          },
          {
            "number": 64,
            "time": 94.46659687499915,
            "value": 1
          },
          {
            "number": 64,
            "time": 94.46659687499915,
            "value": 1
          },
          {
            "number": 64,
            "time": 95.34710864583246,
            "value": 0
          },
          {
            "number": 64,
            "time": 95.34710864583246,
            "value": 0
          },
          {
            "number": 64,
            "time": 95.34894687499913,
            "value": 1
          },
          {
            "number": 64,
            "time": 95.34894687499913,
            "value": 1
          },
          {
            "number": 64,
            "time": 96.22945864583244,
            "value": 0
          },
          {
            "number": 64,
            "time": 96.22945864583244,
            "value": 0
          },
          {
            "number": 64,
            "time": 96.2312968749991,
            "value": 1
          },
          {
            "number": 64,
            "time": 96.2312968749991,
            "value": 1
          },
          {
            "number": 64,
            "time": 97.11180864583241,
            "value": 0
          },
          {
            "number": 64,
            "time": 97.11180864583241,
            "value": 0
          },
          {
            "number": 64,
            "time": 97.11364687499908,
            "value": 1
          },
          {
            "number": 64,
            "time": 97.11364687499908,
            "value": 1
          },
          {
            "number": 64,
            "time": 97.99415864583241,
            "value": 0
          },
          {
            "number": 64,
            "time": 97.99415864583241,
            "value": 0
          },
          {
            "number": 64,
            "time": 97.99599687499908,
            "value": 1
          },
          {
            "number": 64,
            "time": 97.99599687499908,
            "value": 1
          },
          {
            "number": 64,
            "time": 98.87650864583242,
            "value": 0
          },
          {
            "number": 64,
            "time": 98.87650864583242,
            "value": 0
          },
          {
            "number": 64,
            "time": 98.87834687499908,
            "value": 1
          },
          {
            "number": 64,
            "time": 98.87834687499908,
            "value": 1
          },
          {
            "number": 64,
            "time": 99.75885864583242,
            "value": 0
          },
          {
            "number": 64,
            "time": 99.76069687499908,
            "value": 1
          },
          {
            "number": 64,
            "time": 100.64120864583242,
            "value": 0
          },
          {
            "number": 64,
            "time": 102.40774687499909,
            "value": 0
          },
          {
            "number": 64,
            "time": 102.40774687499909,
            "value": 1
          },
          {
            "number": 64,
            "time": 102.40774687499909,
            "value": 1
          },
          {
            "number": 64,
            "time": 103.2882586458324,
            "value": 0
          },
          {
            "number": 64,
            "time": 103.2882586458324,
            "value": 0
          },
          {
            "number": 64,
            "time": 103.29009687499907,
            "value": 1
          },
          {
            "number": 64,
            "time": 103.29009687499907,
            "value": 1
          },
          {
            "number": 64,
            "time": 104.17060864583237,
            "value": 0
          },
          {
            "number": 64,
            "time": 104.17060864583237,
            "value": 0
          },
          {
            "number": 64,
            "time": 104.17244687499904,
            "value": 1
          },
          {
            "number": 64,
            "time": 104.17244687499904,
            "value": 1
          },
          {
            "number": 64,
            "time": 105.05295864583235,
            "value": 0
          },
          {
            "number": 64,
            "time": 105.05295864583235,
            "value": 0
          },
          {
            "number": 64,
            "time": 105.05479687499901,
            "value": 1
          },
          {
            "number": 64,
            "time": 105.05479687499901,
            "value": 1
          },
          {
            "number": 64,
            "time": 105.93530864583232,
            "value": 0
          },
          {
            "number": 64,
            "time": 105.93530864583232,
            "value": 0
          },
          {
            "number": 64,
            "time": 105.93714687499899,
            "value": 1
          },
          {
            "number": 64,
            "time": 106.8176586458323,
            "value": 0
          },
          {
            "number": 64,
            "time": 106.81949687499896,
            "value": 1
          },
          {
            "number": 64,
            "time": 106.81949687499896,
            "value": 1
          },
          {
            "number": 64,
            "time": 107.70000864583227,
            "value": 0
          },
          {
            "number": 64,
            "time": 107.70000864583227,
            "value": 0
          },
          {
            "number": 64,
            "time": 107.70184687499894,
            "value": 1
          },
          {
            "number": 64,
            "time": 107.70184687499894,
            "value": 1
          },
          {
            "number": 64,
            "time": 108.58235864583224,
            "value": 0
          },
          {
            "number": 64,
            "time": 108.58235864583224,
            "value": 0
          },
          {
            "number": 64,
            "time": 108.58419687499891,
            "value": 1
          },
          {
            "number": 64,
            "time": 108.58419687499891,
            "value": 1
          },
          {
            "number": 64,
            "time": 109.46470864583222,
            "value": 0
          },
          {
            "number": 64,
            "time": 109.46470864583222,
            "value": 0
          },
          {
            "number": 64,
            "time": 109.46654687499888,
            "value": 1
          },
          {
            "number": 64,
            "time": 109.46654687499888,
            "value": 1
          },
          {
            "number": 64,
            "time": 110.34705864583219,
            "value": 0
          },
          {
            "number": 64,
            "time": 110.34705864583219,
            "value": 0
          },
          {
            "number": 64,
            "time": 110.34889687499886,
            "value": 1
          },
          {
            "number": 64,
            "time": 110.34889687499886,
            "value": 1
          },
          {
            "number": 64,
            "time": 111.22940864583217,
            "value": 0
          },
          {
            "number": 64,
            "time": 111.22940864583217,
            "value": 0
          },
          {
            "number": 64,
            "time": 111.23124687499883,
            "value": 1
          },
          {
            "number": 64,
            "time": 111.23124687499883,
            "value": 1
          },
          {
            "number": 64,
            "time": 112.11175864583214,
            "value": 0
          },
          {
            "number": 64,
            "time": 112.11175864583214,
            "value": 0
          },
          {
            "number": 64,
            "time": 112.1135968749988,
            "value": 1
          },
          {
            "number": 64,
            "time": 112.1135968749988,
            "value": 1
          },
          {
            "number": 64,
            "time": 112.99410864583211,
            "value": 0
          },
          {
            "number": 64,
            "time": 112.99594687499878,
            "value": 0
          },
          {
            "number": 64,
            "time": 112.99594687499878,
            "value": 1
          },
          {
            "number": 64,
            "time": 112.99594687499878,
            "value": 1
          },
          {
            "number": 64,
            "time": 113.87645864583209,
            "value": 0
          },
          {
            "number": 64,
            "time": 113.87645864583209,
            "value": 0
          },
          {
            "number": 64,
            "time": 113.87829687499875,
            "value": 1
          },
          {
            "number": 64,
            "time": 113.87829687499875,
            "value": 1
          },
          {
            "number": 64,
            "time": 114.75880864583206,
            "value": 0
          },
          {
            "number": 64,
            "time": 114.75880864583206,
            "value": 0
          },
          {
            "number": 64,
            "time": 114.76064687499873,
            "value": 1
          },
          {
            "number": 64,
            "time": 114.76064687499873,
            "value": 1
          },
          {
            "number": 64,
            "time": 115.64115864583204,
            "value": 0
          },
          {
            "number": 64,
            "time": 115.64115864583204,
            "value": 0
          },
          {
            "number": 64,
            "time": 115.6429968749987,
            "value": 1
          },
          {
            "number": 64,
            "time": 115.6429968749987,
            "value": 1
          },
          {
            "number": 64,
            "time": 116.52350864583201,
            "value": 0
          },
          {
            "number": 64,
            "time": 116.52350864583201,
            "value": 0
          },
          {
            "number": 64,
            "time": 116.52534687499868,
            "value": 1
          },
          {
            "number": 64,
            "time": 116.52534687499868,
            "value": 1
          },
          {
            "number": 64,
            "time": 117.40585864583198,
            "value": 0
          },
          {
            "number": 64,
            "time": 117.40585864583198,
            "value": 0
          },
          {
            "number": 64,
            "time": 117.40769687499865,
            "value": 1
          },
          {
            "number": 64,
            "time": 117.40769687499865,
            "value": 1
          },
          {
            "number": 64,
            "time": 118.28820864583196,
            "value": 0
          },
          {
            "number": 64,
            "time": 118.28820864583196,
            "value": 0
          },
          {
            "number": 64,
            "time": 118.29004687499862,
            "value": 1
          },
          {
            "number": 64,
            "time": 118.29004687499862,
            "value": 1
          },
          {
            "number": 64,
            "time": 119.17055864583193,
            "value": 0
          },
          {
            "number": 64,
            "time": 119.1723968749986,
            "value": 1
          },
          {
            "number": 64,
            "time": 120.0529086458319,
            "value": 0
          },
          {
            "number": 64,
            "time": 120.05474687499857,
            "value": 0
          },
          {
            "number": 64,
            "time": 120.05474687499857,
            "value": 1
          },
          {
            "number": 64,
            "time": 120.05474687499857,
            "value": 1
          },
          {
            "number": 64,
            "time": 120.93525864583188,
            "value": 0
          },
          {
            "number": 64,
            "time": 120.93709687499855,
            "value": 1
          },
          {
            "number": 64,
            "time": 120.93709687499855,
            "value": 1
          },
          {
            "number": 64,
            "time": 121.81760864583185,
            "value": 0
          },
          {
            "number": 64,
            "time": 121.81760864583185,
            "value": 0
          },
          {
            "number": 64,
            "time": 121.81944687499852,
            "value": 0
          },
          {
            "number": 64,
            "time": 121.81944687499852,
            "value": 1
          },
          {
            "number": 64,
            "time": 121.81944687499852,
            "value": 1
          },
          {
            "number": 64,
            "time": 122.69995864583183,
            "value": 0
          },
          {
            "number": 64,
            "time": 122.69995864583183,
            "value": 0
          },
          {
            "number": 64,
            "time": 122.7017968749985,
            "value": 1
          },
          {
            "number": 64,
            "time": 122.7017968749985,
            "value": 1
          },
          {
            "number": 64,
            "time": 123.5823086458318,
            "value": 0
          },
          {
            "number": 64,
            "time": 123.58414687499847,
            "value": 1
          },
          {
            "number": 64,
            "time": 124.46465864583179,
            "value": 0
          },
          {
            "number": 64,
            "time": 124.46649687499846,
            "value": 1
          },
          {
            "number": 64,
            "time": 125.34700864583178,
            "value": 0
          },
          {
            "number": 64,
            "time": 125.34884687499844,
            "value": 0
          },
          {
            "number": 64,
            "time": 125.34884687499844,
            "value": 1
          },
          {
            "number": 64,
            "time": 125.34884687499844,
            "value": 1
          },
          {
            "number": 64,
            "time": 126.22935864583175,
            "value": 0
          },
          {
            "number": 64,
            "time": 126.23119687499842,
            "value": 1
          },
          {
            "number": 64,
            "time": 126.23119687499842,
            "value": 1
          },
          {
            "number": 64,
            "time": 126.6723718749984,
            "value": 0
          },
          {
            "number": 64,
            "time": 127.11170864583173,
            "value": 0
          },
          {
            "number": 64,
            "time": 127.11170864583173,
            "value": 0
          },
          {
            "number": 64,
            "time": 127.11354687499839,
            "value": 1
          },
          {
            "number": 64,
            "time": 127.11354687499839,
            "value": 1
          },
          {
            "number": 64,
            "time": 127.11354687499839,
            "value": 1
          },
          {
            "number": 64,
            "time": 127.11354687499839,
            "value": 1
          },
          {
            "number": 64,
            "time": 127.9940586458317,
            "value": 0
          },
          {
            "number": 64,
            "time": 127.9940586458317,
            "value": 0
          },
          {
            "number": 64,
            "time": 127.9940586458317,
            "value": 0
          },
          {
            "number": 64,
            "time": 127.9940586458317,
            "value": 0
          },
          {
            "number": 64,
            "time": 127.99589687499837,
            "value": 1
          },
          {
            "number": 64,
            "time": 127.99589687499837,
            "value": 1
          },
          {
            "number": 64,
            "time": 127.99589687499837,
            "value": 1
          },
          {
            "number": 64,
            "time": 127.99589687499837,
            "value": 1
          },
          {
            "number": 64,
            "time": 128.8764086458317,
            "value": 0
          },
          {
            "number": 64,
            "time": 128.8764086458317,
            "value": 0
          },
          {
            "number": 64,
            "time": 128.8764086458317,
            "value": 0
          },
          {
            "number": 64,
            "time": 128.8764086458317,
            "value": 0
          },
          {
            "number": 64,
            "time": 128.87824687499838,
            "value": 1
          },
          {
            "number": 64,
            "time": 128.87824687499838,
            "value": 1
          },
          {
            "number": 64,
            "time": 129.7587586458318,
            "value": 0
          },
          {
            "number": 64,
            "time": 129.7587586458318,
            "value": 0
          },
          {
            "number": 64,
            "time": 129.76059687499847,
            "value": 1
          },
          {
            "number": 64,
            "time": 129.76059687499847,
            "value": 1
          },
          {
            "number": 64,
            "time": 130.64110864583188,
            "value": 0
          },
          {
            "number": 64,
            "time": 130.64110864583188,
            "value": 0
          },
          {
            "number": 64,
            "time": 130.64294687499856,
            "value": 1
          },
          {
            "number": 64,
            "time": 130.64294687499856,
            "value": 1
          },
          {
            "number": 64,
            "time": 131.30470937499857,
            "value": 1
          },
          {
            "number": 64,
            "time": 131.5234586458319,
            "value": 0
          },
          {
            "number": 64,
            "time": 131.5234586458319,
            "value": 0
          },
          {
            "number": 64,
            "time": 131.5252968749986,
            "value": 1
          },
          {
            "number": 64,
            "time": 132.18522114583197,
            "value": 0
          },
          {
            "number": 64,
            "time": 132.405808645832,
            "value": 0
          },
          {
            "number": 64,
            "time": 132.40764687499868,
            "value": 1
          },
          {
            "number": 64,
            "time": 132.40764687499868,
            "value": 1
          },
          {
            "number": 64,
            "time": 133.288158645832,
            "value": 0
          },
          {
            "number": 64,
            "time": 133.288158645832,
            "value": 0
          },
          {
            "number": 64,
            "time": 133.28999687499868,
            "value": 1
          },
          {
            "number": 64,
            "time": 133.28999687499868,
            "value": 1
          },
          {
            "number": 64,
            "time": 134.170508645832,
            "value": 0
          },
          {
            "number": 64,
            "time": 134.170508645832,
            "value": 0
          },
          {
            "number": 64,
            "time": 134.17234687499868,
            "value": 1
          },
          {
            "number": 64,
            "time": 134.17234687499868,
            "value": 1
          },
          {
            "number": 64,
            "time": 134.83410937499875,
            "value": 1
          },
          {
            "number": 64,
            "time": 135.05285864583212,
            "value": 0
          },
          {
            "number": 64,
            "time": 135.05285864583212,
            "value": 0
          },
          {
            "number": 64,
            "time": 135.05285864583212,
            "value": 0
          },
          {
            "number": 64,
            "time": 135.0546968749988,
            "value": 1
          },
          {
            "number": 64,
            "time": 135.0546968749988,
            "value": 1
          },
          {
            "number": 64,
            "time": 135.0546968749988,
            "value": 1
          },
          {
            "number": 64,
            "time": 135.93520864583218,
            "value": 0
          },
          {
            "number": 64,
            "time": 135.93520864583218,
            "value": 0
          },
          {
            "number": 64,
            "time": 135.93520864583218,
            "value": 0
          },
          {
            "number": 64,
            "time": 135.93704687499886,
            "value": 1
          },
          {
            "number": 64,
            "time": 136.81755864583218,
            "value": 0
          },
          {
            "number": 64,
            "time": 136.81939687499886,
            "value": 1
          },
          {
            "number": 64,
            "time": 137.69990864583218,
            "value": 0
          },
          {
            "number": 64,
            "time": 137.70174687499886,
            "value": 1
          },
          {
            "number": 64,
            "time": 137.70174687499886,
            "value": 1
          },
          {
            "number": 64,
            "time": 138.58225864583227,
            "value": 0
          },
          {
            "number": 64,
            "time": 138.58409687499895,
            "value": 1
          },
          {
            "number": 64,
            "time": 139.46460864583236,
            "value": 0
          },
          {
            "number": 64,
            "time": 139.46644687499904,
            "value": 0
          },
          {
            "number": 64,
            "time": 139.46644687499904,
            "value": 1
          },
          {
            "number": 64,
            "time": 141.23114687499918,
            "value": 0
          },
          {
            "number": 64,
            "time": 147.8487718749993,
            "value": 1
          },
          {
            "number": 64,
            "time": 148.28994687499934,
            "value": 1
          },
          {
            "number": 64,
            "time": 149.17045864583267,
            "value": 0
          },
          {
            "number": 64,
            "time": 149.17229687499935,
            "value": 0
          },
          {
            "number": 64,
            "time": 149.17229687499935,
            "value": 1
          },
          {
            "number": 64,
            "time": 149.17229687499935,
            "value": 1
          },
          {
            "number": 64,
            "time": 150.05280864583264,
            "value": 0
          },
          {
            "number": 64,
            "time": 150.05280864583264,
            "value": 0
          },
          {
            "number": 64,
            "time": 150.05464687499932,
            "value": 1
          },
          {
            "number": 64,
            "time": 150.05464687499932,
            "value": 1
          },
          {
            "number": 64,
            "time": 150.9351586458327,
            "value": 0
          },
          {
            "number": 64,
            "time": 150.9351586458327,
            "value": 0
          },
          {
            "number": 64,
            "time": 150.93699687499938,
            "value": 1
          },
          {
            "number": 64,
            "time": 150.93699687499938,
            "value": 1
          },
          {
            "number": 64,
            "time": 150.93699687499938,
            "value": 1
          },
          {
            "number": 64,
            "time": 151.81750864583267,
            "value": 0
          },
          {
            "number": 64,
            "time": 151.81750864583267,
            "value": 0
          },
          {
            "number": 64,
            "time": 151.81750864583267,
            "value": 0
          },
          {
            "number": 64,
            "time": 151.81934687499935,
            "value": 1
          },
          {
            "number": 64,
            "time": 151.81934687499935,
            "value": 1
          },
          {
            "number": 64,
            "time": 152.84645742187433,
            "value": 0
          },
          {
            "number": 64,
            "time": 152.848295651041,
            "value": 1
          },
          {
            "number": 64,
            "time": 153.58404687499933,
            "value": 0
          },
          {
            "number": 64,
            "time": 153.58404687499933,
            "value": 1
          },
          {
            "number": 64,
            "time": 153.72880742187434,
            "value": 0
          },
          {
            "number": 64,
            "time": 153.73064565104102,
            "value": 1
          },
          {
            "number": 64,
            "time": 154.46455864583274,
            "value": 0
          },
          {
            "number": 64,
            "time": 154.46639687499942,
            "value": 1
          },
          {
            "number": 64,
            "time": 154.46639687499942,
            "value": 1
          },
          {
            "number": 64,
            "time": 154.6111574218744,
            "value": 0
          },
          {
            "number": 64,
            "time": 154.61299565104108,
            "value": 1
          },
          {
            "number": 64,
            "time": 155.34690864583277,
            "value": 0
          },
          {
            "number": 64,
            "time": 155.34690864583277,
            "value": 0
          },
          {
            "number": 64,
            "time": 155.34690864583277,
            "value": 0
          },
          {
            "number": 64,
            "time": 162.40754687499967,
            "value": 1
          },
          {
            "number": 64,
            "time": 162.40754687499967,
            "value": 1
          },
          {
            "number": 64,
            "time": 162.40754687499967,
            "value": 1
          },
          {
            "number": 64,
            "time": 163.28805864583302,
            "value": 0
          },
          {
            "number": 64,
            "time": 163.28805864583302,
            "value": 0
          },
          {
            "number": 64,
            "time": 163.28805864583302,
            "value": 0
          },
          {
            "number": 64,
            "time": 163.2898968749997,
            "value": 1
          },
          {
            "number": 64,
            "time": 163.2898968749997,
            "value": 1
          },
          {
            "number": 64,
            "time": 163.2898968749997,
            "value": 1
          },
          {
            "number": 64,
            "time": 164.1704086458331,
            "value": 0
          },
          {
            "number": 64,
            "time": 164.1704086458331,
            "value": 0
          },
          {
            "number": 64,
            "time": 164.1704086458331,
            "value": 0
          },
          {
            "number": 64,
            "time": 164.1722468749998,
            "value": 1
          },
          {
            "number": 64,
            "time": 164.1722468749998,
            "value": 1
          },
          {
            "number": 64,
            "time": 165.0527586458332,
            "value": 0
          },
          {
            "number": 64,
            "time": 165.0527586458332,
            "value": 0
          },
          {
            "number": 64,
            "time": 165.10974374999986,
            "value": 1
          },
          {
            "number": 64,
            "time": 165.10974374999986,
            "value": 1
          },
          {
            "number": 64,
            "time": 165.99025552083324,
            "value": 0
          },
          {
            "number": 64,
            "time": 165.99025552083324,
            "value": 0
          },
          {
            "number": 64,
            "time": 165.99209374999992,
            "value": 1
          },
          {
            "number": 64,
            "time": 165.99209374999992,
            "value": 1
          },
          {
            "number": 64,
            "time": 166.8726055208333,
            "value": 0
          },
          {
            "number": 64,
            "time": 166.87444374999998,
            "value": 1
          },
          {
            "number": 64,
            "time": 167.53620625000002,
            "value": 0
          },
          {
            "number": 64,
            "time": 167.75495552083336,
            "value": 0
          },
          {
            "number": 64,
            "time": 167.75679375000004,
            "value": 1
          },
          {
            "number": 64,
            "time": 167.75679375000004,
            "value": 1
          },
          {
            "number": 64,
            "time": 168.63730552083345,
            "value": 0
          },
          {
            "number": 64,
            "time": 168.63914375000013,
            "value": 1
          },
          {
            "number": 64,
            "time": 168.63914375000013,
            "value": 1
          },
          {
            "number": 64,
            "time": 168.7475992708335,
            "value": 0
          },
          {
            "number": 64,
            "time": 169.51965552083354,
            "value": 0
          },
          {
            "number": 64,
            "time": 169.51965552083354,
            "value": 0
          },
          {
            "number": 64,
            "time": 169.52149375000022,
            "value": 1
          },
          {
            "number": 64,
            "time": 170.40200552083354,
            "value": 0
          },
          {
            "number": 64,
            "time": 170.40384375000022,
            "value": 1
          },
          {
            "number": 64,
            "time": 170.40384375000022,
            "value": 1
          },
          {
            "number": 64,
            "time": 171.28435552083354,
            "value": 0
          },
          {
            "number": 64,
            "time": 171.28619375000022,
            "value": 0
          },
          {
            "number": 64,
            "time": 171.28619375000022,
            "value": 1
          },
          {
            "number": 64,
            "time": 171.28619375000022,
            "value": 1
          },
          {
            "number": 64,
            "time": 172.1667055208336,
            "value": 0
          },
          {
            "number": 64,
            "time": 172.1667055208336,
            "value": 0
          },
          {
            "number": 64,
            "time": 172.16854375000028,
            "value": 1
          },
          {
            "number": 64,
            "time": 172.16854375000028,
            "value": 1
          },
          {
            "number": 64,
            "time": 173.0490555208336,
            "value": 0
          },
          {
            "number": 64,
            "time": 173.0490555208336,
            "value": 0
          },
          {
            "number": 64,
            "time": 173.05089375000028,
            "value": 1
          },
          {
            "number": 64,
            "time": 173.9314055208336,
            "value": 0
          },
          {
            "number": 64,
            "time": 173.9332437500003,
            "value": 1
          },
          {
            "number": 64,
            "time": 173.9332437500003,
            "value": 1
          },
          {
            "number": 64,
            "time": 173.9332437500003,
            "value": 1
          },
          {
            "number": 64,
            "time": 174.8137555208336,
            "value": 0
          },
          {
            "number": 64,
            "time": 174.8137555208336,
            "value": 0
          },
          {
            "number": 64,
            "time": 174.8137555208336,
            "value": 0
          },
          {
            "number": 64,
            "time": 174.8155937500003,
            "value": 1
          },
          {
            "number": 64,
            "time": 174.8155937500003,
            "value": 1
          },
          {
            "number": 64,
            "time": 175.6961055208336,
            "value": 0
          },
          {
            "number": 64,
            "time": 175.6961055208336,
            "value": 0
          },
          {
            "number": 64,
            "time": 175.6979437500003,
            "value": 1
          },
          {
            "number": 64,
            "time": 175.6979437500003,
            "value": 1
          },
          {
            "number": 64,
            "time": 176.57845552083361,
            "value": 0
          },
          {
            "number": 64,
            "time": 176.57845552083361,
            "value": 0
          },
          {
            "number": 64,
            "time": 176.5802937500003,
            "value": 1
          },
          {
            "number": 64,
            "time": 176.5802937500003,
            "value": 1
          },
          {
            "number": 64,
            "time": 178.34499375000024,
            "value": 0
          },
          {
            "number": 64,
            "time": 178.34499375000024,
            "value": 1
          },
          {
            "number": 64,
            "time": 178.34499375000024,
            "value": 0
          },
          {
            "number": 64,
            "time": 178.34499375000024,
            "value": 1
          },
          {
            "number": 64,
            "time": 179.22550552083356,
            "value": 0
          },
          {
            "number": 64,
            "time": 179.22550552083356,
            "value": 0
          },
          {
            "number": 64,
            "time": 179.22734375000024,
            "value": 1
          },
          {
            "number": 64,
            "time": 179.22734375000024,
            "value": 1
          },
          {
            "number": 64,
            "time": 180.10785552083357,
            "value": 0
          },
          {
            "number": 64,
            "time": 180.10785552083357,
            "value": 0
          },
          {
            "number": 64,
            "time": 180.10969375000025,
            "value": 1
          },
          {
            "number": 64,
            "time": 180.10969375000025,
            "value": 1
          },
          {
            "number": 64,
            "time": 180.99020552083357,
            "value": 0
          },
          {
            "number": 64,
            "time": 180.99020552083357,
            "value": 0
          },
          {
            "number": 64,
            "time": 180.99204375000025,
            "value": 1
          },
          {
            "number": 64,
            "time": 180.99204375000025,
            "value": 1
          },
          {
            "number": 64,
            "time": 181.87255552083357,
            "value": 0
          },
          {
            "number": 64,
            "time": 181.87255552083357,
            "value": 0
          },
          {
            "number": 64,
            "time": 181.87439375000025,
            "value": 1
          },
          {
            "number": 64,
            "time": 181.87439375000025,
            "value": 1
          },
          {
            "number": 64,
            "time": 182.75490552083357,
            "value": 0
          },
          {
            "number": 64,
            "time": 182.75490552083357,
            "value": 0
          },
          {
            "number": 64,
            "time": 182.75674375000025,
            "value": 1
          },
          {
            "number": 64,
            "time": 182.75674375000025,
            "value": 1
          },
          {
            "number": 64,
            "time": 183.63725552083358,
            "value": 0
          },
          {
            "number": 64,
            "time": 183.63725552083358,
            "value": 0
          },
          {
            "number": 64,
            "time": 183.63909375000026,
            "value": 1
          },
          {
            "number": 64,
            "time": 183.63909375000026,
            "value": 1
          },
          {
            "number": 64,
            "time": 184.51960552083358,
            "value": 0
          },
          {
            "number": 64,
            "time": 184.51960552083358,
            "value": 0
          },
          {
            "number": 64,
            "time": 184.52144375000026,
            "value": 1
          },
          {
            "number": 64,
            "time": 184.52144375000026,
            "value": 1
          },
          {
            "number": 64,
            "time": 185.40195552083358,
            "value": 0
          },
          {
            "number": 64,
            "time": 185.40195552083358,
            "value": 0
          },
          {
            "number": 64,
            "time": 185.40379375000026,
            "value": 1
          },
          {
            "number": 64,
            "time": 185.40379375000026,
            "value": 1
          },
          {
            "number": 64,
            "time": 186.28430552083358,
            "value": 0
          },
          {
            "number": 64,
            "time": 186.28430552083358,
            "value": 0
          },
          {
            "number": 64,
            "time": 186.28614375000026,
            "value": 1
          },
          {
            "number": 64,
            "time": 186.28614375000026,
            "value": 1
          },
          {
            "number": 64,
            "time": 187.16665552083361,
            "value": 0
          },
          {
            "number": 64,
            "time": 187.16665552083361,
            "value": 0
          },
          {
            "number": 64,
            "time": 187.1684937500003,
            "value": 1
          },
          {
            "number": 64,
            "time": 187.1684937500003,
            "value": 1
          },
          {
            "number": 64,
            "time": 188.04900552083365,
            "value": 0
          },
          {
            "number": 64,
            "time": 188.04900552083365,
            "value": 0
          },
          {
            "number": 64,
            "time": 188.05084375000033,
            "value": 1
          },
          {
            "number": 64,
            "time": 188.05084375000033,
            "value": 1
          },
          {
            "number": 64,
            "time": 188.93135552083373,
            "value": 0
          },
          {
            "number": 64,
            "time": 188.93135552083373,
            "value": 0
          },
          {
            "number": 64,
            "time": 188.9331937500004,
            "value": 1
          },
          {
            "number": 64,
            "time": 188.9331937500004,
            "value": 1
          },
          {
            "number": 64,
            "time": 189.81370552083376,
            "value": 0
          },
          {
            "number": 64,
            "time": 189.81370552083376,
            "value": 0
          },
          {
            "number": 64,
            "time": 189.81554375000044,
            "value": 1
          },
          {
            "number": 64,
            "time": 189.81554375000044,
            "value": 1
          },
          {
            "number": 64,
            "time": 190.69605552083385,
            "value": 0
          },
          {
            "number": 64,
            "time": 190.69605552083385,
            "value": 0
          },
          {
            "number": 64,
            "time": 190.69789375000053,
            "value": 1
          },
          {
            "number": 64,
            "time": 190.69789375000053,
            "value": 1
          },
          {
            "number": 64,
            "time": 191.57840552083385,
            "value": 0
          },
          {
            "number": 64,
            "time": 191.57840552083385,
            "value": 0
          },
          {
            "number": 64,
            "time": 191.58024375000053,
            "value": 1
          },
          {
            "number": 64,
            "time": 191.58024375000053,
            "value": 1
          },
          {
            "number": 64,
            "time": 192.46075552083389,
            "value": 0
          },
          {
            "number": 64,
            "time": 192.46075552083389,
            "value": 0
          },
          {
            "number": 64,
            "time": 192.46259375000056,
            "value": 1
          },
          {
            "number": 64,
            "time": 192.46259375000056,
            "value": 1
          },
          {
            "number": 64,
            "time": 193.34310552083397,
            "value": 0
          },
          {
            "number": 64,
            "time": 193.34310552083397,
            "value": 0
          },
          {
            "number": 64,
            "time": 193.34494375000065,
            "value": 1
          },
          {
            "number": 64,
            "time": 193.34494375000065,
            "value": 1
          },
          {
            "number": 64,
            "time": 194.22545552083392,
            "value": 0
          },
          {
            "number": 64,
            "time": 194.22545552083392,
            "value": 0
          },
          {
            "number": 64,
            "time": 194.2272937500006,
            "value": 1
          },
          {
            "number": 64,
            "time": 194.2272937500006,
            "value": 1
          },
          {
            "number": 64,
            "time": 195.107805520834,
            "value": 0
          },
          {
            "number": 64,
            "time": 195.107805520834,
            "value": 0
          },
          {
            "number": 64,
            "time": 195.10964375000069,
            "value": 1
          },
          {
            "number": 64,
            "time": 195.10964375000069,
            "value": 1
          },
          {
            "number": 64,
            "time": 195.9901555208341,
            "value": 0
          },
          {
            "number": 64,
            "time": 195.9901555208341,
            "value": 0
          },
          {
            "number": 64,
            "time": 195.99199375000077,
            "value": 1
          },
          {
            "number": 64,
            "time": 195.99199375000077,
            "value": 1
          },
          {
            "number": 64,
            "time": 196.87250552083418,
            "value": 0
          },
          {
            "number": 64,
            "time": 196.87250552083418,
            "value": 0
          },
          {
            "number": 64,
            "time": 196.87434375000086,
            "value": 1
          },
          {
            "number": 64,
            "time": 196.87434375000086,
            "value": 1
          },
          {
            "number": 64,
            "time": 197.75485552083427,
            "value": 0
          },
          {
            "number": 64,
            "time": 197.75485552083427,
            "value": 0
          },
          {
            "number": 64,
            "time": 197.75669375000095,
            "value": 1
          },
          {
            "number": 64,
            "time": 197.75669375000095,
            "value": 1
          },
          {
            "number": 64,
            "time": 198.63720552083427,
            "value": 0
          },
          {
            "number": 64,
            "time": 198.63720552083427,
            "value": 0
          },
          {
            "number": 64,
            "time": 198.63904375000095,
            "value": 1
          },
          {
            "number": 64,
            "time": 198.63904375000095,
            "value": 1
          },
          {
            "number": 64,
            "time": 199.51955552083427,
            "value": 0
          },
          {
            "number": 64,
            "time": 199.51955552083427,
            "value": 0
          }
        ],
        "91": [
          {
            "number": 91,
            "time": 1.323525,
            "value": 0.3779527559055118
          },
          {
            "number": 91,
            "time": 1.323525,
            "value": 0.3779527559055118
          }
        ],
        "121": [
          {
            "number": 121,
            "time": 1.323525,
            "value": 0
          },
          {
            "number": 121,
            "time": 1.323525,
            "value": 0
          }
        ]
      },
      "id": 1,
      "name": "Piano",
      "instrumentNumber": 0,
      "instrument": "acoustic grand piano",
      "instrumentFamily": "piano",
      "channelNumber": 1,
      "isPercussion": false
    }
  ]
}